<svg width="183" height="119" viewBox="0 0 183 119" fill="none" xmlns="http://www.w3.org/2000/svg">
<path d="M50.3922 118.193H49.8673C49.8673 111.65 47.268 105.375 42.6413 100.748C38.0145 96.1214 31.7393 93.5221 25.1961 93.5221C18.6529 93.5221 12.3777 96.1214 7.75094 100.748C3.1242 105.375 0.524919 111.65 0.524919 118.193H0C9.95759e-08 111.511 2.65458 105.102 7.37977 100.377C12.105 95.6518 18.5137 92.9972 25.1961 92.9972C31.8785 92.9972 38.2873 95.6518 43.0125 100.377C47.7376 105.102 50.3922 111.511 50.3922 118.193Z" fill="#4A3A2F"/>
<path d="M171.386 58.0901H170.862C170.862 33.1981 150.61 12.947 125.719 12.947C100.826 12.947 80.5755 33.1981 80.5755 58.0901H80.0505C80.0505 32.9087 100.537 12.4221 125.719 12.4221C150.9 12.4221 171.386 32.9087 171.386 58.0901Z" fill="#4A3A2F"/>
<path d="M40.3899 74.7257L58.2007 53.5145H93.2178L114.617 74.358L114.185 74.636H114.339V117.99H40.4143V74.636L40.3899 74.7257Z" fill="#4A3A2F"/>
<path d="M51.1061 65.5042H55.1436V51.5285H51.1061V65.5042Z" fill="#4A3A2F"/>
<path d="M57.923 53.2367L79.878 78.9769V117.99H40.4143V74.0802L57.923 53.2367Z" fill="#C4A287"/>
<path d="M74.8044 84.085H66.7449V92.3257H74.8044V84.085Z" fill="#3F3D56"/>
<path d="M74.8044 95.2981H66.7449V103.539H74.8044V95.2981Z" fill="#3F3D56"/>
<path d="M74.8044 84.085H66.7449V92.3257H74.8044V84.085Z" fill="white"/>
<path d="M74.8044 95.2981H66.7449V103.539H74.8044V95.2981Z" fill="white"/>
<path d="M63.6584 84.085H55.5989V92.3257H63.6584V84.085Z" fill="#3F3D56"/>
<path d="M63.6584 95.2981H55.5989V103.539H63.6584V95.2981Z" fill="#3F3D56"/>
<path d="M63.6584 84.085H55.5989V92.3257H63.6584V84.085Z" fill="white"/>
<path d="M63.6584 95.2981H55.5989V103.539H63.6584V95.2981Z" fill="white"/>
<path d="M52.5124 84.085H44.4529V92.3257H52.5124V84.085Z" fill="#3F3D56"/>
<path d="M52.5124 95.2981H44.4529V103.539H52.5124V95.2981Z" fill="#3F3D56"/>
<path d="M52.5124 84.085H44.4529V92.3257H52.5124V84.085Z" fill="white"/>
<path d="M52.5124 95.2981H44.4529V103.539H52.5124V95.2981Z" fill="white"/>
<path d="M130.967 3.49841H127.293V12.6845H130.967V3.49841Z" fill="#C4A287"/>
<path d="M130.705 11.8971H99.4727V118.193H130.705V11.8971Z" fill="#C4A287"/>
<path d="M143.303 11.8971H130.705V118.193H143.303V11.8971Z" fill="#4A3A2F"/>
<path d="M109.84 21.0833H105.116V25.8075H109.84V21.0833Z" fill="white"/>
<path d="M117.45 21.0833H112.726V25.8075H117.45V21.0833Z" fill="white"/>
<path d="M125.062 21.0833H120.338V25.8075H125.062V21.0833Z" fill="white"/>
<path d="M109.97 31.8441H105.245V36.5684H109.97V31.8441Z" fill="white"/>
<path d="M117.583 31.8441H112.859V36.5684H117.583V31.8441Z" fill="white"/>
<path d="M125.193 31.8441H120.468V36.5684H125.193V31.8441Z" fill="white"/>
<path d="M110.102 42.605H105.378V47.3293H110.102V42.605Z" fill="white"/>
<path d="M117.714 42.605H112.99V47.3293H117.714V42.605Z" fill="white"/>
<path d="M125.325 42.605H120.601V47.3293H125.325V42.605Z" fill="white"/>
<path d="M110.233 53.3657H105.509V58.09H110.233V53.3657Z" fill="white"/>
<path d="M117.845 53.3657H113.12V58.09H117.845V53.3657Z" fill="white"/>
<path d="M125.456 53.3657H120.732V58.09H125.456V53.3657Z" fill="white"/>
<path d="M110.364 64.1266H105.64V68.8509H110.364V64.1266Z" fill="white"/>
<path d="M117.975 64.1266H113.251V68.8509H117.975V64.1266Z" fill="white"/>
<path d="M125.587 64.1266H120.863V68.8509H125.587V64.1266Z" fill="white"/>
<path d="M110.495 74.8875H105.771V79.6117H110.495V74.8875Z" fill="white"/>
<path d="M118.106 74.8875H113.382V79.6117H118.106V74.8875Z" fill="white"/>
<path d="M125.718 74.8875H120.993V79.6117H125.718V74.8875Z" fill="white"/>
<path d="M110.627 85.6483H105.903V90.3726H110.627V85.6483Z" fill="white"/>
<path d="M118.237 85.6483H113.513V90.3726H118.237V85.6483Z" fill="white"/>
<path d="M125.85 85.6483H121.126V90.3726H125.85V85.6483Z" fill="white"/>
<path d="M110.758 96.4091H106.034V101.133H110.758V96.4091Z" fill="white"/>
<path d="M118.37 96.4091H113.646V101.133H118.37V96.4091Z" fill="white"/>
<path d="M118.37 109.007H113.646V117.931H118.37V109.007Z" fill="white"/>
<path d="M125.979 96.4091H121.255V101.133H125.979V96.4091Z" fill="white"/>
<path d="M132.805 3.49841H130.705V12.422H132.805V3.49841Z" fill="#4A3A2F"/>
<path d="M170.337 50.2162H166.662V55.6606H170.337V50.2162Z" fill="#C4A287"/>
<path d="M170.075 55.194H138.842V118.193H170.075V55.194Z" fill="#C4A287"/>
<path d="M182.673 55.194H170.075V118.193H182.673V55.194Z" fill="#4A3A2F"/>
<path d="M149.733 64.1266H145.009V68.8509H149.733V64.1266Z" fill="white"/>
<path d="M157.345 64.1266H152.621V68.8509H157.345V64.1266Z" fill="white"/>
<path d="M164.956 64.1266H160.232V68.8509H164.956V64.1266Z" fill="white"/>
<path d="M149.864 74.8875H145.14V79.6117H149.864V74.8875Z" fill="white"/>
<path d="M157.476 74.8875H152.751V79.6117H157.476V74.8875Z" fill="white"/>
<path d="M165.087 74.8875H160.363V79.6117H165.087V74.8875Z" fill="white"/>
<path d="M149.995 85.6483H145.271V90.3726H149.995V85.6483Z" fill="white"/>
<path d="M157.606 85.6483H152.882V90.3726H157.606V85.6483Z" fill="white"/>
<path d="M165.218 85.6483H160.494V90.3726H165.218V85.6483Z" fill="white"/>
<path d="M150.126 96.4091H145.402V101.133H150.126V96.4091Z" fill="white"/>
<path d="M157.739 96.4091H153.015V101.133H157.739V96.4091Z" fill="white"/>
<path d="M157.739 109.007H153.015V117.931H157.739V109.007Z" fill="white"/>
<path d="M165.349 96.4091H160.625V101.133H165.349V96.4091Z" fill="white"/>
<path d="M172.174 50.2162H170.075V55.505H172.174V50.2162Z" fill="#4A3A2F"/>
<path d="M7.01562 98.782H7.03452L7.3723 118.159H6.65894L7.01562 98.782Z" fill="#4A3A2F"/>
<path d="M8.26096 109.337L8.10352 109.037L6.97373 109.632L7.13118 109.931L8.26096 109.337Z" fill="#4A3A2F"/>
<path d="M159.16 2.79922L161.576 0.866784C159.699 0.659704 158.928 1.68337 158.612 2.4936C157.146 1.8847 155.55 2.6827 155.55 2.6827L160.384 4.43769C160.14 3.78629 159.715 3.21792 159.16 2.79922Z" fill="#4A3A2F"/>
<path d="M180.246 21.2056L182.662 19.2732C180.786 19.0661 180.014 20.0897 179.699 20.9C178.232 20.2911 176.636 21.0891 176.636 21.0891L181.47 22.8441C181.226 22.1927 180.802 21.6243 180.246 21.2056Z" fill="#4A3A2F"/>
<path d="M156.273 39.281L158.689 37.3486C156.812 37.1415 156.041 38.1652 155.725 38.9754C154.259 38.3665 152.662 39.1645 152.662 39.1645L157.497 40.9195C157.253 40.2681 156.828 39.6997 156.273 39.281Z" fill="#4A3A2F"/>
<path d="M27.8213 112.682H11.5488V113.207H14.0865V118.193H14.6115V113.207H24.4962V118.193H25.0211V113.207H27.8213V112.682Z" fill="#4A3A2F"/>
<path d="M44.3557 114.781C43.7135 114.781 43.0825 114.95 42.5265 115.272C41.9619 114.761 41.2611 114.426 40.5093 114.306C39.7576 114.185 38.9871 114.286 38.2915 114.596C37.5959 114.905 37.005 115.409 36.5906 116.048C36.1762 116.687 35.9561 117.432 35.957 118.193H48.0169C47.9512 117.267 47.537 116.4 46.8576 115.767C46.1783 115.134 45.2843 114.782 44.3557 114.781Z" fill="#4A3A2F"/>
<path d="M106.558 114.781C105.915 114.781 105.284 114.95 104.728 115.272C104.164 114.761 103.463 114.426 102.711 114.306C101.959 114.185 101.189 114.286 100.493 114.596C99.7978 114.905 99.2069 115.409 98.7925 116.048C98.3781 116.687 98.158 117.432 98.1589 118.193H110.219C110.153 117.267 109.739 116.4 109.06 115.767C108.38 115.134 107.486 114.782 106.558 114.781Z" fill="#4A3A2F"/>
<path d="M147.241 114.781C146.598 114.781 145.968 114.95 145.412 115.272C144.847 114.761 144.146 114.426 143.394 114.306C142.643 114.185 141.872 114.286 141.176 114.596C140.481 114.905 139.89 115.409 139.476 116.048C139.061 116.687 138.841 117.432 138.842 118.193H150.902C150.836 117.267 150.422 116.4 149.743 115.767C149.063 115.134 148.169 114.782 147.241 114.781Z" fill="#4A3A2F"/>
<path d="M33.8568 99.8212H29.6575V104.021H31.6041V118.17H32.1291V104.021H33.8568V99.8212Z" fill="#4A3A2F"/>
<path d="M27.8528 111.111H11.5803V111.636H27.8528V111.111Z" fill="#4A3A2F"/>
<path d="M27.8528 109.799H11.5803V110.324H27.8528V109.799Z" fill="#4A3A2F"/>
<path d="M27.8528 108.487H11.5803V109.011H27.8528V108.487Z" fill="#4A3A2F"/>
</svg>
