<svg width="21" height="21" viewBox="0 0 21 21" fill="none" xmlns="http://www.w3.org/2000/svg">
<path d="M19.9493 6.36448H17.9341L17.3684 1.11893C17.2874 0.41465 16.7612 -0.0791369 16.1871 0.0105057L0.912328 2.49854C0.635512 2.54417 0.384832 2.72335 0.215713 2.99658C0.0458493 3.26799 -0.0283128 3.61176 0.00977519 3.95091L1.29864 15.8974C1.36711 16.5407 1.81335 17.0218 2.34128 17.0213C2.38651 17.0212 2.43164 17.0174 2.47647 17.0101L3.4883 16.8461V19.7086C3.4883 20.4218 3.95871 21 4.539 21H19.9493C20.5296 21 21 20.4218 21 19.7086V7.65585C21 6.94263 20.5296 6.36448 19.9493 6.36448ZM17.2276 6.36448H14.4927L17.1803 5.9267L17.2276 6.36448ZM0.703239 3.83468C0.690937 3.72233 0.715891 3.60858 0.772585 3.51916C0.828929 3.42709 0.912941 3.36661 1.00584 3.35128L16.2778 0.864101C16.4699 0.834184 16.646 0.998834 16.6739 1.23429L16.8123 2.51619L0.841581 5.11916L0.703239 3.83468ZM3.4883 15.9779L2.38646 16.1565C2.19471 16.1878 2.01863 16.0221 1.99315 15.7865C1.99315 15.7864 1.99315 15.7864 1.99315 15.7863L1.21178 8.52967L3.4883 8.15991V15.9779ZM3.53453 7.28436L1.11792 7.67608L0.934043 5.97319L16.9047 3.36979L17.0098 4.3564L17.0875 5.07311L9.16209 6.36448H4.539C4.07582 6.3655 3.66779 6.73913 3.53453 7.28436ZM20.2995 19.7086C20.2995 19.9464 20.1427 20.1391 19.9493 20.1391H4.539C4.34558 20.1391 4.18877 19.9464 4.18877 19.7086V7.66876C4.18877 7.66445 4.19052 7.66015 4.19052 7.65585C4.19052 7.41813 4.34734 7.22539 4.54075 7.22539H19.9493C20.1427 7.22539 20.2995 7.41813 20.2995 7.65585V19.7086Z" fill="#CFCFCF"/>
<path d="M15.3776 12.8313C15.5184 12.7036 15.6428 12.5507 15.7467 12.3776C16.3226 13.3303 17.4177 13.5288 18.1929 12.8211C18.968 12.1133 19.1295 10.7673 18.5536 9.81464C18.2232 9.26807 17.7017 8.9463 17.1477 8.94727C16.5943 8.94915 16.0745 9.27355 15.7467 9.82153C15.1724 8.86511 14.0761 8.66198 13.2979 9.36782C12.5197 10.0737 12.3544 11.4212 12.9287 12.3776C13.503 13.334 14.5994 13.5372 15.3776 12.8313ZM17.1477 9.80818C17.728 9.80818 18.1984 10.3863 18.1984 11.0996C18.1984 11.8128 17.728 12.3909 17.1477 12.3909C16.5674 12.3909 16.097 11.8128 16.097 11.0996C16.097 10.3863 16.5674 9.80818 17.1477 9.80818ZM14.3458 9.80818C14.9261 9.80818 15.3965 10.3863 15.3965 11.0996C15.3965 11.8128 14.9261 12.3909 14.3458 12.3909C13.7655 12.3909 13.2951 11.8128 13.2951 11.0996C13.2951 10.3863 13.7655 9.80818 14.3458 9.80818Z" fill="#CFCFCF"/>
<path d="M6.29007 9.37769H5.5896V10.2386H6.29007V9.37769Z" fill="#CFCFCF"/>
<path d="M11.1933 9.37769H6.99048V10.2386H11.1933V9.37769Z" fill="#CFCFCF"/>
<path d="M11.1933 11.0995H5.5896V11.9604H11.1933V11.0995Z" fill="#CFCFCF"/>
<path d="M18.5483 14.9736H5.93983C5.74642 14.9736 5.5896 15.1664 5.5896 15.4041V17.9868C5.5896 18.2245 5.74642 18.4173 5.93983 18.4173H18.5483C18.7417 18.4173 18.8985 18.2245 18.8985 17.9868V15.4041C18.8985 15.1664 18.7417 14.9736 18.5483 14.9736ZM18.198 17.5564H6.29007V15.8345H18.198V17.5564Z" fill="#CFCFCF"/>
</svg>
