<svg width="36" height="36" viewBox="0 0 36 36" fill="none" xmlns="http://www.w3.org/2000/svg">
<path d="M27.1406 16.1719C27.9173 16.1719 28.5469 15.5423 28.5469 14.7656C28.5469 13.989 27.9173 13.3594 27.1406 13.3594C26.364 13.3594 25.7344 13.989 25.7344 14.7656C25.7344 15.5423 26.364 16.1719 27.1406 16.1719Z" fill="#989595"/>
<path d="M30.375 2.8125H28.5469V1.40625C28.5469 0.629578 27.9173 0 27.1406 0C26.364 0 25.7344 0.629578 25.7344 1.40625V2.8125H19.3359V1.40625C19.3359 0.629578 18.7064 0 17.9297 0C17.153 0 16.5234 0.629578 16.5234 1.40625V2.8125H10.1953V1.40625C10.1953 0.629578 9.56573 0 8.78906 0C8.01239 0 7.38281 0.629578 7.38281 1.40625V2.8125H5.625C2.52338 2.8125 0 5.33588 0 8.4375V30.375C0 33.4766 2.52338 36 5.625 36H16.3828C17.1595 36 17.7891 35.3704 17.7891 34.5938C17.7891 33.8171 17.1595 33.1875 16.3828 33.1875H5.625C4.07419 33.1875 2.8125 31.9258 2.8125 30.375V8.4375C2.8125 6.88669 4.07419 5.625 5.625 5.625H7.38281V7.03125C7.38281 7.80792 8.01239 8.4375 8.78906 8.4375C9.56573 8.4375 10.1953 7.80792 10.1953 7.03125V5.625H16.5234V7.03125C16.5234 7.80792 17.153 8.4375 17.9297 8.4375C18.7064 8.4375 19.3359 7.80792 19.3359 7.03125V5.625H25.7344V7.03125C25.7344 7.80792 26.364 8.4375 27.1406 8.4375C27.9173 8.4375 28.5469 7.80792 28.5469 7.03125V5.625H30.375C31.9258 5.625 33.1875 6.88669 33.1875 8.4375V16.4531C33.1875 17.2298 33.8171 17.8594 34.5938 17.8594C35.3704 17.8594 36 17.2298 36 16.4531V8.4375C36 5.33588 33.4766 2.8125 30.375 2.8125Z" fill="#989595"/>
<path d="M27.4922 18.9844C22.8009 18.9844 18.9844 22.8009 18.9844 27.4922C18.9844 32.1834 22.8009 36 27.4922 36C32.1834 36 36 32.1834 36 27.4922C36 22.8009 32.1834 18.9844 27.4922 18.9844ZM27.4922 33.1875C24.3518 33.1875 21.7969 30.6326 21.7969 27.4922C21.7969 24.3517 24.3518 21.7969 27.4922 21.7969C30.6326 21.7969 33.1875 24.3517 33.1875 27.4922C33.1875 30.6326 30.6326 33.1875 27.4922 33.1875Z" fill="#989595"/>
<path d="M29.5312 26.0859H28.8984V24.6094C28.8984 23.8327 28.2689 23.2031 27.4922 23.2031C26.7155 23.2031 26.0859 23.8327 26.0859 24.6094V27.4922C26.0859 28.2689 26.7155 28.8984 27.4922 28.8984H29.5312C30.3079 28.8984 30.9375 28.2689 30.9375 27.4922C30.9375 26.7155 30.3079 26.0859 29.5312 26.0859Z" fill="#989595"/>
<path d="M21.0234 16.1719C21.8001 16.1719 22.4297 15.5423 22.4297 14.7656C22.4297 13.989 21.8001 13.3594 21.0234 13.3594C20.2468 13.3594 19.6172 13.989 19.6172 14.7656C19.6172 15.5423 20.2468 16.1719 21.0234 16.1719Z" fill="#989595"/>
<path d="M14.9062 22.2891C15.6829 22.2891 16.3125 21.6595 16.3125 20.8828C16.3125 20.1062 15.6829 19.4766 14.9062 19.4766C14.1296 19.4766 13.5 20.1062 13.5 20.8828C13.5 21.6595 14.1296 22.2891 14.9062 22.2891Z" fill="#989595"/>
<path d="M8.78906 16.1719C9.56571 16.1719 10.1953 15.5423 10.1953 14.7656C10.1953 13.989 9.56571 13.3594 8.78906 13.3594C8.01241 13.3594 7.38281 13.989 7.38281 14.7656C7.38281 15.5423 8.01241 16.1719 8.78906 16.1719Z" fill="#989595"/>
<path d="M8.78906 22.2891C9.56571 22.2891 10.1953 21.6595 10.1953 20.8828C10.1953 20.1062 9.56571 19.4766 8.78906 19.4766C8.01241 19.4766 7.38281 20.1062 7.38281 20.8828C7.38281 21.6595 8.01241 22.2891 8.78906 22.2891Z" fill="#989595"/>
<path d="M8.78906 28.4062C9.56571 28.4062 10.1953 27.7767 10.1953 27C10.1953 26.2233 9.56571 25.5938 8.78906 25.5938C8.01241 25.5938 7.38281 26.2233 7.38281 27C7.38281 27.7767 8.01241 28.4062 8.78906 28.4062Z" fill="#989595"/>
<path d="M14.9062 28.4062C15.6829 28.4062 16.3125 27.7767 16.3125 27C16.3125 26.2233 15.6829 25.5938 14.9062 25.5938C14.1296 25.5938 13.5 26.2233 13.5 27C13.5 27.7767 14.1296 28.4062 14.9062 28.4062Z" fill="#989595"/>
<path d="M14.9062 16.1719C15.6829 16.1719 16.3125 15.5423 16.3125 14.7656C16.3125 13.989 15.6829 13.3594 14.9062 13.3594C14.1296 13.3594 13.5 13.989 13.5 14.7656C13.5 15.5423 14.1296 16.1719 14.9062 16.1719Z" fill="#989595"/>
</svg>
