<svg width="14" height="14" viewBox="0 0 14 14" fill="none" xmlns="http://www.w3.org/2000/svg">
<g clip-path="url(#clip0)">
<path d="M12.2355 1.08279H11.5858V0H10.503V1.08279H3.35663V0H2.27385V1.08279H1.62418C0.728606 1.08279 0 1.81139 0 2.70696V12.2355C0 13.131 0.728606 13.8596 1.62418 13.8596H12.2355C13.131 13.8596 13.8596 13.131 13.8596 12.2355V2.70696C13.8596 1.81139 13.131 1.08279 12.2355 1.08279ZM12.7769 12.2355C12.7769 12.534 12.534 12.7769 12.2355 12.7769H1.62418C1.32565 12.7769 1.08279 12.534 1.08279 12.2355V5.08909H12.7769V12.2355ZM12.7769 4.0063H1.08279V2.70696C1.08279 2.40844 1.32565 2.16557 1.62418 2.16557H2.27385V3.24836H3.35663V2.16557H10.503V3.24836H11.5858V2.16557H12.2355C12.534 2.16557 12.7769 2.40844 12.7769 2.70696V4.0063Z" fill="#C4A287"/>
<path d="M3.13991 6.22607H2.05713V7.30886H3.13991V6.22607Z" fill="#C4A287"/>
<path d="M5.3055 6.22607H4.22272V7.30886H5.3055V6.22607Z" fill="#C4A287"/>
<path d="M7.47103 6.22607H6.38824V7.30886H7.47103V6.22607Z" fill="#C4A287"/>
<path d="M9.63662 6.22607H8.55383V7.30886H9.63662V6.22607Z" fill="#C4A287"/>
<path d="M11.8022 6.22607H10.7194V7.30886H11.8022V6.22607Z" fill="#C4A287"/>
<path d="M3.13991 8.3916H2.05713V9.47439H3.13991V8.3916Z" fill="#C4A287"/>
<path d="M5.3055 8.3916H4.22272V9.47439H5.3055V8.3916Z" fill="#C4A287"/>
<path d="M7.47103 8.3916H6.38824V9.47439H7.47103V8.3916Z" fill="#C4A287"/>
<path d="M9.63662 8.3916H8.55383V9.47439H9.63662V8.3916Z" fill="#C4A287"/>
<path d="M3.13991 10.5571H2.05713V11.6399H3.13991V10.5571Z" fill="#C4A287"/>
<path d="M5.3055 10.5571H4.22272V11.6399H5.3055V10.5571Z" fill="#C4A287"/>
<path d="M7.47103 10.5571H6.38824V11.6399H7.47103V10.5571Z" fill="#C4A287"/>
<path d="M9.63662 10.5571H8.55383V11.6399H9.63662V10.5571Z" fill="#C4A287"/>
<path d="M11.8022 8.3916H10.7194V9.47439H11.8022V8.3916Z" fill="#C4A287"/>
</g>
<defs>
<clipPath id="clip0">
<rect width="13.8596" height="13.8596" fill="white"/>
</clipPath>
</defs>
</svg>
