<svg width="17" height="17" viewBox="0 0 17 17" fill="none" xmlns="http://www.w3.org/2000/svg">
<g clip-path="url(#clip0)">
<path d="M15.4021 3.79981L15.0268 2.67467C14.8838 2.24614 14.4842 1.95821 14.0326 1.95821H10.8779V0.931114C10.8779 0.417763 10.4606 0 9.94734 0H7.05841C6.54531 0 6.12781 0.417763 6.12781 0.931114V1.95821H2.97325C2.52151 1.95821 2.12191 2.24614 1.97898 2.67467L1.60363 3.79981C1.51815 4.05597 1.56147 4.33962 1.71932 4.55869C1.87716 4.77775 2.13254 4.90862 2.40258 4.90862H2.79492L3.65846 15.5869C3.72266 16.3793 4.39502 17 5.18943 17H11.9915C12.7858 17 13.4583 16.3793 13.5224 15.5868L14.3859 4.90862H14.6032C14.8732 4.90862 15.1286 4.77775 15.2864 4.55882C15.4443 4.33975 15.4876 4.05597 15.4021 3.79981ZM7.1239 0.996094H9.88184V1.95821H7.1239V0.996094ZM12.5295 15.5065C12.507 15.7855 12.2706 16.0039 11.9915 16.0039H5.18943C4.91032 16.0039 4.67401 15.7855 4.65144 15.5065L3.79425 4.90862H13.3866L12.5295 15.5065ZM2.61619 3.91252L2.92397 2.98984C2.93097 2.96857 2.95082 2.9543 2.97325 2.9543H14.0326C14.0551 2.9543 14.0748 2.96857 14.0819 2.98984L14.3897 3.91252H2.61619Z" fill="#6F716F"/>
<path d="M10.9414 15.4711C10.9502 15.4717 10.9589 15.4718 10.9677 15.4718C11.2309 15.4718 11.4508 15.2656 11.4646 14.9997L11.9323 6.02162C11.9466 5.74691 11.7354 5.51254 11.4608 5.49828C11.1855 5.48362 10.9519 5.69503 10.9375 5.96974L10.4699 14.9478C10.4557 15.2225 10.6667 15.4569 10.9414 15.4711Z" fill="#6F716F"/>
<path d="M5.56422 15.0008C5.57875 15.2663 5.79846 15.4717 6.0611 15.4717C6.07018 15.4717 6.07952 15.4714 6.08873 15.4709C6.3633 15.456 6.57381 15.2213 6.55889 14.9466L6.06901 5.96848C6.0541 5.69377 5.81934 5.48327 5.54464 5.49832C5.27006 5.51323 5.05956 5.74799 5.07448 6.02269L5.56422 15.0008Z" fill="#6F716F"/>
<path d="M8.5083 15.4717C8.78339 15.4717 9.00635 15.2488 9.00635 14.9737V5.99561C9.00635 5.72051 8.78339 5.49756 8.5083 5.49756C8.23321 5.49756 8.01025 5.72051 8.01025 5.99561V14.9737C8.01025 15.2488 8.23321 15.4717 8.5083 15.4717Z" fill="#6F716F"/>
</g>
<defs>
<clipPath id="clip0">
<rect width="17" height="17" fill="white"/>
</clipPath>
</defs>
</svg>
