<svg width="20" height="19" viewBox="0 0 20 19" fill="none" xmlns="http://www.w3.org/2000/svg">
<path d="M4.71051 14.0674C4.73456 14.0761 4.75962 14.0817 4.78509 14.0841H4.79152H4.79602C5.06981 14.1352 5.3476 14.1619 5.62612 14.1638C6.05226 14.1644 6.47644 14.1062 6.88669 13.9909C7.00025 13.9623 7.08933 13.8743 7.11923 13.7611C7.14912 13.6479 7.11511 13.5274 7.03044 13.4465C6.94577 13.3657 6.82383 13.3372 6.71212 13.3723C6.35863 13.4713 5.99321 13.5213 5.62612 13.5208C5.46069 13.5202 5.29546 13.5095 5.13134 13.4887C5.20668 12.8914 5.46885 12.3331 5.88042 11.8938C7.08735 10.567 7.08735 8.53994 5.88042 7.21315C5.46537 6.68622 5.11173 6.2297 5.11173 5.26844C5.11173 4.30718 5.46762 3.85387 5.8801 3.32566C6.34961 2.80719 6.65404 2.16061 6.75455 1.4684C8.7581 2.03905 10.3212 4.08856 10.572 6.68461C10.583 6.79896 10.6542 6.89873 10.7587 6.94635C10.8632 6.99397 10.9852 6.98221 11.0788 6.91549C11.1723 6.84877 11.2231 6.73723 11.212 6.62289C10.9176 3.57257 8.95163 1.2022 6.48611 0.74665C6.47904 0.74665 6.47325 0.742149 6.46618 0.742149H6.46328C6.1872 0.690238 5.90703 0.663125 5.62612 0.661133C2.52404 0.661133 0 3.68959 0 7.41247C0 10.7602 2.04308 13.5388 4.71051 14.0674ZM0.642985 7.41247C0.642985 4.0442 2.87832 1.30412 5.62612 1.30412C5.79154 1.30494 5.95676 1.31567 6.12089 1.33627C6.04556 1.93348 5.78338 2.4916 5.37182 2.93087C4.16488 4.25766 4.16488 6.28469 5.37182 7.61148C5.78461 8.13969 6.14115 8.59621 6.14115 9.55747C6.14115 10.5187 5.78526 10.972 5.37278 11.5002C4.90309 12.0184 4.59843 12.6648 4.49768 13.3569C2.29256 12.7277 0.642985 10.3059 0.642985 7.41247Z" fill="#575957"/>
<path d="M1.80289 9.37146C1.82867 9.37136 1.85436 9.36823 1.87941 9.36214C2.05189 9.32013 2.15767 9.14627 2.11571 8.97378C1.67269 7.15542 2.01411 5.29076 3.02939 3.98389C3.13454 3.84356 3.10784 3.64485 2.96938 3.53725C2.83091 3.42965 2.63176 3.45286 2.52175 3.58942C1.3872 5.049 1.00206 7.11877 1.49072 9.12616C1.52583 9.27009 1.65475 9.37139 1.80289 9.37146Z" fill="#575957"/>
<path d="M13.5041 7.09106C10.3082 7.09106 7.71729 9.68193 7.71729 12.8779C7.71729 16.0739 10.3082 18.6648 13.5041 18.6648C16.7001 18.6648 19.291 16.0739 19.291 12.8779C19.2873 9.68347 16.6986 7.09478 13.5041 7.09106ZM18.648 12.8779C18.648 15.7188 16.345 18.0218 13.5041 18.0218C10.6633 18.0218 8.36027 15.7188 8.36027 12.8779C8.36027 10.037 10.6633 7.73405 13.5041 7.73405C16.3436 7.73742 18.6447 10.0384 18.648 12.8779Z" fill="#575957"/>
<path d="M9.00049 12.8777C9.00049 15.3635 11.0156 17.3786 13.5014 17.3786C15.9872 17.3786 18.0023 15.3635 18.0023 12.8777C18.0023 10.3919 15.9872 8.37683 13.5014 8.37683C11.0167 8.37949 9.00315 10.3931 9.00049 12.8777ZM17.3593 12.8777C17.3593 15.0084 15.632 16.7356 13.5014 16.7356C11.3707 16.7356 9.64347 15.0084 9.64347 12.8777C9.64347 10.7471 11.3707 9.01982 13.5014 9.01982C15.6311 9.02212 17.357 10.748 17.3593 12.8777Z" fill="#575957"/>
<path d="M13.8234 10.6275C13.8234 10.45 13.6795 10.306 13.5019 10.306C13.3244 10.306 13.1804 10.45 13.1804 10.6275V12.878C13.1804 13.0555 13.3244 13.1995 13.5019 13.1995H15.7524C15.9299 13.1995 16.0739 13.0555 16.0739 12.878C16.0739 12.7004 15.9299 12.5565 15.7524 12.5565H13.8234V10.6275Z" fill="#575957"/>
<path d="M3.53658 3.23307C3.71414 3.23307 3.85807 3.08914 3.85807 2.91158C3.85807 2.73402 3.71414 2.59009 3.53658 2.59009C3.35902 2.59009 3.21509 2.73402 3.21509 2.91158C3.21509 3.08914 3.35902 3.23307 3.53658 3.23307Z" fill="#575957"/>
</svg>
