<svg width="22" height="23" viewBox="0 0 22 23" fill="none" xmlns="http://www.w3.org/2000/svg">
<path d="M9.47552 15.8125H0.838542C0.375415 15.8125 0 16.2147 0 16.7109V22.1016C0 22.5978 0.375415 23 0.838542 23H9.47552C9.93865 23 10.3141 22.5978 10.3141 22.1016V16.7109C10.3141 16.2147 9.93865 15.8125 9.47552 15.8125ZM8.63698 21.2031H1.67708V17.6094H8.63698V21.2031Z" fill="#262A27"/>
<path d="M9.47552 0H0.838542C0.375415 0 0 0.402231 0 0.898438V14.0156C0 14.5118 0.375415 14.9141 0.838542 14.9141H9.47552C9.93865 14.9141 10.3141 14.5118 10.3141 14.0156V0.898438C10.3141 0.402231 9.93865 0 9.47552 0ZM8.63698 13.1172H1.67708V1.79688H8.63698V13.1172Z" fill="#262A27"/>
<path d="M20.6281 0H11.9911C11.528 0 11.1526 0.402231 11.1526 0.898438V6.28906C11.1526 6.78527 11.528 7.1875 11.9911 7.1875H20.6281C21.0912 7.1875 21.4666 6.78527 21.4666 6.28906V0.898438C21.4666 0.402231 21.0912 0 20.6281 0ZM19.7896 5.39062H12.8297V1.79688H19.7896V5.39062Z" fill="#262A27"/>
<path d="M20.6281 8.08594H11.9911C11.528 8.08594 11.1526 8.48817 11.1526 8.98438V22.1016C11.1526 22.5978 11.528 23 11.9911 23H20.6281C21.0912 23 21.4666 22.5978 21.4666 22.1016V8.98438C21.4666 8.48817 21.0912 8.08594 20.6281 8.08594ZM19.7896 21.2031H12.8297V9.88281H19.7896V21.2031Z" fill="#262A27"/>
</svg>
