<svg width="27" height="21" viewBox="0 0 27 21" fill="none" xmlns="http://www.w3.org/2000/svg">
<path d="M10.0435 20.5435C4.50592 20.5435 0 16.0376 0 10.5C0 4.96234 4.50592 0.456421 10.0435 0.456421C14.1987 0.456421 17.8674 2.95631 19.3913 6.82594C19.53 7.17735 19.3565 7.57458 19.0051 7.71418C18.6535 7.85127 18.2562 7.68041 18.1166 7.32715C16.8009 3.98532 13.6318 1.82599 10.0435 1.82599C5.26092 1.82599 1.36957 5.71751 1.36957 10.5C1.36957 15.2824 5.26092 19.1739 10.0435 19.1739C13.6318 19.1739 16.8009 17.0146 18.1166 13.6738C18.2554 13.3203 18.6526 13.1496 19.0051 13.2866C19.3565 13.4253 19.53 13.8234 19.3913 14.175C17.8674 18.0436 14.1987 20.5435 10.0435 20.5435Z" fill="#CFCFCF"/>
<path d="M12.3474 11.1848H25.5867C25.9647 11.1848 26.2715 10.878 26.2715 10.5C26.2715 10.122 25.9647 9.81519 25.5867 9.81519H12.3474C11.9694 9.81519 11.6626 10.122 11.6626 10.5C11.6626 10.878 11.9694 11.1848 12.3474 11.1848Z" fill="#CFCFCF"/>
<path d="M21.9345 14.8369C22.1099 14.8369 22.2851 14.7704 22.4185 14.6362L26.0706 10.984C26.3381 10.7164 26.3381 10.2827 26.0706 10.0152L22.4185 6.3631C22.151 6.0956 21.7173 6.0956 21.4497 6.3631C21.1822 6.63059 21.1822 7.06426 21.4497 7.33176L24.618 10.5L21.4497 13.6683C21.1822 13.9358 21.1822 14.3695 21.4497 14.637C21.5839 14.7704 21.7593 14.8369 21.9345 14.8369Z" fill="#CFCFCF"/>
</svg>
