<svg width="199" height="117" viewBox="0 0 199 117" fill="none" xmlns="http://www.w3.org/2000/svg">
<path d="M139.438 61.3972H143.801V110.156H139.438V61.3972Z" fill="#C4A287"/>
<path d="M11.9871 66.517V21.5403C11.9865 20.2867 11.4881 19.0846 10.6014 18.1984C9.71481 17.3122 8.51249 16.8143 7.25888 16.8143C6.00682 16.8167 4.80682 17.3156 3.9221 18.2015C3.03738 19.0875 2.5402 20.2882 2.53961 21.5403V75.9733C2.53961 77.2273 3.03776 78.4299 3.92447 79.3167C4.81117 80.2034 6.0138 80.7015 7.26779 80.7015H36.5514C37.8054 80.7015 39.008 80.2034 39.8947 79.3167C40.7814 78.4299 41.2795 77.2273 41.2795 75.9733C41.2795 74.7193 40.7814 73.5167 39.8947 72.63C39.008 71.7433 37.8054 71.2451 36.5514 71.2451H16.7153C15.4613 71.2451 14.2586 70.747 13.3719 69.8603C12.4852 68.9736 11.9871 67.771 11.9871 66.517Z" fill="#AEBEE1"/>
<path d="M11.9871 66.517V21.5403C11.9865 20.2867 11.4881 19.0846 10.6014 18.1984C9.71481 17.3122 8.51249 16.8143 7.25888 16.8143C6.00682 16.8167 4.80682 17.3156 3.9221 18.2015C3.03738 19.0875 2.5402 20.2882 2.53961 21.5403V75.9733C2.53961 77.2273 3.03776 78.4299 3.92447 79.3167C4.81117 80.2034 6.0138 80.7015 7.26779 80.7015H36.5514C37.8054 80.7015 39.008 80.2034 39.8947 79.3167C40.7814 78.4299 41.2795 77.2273 41.2795 75.9733C41.2795 74.7193 40.7814 73.5167 39.8947 72.63C39.008 71.7433 37.8054 71.2451 36.5514 71.2451H16.7153C15.4613 71.2451 14.2586 70.747 13.3719 69.8603C12.4852 68.9736 11.9871 67.771 11.9871 66.517Z" fill="#4A3A2F"/>
<path d="M41.2725 75.7197C41.2075 74.5113 40.6818 73.3738 39.8034 72.5415C38.9251 71.7091 37.7611 71.2451 36.5509 71.2452H16.7148C15.4609 71.2452 14.2582 70.747 13.3715 69.8603C12.4848 68.9736 11.9867 67.771 11.9867 66.517V21.5403C11.9875 20.325 11.5204 19.1561 10.6822 18.2761C9.84408 17.3961 8.69929 16.8727 7.48543 16.8143V75.7197H41.2725Z" fill="#F1C19D"/>
<path d="M187.396 68.0345V23.0578C187.396 21.8057 187.893 20.6048 188.777 19.7184C189.661 18.832 190.861 18.3325 192.113 18.3296C193.367 18.3296 194.57 18.8277 195.456 19.7144C196.343 20.6011 196.841 21.8038 196.841 23.0578V77.4908C196.843 78.1127 196.722 78.7287 196.485 79.3036C196.248 79.8786 195.9 80.4011 195.46 80.8413C195.021 81.2816 194.499 81.6308 193.925 81.8692C193.351 82.1075 192.735 82.2301 192.113 82.2301H162.832C161.578 82.2301 160.375 81.732 159.488 80.8453C158.602 79.9586 158.104 78.7559 158.104 77.5019C158.104 76.2479 158.602 75.0453 159.488 74.1586C160.375 73.2719 161.578 72.7738 162.832 72.7738H182.666C183.288 72.7741 183.904 72.6516 184.478 72.4134C185.053 72.1753 185.575 71.826 186.014 71.3858C186.454 70.9455 186.802 70.4229 187.039 69.8478C187.276 69.2727 187.398 68.6565 187.396 68.0345Z" fill="#AEBEE1"/>
<path d="M187.396 68.0345V23.0578C187.396 21.8057 187.893 20.6048 188.777 19.7184C189.661 18.832 190.861 18.3325 192.113 18.3296C193.367 18.3296 194.57 18.8277 195.456 19.7144C196.343 20.6011 196.841 21.8038 196.841 23.0578V77.4908C196.843 78.1127 196.722 78.7287 196.485 79.3036C196.248 79.8786 195.9 80.4011 195.46 80.8413C195.021 81.2816 194.499 81.6308 193.925 81.8692C193.351 82.1075 192.735 82.2301 192.113 82.2301H162.832C161.578 82.2301 160.375 81.732 159.488 80.8453C158.602 79.9586 158.104 78.7559 158.104 77.5019C158.104 76.2479 158.602 75.0453 159.488 74.1586C160.375 73.2719 161.578 72.7738 162.832 72.7738H182.666C183.288 72.7741 183.904 72.6516 184.478 72.4134C185.053 72.1753 185.575 71.826 186.014 71.3858C186.454 70.9455 186.802 70.4229 187.039 69.8478C187.276 69.2727 187.398 68.6565 187.396 68.0345Z" fill="#4A3A2F"/>
<path d="M158.11 77.2371C158.175 76.0287 158.701 74.8912 159.579 74.0589C160.458 73.2265 161.622 72.7625 162.832 72.7626H182.666C183.287 72.7628 183.902 72.6408 184.476 72.4033C185.05 72.1658 185.571 71.8176 186.01 71.3785C186.45 70.9394 186.798 70.4181 187.036 69.8443C187.274 69.2705 187.396 68.6555 187.396 68.0344V23.0577C187.396 21.8443 187.863 20.6774 188.7 19.7986C189.536 18.9197 190.679 18.3961 191.891 18.3362V77.2371H158.11Z" fill="#F1C19D"/>
<path d="M53.1128 61.3972H57.4761V111.293H53.1128V61.3972Z" fill="#C4A287"/>
<path opacity="0.1" d="M139.438 61.3972H143.801V65.0018H139.438V61.3972Z" fill="black"/>
<path opacity="0.1" d="M53.1128 61.3972H57.4761V65.0018H53.1128V61.3972Z" fill="black"/>
<path opacity="0.1" d="M128.215 31.7042C128.285 32.4726 128.373 33.2514 128.48 34.0405H129.096V31.7042H128.215Z" fill="black"/>
<path d="M110.337 55.9748C110.324 56.7647 110.893 57.4121 111.599 57.4121H124.915V56.0237H113.835C113.356 56.0237 113.058 55.4452 113.298 54.9824L123.347 34.5456C123.418 34.3983 123.528 34.2734 123.665 34.1847C123.803 34.096 123.962 34.0469 124.125 34.0427H129.096V31.7064H122.819C122.705 31.7093 122.594 31.7436 122.497 31.8057C122.401 31.8677 122.324 31.955 122.274 32.058L110.755 54.3082C110.49 54.8243 110.347 55.3945 110.337 55.9748Z" fill="#4A3A2F"/>
<path d="M134.797 52.2679L134.979 52.575L136.686 51.4357L131.406 10.8357H130.046C130.046 10.8357 129.991 11.0226 129.899 11.3786C128.989 14.8875 124.519 34.7592 134.797 52.2679Z" fill="#4A3A2F"/>
<path opacity="0.1" d="M129.902 11.3786L134.797 52.2679L134.979 52.575L136.686 51.4357L131.406 10.8357H130.046C130.046 10.8357 129.993 11.0293 129.902 11.3786Z" fill="black"/>
<path d="M133.221 10.4156L138.229 52.2343L135.026 52.6179L130.017 10.7993L133.221 10.4156Z" fill="#F1C19D"/>
<path d="M149.208 55.9903C149.208 56.091 149.249 56.1875 149.32 56.2587C149.391 56.3299 149.488 56.3702 149.588 56.3708H150.158C150.259 56.3708 150.356 56.3307 150.427 56.2594C150.498 56.188 150.538 56.0912 150.538 55.9903C150.54 55.9755 150.54 55.9606 150.538 55.9458C150.527 55.854 150.483 55.7694 150.413 55.708C150.344 55.6465 150.255 55.6124 150.162 55.6121H149.593C149.508 55.6129 149.426 55.6418 149.36 55.6941C149.294 55.7465 149.246 55.8193 149.226 55.9013C149.216 55.9301 149.21 55.96 149.208 55.9903Z" fill="#E3EDF9"/>
<path d="M147.501 55.9903C147.502 56.0911 147.542 56.1875 147.613 56.2587C147.684 56.3299 147.781 56.3702 147.881 56.3708H148.451C148.552 56.3708 148.649 56.3307 148.72 56.2594C148.791 56.188 148.832 56.0912 148.832 55.9903C148.831 55.9549 148.826 55.9197 148.816 55.8857C148.799 55.824 148.766 55.7679 148.72 55.7233C148.685 55.6879 148.644 55.6598 148.598 55.6406C148.552 55.6215 148.503 55.6118 148.453 55.6121H147.884C147.81 55.6117 147.738 55.6325 147.676 55.672C147.614 55.7114 147.565 55.7679 147.534 55.8346C147.513 55.8837 147.501 55.9367 147.501 55.9903Z" fill="#E3EDF9"/>
<path d="M145.983 55.9904C145.984 56.0911 146.024 56.1875 146.095 56.2587C146.166 56.33 146.263 56.3702 146.364 56.3708H146.933C147.034 56.3708 147.131 56.3307 147.202 56.2594C147.274 56.188 147.314 56.0913 147.314 55.9904C147.315 55.9358 147.303 55.8818 147.28 55.8324C147.249 55.7667 147.201 55.711 147.14 55.6717C147.079 55.6323 147.008 55.6109 146.935 55.6099H146.366C146.316 55.6096 146.266 55.6192 146.22 55.6382C146.174 55.6572 146.131 55.6853 146.096 55.7207C146.061 55.756 146.033 55.7981 146.014 55.8444C145.995 55.8907 145.985 55.9403 145.985 55.9904H145.983Z" fill="#E3EDF9"/>
<path d="M144.275 55.9903C144.276 56.0911 144.316 56.1875 144.387 56.2587C144.459 56.3299 144.555 56.3702 144.656 56.3708H145.225C145.295 56.3707 145.363 56.3516 145.423 56.3155C145.482 56.2794 145.53 56.2277 145.562 56.166C145.595 56.1043 145.609 56.0349 145.605 55.9655C145.6 55.8961 145.577 55.8293 145.537 55.7723L145.492 55.7233C145.457 55.6879 145.416 55.6598 145.37 55.6406C145.324 55.6215 145.275 55.6118 145.225 55.6121H144.656C144.604 55.6127 144.553 55.6239 144.505 55.6449C144.458 55.6659 144.415 55.6964 144.38 55.7344C144.313 55.8029 144.275 55.8947 144.275 55.9903Z" fill="#E3EDF9"/>
<path opacity="0.1" d="M149.219 55.8992C149.211 55.929 149.208 55.9596 149.208 55.9904C149.208 56.0911 149.249 56.1876 149.32 56.2588C149.391 56.33 149.488 56.3703 149.588 56.3709H150.158C150.259 56.3709 150.356 56.3308 150.427 56.2594C150.498 56.1881 150.538 56.0913 150.538 55.9904C150.54 55.9756 150.54 55.9607 150.538 55.9459L149.219 55.8992Z" fill="black"/>
<path opacity="0.1" d="M147.532 55.8391C147.512 55.8863 147.502 55.9369 147.501 55.9882C147.502 56.0889 147.542 56.1854 147.613 56.2566C147.684 56.3278 147.781 56.3681 147.881 56.3687H148.451C148.552 56.3687 148.649 56.3286 148.72 56.2572C148.791 56.1859 148.832 56.0891 148.832 55.9882C148.831 55.9528 148.826 55.9176 148.816 55.8836L147.532 55.8391Z" fill="black"/>
<path opacity="0.1" d="M146.039 55.7878C146.001 55.848 145.981 55.9173 145.981 55.9881C145.981 56.0888 146.022 56.1853 146.093 56.2565C146.164 56.3277 146.26 56.368 146.361 56.3686H146.931C147.032 56.3686 147.128 56.3285 147.2 56.2571C147.271 56.1858 147.311 56.089 147.311 55.9881C147.312 55.9336 147.301 55.8796 147.278 55.8301L146.039 55.7878Z" fill="black"/>
<path opacity="0.1" d="M144.275 55.9904C144.276 56.0911 144.316 56.1876 144.387 56.2588C144.459 56.33 144.555 56.3703 144.656 56.3709H145.225C145.295 56.3708 145.363 56.3517 145.423 56.3156C145.482 56.2795 145.53 56.2278 145.562 56.1661C145.595 56.1043 145.609 56.035 145.605 55.9656C145.6 55.8962 145.577 55.8294 145.537 55.7723L144.38 55.7323C144.312 55.8013 144.275 55.894 144.275 55.9904Z" fill="black"/>
<path d="M140.86 57.5078H151.863V57.0072C151.863 56.7849 151.777 56.5713 151.622 56.4115C151.468 56.2516 151.257 56.1581 151.035 56.1506L142.211 55.8457C142.035 55.8398 141.861 55.8691 141.697 55.932C141.533 55.995 141.384 56.0902 141.257 56.2121C141.131 56.3339 141.031 56.4799 140.962 56.6413C140.893 56.8028 140.858 56.9764 140.858 57.1518L140.86 57.5078Z" fill="#D6D6E3"/>
<path d="M86.5774 55.9748C86.5908 56.7647 86.0212 57.4121 85.3158 57.4121H71.9924V56.0237H83.0863C83.5647 56.0237 83.8629 55.4452 83.6226 54.9824L73.5744 34.5456C73.5033 34.3983 73.393 34.2734 73.2556 34.1847C73.1182 34.096 72.9591 34.0469 72.7956 34.0427H67.8227V31.7064H74.095C74.2076 31.7107 74.317 31.7455 74.4114 31.807C74.5058 31.8685 74.5818 31.9545 74.6312 32.0558L86.1502 54.306C86.4191 54.822 86.5652 55.3931 86.5774 55.9748Z" fill="#4A3A2F"/>
<path d="M62.1186 52.2679L61.9362 52.575L60.2296 51.4357L65.5096 10.8357H66.8691C66.8691 10.8357 66.9247 11.0226 67.0159 11.3786C67.9282 14.8875 72.4071 34.7592 62.1186 52.2679Z" fill="#4A3A2F"/>
<path opacity="0.1" d="M67.0161 11.3786L62.1211 52.2679L61.9386 52.575L60.232 51.4357L65.5098 10.8357H66.8693C66.8693 10.8357 66.9249 11.0293 67.0161 11.3786Z" fill="black"/>
<path d="M63.6907 10.4115L66.894 10.7952L61.8853 52.6138L58.6819 52.2301L63.6907 10.4115Z" fill="#F1C19D"/>
<path d="M47.7083 55.9903C47.7077 56.091 47.6674 56.1875 47.5962 56.2587C47.5249 56.3299 47.4285 56.3702 47.3278 56.3708H46.7582C46.6573 56.3708 46.5605 56.3307 46.4891 56.2594C46.4178 56.188 46.3777 56.0912 46.3777 55.9903C46.3759 55.9755 46.3759 55.9606 46.3777 55.9458C46.3891 55.854 46.4335 55.7694 46.5027 55.708C46.5719 55.6465 46.6612 55.6124 46.7537 55.6121H47.3233C47.4079 55.6129 47.4898 55.6418 47.5562 55.6941C47.6226 55.7465 47.6698 55.8193 47.6904 55.9013C47.7002 55.9301 47.7062 55.96 47.7083 55.9903Z" fill="#E3EDF9"/>
<path d="M49.4158 55.9903C49.4152 56.0911 49.3749 56.1875 49.3037 56.2587C49.2325 56.3299 49.136 56.3702 49.0353 56.3708H48.4657C48.4157 56.3708 48.3663 56.361 48.3201 56.3418C48.2739 56.3227 48.232 56.2947 48.1967 56.2594C48.1613 56.224 48.1333 56.1821 48.1142 56.1359C48.0951 56.0898 48.0852 56.0403 48.0852 55.9903C48.0854 55.9549 48.0907 55.9197 48.1008 55.8857C48.1176 55.824 48.1507 55.7679 48.1965 55.7233C48.2313 55.6879 48.2729 55.6598 48.3187 55.6406C48.3646 55.6215 48.4138 55.6118 48.4635 55.6121H49.0442C49.1177 55.6117 49.1896 55.6325 49.2516 55.672C49.3135 55.7114 49.3628 55.7679 49.3935 55.8346C49.4114 55.8844 49.419 55.9374 49.4158 55.9903Z" fill="#E3EDF9"/>
<path d="M50.9321 55.9904C50.9315 56.0911 50.8913 56.1875 50.82 56.2587C50.7488 56.33 50.6524 56.3702 50.5517 56.3708H49.982C49.8811 56.3708 49.7844 56.3307 49.713 56.2594C49.6417 56.188 49.6016 56.0913 49.6016 55.9904C49.6006 55.9358 49.612 55.8818 49.6349 55.8324C49.6658 55.7667 49.7145 55.711 49.7755 55.6717C49.8364 55.6323 49.9073 55.6109 49.9798 55.6099H50.5494C50.5995 55.6096 50.6491 55.6192 50.6954 55.6382C50.7417 55.6572 50.7837 55.6853 50.8191 55.7207C50.8545 55.756 50.8825 55.7981 50.9015 55.8444C50.9206 55.8907 50.9302 55.9403 50.9299 55.9904H50.9321Z" fill="#E3EDF9"/>
<path d="M52.6428 55.9903C52.6422 56.0911 52.602 56.1875 52.5307 56.2587C52.4595 56.3299 52.3631 56.3702 52.2624 56.3708H51.6927C51.6232 56.3707 51.555 56.3516 51.4955 56.3155C51.4361 56.2794 51.3876 56.2277 51.3555 56.166C51.3234 56.1043 51.3088 56.0349 51.3134 55.9655C51.3179 55.8961 51.3414 55.8293 51.3812 55.7723L51.4257 55.7233C51.4605 55.6879 51.5021 55.6598 51.548 55.6406C51.5938 55.6215 51.6431 55.6118 51.6927 55.6121H52.2624C52.3142 55.6127 52.3654 55.6239 52.4129 55.6449C52.4603 55.6659 52.503 55.6964 52.5383 55.7344C52.6051 55.8029 52.6426 55.8947 52.6428 55.9903Z" fill="#E3EDF9"/>
<path opacity="0.1" d="M47.6971 55.8992C47.7048 55.929 47.7085 55.9596 47.7082 55.9904C47.7077 56.0911 47.6674 56.1876 47.5962 56.2588C47.5249 56.33 47.4285 56.3703 47.3278 56.3709H46.7581C46.6572 56.3709 46.5605 56.3308 46.4891 56.2594C46.4178 56.1881 46.3777 56.0913 46.3777 55.9904C46.3759 55.9756 46.3759 55.9607 46.3777 55.9459L47.6971 55.8992Z" fill="black"/>
<path opacity="0.1" d="M49.3854 55.8391C49.4054 55.8863 49.416 55.9369 49.4165 55.9882C49.4159 56.0889 49.3757 56.1854 49.3044 56.2566C49.2332 56.3278 49.1368 56.3681 49.036 56.3687H48.4664C48.4165 56.3687 48.367 56.3588 48.3208 56.3397C48.2747 56.3206 48.2327 56.2926 48.1974 56.2572C48.1621 56.2219 48.134 56.1799 48.1149 56.1338C48.0958 56.0876 48.0859 56.0381 48.0859 55.9882C48.0862 55.9528 48.0914 55.9176 48.1015 55.8836L49.3854 55.8391Z" fill="black"/>
<path opacity="0.1" d="M50.8767 55.7878C50.9142 55.848 50.9342 55.9173 50.9346 55.9881C50.934 56.0888 50.8937 56.1853 50.8225 56.2565C50.7513 56.3277 50.6548 56.368 50.5541 56.3686H49.9845C49.8836 56.3686 49.7868 56.3285 49.7155 56.2571C49.6441 56.1858 49.604 56.089 49.604 55.9881C49.603 55.9336 49.6144 55.8796 49.6374 55.8301L50.8767 55.7878Z" fill="black"/>
<path opacity="0.1" d="M52.6428 55.9904C52.6422 56.0911 52.602 56.1876 52.5307 56.2588C52.4595 56.33 52.3631 56.3703 52.2623 56.3709H51.6927C51.6232 56.3708 51.555 56.3517 51.4955 56.3156C51.4361 56.2795 51.3876 56.2278 51.3555 56.1661C51.3234 56.1043 51.3088 56.035 51.3134 55.9656C51.3179 55.8962 51.3414 55.8294 51.3812 55.7723L52.5382 55.7323C52.6057 55.8013 52.6432 55.894 52.6428 55.9904Z" fill="black"/>
<path d="M56.0547 57.5078H45.0519V57.0072C45.0518 56.7849 45.138 56.5713 45.2925 56.4115C45.4469 56.2516 45.6575 56.1581 45.8796 56.1506L54.7041 55.8457C54.8794 55.8398 55.0541 55.8691 55.2179 55.932C55.3817 55.995 55.5311 56.0902 55.6573 56.2121C55.7835 56.3339 55.8839 56.4799 55.9526 56.6413C56.0212 56.8028 56.0567 56.9764 56.0569 57.1518L56.0547 57.5078Z" fill="#D6D6E3"/>
<path d="M10.0002 63.5399C4.86702 54.8334 6.72713 37.2712 6.5202 36.9352C6.33553 36.6393 7.04309 28.3689 11.7601 26.3486C12.6123 24.6598 13.4512 22.7574 13.4512 22.7574C13.5337 22.8349 13.6248 22.9028 13.7226 22.9599C13.7597 22.859 13.796 22.7566 13.8316 22.6528C13.8917 22.477 13.9473 22.2968 14.003 22.1166C13.8709 22.1587 13.7364 22.1929 13.6002 22.2189C13.2406 22.3067 12.8619 22.2731 12.5233 22.1232C12.4079 22.0613 12.3034 21.9809 12.214 21.8852C11.8425 21.6382 11.6378 21.1932 11.4642 20.7727L10.0914 17.4841C9.4728 16 8.84981 14.507 8.5205 12.9339C8.03049 10.5666 8.22024 8.10896 9.06785 5.84495C9.3927 4.98164 9.84217 4.11833 10.6054 3.60212C12.1339 2.56526 14.2611 3.28172 16.0077 2.67429C16.5818 2.47403 17.1002 2.13583 17.6743 1.93113C18.9136 1.48612 20.3131 1.7242 21.5058 2.27823C22.6984 2.83226 23.664 3.71337 24.7076 4.50326C25.2216 4.89709 26.0426 5.30427 26.6478 5.83827C27.2352 6.29663 27.6869 6.85066 27.6001 7.58047C27.5022 8.41485 26.6233 8.91549 25.8045 9.11129C25.6688 9.14244 25.5286 9.16691 25.3907 9.19139C26.3625 10.1759 27.0628 11.3953 27.4233 12.7309C27.7839 14.0665 27.7923 15.4727 27.448 16.8125C27.1036 18.1523 26.4181 19.3801 25.4583 20.3763C24.4984 21.3725 23.2969 22.1032 21.9708 22.497C21.5532 23.2811 21.1919 24.0938 20.8894 24.929C20.8494 25.0432 20.8101 25.1582 20.7715 25.2739C22.1199 25.6566 23.1745 25.9748 23.3859 26.1505C24.0245 26.6801 22.6872 31.317 22.6872 31.317C23.0277 31.7487 23.3748 32.2404 23.7263 32.7678C26.3923 36.8172 28.0803 41.431 28.657 46.2447C28.8795 48.0047 29.1688 49.8048 29.5359 51.5158L45.4826 48.3185L45.516 48.7123L45.8965 48.6189L47.0936 48.3229L47.1403 48.5922L47.3227 48.5054C50.2887 47.1147 55.2861 45.3392 58.6704 47.1704C62.2415 49.0928 54.5341 51.6471 49.5878 53.0066C51.2277 53.0867 52.7963 53.4805 54.0379 54.4017C57.6246 57.0895 47.4807 58.4891 42.6902 58.9853L42.4967 59.0053V59.1076L40.8368 59.2612L40.4474 59.2968L40.4096 59.8886C40.4096 59.8886 38.0333 60.278 34.8581 60.7497C38.4827 61.6553 42.9617 62.2827 46.0723 62.6499C49.3698 63.037 52.1777 65.3333 53.0633 68.5351C53.3496 69.4532 53.3773 70.4324 53.1434 71.3653C52.2178 74.5983 53.3481 98.3816 53.604 103.504L59.4669 106.879C59.4669 106.879 68.5895 107.991 62.513 110.13C61.9655 110.317 61.4057 110.465 60.8376 110.575C61.6386 111.091 61.5696 111.765 59.2088 112.593C53.1278 114.724 38.9922 112.499 38.9922 112.499C38.9922 112.499 39.3015 109.994 39.8044 107.911L39.6486 107.925C39.6486 107.925 41.1082 102.493 38.8943 99.7544C36.6804 97.0154 39.2659 76.1691 39.2659 76.1691C39.2659 76.1691 35.3899 74.5649 23.8042 74.4603C14.4591 76.8589 9.90447 68.2725 9.969 63.8336C9.98903 63.7335 9.99348 63.6311 10.0002 63.5399Z" fill="url(#paint0_linear)"/>
<path d="M44.5376 50.0472L45.5278 54.0523C45.5278 54.0523 46.4178 53.852 47.7528 53.5094C52.274 52.339 61.8105 49.5288 57.9879 47.4662C54.6927 45.6862 49.8399 47.4172 46.9585 48.7678C45.9038 49.264 45.1117 49.709 44.7579 49.9182C44.6088 50.0027 44.5376 50.0472 44.5376 50.0472Z" fill="#F1C19D"/>
<path opacity="0.1" d="M44.8159 51.1777L45.5279 54.0702C45.5279 54.0702 46.4179 53.87 47.7529 53.5273L46.9497 48.7858C45.895 49.2819 45.1029 49.7269 44.7491 49.9361L44.8159 51.1777Z" fill="black"/>
<path d="M44.8132 54.3438L47.5767 53.6607L46.7178 48.5966L44.5084 49.1417L44.8132 54.3438Z" fill="#D9DFE8"/>
<path opacity="0.1" d="M44.8145 54.3439L46.0071 54.0502L45.5576 48.8837L44.5096 49.1418L44.8145 54.3439Z" fill="black"/>
<path d="M18.1484 33.3685C18.1484 33.3685 23.4551 30.3024 25.8136 39.0979C28.1721 47.8934 28.3946 51.9452 28.3946 51.9452L45.1535 48.5943L45.6853 54.7154C45.6853 54.7154 27.7672 60.5004 25.5132 60.0799C23.2593 59.6594 15.9456 47.3973 15.9456 47.3973C15.9456 47.3973 9.29724 37.8942 18.1484 33.3685Z" fill="#7F6858"/>
<g opacity="0.1">
<path opacity="0.1" d="M44.5384 50.0473L45.5285 54.0524C45.5285 54.0524 46.4185 53.8521 47.7535 53.5095C52.2748 52.3391 61.8112 49.5289 57.9886 47.4663C54.6934 45.6863 49.8406 47.4174 46.9592 48.7679C45.9045 49.2641 45.1124 49.7091 44.7586 49.9183C44.6096 50.0028 44.5384 50.0473 44.5384 50.0473Z" fill="black"/>
<path opacity="0.1" d="M44.8169 51.1777L45.5289 54.0702C45.5289 54.0702 46.4189 53.87 47.7539 53.5273L46.9507 48.7858C45.896 49.2819 45.1039 49.7269 44.7501 49.9361L44.8169 51.1777Z" fill="black"/>
<path opacity="0.1" d="M44.8142 54.3439L47.5776 53.6608L46.7188 48.5967L44.5093 49.1418L44.8142 54.3439Z" fill="black"/>
<path opacity="0.1" d="M44.8154 54.3439L46.0081 54.0502L45.5586 48.8837L44.5106 49.1418L44.8154 54.3439Z" fill="black"/>
<path opacity="0.1" d="M18.1491 33.591C18.1491 33.591 23.4558 30.5249 25.8143 39.3205C28.1729 48.116 28.3954 52.1678 28.3954 52.1678L45.1543 48.8169L45.686 54.9379C45.686 54.9379 27.7679 60.723 25.514 60.3025C23.26 59.8819 15.9463 47.6198 15.9463 47.6198C15.9463 47.6198 9.29797 38.1167 18.1491 33.591Z" fill="black"/>
</g>
<path d="M51.9035 101.521L58.7455 105.462C58.7455 105.462 67.61 106.547 61.7048 108.617C55.7995 110.686 42.0711 108.525 42.0711 108.525C42.0711 108.525 42.8343 102.358 43.8979 101.497C44.9614 100.635 51.9035 101.521 51.9035 101.521Z" fill="#4A3A2F"/>
<path d="M25.2371 57.3098C25.2371 57.3098 28.6414 59.0898 34.689 60.6273C38.2334 61.5173 42.6702 62.1492 45.7362 62.5097C47.3058 62.6805 48.7892 63.3137 49.9983 64.3291C51.2073 65.3444 52.0875 66.696 52.527 68.2124C52.807 69.1073 52.834 70.0622 52.6049 70.9715C51.597 74.4937 53.1011 103.125 53.1011 103.125L42.7102 104.087C42.7102 104.087 44.1275 98.811 41.9759 96.1521C39.8243 93.4932 42.3364 73.2543 42.3364 73.2543C42.3364 73.2543 38.5717 71.6968 27.3219 71.5945C16.8999 74.2645 12.6056 62.8568 14.2143 59.6594C15.823 56.4621 25.2371 57.3098 25.2371 57.3098Z" fill="#7F6858"/>
<g opacity="0.1">
<path opacity="0.1" d="M51.9018 101.521L58.7438 105.462C58.7438 105.462 67.6083 106.548 61.7031 108.617C55.7978 110.686 42.0694 108.526 42.0694 108.526C42.0694 108.526 42.8326 102.358 43.8962 101.497C44.9597 100.636 51.9018 101.521 51.9018 101.521Z" fill="black"/>
<path opacity="0.1" d="M25.2354 57.3098C25.2354 57.3098 28.6397 59.0898 34.6873 60.6273C38.2317 61.5173 42.6684 62.1492 45.7345 62.5097C47.3041 62.6805 48.7875 63.3137 49.9966 64.3291C51.2056 65.3444 52.0858 66.696 52.5253 68.2124C52.8053 69.1073 52.8323 70.0622 52.6032 70.9715C51.5953 74.4937 53.0994 103.125 53.0994 103.125L42.7085 104.087C42.7085 104.087 44.1258 98.811 41.9742 96.1521C39.8226 93.4932 42.3347 73.2543 42.3347 73.2543C42.3347 73.2543 38.5699 71.6968 27.3202 71.5945C16.8982 74.2645 12.6039 62.8568 14.2126 59.6594C15.8213 56.4621 25.2354 57.3098 25.2354 57.3098Z" fill="black"/>
</g>
<path d="M48.6957 103.913L55.5376 107.854C55.5376 107.854 64.3977 108.93 58.4969 111.009C52.5962 113.087 38.8633 110.917 38.8633 110.917C38.8633 110.917 39.6265 104.75 40.69 103.889C41.7536 103.027 48.6957 103.913 48.6957 103.913Z" fill="#4A3A2F"/>
<path d="M24.1239 73.9865C35.3737 74.0888 39.1384 75.6464 39.1384 75.6464C39.1384 75.6464 36.6263 95.8941 38.7779 98.5441C40.9295 101.194 39.5122 106.479 39.5122 106.479L49.9031 105.517C49.9031 105.517 49.8853 105.179 49.8564 104.574C49.6072 99.5988 48.5102 76.503 49.4114 73.3635C49.6388 72.4571 49.6118 71.5055 49.3335 70.6133C48.896 69.0949 48.0171 67.7408 46.8084 66.723C45.5996 65.7053 44.1156 65.0697 42.5449 64.8973C39.4811 64.539 35.0444 63.916 31.4999 63.0149L31.3263 62.9704C25.3855 61.444 22.048 59.6974 22.048 59.6974C22.048 59.6974 12.6339 58.8519 11.0252 62.0492C10.7983 62.5562 10.6859 63.107 10.6959 63.6624C10.6158 67.9767 15.0436 76.3161 24.1239 73.9865Z" fill="#7F6858"/>
<path d="M39.7947 55.0381L40.1752 59.1544C40.1752 59.1544 41.0897 59.0898 42.4492 58.9474C47.0928 58.4646 56.943 57.1073 53.4608 54.4974C50.466 52.2546 45.4107 53.2336 42.3602 54.1414C41.2477 54.4751 40.3933 54.7978 40.0128 54.9513C39.8726 55.0047 39.7947 55.0381 39.7947 55.0381Z" fill="#F1C19D"/>
<path d="M12.1558 28.1264C12.1558 28.1264 13.5487 29.2167 15.2509 30.4137C17.1177 30.8365 19.2848 31.1858 20.8468 31.4128C20.2883 29.6327 20.6243 27.6302 21.254 25.8747C21.939 24.0402 22.879 22.3115 24.0464 20.7393L14.6301 17.8C15.3688 19.6713 15.035 21.8051 14.4076 23.6608C13.8536 25.2406 13.0967 26.7417 12.1558 28.1264Z" fill="#F8B9BF"/>
<path opacity="0.1" d="M39.8996 56.1973L40.1733 59.1544C40.1733 59.1544 41.0878 59.0898 42.4473 58.9474L42.3583 54.1392C41.2458 54.4729 40.3913 54.7955 40.0109 54.9491L39.8996 56.1973Z" fill="black"/>
<path d="M39.427 59.3278L42.2617 59.0653L42.1683 53.9299L39.901 54.1391L39.427 59.3278Z" fill="#D9DFE8"/>
<path opacity="0.1" d="M12.157 28.1264C12.157 28.1264 13.5499 29.2167 15.252 30.4137C17.1188 30.8365 19.286 31.1858 20.848 31.4128C20.2895 29.6328 20.6254 27.6302 21.2551 25.8747C18.9544 25.2072 15.6636 24.3439 14.4065 23.6497C13.8541 25.2332 13.0979 26.7381 12.157 28.1264Z" fill="black"/>
<path d="M14.0401 23.7609C14.0401 23.7609 12.4648 27.3365 11.4724 28.9518C10.48 30.5672 23.0025 32.0669 23.0025 32.0669C23.0025 32.0669 24.3019 27.5657 23.6811 27.0495C23.0603 26.5332 15.0881 24.8066 14.0401 23.7609Z" fill="#D9DFE8"/>
<path opacity="0.1" d="M10.6773 63.6646C11.2041 64.5938 11.8604 65.4434 12.6264 66.1878C18.1578 71.4433 27.2248 65.9653 31.3167 62.9704C25.3758 61.444 22.0383 59.6974 22.0383 59.6974C22.0383 59.6974 12.6242 58.8519 11.0155 62.0492C10.7852 62.5562 10.6697 63.1078 10.6773 63.6646Z" fill="black"/>
<path d="M12.5916 65.8117C18.8795 71.7837 29.7243 63.8759 32.648 61.5463C33.1219 61.1681 33.3867 60.9345 33.3867 60.9345C32.2319 59.8531 31.2173 57.5613 30.4141 54.7578C29.6655 52.0755 29.1247 49.3395 28.7965 46.5741C28.2367 41.8987 26.5975 37.4174 24.0082 33.4843C23.6678 32.9726 23.3407 32.4942 23.0003 32.0759C20.6262 29.0565 16.6367 27.1385 16.6367 27.1385C8.21721 24.6776 7.08469 37.1667 7.30942 37.5272C7.53415 37.8876 5.28241 58.8674 12.5916 65.8117Z" fill="#7F6858"/>
<path opacity="0.1" d="M11.7773 48.7389C11.7773 48.7389 17.1908 61.9556 19.3557 62.7099C20.595 63.1393 27.2145 62.325 32.648 61.5484C33.1219 61.1702 33.3867 60.9365 33.3867 60.9365C32.2319 59.8552 31.2173 57.5634 30.4141 54.7599L23.4164 55.0936C23.4164 55.0936 23.8058 51.0574 22.7778 42.006C21.7498 32.9546 16.0515 35.1974 16.0515 35.1974C6.62409 38.3547 11.7773 48.7389 11.7773 48.7389Z" fill="black"/>
<path opacity="0.1" d="M39.4277 59.3279L40.6515 59.2144L40.9763 54.0413L39.9016 54.1392L39.4277 59.3279Z" fill="black"/>
<path d="M16.1863 34.6145C16.1863 34.6145 21.8846 32.3739 22.9126 41.4231C23.9405 50.4723 23.5512 54.5107 23.5512 54.5107L40.6238 53.6941L40.2389 59.8263C40.2389 59.8263 21.6577 62.8768 19.4927 62.1248C17.3278 61.3727 11.9143 48.1538 11.9143 48.1538C11.9143 48.1538 6.76779 37.7696 16.1863 34.6145Z" fill="#7F6858"/>
<path opacity="0.1" d="M15.803 21.2154C16.0522 19.8626 14.6393 19.8804 14.132 18.6077L23.5483 21.5469C22.8947 22.4244 22.3115 23.3522 21.8039 24.3215C21.3154 24.4666 20.8139 24.5634 20.3065 24.6108C18.0614 24.8244 17.3605 22.6149 15.803 21.2154Z" fill="black"/>
<path d="M12.3509 16.7692C11.9556 12.4914 15.103 8.70302 19.3808 8.30769C23.6586 7.91235 27.447 11.0597 27.8423 15.3376C28.2376 19.6154 25.0902 23.4037 20.8124 23.7991C16.5346 24.1944 12.7463 21.047 12.3509 16.7692Z" fill="#F1C19D"/>
<path opacity="0.1" d="M27.772 9.02681C27.6763 9.83672 26.8219 10.3307 26.0276 10.5131C25.2332 10.6956 24.3722 10.7045 23.6757 11.1295C22.5632 11.8148 22.2628 13.3367 22.403 14.645C22.4809 15.3837 22.5921 16.2893 21.9869 16.7187C21.7969 16.8351 21.5847 16.9109 21.3639 16.9412C20.7326 17.069 20.0846 17.0916 19.4459 17.008C19.0721 16.959 18.6872 16.8745 18.3334 16.9791C17.7505 17.1482 17.4056 17.7623 17.2921 18.3563C17.1786 18.9504 17.2409 19.569 17.1497 20.1675C17.0226 20.9169 16.6713 21.6103 16.1423 22.156C15.6132 22.7018 14.9311 23.0744 14.186 23.2247C13.8366 23.3097 13.469 23.2768 13.1402 23.1313C12.7175 22.9088 12.5016 22.4348 12.3192 21.992L10.9842 18.7969C10.3834 17.3573 9.7782 15.9044 9.4578 14.378C8.98204 12.079 9.1664 9.69239 9.98959 7.49377C10.3055 6.65716 10.7416 5.81833 11.4826 5.31547C12.9667 4.30754 15.0426 5.00397 16.7292 4.42546C17.2877 4.23188 17.7905 3.90258 18.3468 3.70455C19.5505 3.27512 20.91 3.50208 22.0693 4.04276C23.2285 4.58344 24.1652 5.43562 25.1843 6.21216C26.0676 6.89969 27.9389 7.62727 27.772 9.02681Z" fill="black"/>
<path d="M27.5679 8.85543C27.4723 9.66534 26.6178 10.1593 25.8235 10.3417C25.0292 10.5242 24.1681 10.5331 23.4717 10.9581C22.3591 11.6434 22.0588 13.1653 22.1989 14.4736C22.2768 15.2123 22.3881 16.1179 21.7829 16.5473C21.5928 16.6638 21.3807 16.7395 21.1599 16.7698C20.5286 16.8977 19.8805 16.9202 19.2419 16.8366C18.8681 16.7876 18.4831 16.7031 18.1294 16.8077C17.5464 16.9768 17.2015 17.5909 17.0881 18.185C16.9746 18.779 17.0369 19.3976 16.9457 19.9961C16.8185 20.7456 16.4673 21.4389 15.9382 21.9846C15.4091 22.5304 14.727 22.903 13.9819 23.0533C13.6326 23.1383 13.2649 23.1054 12.9362 22.9599C12.5134 22.7374 12.2976 22.2634 12.1151 21.8207L10.7801 18.6255C10.1794 17.1859 9.57415 15.733 9.25375 14.2066C8.77799 11.9077 8.96235 9.52101 9.78553 7.32238C10.1015 6.48577 10.5376 5.64694 11.2785 5.14409C12.7626 4.13615 14.8386 4.83258 16.5251 4.25408C17.0836 4.0605 17.5865 3.73119 18.1427 3.53317C19.3465 3.10374 20.7059 3.33069 21.8652 3.87137C23.0244 4.41205 23.9612 5.26424 24.9802 6.04077C25.8613 6.7283 27.7326 7.45589 27.5679 8.85543Z" fill="#4A3A2F"/>
<path opacity="0.1" d="M21.1245 39.5852C21.1245 39.5852 24.0949 51.1242 27.0519 52.1922C30.009 53.2602 28.7029 53.5628 28.7029 53.5628" fill="black"/>
<path d="M20.9849 81.8563H24.2134V103.076H20.9849V81.8563Z" fill="#D6D6E3"/>
<path opacity="0.1" d="M20.9849 81.8563H24.2134V83.4294H20.9849V81.8563Z" fill="black"/>
<path d="M30.6729 81.7451V82.1901C30.6729 82.3271 30.6459 82.4628 30.5934 82.5894C30.541 82.716 30.4641 82.8311 30.3672 82.928C30.2703 83.0249 30.1553 83.1017 30.0287 83.1542C29.9021 83.2066 29.7664 83.2336 29.6293 83.2336H15.5716C15.4346 83.2336 15.2989 83.2066 15.1723 83.1542C15.0456 83.1017 14.9306 83.0249 14.8337 82.928C14.7368 82.8311 14.6599 82.716 14.6075 82.5894C14.555 82.4628 14.5281 82.3271 14.5281 82.1901V81.7451C14.5281 81.608 14.555 81.4723 14.6075 81.3457C14.6599 81.2191 14.7368 81.1041 14.8337 81.0072C14.9306 80.9103 15.0456 80.8334 15.1723 80.781C15.2989 80.7285 15.4346 80.7015 15.5716 80.7015H29.6293C29.7664 80.7015 29.9021 80.7285 30.0287 80.781C30.1553 80.8334 30.2703 80.9103 30.3672 81.0072C30.4641 81.1041 30.541 81.2191 30.5934 81.3457C30.6459 81.4723 30.6729 81.608 30.6729 81.7451Z" fill="#D6D6E3"/>
<path opacity="0.1" d="M30.4307 81.082H14.7643C14.8619 80.9629 14.9848 80.8669 15.1241 80.8011C15.2634 80.7353 15.4157 80.7013 15.5697 80.7015H29.6274C29.7811 80.7016 29.9329 80.7358 30.0718 80.8016C30.2107 80.8674 30.3332 80.9631 30.4307 81.082Z" fill="black"/>
<path d="M10.5579 101.922H34.6349C35.3107 101.922 35.8586 102.47 35.8586 103.145V103.234C35.8586 103.91 35.3107 104.458 34.6349 104.458H10.5579C9.882 104.458 9.3341 103.91 9.3341 103.234V103.145C9.3341 102.47 9.882 101.922 10.5579 101.922Z" fill="#D6D6E3"/>
<path d="M10.8329 107.689C9.94073 107.689 9.21751 106.966 9.21751 106.074C9.21751 105.181 9.94073 104.458 10.8329 104.458C11.725 104.458 12.4482 105.181 12.4482 106.074C12.4482 106.966 11.725 107.689 10.8329 107.689Z" fill="#4A3A2F"/>
<path d="M34.3607 107.689C33.4686 107.689 32.7453 106.966 32.7453 106.074C32.7453 105.181 33.4686 104.458 34.3607 104.458C35.2529 104.458 35.9761 105.181 35.9761 106.074C35.9761 106.966 35.2529 107.689 34.3607 107.689Z" fill="#4A3A2F"/>
<path d="M22.598 107.689C21.7059 107.689 20.9827 106.966 20.9827 106.074C20.9827 105.181 21.7059 104.458 22.598 104.458C23.4902 104.458 24.2134 105.181 24.2134 106.074C24.2134 106.966 23.4902 107.689 22.598 107.689Z" fill="#4A3A2F"/>
<path d="M2.54908 55.7924H24.1385C25.183 55.7924 26.0298 56.6391 26.0298 57.6836V57.8216C26.0298 58.8661 25.183 59.7129 24.1385 59.7129H2.54908C1.50456 59.7129 0.657804 58.8661 0.657804 57.8216V57.6836C0.657804 56.6391 1.50456 55.7924 2.54908 55.7924Z" fill="#D6D6E3"/>
<path opacity="0.1" d="M20.9849 101.922C20.9849 101.922 22.2531 103.174 24.2134 101.922H20.9849Z" fill="black"/>
<path opacity="0.1" d="M0.657816 57.7926V58.1019C0.657816 58.5297 0.827757 58.94 1.13028 59.2425C1.4328 59.5451 1.84313 59.715 2.27096 59.715H24.4166C24.8445 59.715 25.2548 59.5451 25.5573 59.2425C25.8598 58.94 26.0298 58.5297 26.0298 58.1019V57.7926H0.657816Z" fill="black"/>
<path d="M42.8682 61.3972H47.2314V116.992H42.8682V61.3972Z" fill="#C4A287"/>
<path opacity="0.1" d="M42.8682 61.3972H47.2314V65.0018H42.8682V61.3972Z" fill="black"/>
<path d="M175.167 83.3738H178.396V104.594H175.167V83.3738Z" fill="#F1C19D"/>
<path opacity="0.1" d="M175.167 83.3738H178.396V84.9469H175.167V83.3738Z" fill="black"/>
<path d="M168.713 83.2647V83.7098C168.713 83.9865 168.823 84.2519 169.019 84.4476C169.214 84.6433 169.48 84.7533 169.756 84.7533H183.814C184.091 84.7533 184.356 84.6433 184.552 84.4476C184.748 84.2519 184.858 83.9865 184.858 83.7098V83.2647C184.855 82.9895 184.744 82.7264 184.549 82.5326C184.353 82.3388 184.089 82.2301 183.814 82.2301H169.756C169.619 82.2301 169.484 82.2571 169.357 82.3095C169.23 82.362 169.115 82.4388 169.019 82.5357C168.922 82.6326 168.845 82.7477 168.792 82.8743C168.74 83.0009 168.713 83.1366 168.713 83.2736V83.2647Z" fill="#F1C19D"/>
<path opacity="0.1" d="M168.95 82.5995H184.618C184.519 82.4824 184.396 82.3885 184.257 82.3247C184.118 82.2608 183.966 82.2285 183.813 82.2302H169.755C169.602 82.2285 169.45 82.2608 169.311 82.3247C169.172 82.3885 169.048 82.4824 168.95 82.5995Z" fill="black"/>
<path d="M164.745 103.439H188.822C189.498 103.439 190.046 103.987 190.046 104.663V104.752C190.046 105.428 189.498 105.976 188.822 105.976H164.745C164.069 105.976 163.521 105.428 163.521 104.752V104.663C163.521 103.987 164.069 103.439 164.745 103.439Z" fill="#F1C19D"/>
<path d="M188.546 109.206C187.654 109.206 186.93 108.483 186.93 107.591C186.93 106.699 187.654 105.976 188.546 105.976C189.438 105.976 190.161 106.699 190.161 107.591C190.161 108.483 189.438 109.206 188.546 109.206Z" fill="#4A3A2F"/>
<path d="M165.02 109.206C164.128 109.206 163.405 108.483 163.405 107.591C163.405 106.699 164.128 105.976 165.02 105.976C165.912 105.976 166.635 106.699 166.635 107.591C166.635 108.483 165.912 109.206 165.02 109.206Z" fill="#4A3A2F"/>
<path d="M176.785 109.206C175.893 109.206 175.17 108.483 175.17 107.591C175.17 106.699 175.893 105.976 176.785 105.976C177.677 105.976 178.401 106.699 178.401 107.591C178.401 108.483 177.677 109.206 176.785 109.206Z" fill="#4A3A2F"/>
<path opacity="0.1" d="M178.396 103.439C178.396 103.439 177.128 104.692 175.167 103.439H178.396Z" fill="black"/>
<path d="M96.034 39.5585C96.034 39.5585 99.6564 32.9747 98.3325 27.2519C97.7622 24.8551 97.9847 22.338 98.9666 20.0784C99.4381 19.0097 100.006 17.9864 100.664 17.0212" stroke="#535461" stroke-width="0.445005" stroke-miterlimit="10"/>
<path d="M99.8613 13.4078C99.6722 14.2711 100.685 17.1169 100.685 17.1169C100.685 17.1169 102.796 14.9587 102.987 14.0954C103.051 13.8843 103.071 13.6624 103.045 13.4434C103.02 13.2244 102.949 13.0131 102.837 12.8228C102.726 12.6325 102.576 12.4672 102.398 12.3374C102.22 12.2077 102.017 12.1161 101.801 12.0686C101.586 12.0211 101.363 12.0186 101.147 12.0613C100.931 12.104 100.725 12.1909 100.544 12.3167C100.363 12.4424 100.21 12.6043 100.094 12.792C99.9787 12.9798 99.9032 13.1895 99.8724 13.4078H99.8613Z" fill="#6C63FF"/>
<path d="M96.2287 17.6198C96.538 18.4475 98.9344 20.2898 98.9344 20.2898C98.9344 20.2898 99.5351 17.3305 99.2236 16.5073C99.1569 16.3023 99.0495 16.1129 98.9077 15.9504C98.7659 15.788 98.5928 15.6559 98.3987 15.5621C98.2047 15.4683 97.9936 15.4146 97.7783 15.4044C97.5629 15.3942 97.3478 15.4276 97.1457 15.5026C96.9436 15.5776 96.7587 15.6927 96.6022 15.8409C96.4457 15.9892 96.3208 16.1676 96.2349 16.3653C96.1491 16.563 96.1041 16.7761 96.1026 16.9917C96.1012 17.2072 96.1433 17.4209 96.2265 17.6198H96.2287Z" fill="#6C63FF"/>
<path d="M94.5454 25.8124C95.2307 26.3709 98.2278 26.7469 98.2278 26.7469C98.2278 26.7469 97.251 23.8899 96.5657 23.3315C96.403 23.1967 96.2153 23.0954 96.0133 23.0335C95.8113 22.9717 95.5991 22.9504 95.3888 22.971C95.1786 22.9916 94.9745 23.0536 94.7883 23.1535C94.6022 23.2534 94.4377 23.3892 94.3043 23.553C94.1709 23.7168 94.0713 23.9054 94.0111 24.1079C93.951 24.3104 93.9316 24.5228 93.954 24.7329C93.9764 24.943 94.0402 25.1465 94.1417 25.3318C94.2432 25.5171 94.3804 25.6804 94.5454 25.8124Z" fill="#6C63FF"/>
<path d="M94.6674 32.296C95.2481 32.9635 98.1384 33.8401 98.1384 33.8401C98.1384 33.8401 97.66 30.8586 97.0793 30.1933C96.9435 30.0277 96.7758 29.891 96.5861 29.7915C96.3965 29.6919 96.1888 29.6314 95.9753 29.6136C95.7618 29.5958 95.547 29.621 95.3435 29.6878C95.1399 29.7546 94.9519 29.8616 94.7905 30.0024C94.6291 30.1432 94.4976 30.3151 94.4039 30.5076C94.3101 30.7002 94.256 30.9097 94.2448 31.1236C94.2335 31.3375 94.2653 31.5515 94.3383 31.7529C94.4112 31.9543 94.5239 32.139 94.6696 32.296H94.6674Z" fill="#6C63FF"/>
<path d="M102.177 21.1732C101.425 21.6382 98.4059 21.6182 98.4059 21.6182C98.4059 21.6182 99.7409 18.9104 100.493 18.4453C100.672 18.3279 100.872 18.2475 101.082 18.2087C101.292 18.17 101.508 18.1738 101.717 18.2199C101.925 18.2659 102.123 18.3534 102.297 18.477C102.472 18.6006 102.619 18.7579 102.732 18.9396C102.844 19.1213 102.919 19.3237 102.952 19.5348C102.985 19.746 102.976 19.9616 102.924 20.169C102.872 20.3764 102.78 20.5713 102.651 20.7422C102.523 20.9132 102.362 21.0567 102.177 21.1643V21.1732Z" fill="#6C63FF"/>
<path d="M102.221 28.7605C101.365 28.983 98.4877 28.0663 98.4877 28.0663C98.4877 28.0663 100.573 25.8814 101.429 25.6633C101.833 25.5774 102.255 25.651 102.606 25.8688C102.957 26.0866 103.21 26.4316 103.312 26.8317C103.414 27.2318 103.358 27.656 103.155 28.0155C102.951 28.375 102.617 28.642 102.221 28.7605Z" fill="#6C63FF"/>
<path d="M101.259 36.1388C100.453 36.4992 97.4607 36.0854 97.4607 36.0854C97.4607 36.0854 99.1472 33.58 99.9527 33.2195C100.34 33.0463 100.78 33.0341 101.177 33.1856C101.573 33.3371 101.893 33.6398 102.066 34.0272C102.24 34.4146 102.252 34.855 102.1 35.2514C101.949 35.6478 101.646 35.9678 101.259 36.141V36.1388Z" fill="#6C63FF"/>
<path d="M99.8613 13.4078C99.6722 14.2711 100.685 17.1169 100.685 17.1169C100.685 17.1169 102.796 14.9587 102.987 14.0954C103.051 13.8843 103.071 13.6624 103.045 13.4434C103.02 13.2244 102.949 13.0131 102.837 12.8228C102.726 12.6325 102.576 12.4672 102.398 12.3374C102.22 12.2077 102.017 12.1161 101.801 12.0686C101.586 12.0211 101.363 12.0186 101.147 12.0613C100.931 12.104 100.725 12.1909 100.544 12.3167C100.363 12.4424 100.21 12.6043 100.094 12.792C99.9787 12.9798 99.9032 13.1895 99.8724 13.4078H99.8613Z" fill="#7F6858"/>
<path d="M96.2287 17.6198C96.538 18.4475 98.9344 20.2898 98.9344 20.2898C98.9344 20.2898 99.5351 17.3305 99.2236 16.5073C99.1569 16.3023 99.0495 16.1129 98.9077 15.9504C98.7659 15.788 98.5928 15.6559 98.3987 15.5621C98.2047 15.4683 97.9936 15.4146 97.7783 15.4044C97.5629 15.3942 97.3478 15.4276 97.1457 15.5026C96.9436 15.5776 96.7587 15.6927 96.6022 15.8409C96.4457 15.9892 96.3208 16.1676 96.2349 16.3653C96.1491 16.563 96.1041 16.7761 96.1026 16.9917C96.1012 17.2072 96.1433 17.4209 96.2265 17.6198H96.2287Z" fill="#7F6858"/>
<path d="M94.5454 25.8124C95.2307 26.3709 98.2278 26.7469 98.2278 26.7469C98.2278 26.7469 97.251 23.8899 96.5657 23.3315C96.403 23.1967 96.2153 23.0954 96.0133 23.0335C95.8113 22.9717 95.5991 22.9504 95.3888 22.971C95.1786 22.9916 94.9745 23.0536 94.7883 23.1535C94.6022 23.2534 94.4377 23.3892 94.3043 23.553C94.1709 23.7168 94.0713 23.9054 94.0111 24.1079C93.951 24.3104 93.9316 24.5228 93.954 24.7329C93.9764 24.943 94.0402 25.1465 94.1417 25.3318C94.2432 25.5171 94.3804 25.6804 94.5454 25.8124Z" fill="#7F6858"/>
<path d="M94.6674 32.296C95.2481 32.9635 98.1384 33.8401 98.1384 33.8401C98.1384 33.8401 97.66 30.8586 97.0793 30.1933C96.9435 30.0277 96.7758 29.891 96.5861 29.7915C96.3965 29.6919 96.1888 29.6314 95.9753 29.6136C95.7618 29.5958 95.547 29.621 95.3435 29.6878C95.1399 29.7546 94.9519 29.8616 94.7905 30.0024C94.6291 30.1432 94.4976 30.3151 94.4039 30.5076C94.3101 30.7002 94.256 30.9097 94.2448 31.1236C94.2335 31.3375 94.2653 31.5515 94.3383 31.7529C94.4112 31.9543 94.5239 32.139 94.6696 32.296H94.6674Z" fill="#7F6858"/>
<path d="M102.177 21.1732C101.425 21.6382 98.4059 21.6182 98.4059 21.6182C98.4059 21.6182 99.7409 18.9104 100.493 18.4453C100.672 18.3279 100.872 18.2475 101.082 18.2087C101.292 18.17 101.508 18.1738 101.717 18.2199C101.925 18.2659 102.123 18.3534 102.297 18.477C102.472 18.6006 102.619 18.7579 102.732 18.9396C102.844 19.1213 102.919 19.3237 102.952 19.5348C102.985 19.746 102.976 19.9616 102.924 20.169C102.872 20.3764 102.78 20.5713 102.651 20.7422C102.523 20.9132 102.362 21.0567 102.177 21.1643V21.1732Z" fill="#7F6858"/>
<path d="M102.221 28.7605C101.365 28.983 98.4877 28.0663 98.4877 28.0663C98.4877 28.0663 100.573 25.8814 101.429 25.6633C101.833 25.5774 102.255 25.651 102.606 25.8688C102.957 26.0866 103.21 26.4316 103.312 26.8317C103.414 27.2318 103.358 27.656 103.155 28.0155C102.951 28.375 102.617 28.642 102.221 28.7605Z" fill="#7F6858"/>
<path d="M101.259 36.1388C100.453 36.4992 97.4607 36.0854 97.4607 36.0854C97.4607 36.0854 99.1472 33.58 99.9527 33.2195C100.34 33.0463 100.78 33.0341 101.177 33.1856C101.573 33.3371 101.893 33.6398 102.066 34.0272C102.24 34.4146 102.252 34.855 102.1 35.2514C101.949 35.6478 101.646 35.9678 101.259 36.141V36.1388Z" fill="#7F6858"/>
<path d="M97.5052 57.8193C98.0264 57.8194 98.542 57.7127 99.0203 57.5058C99.4986 57.2989 99.9294 56.9961 100.286 56.6162C100.643 56.2364 100.918 55.7874 101.094 55.297C101.271 54.8067 101.345 54.2854 101.312 53.7653L100.246 36.8773H94.764L93.6982 53.7653C93.6654 54.2854 93.7395 54.8067 93.916 55.297C94.0924 55.7874 94.3675 56.2364 94.7243 56.6162C95.081 56.9961 95.5118 57.2989 95.9901 57.5058C96.4685 57.7127 96.9841 57.8194 97.5052 57.8193Z" fill="#7F6858"/>
<path d="M143.643 107.865L149.297 104.258C149.326 99.1782 149.406 75.5951 148.349 72.44C148.077 71.5267 148.061 70.5558 148.305 69.6343C149.039 66.428 151.718 64.0339 154.964 63.5066C158.026 63.0082 162.431 62.1916 165.978 61.1369C162.816 60.8098 160.447 60.5272 160.447 60.5272L160.384 59.9421L158.348 59.8442V59.7574L158.155 59.7463C153.4 59.4637 143.303 58.5225 146.734 55.7056C147.911 54.74 149.446 54.2838 151.066 54.1303C146.113 53 138.372 50.8106 141.823 48.7524C145.103 46.7988 150.125 48.3341 153.122 49.5823L153.307 49.6602L153.34 49.391L154.537 49.6313L154.917 49.7069L154.935 49.3153L171.732 51.9097C171.864 49.9852 172.092 48.0685 172.417 46.1669C172.041 43.6616 170.292 40.0081 170.909 38.0478C171.625 35.7716 174.567 35.0262 175.804 32.9703C176.129 32.4341 176.451 31.9312 176.767 31.4907C177.459 30.5509 178.254 29.6919 179.137 28.9297C179.083 27.6077 178.788 26.3067 178.265 25.0915C177.929 24.2785 177.537 23.4904 177.09 22.733C175.132 22.2473 173.433 21.033 172.34 19.3378C171.247 17.6426 170.842 15.5941 171.207 13.6104C170.143 14.0665 168.851 14.1132 168.185 13.2232L168.501 13.1008C168.47 13.0674 168.439 13.0341 168.412 12.9962C169.06 12.7493 169.747 12.4689 170.255 12.0195C170.383 11.8752 170.492 11.7143 170.577 11.5411C170.884 10.9181 170.849 10.1705 171.142 9.53855C171.281 9.25084 171.477 8.99479 171.719 8.78649C172.234 8.25966 172.886 7.88676 173.601 7.70958C174.404 7.47595 175.25 7.35803 176.02 7.04207C177.069 5.82376 178.454 4.94179 180.002 4.50646C181.549 4.07114 183.191 4.10178 184.722 4.59454L185 4.69022C184.807 3.75893 184.987 2.78904 185.502 1.98926C186.016 1.18948 186.824 0.62373 187.752 0.413765C188.68 0.2038 189.653 0.366398 190.462 0.866572C191.271 1.36675 191.851 2.16451 192.078 3.0882C192.007 2.27729 191.665 1.51381 191.108 0.921027C191.165 0.969977 191.225 1.0167 191.281 1.06788C191.629 1.39454 191.908 1.78644 192.104 2.2212C192.3 2.65596 192.409 3.12506 192.423 3.60173C192.438 4.07839 192.359 4.55327 192.19 4.99926C192.021 5.44524 191.766 5.8536 191.439 6.20101L191.375 6.26331C191.118 6.57763 190.81 6.84685 190.465 7.05987C191.1 6.83527 191.661 6.43799 192.084 5.91255C192.507 5.38712 192.775 4.75429 192.859 4.08501C192.859 4.16066 192.859 4.23631 192.859 4.30751C192.831 4.78567 192.709 5.2536 192.499 5.68438C192.29 6.11516 191.998 6.50026 191.639 6.81751C191.28 7.13476 190.862 7.37789 190.409 7.5329C189.956 7.68791 189.476 7.75174 188.998 7.72071L188.898 7.70958L188.951 7.78301C189.986 9.30488 190.477 11.1316 190.343 12.9671C190.21 14.8026 189.461 16.5393 188.217 17.8957C188.07 18.234 187.873 18.5489 187.634 18.8303C187.55 18.9263 187.46 19.017 187.365 19.1017C186.756 19.7447 185.922 20.1287 185.038 20.1742C184.889 20.3507 184.731 20.5205 184.564 20.6837C184.71 21.3079 184.902 21.9207 185.138 22.5171C185.612 23.7049 186.202 24.8429 186.9 25.9147C191.706 27.2809 192.129 35.4423 191.955 35.7516C191.748 36.1209 192.672 48.9371 189.112 64.4188C189.259 68.8444 186.678 76.1625 177.515 74.2334C166.056 74.8453 162.298 76.6008 162.298 76.6008C162.298 76.6008 163.386 96.5304 161.833 99.4318C160.861 101.25 161.55 103.92 162.278 105.804C162.548 106.271 162.763 106.766 162.919 107.282C163.141 107.751 163.304 108.036 163.304 108.036H163.148C163.735 110.076 164.151 112.539 164.151 112.539C164.151 112.539 150.261 115.359 144.151 113.514C141.779 112.798 141.681 112.135 142.451 111.587C141.884 111.504 141.323 111.381 140.773 111.22C134.659 109.375 143.643 107.865 143.643 107.865Z" fill="url(#paint1_linear)"/>
<path d="M173.868 13.2544C173.868 14.8386 174.338 16.3873 175.218 17.7045C176.099 19.0218 177.35 20.0485 178.813 20.6547C180.277 21.261 181.887 21.4196 183.441 21.1105C184.995 20.8015 186.422 20.0386 187.543 18.9183C188.663 17.7981 189.426 16.3709 189.735 14.817C190.044 13.2632 189.885 11.6527 189.279 10.189C188.673 8.72538 187.646 7.47437 186.329 6.59421C185.011 5.71405 183.463 5.24426 181.879 5.24426C180.827 5.24426 179.785 5.45145 178.813 5.854C177.841 6.25654 176.958 6.84656 176.215 7.59037C175.471 8.33417 174.881 9.2172 174.478 10.189C174.076 11.1609 173.868 12.2025 173.868 13.2544Z" fill="#4A3A2F"/>
<path d="M155.824 50.8862L155.012 54.9402C155.012 54.9402 154.109 54.7777 152.772 54.4952C148.204 53.5273 138.552 51.1376 142.29 48.9081C145.505 46.9924 150.429 48.4987 153.366 49.7225C154.443 50.1675 155.253 50.5813 155.615 50.7749C155.751 50.8439 155.824 50.8862 155.824 50.8862Z" fill="#CBCCD0"/>
<path opacity="0.1" d="M155.595 52.0299L155.012 54.9402C155.012 54.9402 154.109 54.7778 152.772 54.4952L153.366 49.7225C154.443 50.1675 155.253 50.5814 155.615 50.775L155.595 52.0299Z" fill="black"/>
<path d="M155.737 55.1915L152.947 54.6331L153.579 49.5355L155.813 49.9827L155.737 55.1915Z" fill="#D9DFE8"/>
<path opacity="0.1" d="M155.737 55.1915L154.533 54.949L154.754 49.7714L155.813 49.9827L155.737 55.1915Z" fill="black"/>
<path d="M181.453 33.057C181.453 33.057 176.022 30.2268 174.048 39.1202C172.074 48.0137 172.045 52.0677 172.045 52.0677L155.153 49.4577L154.891 55.5965C154.891 55.5965 173.047 60.5873 175.278 60.0666C177.51 59.546 184.285 46.9723 184.285 46.9723C184.285 46.9723 190.493 37.1934 181.453 33.057Z" fill="#C4A287"/>
<g opacity="0.1">
<path opacity="0.1" d="M155.824 50.8862L155.012 54.9402C155.012 54.9402 154.108 54.7777 152.771 54.4952C148.203 53.5273 138.551 51.1376 142.289 48.9081C145.504 46.9924 150.428 48.4987 153.365 49.7225C154.442 50.1675 155.252 50.5813 155.615 50.7749C155.751 50.8439 155.824 50.8862 155.824 50.8862Z" fill="black"/>
<path opacity="0.1" d="M155.595 52.0299L155.012 54.9402C155.012 54.9402 154.108 54.7778 152.771 54.4952L153.365 49.7225C154.442 50.1675 155.252 50.5814 155.615 50.775L155.595 52.0299Z" fill="black"/>
<path opacity="0.1" d="M155.734 55.1915L152.944 54.6331L153.576 49.5355L155.81 49.9827L155.734 55.1915Z" fill="black"/>
<path opacity="0.1" d="M155.734 55.1915L154.53 54.949L154.751 49.7714L155.81 49.9827L155.734 55.1915Z" fill="black"/>
<path opacity="0.1" d="M181.006 33.502C181.006 33.502 175.575 30.6717 173.601 39.5652C171.628 48.4586 171.599 52.5126 171.599 52.5126L154.707 49.9026L154.444 56.0415C154.444 56.0415 172.6 61.0322 174.832 60.5116C177.064 59.9909 183.839 47.4173 183.839 47.4173C183.839 47.4173 190.047 37.6383 181.006 33.502Z" fill="black"/>
</g>
<path d="M150.727 102.636L144.065 106.863C144.065 106.863 135.257 108.339 141.249 110.148C147.241 111.956 160.858 109.191 160.858 109.191C160.858 109.191 159.823 103.063 158.722 102.251C157.62 101.439 150.727 102.636 150.727 102.636Z" fill="#4A3A2F"/>
<path d="M175.426 57.2875C175.426 57.2875 172.104 59.2166 166.129 61.0189C162.627 62.0758 158.222 62.8924 155.178 63.3886C153.616 63.6296 152.162 64.3295 150.999 65.3992C149.836 66.4689 149.018 67.8601 148.647 69.3961C148.408 70.2993 148.423 71.2509 148.69 72.1463C149.851 75.6218 149.615 104.291 149.615 104.291L160.037 104.792C160.037 104.792 158.389 99.5831 160.42 96.8329C162.451 94.0828 159.049 73.9753 159.049 73.9753C159.049 73.9753 162.741 72.2531 173.977 71.6545C184.508 73.8796 188.293 62.2761 186.544 59.1521C184.795 56.0282 175.426 57.2875 175.426 57.2875Z" fill="#7F6858"/>
<g opacity="0.1">
<path opacity="0.1" d="M150.728 102.636L144.066 106.863C144.066 106.863 135.257 108.338 141.249 110.147C147.241 111.956 160.858 109.191 160.858 109.191C160.858 109.191 159.824 103.063 158.722 102.251C157.621 101.439 150.728 102.636 150.728 102.636Z" fill="black"/>
<path opacity="0.1" d="M175.426 57.2875C175.426 57.2875 172.104 59.2166 166.129 61.0189C162.627 62.0758 158.222 62.8924 155.178 63.3886C153.616 63.6296 152.162 64.3295 150.999 65.3992C149.836 66.4689 149.018 67.8601 148.647 69.3961C148.408 70.2993 148.423 71.2509 148.69 72.1463C149.851 75.6218 149.615 104.291 149.615 104.291L160.037 104.792C160.037 104.792 158.389 99.5831 160.42 96.8329C162.451 94.0828 159.049 73.9753 159.049 73.9753C159.049 73.9753 162.741 72.2531 173.977 71.6545C184.508 73.8796 188.293 62.2761 186.544 59.1521C184.795 56.0282 175.426 57.2875 175.426 57.2875Z" fill="black"/>
</g>
<path d="M154.047 104.885L147.385 109.113C147.385 109.113 138.577 110.588 144.569 112.397C150.561 114.206 164.178 111.44 164.178 111.44C164.178 111.44 163.143 105.313 162.042 104.5C160.94 103.688 154.047 104.885 154.047 104.885Z" fill="#4A3A2F"/>
<path d="M177.285 73.9019C166.048 74.5004 162.357 76.2226 162.357 76.2226C162.357 76.2226 163.423 95.7627 161.912 98.6063C160.299 101.623 163.354 107.039 163.354 107.039L152.932 106.539C152.932 106.539 152.932 106.2 152.932 105.595C152.963 100.616 153.038 77.4931 152.004 74.3936C151.737 73.4982 151.723 72.5466 151.962 71.6435C152.332 70.1076 153.151 68.7165 154.313 67.6468C155.476 66.5772 156.931 65.8772 158.492 65.6359C161.538 65.1419 165.941 64.3254 169.444 63.2685L169.615 63.2151C175.482 61.4351 178.738 59.5371 178.738 59.5371C178.738 59.5371 185.677 59.0565 187.415 62.1804C187.638 62.5854 188.597 63.3819 188.637 64.025C188.897 68.3282 186.447 75.831 177.285 73.9019Z" fill="#7F6858"/>
<path d="M160.782 55.6633L160.584 59.793C160.584 59.793 159.668 59.7685 158.302 59.6862C153.64 59.408 143.739 58.4869 147.103 55.7256C149.996 53.3515 155.091 54.108 158.177 54.8801C159.31 55.1649 160.179 55.4497 160.558 55.5854C160.705 55.6344 160.782 55.6633 160.782 55.6633Z" fill="#CBCCD0"/>
<path d="M187.217 27.559C187.217 27.559 185.882 28.7093 184.226 29.9821C182.38 30.4849 180.221 30.9321 178.679 31.2281C179.158 29.4147 178.733 27.4455 178.027 25.7122C177.262 23.9093 176.246 22.2232 175.01 20.7037L184.289 17.3506C183.632 19.253 184.066 21.3779 184.771 23.1957C185.394 24.7499 186.216 26.2167 187.217 27.559Z" fill="#CBCCD0"/>
<path opacity="0.1" d="M160.726 56.8269L160.584 59.7929C160.584 59.7929 159.667 59.7684 158.301 59.6861L158.176 54.8778C159.309 55.1626 160.179 55.4474 160.557 55.5831L160.726 56.8269Z" fill="black"/>
<path d="M161.337 59.9331L158.496 59.7974L158.362 54.662L160.636 54.771L161.337 59.9331Z" fill="#D9DFE8"/>
<path d="M171.134 56.2797L171.134 56.2813C170.577 58.5943 169.292 59.7452 168.241 60.6867C168.02 60.8851 167.809 61.0741 167.617 61.2628C167.645 61.2842 167.678 61.3099 167.716 61.3395C167.845 61.4388 168.035 61.5829 168.279 61.7614C169.783 62.8585 173.326 65.2559 177.238 66.6001C181.146 67.943 185.38 68.222 188.335 65.1711C190.205 57.3902 190.904 50.2376 191.161 44.9817C191.289 42.3506 191.307 40.195 191.306 38.6738C191.306 38.3057 191.304 37.9739 191.303 37.6815C191.302 37.3707 191.3 37.1045 191.301 36.8864C191.302 36.6745 191.304 36.5054 191.309 36.383C191.312 36.3219 191.315 36.2705 191.32 36.2303C191.323 36.2102 191.326 36.1912 191.33 36.1743C191.333 36.1593 191.339 36.1378 191.35 36.1178C191.348 36.1205 191.348 36.1221 191.348 36.1221C191.347 36.122 191.35 36.1133 191.353 36.0894C191.357 36.061 191.361 36.0212 191.363 35.9698C191.367 35.8673 191.367 35.7256 191.36 35.5503C191.346 35.2001 191.305 34.7211 191.225 34.1644C191.064 33.0505 190.744 31.6316 190.162 30.3144C189.579 28.9963 188.737 27.7906 187.538 27.0875C186.346 26.3881 184.785 26.1766 182.736 26.8737L182.734 26.8752L182.701 26.8931C182.672 26.909 182.63 26.9328 182.575 26.9642C182.465 27.0272 182.304 27.1207 182.105 27.2428C181.707 27.4869 181.152 27.8449 180.527 28.2998C179.276 29.2105 177.752 30.5057 176.643 32.0496L176.643 32.0498C176.334 32.478 176.02 32.969 175.702 33.4929C175.147 34.4168 174.25 35.0762 173.385 35.7117C173.283 35.7864 173.182 35.8608 173.082 35.9352C172.12 36.6503 171.252 37.3718 170.914 38.4483C170.746 38.9807 170.763 39.6573 170.888 40.421C171.013 41.1829 171.243 42.0182 171.491 42.8629C171.544 43.0451 171.598 43.2277 171.653 43.4101C171.849 44.0709 172.044 44.7282 172.194 45.3453C172.385 46.1315 172.506 46.8652 172.458 47.4705C172.23 50.4349 171.787 53.379 171.134 56.2797Z" fill="#C4A287" stroke="#F1C19D" stroke-width="0.222503"/>
<path opacity="0.1" d="M188.496 48.1338C188.496 48.1338 183.67 61.5774 181.541 62.4251C180.321 62.9102 173.671 62.3873 168.211 61.8511C167.721 61.4928 167.447 61.2726 167.447 61.2726C168.56 60.14 169.465 57.806 170.146 54.9713L177.153 54.9958C177.153 54.9958 176.586 50.9907 177.213 41.8926C177.84 32.7944 183.632 34.7947 183.632 34.7947C193.184 37.5338 188.496 48.1338 188.496 48.1338Z" fill="black"/>
<path opacity="0.1" d="M161.337 59.9331L160.111 59.8752L159.557 54.7198L160.636 54.771L161.337 59.9331Z" fill="black"/>
<path d="M183.468 34.2162C183.468 34.2162 177.683 32.2293 177.049 41.3141C176.415 50.3988 176.982 54.4172 176.982 54.4172L159.889 54.3549L160.546 60.4649C160.546 60.4649 179.236 62.6899 181.372 61.8466C183.508 61.0033 188.33 47.5575 188.33 47.5575C188.33 47.5575 193.022 36.9552 183.468 34.2162Z" fill="#C4A287"/>
<path opacity="0.1" d="M183.256 20.8193C182.946 19.4843 184.368 19.442 184.813 18.1493L175.53 21.4868C176.222 22.3345 176.845 23.2355 177.395 24.1813C177.889 24.3045 178.395 24.379 178.904 24.4038C181.16 24.5151 181.763 22.2834 183.256 20.8193Z" fill="black"/>
<path d="M178.374 23.6245C174.083 23.4184 170.772 19.7727 170.978 15.4816C171.184 11.1905 174.83 7.87893 179.121 8.08504C183.412 8.29116 186.723 11.9369 186.517 16.228C186.311 20.5191 182.665 23.8306 178.374 23.6245Z" fill="#CBCCD0"/>
<path opacity="0.1" d="M182.767 39.9857C182.767 39.9857 180.306 51.6426 177.4 52.833C174.494 54.0234 175.811 54.2771 175.811 54.2771" fill="black"/>
<path opacity="0.1" d="M172.625 46.5696C172.625 46.5696 174.681 47.2127 177.075 44.1399L172.625 46.5696Z" fill="black"/>
<path d="M188.107 8.58175C186.141 8.58175 184.547 6.98787 184.547 5.02171C184.547 3.05555 186.141 1.46167 188.107 1.46167C190.073 1.46167 191.667 3.05555 191.667 5.02171C191.667 6.98787 190.073 8.58175 188.107 8.58175Z" fill="#4A3A2F"/>
<path d="M190.609 6.90183C191.228 6.24195 191.572 5.37121 191.572 4.46654C191.572 3.56187 191.228 2.69114 190.609 2.03125C190.667 2.07798 190.725 2.1247 190.778 2.17588C191.466 2.82264 191.869 3.71625 191.898 4.66013C191.927 5.604 191.58 6.52081 190.934 7.20889C190.287 7.89696 189.393 8.29993 188.449 8.32913C187.506 8.35834 186.589 8.0114 185.901 7.36464C185.845 7.31346 185.796 7.25784 185.747 7.20444C186.444 7.78124 187.335 8.07098 188.238 8.01478C189.141 7.95857 189.989 7.56063 190.609 6.90183Z" fill="#4A3A2F"/>
<path d="M188.576 8.24583C189.48 8.30025 190.37 8.00845 191.066 7.42979C191.762 6.85113 192.211 6.02907 192.323 5.1308C192.323 5.20422 192.323 5.27765 192.323 5.3533C192.264 6.29571 191.833 7.17608 191.125 7.80074C190.774 8.11004 190.366 8.34725 189.924 8.49883C189.482 8.65041 189.014 8.71338 188.547 8.68416C188.08 8.65494 187.624 8.5341 187.204 8.32853C186.784 8.12296 186.409 7.8367 186.1 7.48607C185.79 7.13545 185.553 6.72734 185.402 6.28505C185.25 5.84275 185.187 5.37493 185.216 4.90829C185.216 4.83264 185.232 4.76144 185.241 4.68579C185.239 5.5923 185.583 6.46535 186.203 7.12688C186.823 7.78842 187.671 8.18861 188.576 8.24583Z" fill="#4A3A2F"/>
<path opacity="0.1" d="M175.882 8.11679C175.053 8.5262 174.102 8.63967 173.212 8.89778C172.322 9.15588 171.415 9.62758 171.023 10.4686C170.736 11.0872 170.769 11.8192 170.469 12.4311C170.037 13.3211 169.041 13.7305 168.124 14.0799C168.911 15.1367 170.602 14.8497 171.706 14.131C172.81 13.4124 173.76 12.351 175.044 12.0729C175.677 11.948 176.334 12.0218 176.923 12.2843C177.513 12.5467 178.008 12.985 178.339 13.5392C178.69 14.1555 178.815 14.8742 178.989 15.5595C179.434 17.3662 180.324 19.1641 181.881 20.1898C183.439 21.2155 185.759 21.2088 186.981 19.8049C187.693 18.986 187.931 17.8713 188.142 16.8077C188.263 16.3118 188.32 15.8028 188.314 15.2925C188.242 14.0153 187.393 12.9273 186.534 11.9794C185.521 10.8669 184.444 9.79891 183.367 8.73757C182.437 7.82086 181.365 6.2678 179.963 6.15877C178.348 6.02972 177.206 7.46931 175.882 8.11679Z" fill="black"/>
<path d="M176.103 7.89426C175.273 8.30366 174.323 8.41714 173.433 8.67524C172.543 8.93335 171.636 9.40505 171.244 10.2461C170.957 10.8647 170.99 11.5967 170.69 12.2086C170.258 13.0986 169.261 13.508 168.345 13.8573C169.132 14.9142 170.823 14.6272 171.927 13.9085C173.031 13.1898 173.981 12.1285 175.265 11.8504C175.898 11.7254 176.555 11.7993 177.144 12.0617C177.734 12.3242 178.229 12.7625 178.56 13.3166C178.911 13.933 179.036 14.6517 179.21 15.337C179.655 17.1437 180.545 18.9415 182.102 19.9673C183.66 20.993 185.98 20.9863 187.202 19.5823C187.914 18.7635 188.152 17.6488 188.363 16.5852C188.484 16.0893 188.541 15.5802 188.535 15.07C188.463 13.7928 187.613 12.7048 186.755 11.7569C185.742 10.6444 184.665 9.57638 183.588 8.51504C182.658 7.59833 181.586 6.04526 180.184 5.93624C178.569 5.80718 177.427 7.24678 176.103 7.89426Z" fill="#4A3A2F"/>
<path d="M175.245 57.3098H196.835C197.879 57.3098 198.726 58.1566 198.726 59.2011V59.339C198.726 60.3836 197.879 61.2303 196.835 61.2303H175.245C174.201 61.2303 173.354 60.3836 173.354 59.339V59.2011C173.354 58.1566 174.201 57.3098 175.245 57.3098Z" fill="#D6D6E3"/>
<path opacity="0.1" d="M198.726 59.3124V59.6217C198.726 60.0495 198.556 60.4598 198.253 60.7623C197.951 61.0648 197.541 61.2348 197.113 61.2348H174.967C174.539 61.2348 174.129 61.0648 173.826 60.7623C173.524 60.4598 173.354 60.0495 173.354 59.6217V59.3124H198.726Z" fill="black"/>
<path d="M149.68 61.3972H154.043V116.985H149.68V61.3972Z" fill="#C4A287"/>
<path opacity="0.1" d="M149.68 61.3972H154.043V65.0018H149.68V61.3972Z" fill="black"/>
<path d="M40.7825 57.4122H156.132V64.6213H40.7825V57.4122Z" fill="#C4A287"/>
<defs>
<linearGradient id="paint0_linear" x1="37.9632" y1="115.099" x2="27.654" y2="0.552838" gradientUnits="userSpaceOnUse">
<stop stop-color="#808080" stop-opacity="0.25"/>
<stop offset="0.54" stop-color="#808080" stop-opacity="0.12"/>
<stop offset="1" stop-color="#808080" stop-opacity="0.1"/>
</linearGradient>
<linearGradient id="paint1_linear" x1="-17671.7" y1="80625.2" x2="-17671.7" y2="22422" gradientUnits="userSpaceOnUse">
<stop stop-color="#808080" stop-opacity="0.25"/>
<stop offset="0.54" stop-color="#808080" stop-opacity="0.12"/>
<stop offset="1" stop-color="#808080" stop-opacity="0.1"/>
</linearGradient>
</defs>
</svg>
