<svg width="19" height="19" viewBox="0 0 19 19" fill="none" xmlns="http://www.w3.org/2000/svg">
<g clip-path="url(#clip0)">
<path d="M12.6365 11.8211C12.5796 11.6634 12.4057 11.5816 12.248 11.6385C12.0903 11.6953 12.0086 11.8692 12.0654 12.0269C12.0668 12.0308 12.0683 12.0346 12.0698 12.0384C12.3466 12.7608 12.3667 13.3132 12.1245 13.556C11.8307 13.8492 11.0989 13.7576 10.1664 13.3114C8.91813 12.6632 7.78345 11.8165 6.80675 10.8043C4.42926 8.42651 3.44828 6.09333 4.05502 5.48659C4.24863 5.33369 4.50029 5.27496 4.74159 5.32633C4.90875 5.33862 5.05425 5.21304 5.06654 5.04588C5.07842 4.88429 4.9613 4.74186 4.80047 4.72232C4.37846 4.64765 3.94548 4.77069 3.62584 5.05619C2.51373 6.168 4.21376 9.06815 6.37757 11.2323C7.40276 12.2932 8.594 13.1799 9.9045 13.8574C10.1418 13.9711 10.3864 14.0689 10.6366 14.1503L8.48007 14.968C5.6004 13.8732 3.52738 11.3203 3.04702 8.27717C3.02103 8.11156 2.8657 7.99835 2.70009 8.02434C2.53449 8.05033 2.42127 8.20566 2.44726 8.37126C2.49491 8.67479 2.55865 8.97831 2.63666 9.27515C3.33559 11.9233 5.1765 14.1233 7.65995 15.2782L4.11056 16.6213C4.09429 16.5941 4.0738 16.5698 4.04986 16.5491C3.14779 15.8248 2.5818 14.7627 2.48368 13.6101L2.34285 11.9046C2.33177 11.7393 2.18881 11.6144 2.02354 11.6254C2.02039 11.6257 2.01725 11.6259 2.01413 11.6262C1.84705 11.6395 1.72234 11.7858 1.73562 11.9529C1.73565 11.9535 1.73573 11.9543 1.7358 11.955L1.87907 13.6598C1.98576 14.8919 2.56047 16.0362 3.485 16.8574L0.953021 17.816L1.4083 15.9475C1.44803 15.7845 1.34817 15.6202 1.18522 15.5805C1.02226 15.5408 0.85798 15.6407 0.818257 15.8036L0.226085 18.2318C0.186172 18.3946 0.285803 18.559 0.448643 18.5988C0.508361 18.6135 0.571076 18.6096 0.628555 18.5878L11.8589 14.3385C11.8767 14.3298 11.8936 14.3192 11.9093 14.3069C12.1523 14.2696 12.3776 14.1572 12.5536 13.9855C12.8544 13.6847 13.1133 13.0646 12.6365 11.8211Z" fill="#575957"/>
<path d="M15.5026 11.0383C13.8618 10.424 12.0884 10.2518 10.3601 10.539L9.27558 10.7211C9.11096 10.7527 9.00317 10.9118 9.03481 11.0764C9.06539 11.2355 9.21544 11.3425 9.37574 11.3196L10.4599 11.139C12.0831 10.8692 13.7487 11.031 15.2896 11.6083C15.3238 11.6204 15.3598 11.6265 15.3961 11.6262C15.5637 11.6265 15.6999 11.4908 15.7001 11.3232C15.7003 11.1963 15.6216 11.0826 15.5026 11.0383Z" fill="#575957"/>
<path d="M16.5796 6.33585C16.5075 6.18447 16.3264 6.1202 16.175 6.19228L9.80107 9.22751C9.64972 9.29955 9.58541 9.48064 9.65746 9.63203C9.65746 9.63206 9.6575 9.6321 9.6575 9.6321C9.72955 9.78344 9.91064 9.84775 10.062 9.7757C10.0621 9.7757 10.0621 9.77567 10.0621 9.77567L16.4361 6.74044C16.5874 6.66836 16.6517 6.48723 16.5796 6.33585Z" fill="#575957"/>
<path d="M7.59013 2.45592C7.55674 2.29164 7.39652 2.18552 7.23224 2.21891C7.06796 2.2523 6.96184 2.41252 6.99523 2.5768C6.99595 2.58044 6.99678 2.58405 6.99765 2.58765C7.38184 4.30403 7.22351 6.09739 6.5445 7.71991L6.10317 8.7789C6.0394 8.9332 6.1122 9.11004 6.26617 9.17469C6.30304 9.19021 6.34269 9.19814 6.38272 9.19806C6.50523 9.19806 6.61571 9.12446 6.66287 9.01139L7.10449 7.95362C7.832 6.21561 8.00171 4.29455 7.59013 2.45592Z" fill="#575957"/>
<path d="M16.9142 11.3226C16.4113 11.3226 16.0037 11.7303 16.0037 12.2332C16.0037 12.7361 16.4113 13.1438 16.9142 13.1438C17.4171 13.1438 17.8248 12.7361 17.8248 12.2332C17.8248 11.7303 17.4171 11.3226 16.9142 11.3226ZM16.9142 12.5367C16.7466 12.5367 16.6107 12.4008 16.6107 12.2332C16.6107 12.0656 16.7466 11.9297 16.9142 11.9297C17.0818 11.9297 17.2178 12.0656 17.2178 12.2332C17.2178 12.4008 17.0818 12.5367 16.9142 12.5367Z" fill="#575957"/>
<path d="M9.6281 2.8241C9.1252 2.8241 8.71753 3.23177 8.71753 3.73466C8.71753 4.23756 9.1252 4.64523 9.6281 4.64523C10.131 4.64523 10.5387 4.23756 10.5387 3.73466C10.5387 3.23177 10.131 2.8241 9.6281 2.8241ZM9.6281 4.03819C9.46048 4.03819 9.32457 3.90228 9.32457 3.73466C9.32457 3.56704 9.46048 3.43114 9.6281 3.43114C9.79572 3.43114 9.93162 3.56704 9.93162 3.73466C9.93162 3.90228 9.79572 4.03819 9.6281 4.03819Z" fill="#575957"/>
<path d="M6.89659 1.60996C7.23186 1.60996 7.50364 1.33818 7.50364 1.00292C7.50364 0.667657 7.23186 0.395874 6.89659 0.395874C6.56133 0.395874 6.28955 0.667657 6.28955 1.00292C6.28955 1.33818 6.56133 1.60996 6.89659 1.60996Z" fill="#575957"/>
<path d="M15.3946 1.91357C15.227 1.91357 15.0911 2.04948 15.0911 2.2171V2.52062C15.0911 2.68824 15.227 2.82414 15.3946 2.82414C15.5622 2.82414 15.6981 2.68824 15.6981 2.52062V2.2171C15.6981 2.04948 15.5622 1.91357 15.3946 1.91357Z" fill="#575957"/>
<path d="M15.3946 0.395874C15.227 0.395874 15.0911 0.531776 15.0911 0.699396V1.00292C15.0911 1.17054 15.227 1.30644 15.3946 1.30644C15.5622 1.30644 15.6981 1.17054 15.6981 1.00292V0.699396C15.6981 0.531776 15.5622 0.395874 15.3946 0.395874Z" fill="#575957"/>
<path d="M16.305 1.30652H16.0015C15.8339 1.30652 15.698 1.44242 15.698 1.61004C15.698 1.77766 15.8339 1.91356 16.0015 1.91356H16.305C16.4727 1.91356 16.6086 1.77766 16.6086 1.61004C16.6086 1.44242 16.4727 1.30652 16.305 1.30652Z" fill="#575957"/>
<path d="M14.7875 1.30652H14.4839C14.3163 1.30652 14.1804 1.44242 14.1804 1.61004C14.1804 1.77766 14.3163 1.91356 14.4839 1.91356H14.7875C14.9551 1.91356 15.091 1.77766 15.091 1.61004C15.091 1.44242 14.9551 1.30652 14.7875 1.30652Z" fill="#575957"/>
<path d="M13.2701 3.72827H11.7461C11.5785 3.72827 11.4426 3.86417 11.4426 4.03179V5.55578C11.4426 5.7234 11.5785 5.8593 11.7461 5.8593H13.2701C13.4378 5.8593 13.5737 5.7234 13.5737 5.55578V4.03179C13.5737 3.86417 13.4378 3.72827 13.2701 3.72827ZM12.9666 5.25226H12.0497V4.33532H12.9666V5.25226Z" fill="#575957"/>
<path d="M11.0591 6.26277C10.9477 6.14382 10.7623 6.13411 10.639 6.24076L7.6038 8.97246C7.47928 9.08461 7.46923 9.27648 7.58134 9.40103C7.6935 9.52555 7.88536 9.53561 8.00992 9.42349L11.0451 6.69179C11.1675 6.57718 11.1738 6.38512 11.0591 6.26277Z" fill="#575957"/>
<path d="M16.6085 7.37683C16.4408 7.37683 16.3049 7.51273 16.3049 7.68035V7.98387C16.3049 8.15149 16.4408 8.2874 16.6085 8.2874C16.7761 8.2874 16.912 8.15149 16.912 7.98387V7.68035C16.912 7.51273 16.7761 7.37683 16.6085 7.37683Z" fill="#575957"/>
<path d="M17.8984 7.32471L17.6838 7.11012C17.5632 6.99365 17.3711 6.99699 17.2546 7.11756C17.141 7.23518 17.141 7.42165 17.2546 7.5393L17.4692 7.7539C17.5898 7.87037 17.7819 7.86703 17.8984 7.74646C18.012 7.62881 18.012 7.44233 17.8984 7.32471Z" fill="#575957"/>
<path d="M18.1261 6.16284H17.8226C17.6549 6.16284 17.519 6.29874 17.519 6.46636C17.519 6.63398 17.6549 6.76989 17.8226 6.76989H18.1261C18.2937 6.76989 18.4296 6.63398 18.4296 6.46636C18.4296 6.29874 18.2937 6.16284 18.1261 6.16284Z" fill="#575957"/>
<path d="M17.8883 5.17882C17.7707 5.06523 17.5842 5.06523 17.4665 5.17882L17.252 5.39341C17.1334 5.51198 17.1335 5.70414 17.252 5.82267C17.3089 5.87954 17.3861 5.91153 17.4665 5.91153C17.5471 5.91153 17.6242 5.8795 17.6811 5.82259L17.8957 5.608C18.0122 5.48743 18.0089 5.29526 17.8883 5.17882Z" fill="#575957"/>
<path d="M16.6085 4.64526C16.4408 4.64526 16.3049 4.78117 16.3049 4.94879V5.25231C16.3049 5.41993 16.4408 5.55583 16.6085 5.55583C16.7761 5.55583 16.912 5.41993 16.912 5.25231V4.94879C16.912 4.78117 16.7761 4.64526 16.6085 4.64526Z" fill="#575957"/>
<path d="M15.9665 5.39343L15.7519 5.17884C15.6314 5.0624 15.4392 5.0657 15.3227 5.18627C15.2092 5.30389 15.2092 5.49036 15.3227 5.60802L15.5373 5.82261C15.6579 5.93908 15.85 5.93574 15.9665 5.81517C16.0801 5.69752 16.0801 5.51104 15.9665 5.39343Z" fill="#575957"/>
<path d="M3.84775 1.71C3.81201 1.6002 3.71704 1.52022 3.6028 1.5036L2.71197 1.374L2.31466 0.566932C2.2261 0.416574 2.03242 0.366455 1.88206 0.455008C1.83585 0.482211 1.79734 0.52072 1.77014 0.566932L1.37101 1.374L0.480167 1.5036C0.314254 1.52754 0.199181 1.68147 0.223122 1.84738C0.232645 1.91343 0.26368 1.97448 0.311409 2.02111L0.955787 2.6494L0.804025 3.53659C0.774887 3.70167 0.885066 3.85912 1.05014 3.88826C1.11662 3.89999 1.18506 3.88925 1.24474 3.85772L2.04149 3.43764L2.83823 3.85651C2.98662 3.93451 3.17013 3.87749 3.24814 3.7291C3.27921 3.67003 3.28991 3.60238 3.27864 3.53659L3.12688 2.6494L3.77156 2.02111C3.85408 1.94033 3.8836 1.81976 3.84775 1.71ZM2.58783 2.32615C2.51635 2.39577 2.48368 2.49608 2.50041 2.59446L2.57569 3.03305L2.18262 2.82574C2.09426 2.77934 1.98871 2.77934 1.90035 2.82574L1.50577 3.03275L1.58104 2.59416C1.59808 2.49616 1.56598 2.39599 1.49515 2.32615L1.17614 2.01564L1.61655 1.9516C1.71543 1.93726 1.80091 1.87515 1.84511 1.78557L2.04149 1.38705L2.23817 1.78557C2.28233 1.87507 2.36766 1.93714 2.46642 1.9516L2.90652 2.01564L2.58783 2.32615Z" fill="#575957"/>
<path d="M17.4056 15.6099H17.4044L17.2794 15.4223C16.5782 14.3738 15.4756 13.6608 14.2317 13.4516C14.0657 13.4279 13.912 13.5432 13.8883 13.7092C13.8655 13.8695 13.9725 14.0196 14.1315 14.0501C15.0287 14.2024 15.8464 14.6582 16.4477 15.3413C15.9422 15.4322 15.5 15.7359 15.2336 16.1751C14.9067 16.7605 15.1163 17.5001 15.7018 17.827C16.2873 18.1539 17.0268 17.9443 17.3537 17.3588C17.4786 17.1178 17.546 16.8511 17.5507 16.5797C17.8737 17.0487 17.8995 17.6613 17.6172 18.1559C17.5317 18.3 17.5792 18.4862 17.7234 18.5718C17.8675 18.6573 18.0538 18.6097 18.1393 18.4656C18.142 18.4609 18.1446 18.4563 18.1471 18.4515C18.7029 17.4588 18.3755 16.2045 17.4056 15.6099ZM16.8244 17.0626C16.6624 17.3561 16.2931 17.4627 15.9996 17.3007C15.7061 17.1387 15.5994 16.7694 15.7614 16.4759C15.7624 16.4743 15.7633 16.4726 15.7642 16.471C15.9433 16.1777 16.2454 15.9811 16.5861 15.9362C16.6389 15.9348 16.6911 15.9469 16.7379 15.9714C16.994 16.1144 17.0077 16.7342 16.8244 17.0626Z" fill="#575957"/>
</g>
<defs>
<clipPath id="clip0">
<rect width="18.2184" height="18.2184" fill="white" transform="translate(0.215088 0.395874)"/>
</clipPath>
</defs>
</svg>
