<svg width="21" height="21" viewBox="0 0 21 21" fill="none" xmlns="http://www.w3.org/2000/svg">
<path d="M17.7188 14.4375C16.995 14.4375 16.4062 13.8487 16.4062 13.125V8.53125C16.4062 6.94977 15.7893 5.46398 14.669 4.34757C13.9783 3.65933 13.1478 3.16313 12.2418 2.88487C12.3864 2.61105 12.4688 2.29942 12.4688 1.96875C12.4688 0.883189 11.5856 0 10.5 0C9.41444 0 8.53125 0.883189 8.53125 1.96875C8.53125 2.3013 8.61443 2.61471 8.76065 2.88967C6.35119 3.64227 4.59375 5.91486 4.59375 8.58826V13.125C4.59375 13.8487 4.00497 14.4375 3.28125 14.4375C2.91884 14.4375 2.625 14.7313 2.625 15.0938V17.7188C2.625 18.0812 2.91884 18.375 3.28125 18.375H8.22671C8.21137 18.4828 8.20312 18.5923 8.20312 18.7031C8.20312 19.9696 9.23352 21 10.5 21C11.7665 21 12.7969 19.9696 12.7969 18.7031C12.7969 18.5923 12.7887 18.4828 12.7733 18.375H17.7188C18.0812 18.375 18.375 18.0812 18.375 17.7188V15.0938C18.375 14.7313 18.0812 14.4375 17.7188 14.4375ZM10.5 1.3125C10.8618 1.3125 11.1562 1.60691 11.1562 1.96875C11.1562 2.33059 10.8618 2.625 10.5 2.625C10.1382 2.625 9.84375 2.33059 9.84375 1.96875C9.84375 1.60691 10.1382 1.3125 10.5 1.3125ZM11.4844 18.7031C11.4844 19.2459 11.0428 19.6875 10.5 19.6875C9.9572 19.6875 9.51562 19.2459 9.51562 18.7031C9.51562 18.5897 9.53457 18.4793 9.57145 18.375H11.4285C11.4654 18.4793 11.4844 18.5897 11.4844 18.7031ZM17.0625 17.0625H11.8125H9.1875H3.9375V15.6669C5.06842 15.3748 5.90625 14.3459 5.90625 13.125V8.58826C5.90625 6.0327 7.95957 3.9464 10.4835 3.93754C10.489 3.93754 10.4945 3.9375 10.5001 3.9375C11.7242 3.9375 12.8751 4.41291 13.7425 5.27728C14.6139 6.14558 15.0938 7.30123 15.0938 8.53125V13.125C15.0938 14.3459 15.9316 15.3748 17.0625 15.6669V17.0625Z" fill="#7F6858"/>
<path d="M7.875 9.1875C7.51259 9.1875 7.21875 8.89366 7.21875 8.53125C7.21875 6.72197 8.69072 5.25 10.5 5.25C10.8624 5.25 11.1562 5.54384 11.1562 5.90625C11.1562 6.26866 10.8624 6.5625 10.5 6.5625C9.41444 6.5625 8.53125 7.44569 8.53125 8.53125C8.53125 8.89366 8.23741 9.1875 7.875 9.1875Z" fill="#7F6858"/>
</svg>
