<svg width="243" height="185" viewBox="0 0 243 185" fill="none" xmlns="http://www.w3.org/2000/svg">
<g clip-path="url(#clip0)">
<path d="M242.999 154.385H75.4854V154.982H242.999V154.385Z" fill="#3F3D56"/>
<path d="M185.458 184.276H17.9442V184.874H185.458V184.276Z" fill="#3F3D56"/>
<path d="M195.94 122.528C218.905 147.924 152.333 184.525 98.5423 184.525C44.7512 184.525 7.53622 156.166 1.14495 122.528C-14.3517 40.9668 133.18 -10.873 98.5423 60.5311C48.0538 164.611 177.854 102.528 195.94 122.528Z" fill="#4A3A2F"/>
<path d="M71.2614 43.4869C72.3419 43.4869 73.2178 42.611 73.2178 41.5305C73.2178 40.45 72.3419 39.5741 71.2614 39.5741C70.181 39.5741 69.3051 40.45 69.3051 41.5305C69.3051 42.611 70.181 43.4869 71.2614 43.4869Z" fill="#E0E0E0"/>
<path d="M44.7418 160.653C45.8223 160.653 46.6982 159.777 46.6982 158.696C46.6982 157.616 45.8223 156.74 44.7418 156.74C43.6613 156.74 42.7854 157.616 42.7854 158.696C42.7854 159.777 43.6613 160.653 44.7418 160.653Z" fill="#E0E0E0"/>
<path d="M74.7405 71.0936C75.2207 71.0936 75.61 70.7043 75.61 70.2241C75.61 69.7439 75.2207 69.3546 74.7405 69.3546C74.2603 69.3546 73.871 69.7439 73.871 70.2241C73.871 70.7043 74.2603 71.0936 74.7405 71.0936Z" fill="#D0CDE1"/>
<path d="M29.0908 116.308C29.571 116.308 29.9603 115.919 29.9603 115.438C29.9603 114.958 29.571 114.569 29.0908 114.569C28.6106 114.569 28.2213 114.958 28.2213 115.438C28.2213 115.919 28.6106 116.308 29.0908 116.308Z" fill="#E0E0E0"/>
<path d="M143.432 148.914C143.912 148.914 144.301 148.525 144.301 148.045C144.301 147.565 143.912 147.175 143.432 147.175C142.951 147.175 142.562 147.565 142.562 148.045C142.562 148.525 142.951 148.914 143.432 148.914Z" fill="#E0E0E0"/>
<path d="M26.2656 71.9631C26.7458 71.9631 27.1351 71.5738 27.1351 71.0936C27.1351 70.6134 26.7458 70.2241 26.2656 70.2241C25.7853 70.2241 25.3961 70.6134 25.3961 71.0936C25.3961 71.5738 25.7853 71.9631 26.2656 71.9631Z" fill="#D0CDE1"/>
<path d="M79.0873 48.0517H78.6526V47.6168H78.4352V48.0517H78.0005V48.269H78.4352V48.7039H78.6526V48.269H79.0873V48.0517Z" fill="#D0CDE1"/>
<path d="M45.8295 55.2253H45.3948V54.7904H45.1774V55.2253H44.7427V55.4426H45.1774V55.8772H45.3948V55.4426H45.8295V55.2253Z" fill="#D0CDE1"/>
<path d="M24.0925 96.092H23.6578V95.6571H23.4403V96.092H23.0056V96.3093H23.4403V96.7442H23.6578V96.3093H24.0925V96.092Z" fill="#D0CDE1"/>
<path d="M85.1735 167.609C85.6537 167.609 86.043 167.219 86.043 166.739C86.043 166.259 85.6537 165.87 85.1735 165.87C84.6932 165.87 84.304 166.259 84.304 166.739C84.304 167.219 84.6932 167.609 85.1735 167.609Z" fill="#D0CDE1"/>
<path d="M82.3483 123.264C82.8285 123.264 83.2178 122.875 83.2178 122.394C83.2178 121.914 82.8285 121.525 82.3483 121.525C81.868 121.525 81.4788 121.914 81.4788 122.394C81.4788 122.875 81.868 123.264 82.3483 123.264Z" fill="#D0CDE1"/>
<path d="M185.167 139.35C185.647 139.35 186.036 138.96 186.036 138.48C186.036 138 185.647 137.611 185.167 137.611C184.687 137.611 184.297 138 184.297 138.48C184.297 138.96 184.687 139.35 185.167 139.35Z" fill="#E0E0E0"/>
<path d="M80.1751 147.393H79.7404V146.958H79.5232V147.393H79.0883V147.61H79.5232V148.045H79.7404V147.61H80.1751V147.393Z" fill="#D0CDE1"/>
<path d="M122.345 162.826H121.91V162.392H121.693V162.826H121.258V163.044H121.693V163.478H121.91V163.044H122.345V162.826Z" fill="#D0CDE1"/>
<path d="M15.8317 124.133H15.397V123.699H15.1796V124.133H14.7449V124.351H15.1796V124.785H15.397V124.351H15.8317V124.133Z" fill="#D0CDE1"/>
<path d="M76.2605 92.8312H75.8259V92.3965H75.6084V92.8312H75.1737V93.0486H75.6084V93.4833H75.8259V93.0486H76.2605V92.8312Z" fill="#D0CDE1"/>
<path d="M49.5243 67.1808H49.0897V66.7461H48.8722V67.1808H48.4375V67.3982H48.8722V67.8329H49.0897V67.3982H49.5243V67.1808Z" fill="#D0CDE1"/>
<path d="M67.35 110.004H66.9153V109.569H66.6979V110.004H66.2632V110.221H66.6979V110.656H66.9153V110.221H67.35V110.004Z" fill="#D0CDE1"/>
<path d="M41.2636 136.959H40.8289V136.524H40.6115V136.959H40.1768V137.176H40.6115V137.611H40.8289V137.176H41.2636V136.959Z" fill="#D0CDE1"/>
<path d="M50.1768 100.222C57.2599 100.222 63.002 99.3462 63.002 98.2657C63.002 97.1852 57.2599 96.3093 50.1768 96.3093C43.0936 96.3093 37.3516 97.1852 37.3516 98.2657C37.3516 99.3462 43.0936 100.222 50.1768 100.222Z" fill="#7F6858"/>
<path d="M51.4803 98.9178C46.2376 98.9178 38.4377 98.3389 38.4377 96.7441C38.4377 95.1492 46.2376 94.5703 51.4803 94.5703C56.723 94.5703 64.5229 95.1492 64.5229 96.7441C64.5229 98.3389 56.723 98.9178 51.4803 98.9178ZM51.4803 95.0051C48.0651 95.0051 44.8561 95.2076 42.4443 95.5757C39.619 96.0066 38.8725 96.5284 38.8725 96.7441C38.8725 96.9598 39.619 97.4815 42.4443 97.9125C44.8561 98.2806 48.0651 98.4831 51.4803 98.4831C54.8955 98.4831 58.1046 98.2806 60.5163 97.9125C63.3417 97.4815 64.0881 96.9598 64.0881 96.7441C64.0881 96.5284 63.3417 96.0066 60.5163 95.5757C58.1046 95.2076 54.8955 95.0051 51.4803 95.0051Z" fill="#D0CDE1"/>
<path opacity="0.7" d="M205.87 114.747C187.785 94.7466 57.9842 156.83 108.473 52.7501C130.978 6.35646 76.5801 11.9914 39.9618 44.0015C75.4216 19.6529 118.224 18.9511 97.8213 61.0104C47.3327 165.09 177.133 103.007 195.219 123.007C203.634 132.314 200.026 143.124 189.43 153.087C207.642 141.15 216.685 126.707 205.87 114.747Z" fill="#F1C19D"/>
<path d="M99.4368 184.127L99.1572 184.022C99.0957 183.999 92.9794 181.656 90.1143 176.342C87.249 171.029 88.652 164.631 88.6665 164.567L88.7326 164.276L89.0121 164.381C89.0735 164.404 95.1897 166.747 98.055 172.061C100.92 177.374 99.5173 183.772 99.5028 183.836L99.4368 184.127ZM90.5731 176.095C92.9955 180.588 97.8288 182.891 99.0534 183.416C99.2862 182.104 100.016 176.796 97.5962 172.308C95.1762 167.82 90.341 165.514 89.1159 164.987C88.8829 166.3 88.153 171.607 90.5731 176.095H90.5731Z" fill="#D0CDE1"/>
<path d="M92.3041 174.739C97.4532 177.837 99.4362 183.99 99.4362 183.99C99.4362 183.99 93.0711 185.121 87.922 182.023C82.773 178.925 80.7899 172.772 80.7899 172.772C80.7899 172.772 87.1551 171.641 92.3041 174.739Z" fill="#7F6858"/>
<path d="M164.552 62.2496C164.552 62.2496 152.754 73.812 157.709 75.2278C162.664 76.6436 168.327 64.6093 168.327 64.6093L164.552 62.2496Z" fill="#FFB9B9"/>
<path d="M176.349 101.184L174.933 107.791L185.552 108.263L183.9 101.184H176.349Z" fill="#FFB9B9"/>
<path d="M209.856 142.006L208.44 148.613L219.059 149.085L217.407 142.006H209.856Z" fill="#FFB9B9"/>
<path d="M191.215 57.0583L192.159 60.8338C192.159 60.8338 165.967 55.6426 167.382 68.8567C168.798 82.0708 174.933 94.813 174.933 94.813C174.933 94.813 174.461 99.0603 175.405 99.7682C176.349 100.476 175.405 102.836 175.405 102.836C175.405 102.836 184.136 104.016 184.372 101.892C184.498 100.472 184.419 99.0416 184.136 97.6445C184.136 97.6445 184.608 97.6445 184.136 95.2849C183.664 92.9252 181.758 73.8951 180.342 71.2995C180.342 71.2995 192.867 80.8909 199.474 79.7111C199.474 79.7111 198.53 89.1497 202.305 101.656C206.081 114.162 206.081 115.578 206.081 115.578C206.081 115.578 210.564 139.411 209.384 142.242L209.148 143.422H217.879C217.879 143.422 217.171 130.916 217.879 129.264C218.587 127.612 218.587 113.454 214.576 106.375C211.735 101.362 212.264 86.8268 213.818 81.0814C215.123 76.2567 215.452 72.5433 214.687 67.6041C213.869 62.3222 211.427 59.5612 208.441 57.0583H191.215Z" fill="#4A3A2F"/>
<path d="M198.176 21.5454C202.868 21.5454 206.671 17.7421 206.671 13.0506C206.671 8.35903 202.868 4.55579 198.176 4.55579C193.485 4.55579 189.681 8.35903 189.681 13.0506C189.681 17.7421 193.485 21.5454 198.176 21.5454Z" fill="#FFB9B9"/>
<path d="M195.935 19.0678C195.935 19.0678 198.53 26.6187 198.294 28.0345C198.059 29.4503 205.845 25.2029 205.845 25.2029C205.845 25.2029 202.778 17.652 203.722 15.5283L195.935 19.0678Z" fill="#FFB9B9"/>
<path d="M205.372 22.6073L197.113 25.9108L197.585 28.7424C197.585 28.7424 196.877 29.6863 197.113 30.1582C197.349 30.6302 194.046 32.5179 194.518 33.2258C194.99 33.9337 191.686 36.7653 191.922 37.4732C192.158 38.1811 184.371 42.4285 188.618 50.6873C188.618 50.6873 190.821 53.5501 190.545 56.9356C190.535 57.0545 190.522 57.1741 190.506 57.2943C190.034 60.8338 208.44 56.8224 208.44 56.8224V52.811C208.44 52.811 210.091 52.1031 209.855 49.0355C209.619 45.968 208.204 47.3837 209.855 45.732C211.507 44.0802 211.507 44.3162 211.271 42.9004C211.177 42.335 211.158 40.3022 211.169 38.064C211.191 33.3349 209.651 28.731 206.788 24.967L205.372 22.6073Z" fill="#C0BEBA"/>
<path d="M200.89 28.7424L185.552 44.7881L163.135 62.4856L168.09 66.497L209.385 38.889C209.385 38.889 212.924 23.7871 200.89 28.7424Z" fill="#C0BEBA"/>
<path d="M177.058 104.723C177.058 104.723 175.406 101.892 174.227 102.836L165.968 109.443C165.968 109.443 151.338 113.69 165.496 116.994C165.496 116.994 173.283 118.173 174.934 116.994C176.586 115.814 179.182 116.05 179.89 116.522C180.598 116.994 189.564 116.286 189.564 114.398C189.564 112.51 184.619 104.26 184.619 104.26C184.619 104.26 181.778 107.555 177.058 104.723Z" fill="#4A3A2F"/>
<path d="M210.565 145.546C210.565 145.546 208.914 142.714 207.734 143.658L199.475 150.265C199.475 150.265 184.845 154.512 199.003 157.816C199.003 157.816 206.79 158.996 208.442 157.816C210.093 156.636 212.689 156.872 213.397 157.344C214.105 157.816 223.072 157.108 223.072 155.22C223.072 153.332 218.126 145.082 218.126 145.082C218.126 145.082 215.285 148.377 210.565 145.546Z" fill="#4A3A2F"/>
<path d="M187.997 9.68179C187.997 9.68179 189.433 -2.94394 201.717 0.640909C201.717 0.640909 210.408 -1.12674 213.477 9.72717L216.593 21.1067L215.167 20.3656L214.536 21.8165L212.26 22.4396L211.244 20.5159L210.816 22.8839L195.099 26.0616C195.099 26.0616 200.414 19.9883 200.377 11.0934L198.811 12.8128L187.997 9.68179Z" fill="#4A3A2F"/>
<path d="M131.258 121.525C143.984 121.525 154.3 120.162 154.3 118.482C154.3 116.801 143.984 115.438 131.258 115.438C118.533 115.438 108.217 116.801 108.217 118.482C108.217 120.162 118.533 121.525 131.258 121.525Z" fill="#2F2E41"/>
<path d="M143.775 81.6836H143.502V74.211C143.502 73.6431 143.39 73.0807 143.173 72.556C142.955 72.0312 142.637 71.5545 142.235 71.1528C141.834 70.7512 141.357 70.4327 140.832 70.2153C140.307 69.998 139.745 69.8861 139.177 69.8861H123.345C122.777 69.8861 122.215 69.998 121.69 70.2153C121.166 70.4327 120.689 70.7512 120.287 71.1528C119.886 71.5545 119.567 72.0312 119.35 72.556C119.132 73.0807 119.02 73.6431 119.02 74.211V115.206C119.02 115.774 119.132 116.337 119.35 116.861C119.567 117.386 119.886 117.863 120.287 118.264C120.689 118.666 121.166 118.985 121.69 119.202C122.215 119.419 122.777 119.531 123.345 119.531H139.177C139.745 119.531 140.307 119.419 140.832 119.202C141.357 118.985 141.834 118.666 142.235 118.264C142.637 117.863 142.955 117.386 143.173 116.861C143.39 116.337 143.502 115.774 143.502 115.206V87.0027H143.775V81.6836Z" fill="#3F3D56"/>
<path d="M139.251 71.1138H137.184C137.279 71.3468 137.315 71.5996 137.29 71.8499C137.264 72.1002 137.177 72.3404 137.037 72.5492C136.896 72.7581 136.707 72.9292 136.485 73.0475C136.263 73.1659 136.015 73.2278 135.763 73.2278H126.693C126.442 73.2278 126.194 73.1659 125.972 73.0475C125.75 72.9292 125.56 72.7581 125.42 72.5492C125.28 72.3404 125.193 72.1002 125.167 71.8499C125.141 71.5996 125.178 71.3468 125.273 71.1138H123.343C122.918 71.1138 122.498 71.1973 122.107 71.3596C121.715 71.5219 121.359 71.7598 121.059 72.0598C120.759 72.3597 120.521 72.7157 120.359 73.1076C120.196 73.4994 120.113 73.9194 120.113 74.3436V115.279C120.113 115.703 120.196 116.123 120.359 116.515C120.521 116.906 120.759 117.262 121.059 117.562C121.359 117.862 121.715 118.1 122.107 118.262C122.498 118.425 122.918 118.508 123.343 118.508H139.251C139.675 118.508 140.095 118.425 140.486 118.262C140.878 118.1 141.234 117.862 141.534 117.562C141.834 117.262 142.072 116.906 142.234 116.515C142.397 116.123 142.48 115.703 142.48 115.279V74.3436C142.48 73.9194 142.397 73.4994 142.234 73.1076C142.072 72.7157 141.834 72.3597 141.534 72.0598C141.234 71.7598 140.878 71.5219 140.486 71.3596C140.095 71.1973 139.675 71.1138 139.251 71.1138Z" fill="#F1C19D"/>
<path d="M127.78 90.2227C130.301 90.2227 132.345 88.1789 132.345 85.6578C132.345 83.1367 130.301 81.0929 127.78 81.0929C125.259 81.0929 123.215 83.1367 123.215 85.6578C123.215 88.1789 125.259 90.2227 127.78 90.2227Z" fill="#EFEAE6"/>
<path d="M140.171 97.6135H122.346V99.7873H140.171V97.6135Z" fill="#4A3A2F"/>
<path d="M57.875 86.75C57.1857 86.75 56.625 86.1893 56.625 85.5V81.125C56.625 79.6188 56.0374 78.2038 54.9704 77.1405C54.3127 76.4851 53.5217 76.0125 52.6589 75.7475C52.7966 75.4867 52.875 75.1899 52.875 74.875C52.875 73.8411 52.0339 73 51 73C49.9661 73 49.125 73.8411 49.125 74.875C49.125 75.1917 49.2042 75.4902 49.3435 75.7521C47.0488 76.4688 45.375 78.6332 45.375 81.1793V85.5C45.375 86.1893 44.8143 86.75 44.125 86.75C43.7798 86.75 43.5 87.0298 43.5 87.375V89.875C43.5 90.2202 43.7798 90.5 44.125 90.5H48.835C48.8204 90.6027 48.8125 90.707 48.8125 90.8125C48.8125 92.0187 49.7938 93 51 93C52.2062 93 53.1875 92.0187 53.1875 90.8125C53.1875 90.707 53.1797 90.6027 53.165 90.5H57.875C58.2202 90.5 58.5 90.2202 58.5 89.875V87.375C58.5 87.0298 58.2202 86.75 57.875 86.75ZM51 74.25C51.3446 74.25 51.625 74.5304 51.625 74.875C51.625 75.2196 51.3446 75.5 51 75.5C50.6554 75.5 50.375 75.2196 50.375 74.875C50.375 74.5304 50.6554 74.25 51 74.25ZM51.9375 90.8125C51.9375 91.3295 51.517 91.75 51 91.75C50.483 91.75 50.0625 91.3295 50.0625 90.8125C50.0625 90.7045 50.0805 90.5993 50.1157 90.5H51.8843C51.9195 90.5993 51.9375 90.7045 51.9375 90.8125ZM57.25 89.25H52.25H49.75H44.75V87.9209C45.8271 87.6427 46.625 86.6628 46.625 85.5V81.1793C46.625 78.7454 48.5805 76.7585 50.9843 76.75C50.9896 76.75 50.9948 76.75 51.0001 76.75C52.1659 76.75 53.262 77.2028 54.0881 78.026C54.918 78.8529 55.375 79.9536 55.375 81.125V85.5C55.375 86.6628 56.1729 87.6427 57.25 87.9209V89.25Z" fill="#F1C19D"/>
<path d="M48.5 81.75C48.1548 81.75 47.875 81.4702 47.875 81.125C47.875 79.4019 49.2769 78 51 78C51.3452 78 51.625 78.2798 51.625 78.625C51.625 78.9702 51.3452 79.25 51 79.25C49.9661 79.25 49.125 80.0911 49.125 81.125C49.125 81.4702 48.8452 81.75 48.5 81.75Z" fill="#F1C19D"/>
<g clip-path="url(#clip1)">
<path d="M129.74 80.9513C129.481 81.1207 129.131 81.0471 128.962 80.7873L127.887 79.1381C127.517 78.5703 126.947 78.1813 126.284 78.0427C125.875 77.9573 125.461 77.9735 125.07 78.0857C125.058 77.9535 125.015 77.8224 124.937 77.7037C124.683 77.314 124.159 77.2036 123.77 77.4577C123.38 77.7118 123.27 78.2356 123.524 78.6253C123.601 78.7447 123.705 78.8377 123.822 78.9022C123.133 79.7364 123.034 80.9636 123.659 81.9234L124.721 83.5521C124.891 83.812 124.817 84.1611 124.557 84.3305C124.427 84.4154 124.39 84.5896 124.475 84.7197L125.09 85.6621C125.174 85.7923 125.349 85.829 125.479 85.7441L127.254 84.5866C127.274 84.6289 127.297 84.6702 127.323 84.7099C127.619 85.1646 128.23 85.2934 128.685 84.9969C129.14 84.7005 129.268 84.0894 128.972 83.6347C128.946 83.595 128.917 83.5576 128.887 83.5224L130.662 82.3649C130.792 82.2801 130.829 82.1058 130.744 81.9757L130.13 81.0333C130.045 80.9032 129.871 80.8665 129.74 80.9513ZM124.077 77.9289C124.207 77.8442 124.381 77.881 124.466 78.0109C124.551 78.1408 124.514 78.3154 124.384 78.4001C124.254 78.4848 124.079 78.448 123.995 78.3181C123.91 78.1882 123.947 78.0136 124.077 77.9289ZM128.501 83.9419C128.628 84.1368 128.573 84.3987 128.378 84.5257C128.183 84.6528 127.921 84.5976 127.794 84.4027C127.767 84.362 127.748 84.3179 127.737 84.2719L128.404 83.8372C128.441 83.866 128.474 83.9012 128.501 83.9419ZM130.119 82.0473L128.234 83.2761L127.292 83.8905L125.407 85.1193L125.081 84.6183C125.418 84.2487 125.478 83.6832 125.192 83.2449L124.131 81.6162C123.532 80.6987 123.781 79.4691 124.685 78.8752C124.687 78.8739 124.689 78.8726 124.691 78.8713C125.131 78.5848 125.655 78.4861 126.169 78.5934C126.685 78.7011 127.128 79.0037 127.416 79.4453L128.491 81.0945C128.777 81.5328 129.318 81.7061 129.793 81.5463L130.119 82.0473Z" fill="#A95E1A"/>
<path d="M124.978 81.3705C124.848 81.4553 124.673 81.4186 124.588 81.2885C124.165 80.6389 124.349 79.7659 124.998 79.3425C125.129 79.2576 125.303 79.2944 125.388 79.4245C125.472 79.5546 125.436 79.7288 125.306 79.8137C124.916 80.0678 124.806 80.5915 125.06 80.9813C125.144 81.1114 125.108 81.2857 124.978 81.3705Z" fill="#A95E1A"/>
</g>
</g>
<defs>
<clipPath id="clip0">
<rect width="243" height="184.874" fill="white"/>
</clipPath>
<clipPath id="clip1">
<rect width="9" height="9" fill="white" transform="translate(120 79.9153) rotate(-33.1025)"/>
</clipPath>
</defs>
</svg>
