<svg width="37" height="37" viewBox="0 0 37 37" fill="none" xmlns="http://www.w3.org/2000/svg">
<path d="M10.2269 14.4873H9.09082V15.6234H10.2269V14.4873Z" fill="#C4A287"/>
<path d="M15.9076 14.4873H14.7715V15.6234H15.9076V14.4873Z" fill="#C4A287"/>
<path d="M34.7347 20.7417L32.5153 20.4247C32.4097 20.1144 32.2851 19.8108 32.1421 19.5158L33.485 17.7253C33.567 17.6159 33.6068 17.4806 33.5971 17.3442C33.5874 17.2079 33.5288 17.0796 33.4321 16.9829L31.0219 14.5726C30.9293 14.4807 30.8076 14.4238 30.6776 14.4119V8.94375C31.2091 8.51822 31.6382 7.9787 31.9332 7.36507C32.2281 6.75143 32.3815 6.07936 32.3818 5.39851C32.387 4.5376 32.145 3.6933 31.6845 2.96588C31.224 2.23846 30.5644 1.65849 29.7841 1.29487C29.6975 1.25399 29.602 1.23565 29.5065 1.24156C29.4109 1.24747 29.3184 1.27743 29.2375 1.32867C29.1567 1.3799 29.09 1.45074 29.0439 1.53461C28.9977 1.61848 28.9735 1.71266 28.9735 1.80839V4.98951L27.8374 5.3684L26.7012 4.98951V1.80839C26.7008 1.71285 26.6763 1.61895 26.63 1.53539C26.5837 1.45183 26.517 1.3813 26.4362 1.33033C26.3554 1.27936 26.263 1.2496 26.1677 1.2438C26.0723 1.238 25.977 1.25634 25.8906 1.29714C25.1106 1.6606 24.4513 2.24021 23.9908 2.96719C23.5304 3.69417 23.2881 4.53799 23.2929 5.39851C23.2932 6.07936 23.4466 6.75143 23.7415 7.36507C24.0365 7.9787 24.4656 8.51822 24.9971 8.94375V12.7832H23.2929C23.1562 12.7832 23.0241 12.8325 22.9208 12.922C22.8175 13.0115 22.7499 13.1353 22.7305 13.2706L22.363 15.8434L23.4877 16.0041L23.7854 13.9194H26.2087L26.5064 16.0041C26.5219 16.1121 26.5682 16.2134 26.6397 16.2958C26.7112 16.3782 26.805 16.4383 26.9097 16.4688C27.3832 16.6056 27.8403 16.7936 28.2731 17.0295C28.3688 17.082 28.4776 17.1057 28.5865 17.098C28.6954 17.0902 28.7998 17.0513 28.8871 16.9857L30.5691 15.7246L32.2824 17.4379L31.0185 19.1199C30.9529 19.2072 30.914 19.3116 30.9062 19.4205C30.8984 19.5294 30.9222 19.6382 30.9747 19.734C31.2106 20.1667 31.3986 20.6238 31.5354 21.0973C31.5659 21.2021 31.626 21.2958 31.7084 21.3673C31.7908 21.4389 31.8921 21.4851 32.0001 21.5006L34.0848 21.7983V24.2216L32.0001 24.5193C31.8921 24.5348 31.7908 24.5811 31.7084 24.6526C31.626 24.7241 31.5659 24.8178 31.5354 24.9226C31.3986 25.3961 31.2106 25.8532 30.9747 26.2859C30.9222 26.3817 30.8984 26.4905 30.9062 26.5994C30.914 26.7083 30.9529 26.8127 31.0185 26.9L32.2796 28.582L30.5663 30.2953L28.8854 29.0296C28.7981 28.9641 28.6937 28.9251 28.5848 28.9174C28.4759 28.9096 28.3671 28.9334 28.2713 28.9859C27.8386 29.2218 27.3815 29.4098 26.908 29.5466C26.8033 29.5771 26.7095 29.6372 26.638 29.7196C26.5665 29.802 26.5202 29.9032 26.5047 30.0112L26.2087 32.0972H23.861V29.6948C23.8606 29.0947 23.7745 28.4977 23.6053 27.9219C24.6873 28.2387 25.8432 28.1934 26.8971 27.7931C27.951 27.3927 28.8454 26.6591 29.4441 25.7038C30.0429 24.7486 30.3133 23.6239 30.2143 22.5009C30.1153 21.3778 29.6522 20.3178 28.8955 19.4821C28.1388 18.6463 27.1299 18.0805 26.0222 17.8708C24.9145 17.661 23.7685 17.8187 22.7587 18.3199C21.7488 18.8211 20.9302 19.6384 20.4274 20.6475C19.9246 21.6566 19.7651 22.8023 19.9732 23.9103C19.9595 23.9046 19.9465 23.8978 19.9328 23.8927L15.3401 22.0556V21.1825C16.0992 20.7942 16.7715 20.2558 17.3164 19.5999H18.7485C19.2004 19.5999 19.6339 19.4204 19.9535 19.1008C20.2731 18.7812 20.4526 18.3477 20.4526 17.8957V16.6551C20.7837 16.538 21.0706 16.3215 21.274 16.0352C21.4773 15.7489 21.5873 15.4067 21.5887 15.0555V13.3513C21.5873 13.0001 21.4773 12.6579 21.274 12.3716C21.0706 12.0852 20.7837 11.8687 20.4526 11.7516V11.0791C20.4526 8.96986 19.6147 6.94704 18.1233 5.4556C16.6319 3.96416 14.609 3.12628 12.4998 3.12628C10.3906 3.12628 8.3678 3.96416 6.87636 5.4556C5.38492 6.94704 4.54704 8.96986 4.54704 11.0791V11.7516C4.21592 11.8687 3.92905 12.0852 3.72568 12.3716C3.52232 12.6579 3.41239 13.0001 3.41093 13.3513V15.0555C3.41093 15.5074 3.59048 15.9409 3.91007 16.2605C4.22966 16.5801 4.66312 16.7596 5.1151 16.7596H6.25121C6.28757 16.7596 6.32279 16.754 6.35857 16.7517C6.53323 17.6935 6.92164 18.5827 7.49392 19.3509C8.06619 20.119 8.80708 20.7457 9.65955 21.1825V22.0556L5.06681 23.8927C3.9049 24.3532 2.90866 25.153 2.20798 26.188C1.5073 27.223 1.13469 28.445 1.1387 29.6948V34.9374C1.1387 35.0881 1.19855 35.2326 1.30508 35.3391C1.41162 35.4456 1.5561 35.5055 1.70676 35.5055H23.2929C23.4436 35.5055 23.588 35.4456 23.6946 35.3391C23.8011 35.2326 23.861 35.0881 23.861 34.9374V33.2333H26.7012C26.8379 33.2333 26.9701 33.184 27.0734 33.0945C27.1767 33.005 27.2442 32.8812 27.2636 32.7459L27.5806 30.5265C27.891 30.4209 28.1945 30.2963 28.4895 30.1533L30.28 31.4961C30.3894 31.5782 30.5247 31.618 30.6611 31.6083C30.7975 31.5986 30.9258 31.54 31.0224 31.4433L33.4327 29.0331C33.5294 28.9364 33.588 28.8081 33.5977 28.6717C33.6074 28.5353 33.5676 28.4 33.4855 28.2906L32.1427 26.5001C32.2857 26.2051 32.4103 25.9016 32.5159 25.5912L34.7353 25.2742C34.8704 25.2547 34.9939 25.1872 35.0833 25.084C35.1727 24.9808 35.222 24.8489 35.2221 24.7124V21.3041C35.2221 21.1674 35.1728 21.0353 35.0833 20.932C34.9938 20.8287 34.87 20.7611 34.7347 20.7417ZM28.4861 15.8632C28.4594 15.8502 28.4293 15.8417 28.4026 15.8292V8.80685H27.2693V13.3115L27.2636 13.2706C27.2442 13.1353 27.1767 13.0115 27.0734 12.922C26.9701 12.8325 26.8379 12.7832 26.7012 12.7832H26.1332V8.65915C26.1332 8.56752 26.111 8.47725 26.0686 8.39604C26.0262 8.31484 25.9647 8.2451 25.8895 8.19278C25.4672 7.89879 25.117 7.51301 24.8651 7.06437C24.6131 6.61574 24.466 6.11588 24.4348 5.6023C24.4036 5.08872 24.4891 4.57473 24.6849 4.09889C24.8806 3.62305 25.1816 3.1977 25.5651 2.85475V5.39851C25.5651 5.51778 25.6026 5.63403 25.6724 5.73079C25.7421 5.82755 25.8405 5.8999 25.9537 5.93759L27.6578 6.50565C27.7744 6.54446 27.9003 6.54446 28.0169 6.50565L29.721 5.93759C29.8342 5.8999 29.9326 5.82755 30.0024 5.73079C30.0721 5.63403 30.1096 5.51778 30.1096 5.39851V2.85475C30.4935 3.1977 30.7947 3.62314 30.9906 4.09915C31.1866 4.57516 31.2722 5.08938 31.2409 5.60319C31.2097 6.11701 31.0625 6.61708 30.8104 7.06587C30.5583 7.51467 30.2078 7.90052 29.7852 8.19448C29.7102 8.24664 29.6489 8.3161 29.6065 8.39699C29.5641 8.47788 29.5418 8.56781 29.5415 8.65915V15.0742L28.4861 15.8632ZM21.0207 23.0083C21.0144 22.12 21.3036 21.2549 21.8428 20.5491C22.382 19.8432 23.1405 19.3366 23.9991 19.109C24.8577 18.8814 25.7676 18.9456 26.5856 19.2917C27.4037 19.6377 28.0835 20.2459 28.5181 21.0206C28.9527 21.7953 29.1174 22.6924 28.9863 23.5709C28.8553 24.4494 28.4359 25.2595 27.7941 25.8736C27.1524 26.4876 26.3247 26.871 25.4412 26.9632C24.5578 27.0554 23.6688 26.8514 22.914 26.3831C22.5213 25.754 22.019 25.2005 21.4308 24.7488C21.1606 24.2084 21.0201 23.6124 21.0207 23.0083ZM18.7485 18.4638H18.0588C18.3357 17.9247 18.5318 17.3478 18.6411 16.7517C18.6769 16.7517 18.7121 16.7596 18.7485 16.7596H19.3165V17.8957C19.3165 18.0464 19.2567 18.1909 19.1501 18.2974C19.0436 18.404 18.8991 18.4638 18.7485 18.4638ZM17.6123 12.2152C17.3479 12.2145 17.0872 12.1526 16.8507 12.0344C16.6141 11.9161 16.4082 11.7447 16.249 11.5335L15.2265 10.1702C15.1808 10.1093 15.1234 10.0582 15.0577 10.02C14.9919 9.98174 14.9191 9.95709 14.8436 9.9475C14.7681 9.93823 14.6915 9.94405 14.6183 9.96463C14.5451 9.98521 14.4766 10.0201 14.417 10.0674L12.5106 11.5903C12.0076 11.9928 11.3831 12.2131 10.7389 12.2152H7.38732V11.6471C7.38732 10.2912 7.92596 8.99082 8.88474 8.03204C9.84352 7.07326 11.1439 6.53462 12.4998 6.53462C13.8558 6.53462 15.1561 7.07326 16.1149 8.03204C17.0737 8.99082 17.6123 10.2912 17.6123 11.6471V12.2152ZM20.4526 15.0555C20.4526 15.2061 20.3928 15.3506 20.2862 15.4571C20.1797 15.5637 20.0352 15.6235 19.8846 15.6235H18.7485V12.7832H19.8846C20.0352 12.7832 20.1797 12.8431 20.2862 12.9496C20.3928 13.0561 20.4526 13.2006 20.4526 13.3513V15.0555ZM12.4998 4.2624C14.3071 4.26435 16.0398 4.98316 17.3178 6.26111C18.5957 7.53906 19.3146 9.27178 19.3165 11.0791V11.6471H18.7485C18.7485 9.98989 18.0901 8.40053 16.9183 7.22869C15.7464 6.05684 14.1571 5.39851 12.4998 5.39851C10.8426 5.39851 9.25323 6.05684 8.08139 7.22869C6.90955 8.40053 6.25121 9.98989 6.25121 11.6471H5.68315V11.0791C5.68511 9.27178 6.40392 7.53906 7.68187 6.26111C8.95982 4.98316 10.6925 4.26435 12.4998 4.2624ZM5.1151 15.6235C4.96444 15.6235 4.81995 15.5637 4.71342 15.4571C4.60689 15.3506 4.54704 15.2061 4.54704 15.0555V13.3513C4.54704 13.2006 4.60689 13.0561 4.71342 12.9496C4.81995 12.8431 4.96444 12.7832 5.1151 12.7832H6.25121V15.6235H5.1151ZM7.38732 15.6235V13.3513H10.7389C11.6414 13.3501 12.5169 13.0429 13.2224 12.4799L14.6715 11.3205L15.3401 12.2152C15.6054 12.5671 15.9487 12.8528 16.3429 13.0499C16.7371 13.2471 17.1716 13.3502 17.6123 13.3513V15.6235C17.6133 16.6352 17.3122 17.6242 16.7478 18.4638H12.4998V19.5999H15.7059C14.9558 20.2065 14.0491 20.5882 13.091 20.7008C12.1329 20.8134 11.1624 20.6524 10.292 20.2363C9.42164 19.8203 8.68688 19.1662 8.17282 18.3499C7.65876 17.5335 7.38642 16.5882 7.38732 15.6235ZM12.4998 21.8721C13.0763 21.8707 13.6499 21.7893 14.204 21.6301V22.4402C14.204 22.8922 14.0245 23.3256 13.7049 23.6452C13.3853 23.9648 12.9518 24.1444 12.4998 24.1444C12.0479 24.1444 11.6144 23.9648 11.2948 23.6452C10.9752 23.3256 10.7957 22.8922 10.7957 22.4402V21.6301C11.3498 21.7893 11.9233 21.8707 12.4998 21.8721ZM22.7248 34.3694H19.3165V28.1208H18.1804V34.3694H6.81927V28.1208H5.68315V34.3694H2.27482V29.6948C2.27151 28.6722 2.57639 27.6723 3.1497 26.8255C3.72302 25.9787 4.53817 25.3243 5.48888 24.9476L9.78509 23.2292C9.95285 23.8199 10.3087 24.3397 10.7986 24.7099C11.2885 25.0801 11.8858 25.2803 12.4998 25.2803C13.1139 25.2803 13.7111 25.0801 14.2011 24.7099C14.691 24.3397 15.0468 23.8199 15.2146 23.2292L19.5108 24.9476C20.4615 25.3243 21.2766 25.9787 21.85 26.8255C22.4233 27.6723 22.7282 28.6722 22.7248 29.6948V34.3694Z" fill="#C4A287"/>
<path d="M25.5638 15.0554H24.4277V16.1915H25.5638V15.0554Z" fill="#C4A287"/>
<path d="M25.5638 29.825H24.4277V30.9611H25.5638V29.825Z" fill="#C4A287"/>
<path d="M30.2169 27.4269L29.4136 28.2302L30.2169 29.0336L31.0203 28.2302L30.2169 27.4269Z" fill="#C4A287"/>
<path d="M32.9486 22.4402H31.8125V23.5763H32.9486V22.4402Z" fill="#C4A287"/>
<path d="M30.2169 16.9833L29.4136 17.7866L30.2169 18.59L31.0203 17.7866L30.2169 16.9833Z" fill="#C4A287"/>
</svg>
