<svg width="21" height="21" viewBox="0 0 21 21" fill="none" xmlns="http://www.w3.org/2000/svg">
<path d="M10.5 0C7.44684 0 4.96289 2.48395 4.96289 5.53711C4.96289 8.59027 7.44684 11.0742 10.5 11.0742C13.5532 11.0742 16.0371 8.59027 16.0371 5.53711C16.0371 2.48395 13.5532 0 10.5 0ZM10.5 9.84375C8.12532 9.84375 6.19336 7.91179 6.19336 5.53711C6.19336 3.16243 8.12532 1.23047 10.5 1.23047C12.8747 1.23047 14.8066 3.16243 14.8066 5.53711C14.8066 7.91179 12.8747 9.84375 10.5 9.84375Z" fill="#7F6858"/>
<path d="M12.2158 12.3457H8.78415C5.94579 12.3457 3.14463 13.6562 1.27148 16.4661V21H19.7285V16.4661C17.8581 13.6603 15.0577 12.3457 12.2158 12.3457ZM18.4981 19.7695H18.498H2.50195V16.8425C3.93877 14.7936 6.27342 13.5762 8.78419 13.5762H12.2158C14.7266 13.5762 17.0612 14.7936 18.4981 16.8425V19.7695Z" fill="#7F6858"/>
</svg>
