<svg width="12" height="12" viewBox="0 0 12 12" fill="none" xmlns="http://www.w3.org/2000/svg">
<g clip-path="url(#clip0)">
<path fill-rule="evenodd" clip-rule="evenodd" d="M9.65989 8.18989C11.899 2.8 7.70899 0.422974 5.17617 0.422974C2.32166 0.422974 -0.000976562 2.74561 -0.000976562 5.60012C-0.000976562 8.45463 2.32142 10.777 5.17617 10.777C7.01841 10.777 8.73651 9.7855 9.65989 8.18989ZM5.17617 9.83602C6.68337 9.83602 8.0893 9.02439 8.84517 7.71831C10.499 2.8 7.18784 1.36471 5.17617 1.36471C2.84067 1.36471 0.94028 3.26485 0.94028 5.6006C0.94028 7.93587 2.84067 9.83602 5.17617 9.83602Z" fill="#989595"/>
<path d="M5.17632 1.59973C4.91635 1.59973 4.70569 1.81038 4.70569 2.07036V4.92606C4.4929 5.07523 4.35278 5.32115 4.35278 5.60043C4.35278 6.05461 4.72237 6.42421 5.17656 6.42421C5.30095 6.42421 5.41819 6.39442 5.52399 6.34462L7.16106 7.28945C7.23541 7.33258 7.31595 7.35283 7.39602 7.35283C7.55853 7.35283 7.71676 7.26848 7.80398 7.1174C7.93385 6.89269 7.85688 6.60459 7.63145 6.47472L5.99271 5.52846C5.97079 5.27969 5.8414 5.06236 5.64743 4.92654V2.07036C5.64695 1.81062 5.43606 1.59973 5.17632 1.59973ZM5.17632 5.9531C4.98164 5.9531 4.82341 5.79464 4.82341 5.60043C4.82341 5.40598 4.98188 5.24752 5.17632 5.24752C5.37077 5.24752 5.52923 5.40598 5.52923 5.60043C5.52923 5.79464 5.37077 5.9531 5.17632 5.9531Z" fill="#989595"/>
</g>
<defs>
<clipPath id="clip0">
<rect width="11.2" height="11.2" fill="white" transform="translate(-0.000976562)"/>
</clipPath>
</defs>
</svg>
