<svg width="13" height="14" viewBox="0 0 13 14" fill="none" xmlns="http://www.w3.org/2000/svg">
<path fill-rule="evenodd" clip-rule="evenodd" d="M12.0763 10.2375C14.8752 3.50009 9.6377 0.528809 6.47168 0.528809C2.90354 0.528809 0.000244141 3.43211 0.000244141 7.00024C0.000244141 10.5684 2.90325 13.4714 6.47168 13.4714C8.77448 13.4714 10.9221 12.232 12.0763 10.2375ZM6.47168 12.2951C8.35568 12.2951 10.1131 11.2806 11.0579 9.64797C13.1252 3.50009 8.98627 1.70597 6.47168 1.70597C3.5523 1.70597 1.17681 4.08116 1.17681 7.00084C1.17681 9.91993 3.5523 12.2951 6.47168 12.2951Z" fill="#C4A287"/>
<path d="M6.47205 1.99976C6.14708 1.99976 5.88377 2.26307 5.88377 2.58804V6.15767C5.61777 6.34413 5.44263 6.65153 5.44263 7.00063C5.44263 7.56836 5.90462 8.03035 6.47235 8.03035C6.62784 8.03035 6.77439 7.99312 6.90664 7.93086L8.95298 9.1119C9.04591 9.16581 9.14659 9.19113 9.24667 9.19113C9.44982 9.19113 9.6476 9.08569 9.75662 8.89684C9.91896 8.61595 9.82275 8.25583 9.54096 8.0935L7.49254 6.91067C7.46514 6.5997 7.3034 6.32805 7.06093 6.15826V2.58804C7.06034 2.26337 6.79673 1.99976 6.47205 1.99976ZM6.47205 7.44147C6.2287 7.44147 6.03091 7.24339 6.03091 7.00063C6.03091 6.75757 6.22899 6.55949 6.47205 6.55949C6.71511 6.55949 6.91319 6.75757 6.91319 7.00063C6.91319 7.24339 6.71511 7.44147 6.47205 7.44147Z" fill="#C4A287"/>
</svg>
