<svg width="21" height="19" viewBox="0 0 21 19" fill="none" xmlns="http://www.w3.org/2000/svg">
<path d="M18.0159 0H2.39149C1.07275 0 0 1.0834 0 2.41525V16.5847C0 17.9166 1.07275 19 2.39149 19H18.0159C19.3347 19 20.4074 17.9166 20.4074 16.5847V2.41525C20.4074 1.0834 19.3347 0 18.0159 0ZM2.39149 1.61017H18.0159C18.4554 1.61017 18.8131 1.97136 18.8131 2.41525V4.83051H1.59433V2.41525C1.59433 1.97136 1.95196 1.61017 2.39149 1.61017ZM18.0159 17.3898H2.39149C1.95196 17.3898 1.59433 17.0286 1.59433 16.5847V6.44068H18.8131V16.5847C18.8131 17.0286 18.4554 17.3898 18.0159 17.3898ZM2.79008 3.22034C2.79008 2.77566 3.14693 2.41525 3.58724 2.41525C4.02755 2.41525 4.3844 2.77566 4.3844 3.22034C4.3844 3.66502 4.02755 4.02542 3.58724 4.02542C3.14693 4.02542 2.79008 3.66502 2.79008 3.22034ZM5.58015 3.22034C5.58015 2.77566 5.93701 2.41525 6.37732 2.41525C6.81762 2.41525 7.17448 2.77566 7.17448 3.22034C7.17448 3.66502 6.81762 4.02542 6.37732 4.02542C5.93701 4.02542 5.58015 3.66502 5.58015 3.22034ZM13.8165 7.48163L16.6123 10.3051L13.8165 13.1285L12.6892 11.9901L13.5604 11.1102H9.36668V9.5H13.5604L12.6892 8.62007L13.8165 7.48163ZM6.84705 12.7203H10.961V14.3305H6.84705L7.71817 15.2104L6.59093 16.3489L3.79509 13.5254L6.59093 10.702L7.71817 11.8404L6.84705 12.7203Z" fill="#CFCFCF"/>
</svg>
