<svg width="37" height="37" viewBox="0 0 37 37" fill="none" xmlns="http://www.w3.org/2000/svg">
<g clip-path="url(#clip0)">
<path d="M30.3253 23.7244C30.9215 23.3065 31.494 22.834 32.0287 22.2994C37.0103 17.3178 36.6153 9.06463 36.5962 8.71574C36.5664 8.17528 36.1347 7.74387 35.5942 7.71429C35.4331 7.70551 33.1613 7.59561 30.3126 8.17202C29.7479 5.2373 28.7447 3.12414 28.6971 3.02499C28.4628 2.53718 27.8991 2.30371 27.3885 2.48297C27.2856 2.51906 25.1053 3.29561 22.6472 4.95274C21.0349 2.51729 19.3367 0.975024 19.202 0.854363C18.7989 0.49337 18.1888 0.49337 17.7857 0.854363C17.6509 0.975024 15.9528 2.51729 14.3406 4.9526C11.8823 3.29547 9.70208 2.51892 9.59926 2.48283C9.08866 2.30357 8.52491 2.53704 8.29067 3.02485C8.24304 3.124 7.23982 5.23716 6.67508 8.17188C3.82648 7.59547 1.55466 7.70544 1.39352 7.71422C0.853052 7.7438 0.421361 8.17528 0.391567 8.71567C0.372318 9.06456 -0.0225729 17.3177 4.95907 22.2993C5.49373 22.8339 6.06618 23.3065 6.66241 23.7244C2.91087 25.7016 0.834723 29.6305 0.734302 29.8241C0.481161 30.3118 0.642019 30.912 1.10506 31.2077C1.28276 31.3212 4.8038 33.535 8.86623 33.5347C9.71666 33.5347 10.5914 33.4375 11.4635 33.2039C12.5261 32.9192 13.4894 32.457 14.3498 31.9034C15.8354 34.6521 17.6702 36.4364 17.7577 36.5206C17.9632 36.7185 18.2285 36.8174 18.4939 36.8174C18.7592 36.8174 19.0246 36.7185 19.2301 36.5206C19.3175 36.4364 21.1523 34.6521 22.638 31.9034C23.4984 32.4571 24.4617 32.9192 25.5242 33.2039C26.3966 33.4376 27.2708 33.5347 28.1215 33.5347C32.1835 33.5347 35.705 31.3211 35.8827 31.2077C36.3457 30.912 36.5065 30.3118 36.2534 29.8241C36.153 29.6305 34.0768 25.7017 30.3253 23.7244ZM30.5274 20.7981C27.765 23.5606 23.649 24.4052 21.036 24.6549C22.9275 22.3973 25.5958 18.3867 25.5958 13.7261C25.5958 13.2179 25.5632 12.7177 25.5042 12.2263C28.7207 10.2436 32.6639 9.88605 34.4784 9.83382C34.418 12.0456 33.9073 17.4184 30.5274 20.7981ZM27.1685 4.8664C27.4922 5.7106 27.949 7.07312 28.2514 8.69557C27.1911 9.02344 26.1042 9.45761 25.0556 10.0315C24.721 8.86796 24.2562 7.77734 23.7328 6.7824C25.0757 5.86665 26.3489 5.23228 27.1685 4.8664ZM18.4939 3.14353C20.0189 4.75834 23.4727 8.94418 23.4727 13.7261C23.4727 18.5095 20.0166 22.6965 18.4927 24.3099C16.9675 22.6996 13.515 18.5239 13.515 13.7261C13.515 8.94383 16.9694 4.7577 18.4939 3.14353ZM9.82062 4.86583C10.6385 5.23037 11.9085 5.86318 13.2551 6.78219C12.7316 7.77713 12.2668 8.86789 11.9322 10.0314C10.8836 9.45761 9.79677 9.02337 8.73658 8.69557C9.03862 7.07807 9.49664 5.71216 9.82062 4.86583ZM2.51103 9.83226C4.32385 9.88223 8.25882 10.2367 11.4836 12.2262C11.4246 12.7177 11.392 13.2179 11.392 13.7261C11.392 18.3867 14.0604 22.3973 15.9518 24.6549C13.3385 24.4052 9.22276 23.5605 6.46037 20.7981C3.09091 17.4288 2.57458 12.0457 2.51103 9.83226ZM10.914 31.1532C7.89953 31.961 4.68484 30.6757 3.15644 29.9149C4.06738 28.5357 6.10008 25.9437 8.98052 25.0472C11.7767 26.3348 14.7012 26.73 16.5707 26.8412C15.4843 28.3234 13.534 30.4512 10.914 31.1532ZM18.4929 34.1901C17.8402 33.429 16.868 32.1673 16.0559 30.5879C17.1088 29.6336 17.9263 28.6134 18.4939 27.8061C19.0614 28.6134 19.8789 29.6336 20.9316 30.5878C20.1214 32.1616 19.1466 33.4267 18.4929 34.1901ZM26.0738 31.1532C23.466 30.4544 21.5119 28.3244 20.4213 26.841C22.2911 26.7294 25.2132 26.3338 28.0071 25.0473C30.8761 25.9413 32.9162 28.5387 33.8306 29.9181C32.3052 30.6804 29.1007 31.9643 26.0738 31.1532Z" fill="#C4A287"/>
</g>
<defs>
<clipPath id="clip0">
<rect width="36.2337" height="36.2337" fill="white" transform="translate(0.37793 0.584473)"/>
</clipPath>
</defs>
</svg>
