<svg width="30" height="30" viewBox="0 0 30 30" fill="none" xmlns="http://www.w3.org/2000/svg">
<g clip-path="url(#clip0)">
<path d="M14.6777 27.0916C15.727 27.0916 16.5777 26.241 16.5777 25.1917C16.5777 24.1424 15.727 23.2917 14.6777 23.2917C13.6285 23.2917 12.7778 24.1424 12.7778 25.1917C12.7778 26.241 13.6285 27.0916 14.6777 27.0916Z" fill="#C4A287"/>
<path d="M29.1655 9.1497C25.3812 5.08947 20.2568 2.85333 14.7356 2.85327C9.21492 2.85333 4.09051 5.08947 0.306163 9.1497C-0.127363 9.61489 -0.101743 10.3435 0.363449 10.7771C0.828697 11.2106 1.55729 11.1851 1.99087 10.7198C5.33472 7.13211 9.86089 5.15626 14.736 5.1562C19.6107 5.15626 24.1369 7.13211 27.4808 10.7198C27.7075 10.9631 28.015 11.0862 28.3233 11.0862C28.6045 11.0862 28.8863 10.9839 29.1082 10.7771C29.5734 10.3435 29.599 9.61489 29.1655 9.1497Z" fill="#C4A287"/>
<path d="M24.9383 13.9049C22.141 11.0864 18.518 9.53431 14.7366 9.53442C10.9543 9.53448 7.33123 11.0867 4.53478 13.905C4.08686 14.3564 4.08968 15.0855 4.54112 15.5334C4.99255 15.9813 5.7216 15.9785 6.16951 15.527C8.5303 13.1478 11.5728 11.8374 14.7366 11.8374C17.8995 11.8372 20.942 13.1477 23.3037 15.5272C23.5288 15.7539 23.8248 15.8675 24.121 15.8675C24.4142 15.8675 24.7076 15.7561 24.9322 15.5333C25.3835 15.0853 25.3863 14.3562 24.9383 13.9049Z" fill="#C4A287"/>
<path d="M20.3299 18.6739C18.8319 17.1897 16.6845 16.2678 14.7258 16.2678C14.7256 16.2678 14.7252 16.2678 14.7249 16.2678H14.642C14.6416 16.2678 14.6415 16.2678 14.6411 16.2678C12.6823 16.2678 10.5348 17.1898 9.03682 18.6739C8.5851 19.1215 8.5817 19.8505 9.02928 20.3023C9.25445 20.5296 9.55083 20.6434 9.84728 20.6434C10.1402 20.6434 10.4331 20.5323 10.6576 20.3099C11.724 19.2533 13.2876 18.5707 14.6412 18.5707C14.6414 18.5707 14.6416 18.5707 14.6418 18.5707H14.7251C14.7253 18.5707 14.7254 18.5707 14.7256 18.5707C16.0791 18.5707 17.6427 19.2534 18.7091 20.3099C19.1608 20.7574 19.8899 20.7542 20.3375 20.3023C20.7851 19.8506 20.7817 19.1215 20.3299 18.6739Z" fill="#C4A287"/>
</g>
<defs>
<clipPath id="clip0">
<rect width="29.4775" height="29.4775" fill="white" transform="translate(-0.000488281 0.233643)"/>
</clipPath>
</defs>
</svg>
