<svg width="322" height="195" viewBox="0 0 322 195" fill="none" xmlns="http://www.w3.org/2000/svg">
<g clip-path="url(#clip0)">
<rect x="0.000732422" y="-0.240723" width="321.9" height="194.576" rx="13.0588" fill="#CFCFCF"/>
<g opacity="0.05">
<path d="M7.29487 205.854C9.10621 215.933 13.2084 223.702 19.6015 229.161C26.1715 234.62 34.9421 237.326 45.9132 237.281C60.6004 237.22 71.3708 231.424 78.2243 219.893C85.2548 208.362 88.5367 188.972 88.0698 161.722C84.3868 169.701 78.2194 176.008 69.5678 180.645C60.9153 185.105 51.2805 187.357 40.6633 187.401C28.8074 187.45 18.1802 185.105 8.78186 180.366C-0.440273 175.449 -7.72508 168.313 -13.0726 158.956C-18.42 149.6 -21.1213 138.286 -21.1763 125.014C-21.2547 106.08 -15.8322 90.8392 -4.90874 79.2917C6.01401 67.5673 21.5618 61.6633 41.7345 61.5797C66.5081 61.477 83.8829 69.4566 93.8591 85.5183C104.012 101.579 109.155 125.536 109.287 157.387C109.379 179.684 107.42 198.095 103.411 212.622C99.5777 227.149 92.8993 238.236 83.3753 245.885C74.0283 253.533 61.1264 257.391 44.6697 257.459C26.6204 257.534 12.5324 252.726 2.40567 243.035C-7.72104 233.344 -13.5234 220.981 -15.0013 205.946L7.29487 205.854ZM44.5601 166.946C56.416 166.897 66.1334 163.229 73.7124 155.942C81.2906 148.479 85.0537 138.465 85.0016 125.901C84.9466 112.63 81.1862 101.939 73.7204 93.8303C66.2546 85.7212 55.7975 81.6945 42.349 81.7502C29.9622 81.8016 20.0689 85.7356 12.6691 93.5524C5.44625 101.368 1.86122 111.647 1.91402 124.387C1.96754 137.305 5.638 147.642 12.9254 155.398C20.2127 163.154 30.7576 167.003 44.5601 166.946ZM178.267 156.836C168.341 152.984 160.709 147.353 155.369 139.943C150.03 132.533 147.338 123.519 147.294 112.902C147.254 103.347 149.608 94.7545 154.354 87.1257C159.099 79.3199 166.152 73.1857 175.512 68.723C185.049 64.0826 196.541 61.7345 209.99 61.6788C223.438 61.623 234.861 63.8762 244.259 68.4381C253.833 72.8223 261.025 78.8976 265.835 86.6637C270.821 94.2522 273.334 102.824 273.374 112.38C273.416 122.643 270.711 131.679 265.257 139.488C259.803 147.12 252.306 152.813 242.766 156.569C253.751 159.886 262.447 165.778 268.852 174.245C275.434 182.535 278.749 192.607 278.799 204.463C278.846 215.965 276.057 226.063 270.43 234.758C264.803 243.275 256.779 249.944 246.358 254.765C236.114 259.408 224.268 261.758 210.819 261.814C197.371 261.869 185.505 259.618 175.223 255.06C165.117 250.324 157.215 243.721 151.517 235.25C145.819 226.603 142.946 216.529 142.898 205.027C142.849 193.171 145.992 182.983 152.327 174.462C158.662 165.942 167.309 160.067 178.267 156.836ZM250.028 115.396C249.983 104.602 246.41 96.2999 239.307 90.4898C232.205 84.6796 222.46 81.8002 210.074 81.8515C197.864 81.9021 188.232 84.8618 181.178 90.7306C174.124 96.5994 170.62 105.019 170.665 115.991C170.706 125.9 174.367 133.848 181.647 139.834C189.104 145.82 198.672 148.789 210.351 148.74C222.207 148.691 231.75 145.643 238.98 139.597C246.386 133.372 250.069 125.306 250.028 115.396ZM210.428 167.32C197.333 167.375 186.64 170.516 178.349 176.743C170.057 182.794 165.936 191.925 165.987 204.135C166.034 215.46 170.053 224.556 178.045 231.424C186.213 238.292 197.11 241.697 210.736 241.641C224.361 241.584 235.141 238.089 243.075 231.155C251.01 224.221 254.953 215.091 254.906 203.766C254.857 191.91 250.75 182.902 242.584 176.743C234.418 170.406 223.699 167.265 210.428 167.32ZM8.94408 603.85C10.7554 613.929 14.8576 621.699 21.2507 627.158C27.8207 632.616 36.5913 635.323 47.5625 635.277C62.2496 635.216 73.02 629.421 79.8735 617.89C86.904 606.359 90.1859 586.968 89.719 559.719C86.036 567.697 79.8686 574.005 71.217 578.641C62.5646 583.101 52.9297 585.353 42.3125 585.397C30.4566 585.446 19.8294 583.101 10.4311 578.362C1.20894 573.446 -6.07587 566.309 -11.4233 556.953C-16.7708 547.596 -19.4721 536.282 -19.5271 523.011C-19.6055 504.077 -14.183 488.836 -3.25952 477.288C7.66323 465.564 23.211 459.66 43.3837 459.576C68.1573 459.474 85.5321 467.453 95.5083 483.515C105.661 499.576 110.804 523.532 110.936 555.384C111.028 577.68 109.07 596.092 105.06 610.619C101.227 625.145 94.5485 636.233 85.0245 643.881C75.6775 651.529 62.7756 655.387 46.3189 655.455C28.2696 655.53 14.1816 650.722 4.05488 641.032C-6.07182 631.341 -11.8742 618.978 -13.3521 603.943L8.94408 603.85ZM46.2093 564.942C58.0652 564.893 67.7826 561.225 75.3616 553.939C82.9398 546.475 86.7029 536.462 86.6508 523.898C86.5958 510.626 82.8354 499.936 75.3696 491.827C67.9038 483.718 57.4467 479.691 43.9982 479.747C31.6114 479.798 21.7181 483.732 14.3183 491.549C7.09546 499.365 3.51044 509.643 3.56323 522.384C3.61676 535.302 7.28721 545.638 14.5746 553.394C21.862 561.15 32.4069 565 46.2093 564.942Z" fill="url(#paint0_linear)"/>
<path d="M7.29487 205.854L8.90583 205.564L8.66269 204.211L7.28809 204.217L7.29487 205.854ZM19.6015 229.161L18.5386 230.406L18.547 230.413L18.5555 230.42L19.6015 229.161ZM78.2243 219.893L76.8268 219.041L76.822 219.049L76.8173 219.057L78.2243 219.893ZM88.0698 161.722L89.7064 161.694L86.5838 161.036L88.0698 161.722ZM69.5678 180.645L70.3177 182.1L70.3293 182.094L70.3409 182.088L69.5678 180.645ZM8.78187 180.366L8.01185 181.81L8.0283 181.819L8.04494 181.827L8.78187 180.366ZM-13.0726 158.956L-11.6515 158.144L-13.0726 158.956ZM-4.90874 79.2917L-3.71966 80.4165L-3.71115 80.4074L-4.90874 79.2917ZM93.8591 85.5183L92.4686 86.3819L92.4756 86.3929L93.8591 85.5183ZM103.411 212.622L101.833 212.187L101.83 212.196L101.828 212.205L103.411 212.622ZM83.3753 245.885L82.3504 244.609L82.3446 244.613L82.3388 244.618L83.3753 245.885ZM2.40567 243.035L3.5373 241.853L2.40567 243.035ZM-15.0013 205.946L-15.0081 204.31L-16.8061 204.317L-16.6302 206.106L-15.0013 205.946ZM73.7124 155.942L74.8467 157.122L74.8538 157.115L74.8609 157.108L73.7124 155.942ZM12.6691 93.5524L11.4805 92.4271L11.4737 92.4343L11.467 92.4415L12.6691 93.5524ZM12.9254 155.398L11.7325 156.519L11.7325 156.519L12.9254 155.398ZM5.68391 206.143C7.54703 216.511 11.7992 224.651 18.5386 230.406L20.6644 227.916C14.6177 222.753 10.6654 215.355 8.90583 205.564L5.68391 206.143ZM18.5555 230.42C25.497 236.187 34.676 238.964 45.92 238.917L45.9065 235.644C35.2082 235.688 26.8461 233.052 20.6474 227.902L18.5555 230.42ZM45.92 238.917C61.1163 238.854 72.4519 232.809 79.6313 220.73L76.8173 219.057C70.2897 230.04 60.0845 235.585 45.9065 235.644L45.92 238.917ZM79.6218 220.746C86.9096 208.792 90.1741 188.995 89.7064 161.694L86.4333 161.75C86.8992 188.948 83.6001 207.932 76.8268 219.041L79.6218 220.746ZM86.5838 161.036C83.0672 168.654 77.1713 174.713 68.7946 179.202L70.3409 182.088C79.2676 177.303 85.7064 170.747 89.5559 162.408L86.5838 161.036ZM68.8179 179.19C60.4157 183.521 51.0391 185.721 40.6565 185.764L40.6701 189.037C51.522 188.992 61.415 186.689 70.3177 182.1L68.8179 179.19ZM40.6565 185.764C29.0259 185.812 18.6588 183.513 9.51878 178.904L8.04494 181.827C17.7016 186.697 28.5889 189.087 40.6701 189.037L40.6565 185.764ZM9.55188 178.922C0.61081 174.155 -6.45209 167.242 -11.6515 158.144L-14.4936 159.768C-8.99807 169.384 -1.49136 176.744 8.01185 181.81L9.55188 178.922ZM-11.6515 158.144C-16.8298 149.084 -19.4854 138.061 -19.5395 125.007L-22.813 125.021C-22.7571 138.51 -20.0103 150.116 -14.4936 159.768L-11.6515 158.144ZM-19.5395 125.007C-19.6166 106.408 -14.3001 91.6013 -3.71969 80.4165L-6.09779 78.1669C-17.3643 90.077 -22.8929 105.752 -22.813 125.021L-19.5395 125.007ZM-3.71115 80.4074C6.82792 69.0948 21.8959 63.2987 41.7413 63.2164L41.7277 59.9429C21.2277 60.0279 5.2001 66.0397 -6.10633 78.176L-3.71115 80.4074ZM41.7413 63.2164C66.1461 63.1153 82.8845 70.9512 92.4687 86.3819L95.2495 84.6547C84.8813 67.9619 66.8701 59.8387 41.7277 59.9429L41.7413 63.2164ZM92.4756 86.3929C102.388 102.073 107.518 125.665 107.65 157.394L110.923 157.381C110.791 125.407 105.637 101.086 95.2426 84.6437L92.4756 86.3929ZM107.65 157.394C107.742 179.605 105.789 197.855 101.833 212.187L104.988 213.058C109.052 198.336 111.016 179.762 110.923 157.381L107.65 157.394ZM101.828 212.205C98.0635 226.472 91.5438 237.226 82.3504 244.609L84.4002 247.161C94.2548 239.247 101.092 227.825 104.993 213.04L101.828 212.205ZM82.3388 244.618C73.3724 251.955 60.8796 255.755 44.6629 255.822L44.6765 259.096C61.3732 259.026 74.6842 255.111 84.4118 247.152L82.3388 244.618ZM44.6629 255.822C26.9107 255.896 13.2769 251.173 3.5373 241.853L1.27404 244.218C11.7879 254.279 26.3301 259.172 44.6765 259.096L44.6629 255.822ZM3.5373 241.853C-6.2839 232.454 -11.9295 220.465 -13.3724 205.786L-16.6302 206.106C-15.1172 221.498 -9.15817 234.235 1.27404 244.218L3.5373 241.853ZM-14.9945 207.583L7.30165 207.491L7.28809 204.217L-15.0081 204.31L-14.9945 207.583ZM44.5668 168.583C56.7852 168.532 66.9251 164.738 74.8467 157.122L72.578 154.762C65.3417 161.719 56.0467 165.261 44.5533 165.309L44.5668 168.583ZM74.8609 157.108C82.8097 149.28 86.6919 138.813 86.6384 125.894L83.3648 125.908C83.4154 138.117 79.7715 147.677 72.5638 154.776L74.8609 157.108ZM86.6384 125.894C86.582 112.302 82.7212 101.19 74.9246 92.7216L72.5163 94.9389C79.6512 102.689 83.3112 112.957 83.3648 125.908L86.6384 125.894ZM74.9246 92.7216C67.0802 84.2013 56.1412 80.0563 42.3422 80.1135L42.3558 83.387C55.4537 83.3327 65.4291 87.241 72.5163 94.9389L74.9246 92.7216ZM42.3422 80.1135C29.5818 80.1664 19.235 84.2357 11.4805 92.4271L13.8577 94.6776C20.9028 87.2356 30.3426 83.4368 42.3558 83.387L42.3422 80.1135ZM11.467 92.4415C3.90942 100.62 0.223109 111.326 0.277261 124.394L3.55077 124.381C3.49933 111.968 6.98308 102.117 13.8712 94.6632L11.467 92.4415ZM0.277261 124.394C0.332118 137.633 4.10351 148.399 11.7325 156.519L14.1182 154.277C7.17248 146.885 3.60297 136.978 3.55077 124.381L0.277261 124.394ZM11.7325 156.519C19.4165 164.697 30.4526 168.641 44.5668 168.583L44.5533 165.309C31.0627 165.365 21.009 161.611 14.1182 154.277L11.7325 156.519ZM178.267 156.836L178.729 158.406L183.336 157.048L178.859 155.31L178.267 156.836ZM155.369 139.943L154.041 140.9L155.369 139.943ZM154.354 87.1257L155.744 87.9903L155.748 87.9832L155.753 87.9759L154.354 87.1257ZM175.512 68.723L176.217 70.2005L176.229 70.1947L175.512 68.723ZM244.259 68.4381L243.544 69.9105L243.561 69.9186L243.578 69.9262L244.259 68.4381ZM265.835 86.6637L264.443 87.5256L264.455 87.5442L264.467 87.5625L265.835 86.6637ZM265.258 139.488L266.589 140.439L266.594 140.432L266.599 140.425L265.258 139.488ZM242.766 156.569L242.167 155.046L237.779 156.773L242.293 158.136L242.766 156.569ZM268.852 174.245L267.547 175.232L267.558 175.248L267.57 175.263L268.852 174.245ZM270.43 234.758L271.796 235.66L271.8 235.653L271.804 235.647L270.43 234.758ZM246.358 254.765L247.034 256.256L247.046 256.251L246.358 254.765ZM175.223 255.06L174.528 256.542L174.544 256.549L174.56 256.556L175.223 255.06ZM151.517 235.25L150.15 236.151L150.155 236.158L150.159 236.164L151.517 235.25ZM152.327 174.462L153.64 175.439L152.327 174.462ZM239.307 90.4898L238.271 91.7566L239.307 90.4898ZM181.178 90.7306L182.225 91.9889L181.178 90.7306ZM181.647 139.834L180.607 141.098L180.615 141.105L180.622 141.111L181.647 139.834ZM238.98 139.597L240.03 140.852L240.033 140.85L238.98 139.597ZM178.349 176.743L179.314 178.066L179.323 178.059L179.332 178.052L178.349 176.743ZM178.045 231.424L176.978 232.666L176.985 232.672L176.991 232.677L178.045 231.424ZM243.075 231.155L241.998 229.923L243.075 231.155ZM242.584 176.743L241.581 178.036L241.59 178.043L241.599 178.049L242.584 176.743ZM178.859 155.31C169.178 151.553 161.822 146.099 156.697 138.986L154.041 140.9C159.595 148.607 167.504 154.415 177.674 158.362L178.859 155.31ZM156.697 138.986C151.588 131.896 148.974 123.229 148.931 112.895L145.657 112.909C145.702 123.81 148.471 133.17 154.041 140.9L156.697 138.986ZM148.931 112.895C148.892 103.627 151.171 95.3408 155.744 87.9903L152.964 86.261C148.045 94.1682 145.616 103.066 145.657 112.909L148.931 112.895ZM155.753 87.9759C160.311 80.4779 167.104 74.5451 176.217 70.2004L174.808 67.2455C165.2 71.8262 157.888 78.1619 152.955 86.2754L155.753 87.9759ZM176.229 70.1947C185.493 65.6868 196.73 63.3705 209.997 63.3155L209.983 60.042C196.353 60.0985 184.605 62.4784 174.796 67.2512L176.229 70.1947ZM209.997 63.3155C223.265 63.2605 234.427 65.4845 243.544 69.9105L244.974 66.9656C235.296 62.2678 223.612 59.9855 209.983 60.042L209.997 63.3155ZM243.578 69.9262C252.904 74.1973 259.828 80.0736 264.443 87.5256L267.226 85.8019C262.222 77.7215 254.762 71.4474 244.941 66.9499L243.578 69.9262ZM264.467 87.5625C269.27 94.8718 271.699 103.131 271.737 112.387L275.01 112.373C274.97 102.518 272.373 93.6327 267.203 85.7649L264.467 87.5625ZM271.737 112.387C271.778 122.34 269.16 131.04 263.916 138.551L266.599 140.425C272.261 132.318 275.054 122.946 275.01 112.373L271.737 112.387ZM263.926 138.536C258.673 145.887 251.441 151.395 242.167 155.046L243.366 158.092C253.172 154.232 260.934 148.352 266.589 140.439L263.926 138.536ZM242.293 158.136C252.975 161.361 261.368 167.064 267.547 175.232L270.158 173.257C263.526 164.491 254.528 158.41 243.239 155.002L242.293 158.136ZM267.57 175.263C273.896 183.23 277.114 192.935 277.162 204.47L280.435 204.457C280.385 192.28 276.972 181.839 270.134 173.227L267.57 175.263ZM277.162 204.47C277.208 215.691 274.491 225.47 269.056 233.868L271.804 235.647C277.622 226.657 280.484 216.24 280.435 204.457L277.162 204.47ZM269.064 233.855C263.625 242.088 255.851 248.57 245.671 253.28L247.046 256.251C257.707 251.318 265.981 244.461 271.796 235.66L269.064 233.855ZM245.683 253.274C235.686 257.806 224.075 260.122 210.812 260.177L210.826 263.45C224.461 263.394 236.543 261.011 247.034 256.256L245.683 253.274ZM210.812 260.177C197.55 260.232 185.921 258.012 175.886 253.564L174.56 256.556C185.09 261.224 197.191 263.507 210.826 263.45L210.812 260.177ZM175.917 253.578C166.054 248.956 158.392 242.538 152.875 234.337L150.159 236.164C156.038 244.903 164.179 251.692 174.528 256.542L175.917 253.578ZM152.884 234.35C147.379 225.997 144.581 216.24 144.535 205.02L141.261 205.033C141.31 216.817 144.258 227.21 150.15 236.151L152.884 234.35ZM144.535 205.02C144.487 193.475 147.541 183.642 153.64 175.439L151.013 173.486C144.442 182.323 141.211 192.867 141.261 205.033L144.535 205.02ZM153.64 175.439C159.747 167.226 168.084 161.544 178.729 158.406L177.804 155.266C166.533 158.589 157.577 164.659 151.013 173.486L153.64 175.439ZM251.665 115.389C251.618 104.203 247.892 95.3984 240.344 89.2229L238.271 91.7566C244.927 97.2015 248.348 105.002 248.391 115.403L251.665 115.389ZM240.344 89.2229C232.858 83.0995 222.701 80.1624 210.067 80.2148L210.08 83.4883C222.22 83.438 231.551 86.2597 238.271 91.7566L240.344 89.2229ZM210.067 80.2148C197.603 80.2664 187.561 83.2903 180.131 89.4724L182.225 91.9889C188.902 86.4333 198.124 83.5378 210.08 83.4883L210.067 80.2148ZM180.131 89.4724C172.627 95.7156 168.981 104.643 169.028 115.997L172.302 115.984C172.258 105.395 175.621 97.4833 182.225 91.9889L180.131 89.4724ZM169.028 115.997C169.071 126.365 172.929 134.785 180.607 141.098L182.686 138.57C175.804 132.911 172.341 125.435 172.302 115.984L169.028 115.997ZM180.622 141.111C188.432 147.38 198.389 150.426 210.357 150.377L210.344 147.103C198.954 147.151 189.775 144.26 182.671 138.558L180.622 141.111ZM210.357 150.377C222.494 150.327 232.438 147.201 240.03 140.852L237.93 138.341C231.061 144.085 221.919 147.055 210.344 147.103L210.357 150.377ZM240.033 140.85C247.821 134.304 251.708 125.771 251.665 115.389L248.391 115.403C248.43 124.84 244.951 132.441 237.927 138.344L240.033 140.85ZM210.421 165.684C197.068 165.739 186.005 168.945 177.366 175.435L179.332 178.052C187.275 172.086 197.599 169.01 210.434 168.957L210.421 165.684ZM177.384 175.421C168.584 181.843 164.298 191.519 164.35 204.141L167.624 204.128C167.575 192.33 171.53 183.746 179.314 178.066L177.384 175.421ZM164.35 204.141C164.399 215.901 168.597 225.463 176.978 232.666L179.112 230.183C171.509 223.65 167.669 215.018 167.624 204.128L164.35 204.141ZM176.991 232.677C185.531 239.857 196.839 243.335 210.742 243.278L210.729 240.004C197.381 240.059 186.895 236.727 179.098 230.172L176.991 232.677ZM210.742 243.278C224.644 243.22 235.843 239.649 244.152 232.387L241.998 229.923C234.439 236.529 224.079 239.949 210.729 240.004L210.742 243.278ZM244.152 232.387C252.473 225.115 256.592 215.519 256.543 203.759L253.27 203.773C253.315 214.663 249.546 223.326 241.998 229.923L244.152 232.387ZM256.543 203.759C256.492 191.484 252.212 181.955 243.57 175.436L241.599 178.049C249.288 183.85 253.222 192.336 253.27 203.773L256.543 203.759ZM243.588 175.45C235.059 168.832 223.953 165.627 210.421 165.684L210.434 168.957C223.445 168.903 233.777 171.98 241.581 178.036L243.588 175.45ZM8.94409 603.85L10.555 603.561L10.3119 602.208L8.9373 602.214L8.94409 603.85ZM21.2507 627.158L20.1878 628.402L20.1962 628.41L20.2047 628.417L21.2507 627.158ZM79.8735 617.89L78.476 617.038L78.4712 617.046L78.4665 617.054L79.8735 617.89ZM89.719 559.719L91.3556 559.691L88.233 559.033L89.719 559.719ZM71.217 578.641L71.9669 580.096L71.9786 580.09L71.9901 580.084L71.217 578.641ZM10.4311 578.362L9.66106 579.807L9.67752 579.816L9.69416 579.824L10.4311 578.362ZM-11.4233 556.953L-10.0023 556.141L-11.4233 556.953ZM-3.25952 477.288L-2.07044 478.413L-2.06194 478.404L-3.25952 477.288ZM95.5083 483.515L94.1178 484.379L94.1248 484.389L95.5083 483.515ZM105.06 610.619L103.482 610.183L103.48 610.192L103.477 610.201L105.06 610.619ZM85.0245 643.881L83.9996 642.605L83.9938 642.61L83.988 642.615L85.0245 643.881ZM4.05488 641.032L5.18651 639.849L4.05488 641.032ZM-13.3521 603.943L-13.3589 602.306L-15.1569 602.314L-14.981 604.103L-13.3521 603.943ZM75.3616 553.939L76.496 555.119L76.5031 555.112L76.5101 555.105L75.3616 553.939ZM14.3183 491.549L13.1297 490.424L13.1229 490.431L13.1162 490.438L14.3183 491.549ZM14.5746 553.394L13.3817 554.515L13.3817 554.515L14.5746 553.394ZM7.33312 604.14C9.19624 614.507 13.4484 622.648 20.1878 628.402L22.3136 625.913C16.2669 620.75 12.3146 613.352 10.555 603.561L7.33312 604.14ZM20.2047 628.417C27.1462 634.184 36.3252 636.961 47.5692 636.914L47.5557 633.64C36.8574 633.685 28.4953 631.049 22.2967 625.899L20.2047 628.417ZM47.5692 636.914C62.7656 636.851 74.1011 630.805 81.2805 618.726L78.4665 617.054C71.9389 628.036 61.7337 633.582 47.5557 633.64L47.5692 636.914ZM81.271 618.742C88.5588 606.789 91.8233 586.992 91.3556 559.691L88.0825 559.747C88.5485 586.945 85.2493 605.929 78.476 617.038L81.271 618.742ZM88.233 559.033C84.7164 566.651 78.8205 572.709 70.4438 577.199L71.9901 580.084C80.9168 575.3 87.3556 568.744 91.2051 560.405L88.233 559.033ZM70.4671 577.187C62.0649 581.517 52.6883 583.717 42.3057 583.76L42.3193 587.034C53.1712 586.989 63.0642 584.685 71.9669 580.096L70.4671 577.187ZM42.3057 583.76C30.6751 583.809 20.308 581.51 11.168 576.901L9.69416 579.824C19.3509 584.693 30.2381 587.084 42.3193 587.034L42.3057 583.76ZM11.2011 576.918C2.26002 572.151 -4.80287 565.238 -10.0023 556.141L-12.8444 557.765C-7.34886 567.381 0.157858 574.74 9.66106 579.807L11.2011 576.918ZM-10.0023 556.141C-15.1806 547.08 -17.8362 536.058 -17.8903 523.004L-21.1638 523.017C-21.1079 536.507 -18.3611 548.112 -12.8444 557.765L-10.0023 556.141ZM-17.8903 523.004C-17.9674 504.405 -12.6509 489.598 -2.07048 478.413L-4.44857 476.163C-15.7151 488.074 -21.2437 503.748 -21.1638 523.017L-17.8903 523.004ZM-2.06194 478.404C8.47714 467.091 23.5451 461.295 43.3905 461.213L43.3769 457.939C22.8769 458.024 6.84932 464.036 -4.45711 476.173L-2.06194 478.404ZM43.3905 461.213C67.7953 461.112 84.5337 468.948 94.1179 484.378L96.8987 482.651C86.5306 465.958 68.5193 457.835 43.3769 457.939L43.3905 461.213ZM94.1248 484.389C104.037 500.069 109.168 523.661 109.299 555.391L112.573 555.377C112.44 523.403 107.286 499.083 96.8918 482.64L94.1248 484.389ZM109.299 555.391C109.391 577.602 107.438 595.851 103.482 610.183L106.638 611.054C110.701 596.332 112.665 577.759 112.573 555.377L109.299 555.391ZM103.477 610.201C99.7127 624.468 93.193 635.222 83.9996 642.605L86.0494 645.158C95.904 637.243 102.741 625.822 106.642 611.037L103.477 610.201ZM83.988 642.615C75.0216 649.951 62.5288 653.752 46.3121 653.819L46.3257 657.092C63.0224 657.023 76.3334 653.107 86.061 645.148L83.988 642.615ZM46.3121 653.819C28.5599 653.892 14.9261 649.169 5.18651 639.849L2.92325 642.214C13.4371 652.275 27.9793 657.168 46.3257 657.092L46.3121 653.819ZM5.18651 639.849C-4.63469 630.451 -10.2803 618.461 -11.7232 603.783L-14.981 604.103C-13.468 619.495 -7.50896 632.231 2.92325 642.214L5.18651 639.849ZM-13.3453 605.58L8.95087 605.487L8.9373 602.214L-13.3589 602.306L-13.3453 605.58ZM46.216 566.579C58.4344 566.529 68.5743 562.735 76.496 555.119L74.2272 552.759C66.9909 559.716 57.6959 563.258 46.2025 563.306L46.216 566.579ZM76.5101 555.105C84.4589 547.276 88.3411 536.809 88.2876 523.891L85.0141 523.905C85.0647 536.114 81.4207 545.674 74.2131 552.773L76.5101 555.105ZM88.2876 523.891C88.2312 510.299 84.3704 499.187 76.5738 490.718L74.1655 492.935C81.3004 500.685 84.9604 510.953 85.0141 523.905L88.2876 523.891ZM76.5738 490.718C68.7294 482.198 57.7905 478.053 43.9914 478.11L44.005 481.384C57.1029 481.329 67.0783 485.238 74.1655 492.935L76.5738 490.718ZM43.9914 478.11C31.231 478.163 20.8842 482.232 13.1297 490.424L15.5069 492.674C22.552 485.232 31.9918 481.433 44.005 481.384L43.9914 478.11ZM13.1162 490.438C5.55864 498.616 1.87232 509.323 1.92648 522.391L5.19998 522.377C5.14855 509.964 8.63229 500.114 15.5204 492.66L13.1162 490.438ZM1.92648 522.391C1.98133 535.629 5.75273 546.396 13.3817 554.515L15.7674 552.274C8.82169 544.881 5.25218 534.974 5.19998 522.377L1.92648 522.391ZM13.3817 554.515C21.0657 562.693 32.1018 566.638 46.216 566.579L46.2025 563.306C32.7119 563.362 22.6582 559.607 15.7674 552.274L13.3817 554.515Z" fill="#F1C19D"/>
</g>
</g>
<defs>
<linearGradient id="paint0_linear" x1="162.284" y1="-46.5282" x2="165.172" y2="154.09" gradientUnits="userSpaceOnUse">
<stop stop-color="#4A3A2F"/>
<stop offset="0.937515" stop-color="#C4A287"/>
</linearGradient>
<clipPath id="clip0">
<rect width="321.9" height="194.575" fill="white"/>
</clipPath>
</defs>
</svg>
