<svg width="322" height="195" viewBox="0 0 322 195" fill="none" xmlns="http://www.w3.org/2000/svg">
<g clip-path="url(#clip0)">
<rect x="0.101074" y="-0.240234" width="321.9" height="194.576" rx="13.0588" fill="#262A27"/>
<g opacity="0.05">
<path d="M7.39521 205.854C9.20655 215.933 13.3088 223.702 19.7018 229.161C26.2719 234.62 35.0424 237.326 46.0136 237.281C60.7008 237.22 71.4711 231.424 78.3247 219.893C85.3552 208.362 88.637 188.972 88.1702 161.722C84.4871 169.701 78.3198 176.008 69.6681 180.645C61.0157 185.105 51.3809 187.357 40.7636 187.401C28.9077 187.45 18.2806 185.105 8.88221 180.366C-0.339931 175.449 -7.62474 168.313 -12.9722 158.956C-18.3197 149.6 -21.0209 138.286 -21.0759 125.014C-21.1544 106.08 -15.7319 90.8392 -4.8084 79.2917C6.11435 67.5673 21.6621 61.6633 41.8349 61.5797C66.6084 61.477 83.9833 69.4566 93.9594 85.5183C104.113 101.579 109.255 125.536 109.387 157.387C109.479 179.684 107.521 198.095 103.511 212.622C99.6781 227.149 92.9996 238.236 83.4756 245.885C74.1286 253.533 61.2267 257.391 44.77 257.459C26.7207 257.534 12.6327 252.726 2.50601 243.035C-7.6207 233.344 -13.423 220.981 -14.901 205.946L7.39521 205.854ZM44.6604 166.946C56.5163 166.897 66.2337 163.229 73.8127 155.942C81.3909 148.479 85.154 138.465 85.1019 125.901C85.0469 112.63 81.2866 101.939 73.8208 93.8303C66.355 85.7212 55.8978 81.6945 42.4493 81.7502C30.0625 81.8016 20.1692 85.7356 12.7694 93.5524C5.54659 101.368 1.96156 111.647 2.01436 124.387C2.06789 137.305 5.73834 147.642 13.0257 155.398C20.3131 163.154 30.858 167.003 44.6604 166.946ZM178.367 156.836C168.441 152.984 160.809 147.353 155.469 139.943C150.13 132.533 147.438 123.519 147.394 112.902C147.355 103.347 149.708 94.7545 154.454 87.1257C159.2 79.3199 166.253 73.1857 175.613 68.723C185.149 64.0826 196.642 61.7345 210.09 61.6788C223.539 61.623 234.962 63.8762 244.359 68.4381C253.933 72.8223 261.125 78.8976 265.935 86.6637C270.921 94.2522 273.434 102.824 273.474 112.38C273.517 122.643 270.811 131.679 265.358 139.488C259.904 147.12 252.407 152.813 242.867 156.569C253.852 159.886 262.547 165.778 268.953 174.245C275.534 182.535 278.85 192.607 278.899 204.463C278.947 215.965 276.157 226.063 270.53 234.758C264.903 243.275 256.879 249.944 246.459 254.765C236.214 259.408 224.368 261.758 210.92 261.814C197.471 261.869 185.606 259.618 175.323 255.06C165.217 250.324 157.315 243.721 151.617 235.25C145.919 226.603 143.046 216.529 142.998 205.027C142.949 193.171 146.092 182.983 152.427 174.462C158.762 165.942 167.409 160.067 178.367 156.836ZM250.128 115.396C250.083 104.602 246.51 96.2999 239.408 90.4898C232.305 84.6796 222.561 81.8002 210.174 81.8515C197.964 81.9021 188.332 84.8618 181.278 90.7306C174.224 96.5994 170.72 105.019 170.765 115.991C170.806 125.9 174.467 133.848 181.747 139.834C189.204 145.82 198.772 148.789 210.451 148.74C222.307 148.691 231.85 145.643 239.08 139.597C246.487 133.372 250.169 125.306 250.128 115.396ZM210.528 167.32C197.433 167.375 186.741 170.516 178.449 176.743C170.157 182.794 166.037 191.925 166.087 204.135C166.134 215.46 170.154 224.556 178.145 231.424C186.314 238.292 197.211 241.697 210.836 241.641C224.461 241.584 235.241 238.089 243.176 231.155C251.11 224.221 255.054 215.091 255.007 203.766C254.958 191.91 250.85 182.902 242.685 176.743C234.518 170.406 223.8 167.265 210.528 167.32ZM9.04443 603.85C10.8558 613.929 14.958 621.699 21.351 627.158C27.9211 632.616 36.6917 635.323 47.6628 635.277C62.35 635.216 73.1203 629.421 79.9739 617.89C87.0044 606.359 90.2862 586.968 89.8194 559.719C86.1363 567.697 79.969 574.005 71.3173 578.641C62.6649 583.101 53.0301 585.353 42.4128 585.397C30.5569 585.446 19.9298 583.101 10.5314 578.362C1.30928 573.446 -5.97552 566.309 -11.323 556.953C-16.6705 547.596 -19.3717 536.282 -19.4267 523.011C-19.5052 504.077 -14.0827 488.836 -3.15918 477.288C7.76357 465.564 23.3113 459.66 43.4841 459.576C68.2576 459.474 85.6325 467.453 95.6086 483.515C105.762 499.576 110.904 523.532 111.036 555.384C111.129 577.68 109.17 596.092 105.16 610.619C101.327 625.145 94.6489 636.233 85.1249 643.881C75.7778 651.529 62.876 655.387 46.4192 655.455C28.3699 655.53 14.2819 650.722 4.15522 641.032C-5.97148 631.341 -11.7738 618.978 -13.2518 603.943L9.04443 603.85ZM46.3096 564.942C58.1655 564.893 67.883 561.225 75.4619 553.939C83.0401 546.475 86.8032 536.462 86.7512 523.898C86.6962 510.626 82.9358 499.936 75.47 491.827C68.0042 483.718 57.547 479.691 44.0985 479.747C31.7117 479.798 21.8185 483.732 14.4187 491.549C7.1958 499.365 3.61078 509.643 3.66357 522.384C3.7171 535.302 7.38755 545.638 14.6749 553.394C21.9623 561.15 32.5072 565 46.3096 564.942Z" fill="url(#paint0_linear)"/>
<path d="M7.39521 205.854L9.00617 205.564L8.76303 204.211L7.38843 204.217L7.39521 205.854ZM19.7018 229.161L18.6389 230.406L18.6474 230.413L18.6559 230.42L19.7018 229.161ZM78.3247 219.893L76.9272 219.041L76.9224 219.049L76.9177 219.057L78.3247 219.893ZM88.1702 161.722L89.8067 161.694L86.6841 161.036L88.1702 161.722ZM69.6681 180.645L70.418 182.1L70.4297 182.094L70.4413 182.088L69.6681 180.645ZM8.88221 180.366L8.11219 181.81L8.12864 181.819L8.14528 181.827L8.88221 180.366ZM-12.9722 158.956L-11.5512 158.144L-12.9722 158.956ZM-4.8084 79.2917L-3.61932 80.4165L-3.61081 80.4074L-4.8084 79.2917ZM93.9594 85.5183L92.569 86.3819L92.5759 86.3929L93.9594 85.5183ZM103.511 212.622L101.933 212.187L101.931 212.196L101.928 212.205L103.511 212.622ZM83.4756 245.885L82.4508 244.609L82.4449 244.613L82.4392 244.618L83.4756 245.885ZM2.50601 243.035L3.63764 241.853L2.50601 243.035ZM-14.901 205.946L-14.9078 204.31L-16.7058 204.317L-16.5299 206.106L-14.901 205.946ZM73.8127 155.942L74.9471 157.122L74.9542 157.115L74.9612 157.108L73.8127 155.942ZM12.7694 93.5524L11.5808 92.4271L11.574 92.4343L11.5674 92.4415L12.7694 93.5524ZM13.0257 155.398L11.8329 156.519L11.8329 156.519L13.0257 155.398ZM5.78425 206.143C7.64737 216.511 11.8995 224.651 18.6389 230.406L20.7647 227.916C14.718 222.753 10.7657 215.355 9.00617 205.564L5.78425 206.143ZM18.6559 230.42C25.5973 236.187 34.7764 238.964 46.0204 238.917L46.0068 235.644C35.3085 235.688 26.9464 233.052 20.7478 227.902L18.6559 230.42ZM46.0204 238.917C61.2167 238.854 72.5522 232.809 79.7317 220.73L76.9177 219.057C70.39 230.04 60.1848 235.585 46.0068 235.644L46.0204 238.917ZM79.7222 220.746C87.0099 208.792 90.2744 188.995 89.8067 161.694L86.5336 161.75C86.9996 188.948 83.7004 207.932 76.9272 219.041L79.7222 220.746ZM86.6841 161.036C83.1675 168.654 77.2717 174.713 68.8949 179.202L70.4413 182.088C79.3679 177.303 85.8067 170.747 89.6562 162.408L86.6841 161.036ZM68.9182 179.19C60.516 183.521 51.1394 185.721 40.7568 185.764L40.7704 189.037C51.6223 188.992 61.5154 186.689 70.418 182.1L68.9182 179.19ZM40.7568 185.764C29.1262 185.812 18.7591 183.513 9.61913 178.904L8.14528 181.827C17.802 186.697 28.6892 189.087 40.7704 189.037L40.7568 185.764ZM9.65222 178.922C0.711152 174.155 -6.35175 167.242 -11.5512 158.144L-14.3933 159.768C-8.89773 169.384 -1.39102 176.744 8.11219 181.81L9.65222 178.922ZM-11.5512 158.144C-16.7294 149.084 -19.3851 138.061 -19.4392 125.007L-22.7127 125.021C-22.6568 138.51 -19.91 150.116 -14.3933 159.768L-11.5512 158.144ZM-19.4392 125.007C-19.5163 106.408 -14.1998 91.6013 -3.61935 80.4165L-5.99745 78.1669C-17.264 90.077 -22.7925 105.752 -22.7127 125.021L-19.4392 125.007ZM-3.61081 80.4074C6.92826 69.0948 21.9962 63.2987 41.8416 63.2164L41.8281 59.9429C21.328 60.0279 5.30044 66.0397 -6.00598 78.176L-3.61081 80.4074ZM41.8416 63.2164C66.2464 63.1153 82.9848 70.9512 92.569 86.3819L95.3498 84.6547C84.9817 67.9619 66.9704 59.8387 41.8281 59.9429L41.8416 63.2164ZM92.5759 86.3929C102.488 102.073 107.619 125.665 107.75 157.394L111.024 157.381C110.891 125.407 105.737 101.086 95.3429 84.6437L92.5759 86.3929ZM107.75 157.394C107.842 179.605 105.889 197.855 101.933 212.187L105.089 213.058C109.152 198.336 111.117 179.762 111.024 157.381L107.75 157.394ZM101.928 212.205C98.1638 226.472 91.6442 237.226 82.4508 244.609L84.5005 247.161C94.3551 239.247 101.192 227.825 105.094 213.04L101.928 212.205ZM82.4392 244.618C73.4727 251.955 60.98 255.755 44.7632 255.822L44.7768 259.096C61.4735 259.026 74.7845 255.111 84.5121 247.152L82.4392 244.618ZM44.7632 255.822C27.011 255.896 13.3772 251.173 3.63764 241.853L1.37438 244.218C11.8882 254.279 26.4304 259.172 44.7768 259.096L44.7632 255.822ZM3.63764 241.853C-6.18356 232.454 -11.8292 220.465 -13.2721 205.786L-16.5299 206.106C-15.0169 221.498 -9.05783 234.235 1.37438 244.218L3.63764 241.853ZM-14.8942 207.583L7.40199 207.491L7.38843 204.217L-14.9078 204.31L-14.8942 207.583ZM44.6672 168.583C56.8855 168.532 67.0254 164.738 74.9471 157.122L72.6783 154.762C65.442 161.719 56.1471 165.261 44.6536 165.309L44.6672 168.583ZM74.9612 157.108C82.91 149.28 86.7922 138.813 86.7387 125.894L83.4652 125.908C83.5158 138.117 79.8718 147.677 72.6642 154.776L74.9612 157.108ZM86.7387 125.894C86.6824 112.302 82.8216 101.19 75.0249 92.7216L72.6166 94.9389C79.7515 102.689 83.4115 112.957 83.4652 125.908L86.7387 125.894ZM75.0249 92.7216C67.1805 84.2013 56.2416 80.0563 42.4425 80.1135L42.4561 83.387C55.554 83.3327 65.5294 87.241 72.6166 94.9389L75.0249 92.7216ZM42.4425 80.1135C29.6821 80.1664 19.3353 84.2357 11.5808 92.4271L13.9581 94.6776C21.0032 87.2356 30.4429 83.4368 42.4561 83.387L42.4425 80.1135ZM11.5674 92.4415C4.00976 100.62 0.323451 111.326 0.377603 124.394L3.65111 124.381C3.59967 111.968 7.08342 102.117 13.9715 94.6632L11.5674 92.4415ZM0.377603 124.394C0.43246 137.633 4.20386 148.399 11.8329 156.519L14.2186 154.277C7.27282 146.885 3.70331 136.978 3.65111 124.381L0.377603 124.394ZM11.8329 156.519C19.5168 164.697 30.5529 168.641 44.6672 168.583L44.6536 165.309C31.1631 165.365 21.1094 161.611 14.2186 154.277L11.8329 156.519ZM178.367 156.836L178.83 158.406L183.437 157.048L178.959 155.31L178.367 156.836ZM155.469 139.943L154.141 140.9L155.469 139.943ZM154.454 87.1257L155.844 87.9903L155.848 87.9832L155.853 87.9759L154.454 87.1257ZM175.613 68.723L176.317 70.2005L176.329 70.1947L175.613 68.723ZM244.359 68.4381L243.645 69.9105L243.661 69.9186L243.678 69.9262L244.359 68.4381ZM265.935 86.6637L264.544 87.5256L264.555 87.5442L264.567 87.5625L265.935 86.6637ZM265.358 139.488L266.689 140.439L266.695 140.432L266.7 140.425L265.358 139.488ZM242.867 156.569L242.267 155.046L237.88 156.773L242.394 158.136L242.867 156.569ZM268.953 174.245L267.647 175.232L267.659 175.248L267.671 175.263L268.953 174.245ZM270.53 234.758L271.896 235.66L271.9 235.653L271.905 235.647L270.53 234.758ZM246.459 254.765L247.134 256.256L247.146 256.251L246.459 254.765ZM175.323 255.06L174.629 256.542L174.644 256.549L174.66 256.556L175.323 255.06ZM151.617 235.25L150.251 236.151L150.255 236.158L150.259 236.164L151.617 235.25ZM152.427 174.462L153.741 175.439L152.427 174.462ZM239.408 90.4898L238.371 91.7566L239.408 90.4898ZM181.278 90.7306L182.325 91.9889L181.278 90.7306ZM181.747 139.834L180.708 141.098L180.715 141.105L180.723 141.111L181.747 139.834ZM239.08 139.597L240.13 140.852L240.133 140.85L239.08 139.597ZM178.449 176.743L179.414 178.066L179.423 178.059L179.432 178.052L178.449 176.743ZM178.145 231.424L177.078 232.666L177.085 232.672L177.092 232.677L178.145 231.424ZM243.176 231.155L242.099 229.923L243.176 231.155ZM242.685 176.743L241.681 178.036L241.69 178.043L241.699 178.049L242.685 176.743ZM178.959 155.31C169.279 151.553 161.923 146.099 156.797 138.986L154.141 140.9C159.695 148.607 167.604 154.415 177.775 158.362L178.959 155.31ZM156.797 138.986C151.688 131.896 149.074 123.229 149.031 112.895L145.758 112.909C145.803 123.81 148.572 133.17 154.141 140.9L156.797 138.986ZM149.031 112.895C148.993 103.627 151.271 95.3408 155.844 87.9903L153.065 86.261C148.145 94.1682 145.717 103.066 145.758 112.909L149.031 112.895ZM155.853 87.9759C160.411 80.4779 167.204 74.5451 176.317 70.2004L174.908 67.2455C165.301 71.8262 157.988 78.1619 153.056 86.2754L155.853 87.9759ZM176.329 70.1947C185.593 65.6868 196.83 63.3705 210.097 63.3155L210.083 60.042C196.453 60.0985 184.705 62.4784 174.897 67.2512L176.329 70.1947ZM210.097 63.3155C223.365 63.2605 234.527 65.4845 243.645 69.9105L245.074 66.9656C235.397 62.2678 223.712 59.9855 210.083 60.042L210.097 63.3155ZM243.678 69.9262C253.005 74.1973 259.928 80.0736 264.544 87.5256L267.327 85.8019C262.322 77.7215 254.862 71.4474 245.041 66.9499L243.678 69.9262ZM264.567 87.5625C269.37 94.8718 271.799 103.131 271.837 112.387L275.111 112.373C275.07 102.518 272.473 93.6327 267.303 85.7649L264.567 87.5625ZM271.837 112.387C271.879 122.34 269.261 131.04 264.016 138.551L266.7 140.425C272.362 132.318 275.155 122.946 275.111 112.373L271.837 112.387ZM264.026 138.536C258.773 145.887 251.542 151.395 242.267 155.046L243.466 158.092C253.272 154.232 261.035 148.352 266.689 140.439L264.026 138.536ZM242.394 158.136C253.075 161.361 261.468 167.064 267.647 175.232L270.258 173.257C263.626 164.491 254.628 158.41 243.34 155.002L242.394 158.136ZM267.671 175.263C273.997 183.23 277.214 192.935 277.262 204.47L280.536 204.457C280.485 192.28 277.072 181.839 270.234 173.227L267.671 175.263ZM277.262 204.47C277.309 215.691 274.591 225.47 269.156 233.868L271.905 235.647C277.723 226.657 280.584 216.24 280.536 204.457L277.262 204.47ZM269.165 233.855C263.725 242.088 255.951 248.57 245.771 253.28L247.146 256.251C257.807 251.318 266.081 244.461 271.896 235.66L269.165 233.855ZM245.783 253.274C235.786 257.806 224.175 260.122 210.913 260.177L210.926 263.45C224.561 263.394 236.643 261.011 247.134 256.256L245.783 253.274ZM210.913 260.177C197.651 260.232 186.021 258.012 175.987 253.564L174.66 256.556C185.19 261.224 197.292 263.507 210.926 263.45L210.913 260.177ZM176.018 253.578C166.154 248.956 158.492 242.538 152.976 234.337L150.259 236.164C156.138 244.903 164.28 251.692 174.629 256.542L176.018 253.578ZM152.984 234.35C147.48 225.997 144.681 216.24 144.635 205.02L141.361 205.033C141.41 216.817 144.358 227.21 150.251 236.151L152.984 234.35ZM144.635 205.02C144.587 193.475 147.641 183.642 153.741 175.439L151.114 173.486C144.543 182.323 141.311 192.867 141.361 205.033L144.635 205.02ZM153.741 175.439C159.848 167.226 168.185 161.544 178.83 158.406L177.904 155.266C166.633 158.589 157.677 164.659 151.114 173.486L153.741 175.439ZM251.765 115.389C251.719 104.203 247.993 95.3984 240.444 89.2229L238.371 91.7566C245.027 97.2015 248.448 105.002 248.491 115.403L251.765 115.389ZM240.444 89.2229C232.959 83.0995 222.801 80.1624 210.167 80.2148L210.181 83.4883C222.32 83.438 231.652 86.2597 238.371 91.7566L240.444 89.2229ZM210.167 80.2148C197.704 80.2664 187.662 83.2903 180.231 89.4724L182.325 91.9889C189.002 86.4333 198.225 83.5378 210.181 83.4883L210.167 80.2148ZM180.231 89.4724C172.727 95.7156 169.082 104.643 169.129 115.997L172.402 115.984C172.358 105.395 175.721 97.4833 182.325 91.9889L180.231 89.4724ZM169.129 115.997C169.172 126.365 173.03 134.785 180.708 141.098L182.787 138.57C175.905 132.911 172.441 125.435 172.402 115.984L169.129 115.997ZM180.723 141.111C188.532 147.38 198.49 150.426 210.458 150.377L210.444 147.103C199.054 147.151 189.876 144.26 182.772 138.558L180.723 141.111ZM210.458 150.377C222.594 150.327 232.538 147.201 240.13 140.852L238.03 138.341C231.162 144.085 222.02 147.055 210.444 147.103L210.458 150.377ZM240.133 140.85C247.922 134.304 251.808 125.771 251.765 115.389L248.491 115.403C248.531 124.84 245.051 132.441 238.027 138.344L240.133 140.85ZM210.521 165.684C197.168 165.739 186.106 168.945 177.466 175.435L179.432 178.052C187.375 172.086 197.699 169.01 210.535 168.957L210.521 165.684ZM177.485 175.421C168.685 181.843 164.398 191.519 164.451 204.141L167.724 204.128C167.675 192.33 171.63 183.746 179.414 178.066L177.485 175.421ZM164.451 204.141C164.499 215.901 168.697 225.463 177.078 232.666L179.212 230.183C171.61 223.65 167.769 215.018 167.724 204.128L164.451 204.141ZM177.092 232.677C185.631 239.857 196.94 243.335 210.843 243.278L210.829 240.004C197.482 240.059 186.996 236.727 179.198 230.172L177.092 232.677ZM210.843 243.278C224.744 243.22 235.944 239.649 244.253 232.387L242.099 229.923C234.539 236.529 224.179 239.949 210.829 240.004L210.843 243.278ZM244.253 232.387C252.574 225.115 256.692 215.519 256.644 203.759L253.37 203.773C253.415 214.663 249.646 223.326 242.099 229.923L244.253 232.387ZM256.644 203.759C256.593 191.484 252.312 181.955 243.67 175.436L241.699 178.049C249.388 183.85 253.323 192.336 253.37 203.773L256.644 203.759ZM243.688 175.45C235.16 168.832 224.053 165.627 210.521 165.684L210.535 168.957C223.546 168.903 233.877 171.98 241.681 178.036L243.688 175.45ZM9.04443 603.85L10.6554 603.561L10.4122 602.208L9.03764 602.214L9.04443 603.85ZM21.351 627.158L20.2882 628.402L20.2966 628.41L20.3051 628.417L21.351 627.158ZM79.9739 617.89L78.5764 617.038L78.5716 617.046L78.5669 617.054L79.9739 617.89ZM89.8194 559.719L91.4559 559.691L88.3333 559.033L89.8194 559.719ZM71.3173 578.641L72.0672 580.096L72.0789 580.09L72.0905 580.084L71.3173 578.641ZM10.5314 578.362L9.76141 579.807L9.77786 579.816L9.7945 579.824L10.5314 578.362ZM-11.323 556.953L-9.90195 556.141L-11.323 556.953ZM-3.15918 477.288L-1.9701 478.413L-1.96159 478.404L-3.15918 477.288ZM95.6086 483.515L94.2182 484.379L94.2251 484.389L95.6086 483.515ZM105.16 610.619L103.582 610.183L103.58 610.192L103.578 610.201L105.16 610.619ZM85.1249 643.881L84.1 642.605L84.0942 642.61L84.0884 642.615L85.1249 643.881ZM4.15522 641.032L5.28685 639.849L4.15522 641.032ZM-13.2518 603.943L-13.2586 602.306L-15.0566 602.314L-14.8807 604.103L-13.2518 603.943ZM75.4619 553.939L76.5963 555.119L76.6034 555.112L76.6104 555.105L75.4619 553.939ZM14.4187 491.549L13.23 490.424L13.2232 490.431L13.2166 490.438L14.4187 491.549ZM14.6749 553.394L13.4821 554.515L13.4821 554.515L14.6749 553.394ZM7.43346 604.14C9.29658 614.507 13.5487 622.648 20.2882 628.402L22.4139 625.913C16.3672 620.75 12.4149 613.352 10.6554 603.561L7.43346 604.14ZM20.3051 628.417C27.2465 634.184 36.4256 636.961 47.6696 636.914L47.656 633.64C36.9577 633.685 28.5956 631.049 22.397 625.899L20.3051 628.417ZM47.6696 636.914C62.8659 636.851 74.2014 630.805 81.3809 618.726L78.5669 617.054C72.0392 628.036 61.8341 633.582 47.656 633.64L47.6696 636.914ZM81.3714 618.742C88.6591 606.789 91.9236 586.992 91.4559 559.691L88.1829 559.747C88.6488 586.945 85.3496 605.929 78.5764 617.038L81.3714 618.742ZM88.3333 559.033C84.8167 566.651 78.9209 572.709 70.5441 577.199L72.0905 580.084C81.0171 575.3 87.456 568.744 91.3054 560.405L88.3333 559.033ZM70.5674 577.187C62.1652 581.517 52.7886 583.717 42.4061 583.76L42.4196 587.034C53.2715 586.989 63.1646 584.685 72.0672 580.096L70.5674 577.187ZM42.4061 583.76C30.7754 583.809 20.4084 581.51 11.2683 576.901L9.7945 579.824C19.4512 584.693 30.3384 587.084 42.4196 587.034L42.4061 583.76ZM11.3014 576.918C2.36037 572.151 -4.70253 565.238 -9.90195 556.141L-12.7441 557.765C-7.24852 567.381 0.2582 574.74 9.76141 579.807L11.3014 576.918ZM-9.90195 556.141C-15.0802 547.08 -17.7359 536.058 -17.79 523.004L-21.0635 523.017C-21.0076 536.507 -18.2608 548.112 -12.7441 557.765L-9.90195 556.141ZM-17.79 523.004C-17.867 504.405 -12.5505 489.598 -1.97013 478.413L-4.34823 476.163C-15.6148 488.074 -21.1433 503.748 -21.0635 523.017L-17.79 523.004ZM-1.96159 478.404C8.57748 467.091 23.6454 461.295 43.4909 461.213L43.4773 457.939C22.9772 458.024 6.94966 464.036 -4.35677 476.173L-1.96159 478.404ZM43.4909 461.213C67.8956 461.112 84.6341 468.948 94.2182 484.378L96.999 482.651C86.6309 465.958 68.6196 457.835 43.4773 457.939L43.4909 461.213ZM94.2251 484.389C104.137 500.069 109.268 523.661 109.4 555.391L112.673 555.377C112.541 523.403 107.386 499.083 96.9921 482.64L94.2251 484.389ZM109.4 555.391C109.492 577.602 107.538 595.851 103.582 610.183L106.738 611.054C110.802 596.332 112.766 577.759 112.673 555.377L109.4 555.391ZM103.578 610.201C99.8131 624.468 93.2934 635.222 84.1 642.605L86.1497 645.158C96.0043 637.243 102.841 625.822 106.743 611.037L103.578 610.201ZM84.0884 642.615C75.1219 649.951 62.6292 653.752 46.4125 653.819L46.426 657.092C63.1227 657.023 76.4338 653.107 86.1613 645.148L84.0884 642.615ZM46.4125 653.819C28.6603 653.892 15.0264 649.169 5.28685 639.849L3.02359 642.214C13.5374 652.275 28.0796 657.168 46.426 657.092L46.4125 653.819ZM5.28685 639.849C-4.53435 630.451 -10.1799 618.461 -11.6229 603.783L-14.8807 604.103C-13.3677 619.495 -7.40861 632.231 3.02359 642.214L5.28685 639.849ZM-13.245 605.58L9.05121 605.487L9.03764 602.214L-13.2586 602.306L-13.245 605.58ZM46.3164 566.579C58.5348 566.529 68.6747 562.735 76.5963 555.119L74.3275 552.759C67.0912 559.716 57.7963 563.258 46.3028 563.306L46.3164 566.579ZM76.6104 555.105C84.5592 547.276 88.4414 536.809 88.3879 523.891L85.1144 523.905C85.165 536.114 81.521 545.674 74.3134 552.773L76.6104 555.105ZM88.3879 523.891C88.3316 510.299 84.4708 499.187 76.6741 490.718L74.2658 492.935C81.4007 500.685 85.0607 510.953 85.1144 523.905L88.3879 523.891ZM76.6741 490.718C68.8297 482.198 57.8908 478.053 44.0917 478.11L44.1053 481.384C57.2033 481.329 67.1786 485.238 74.2658 492.935L76.6741 490.718ZM44.0917 478.11C31.3313 478.163 20.9845 482.232 13.23 490.424L15.6073 492.674C22.6524 485.232 32.0922 481.433 44.1053 481.384L44.0917 478.11ZM13.2166 490.438C5.65898 498.616 1.97267 509.323 2.02682 522.391L5.30033 522.377C5.24889 509.964 8.73263 500.114 15.6207 492.66L13.2166 490.438ZM2.02682 522.391C2.08167 535.629 5.85307 546.396 13.4821 554.515L15.8678 552.274C8.92204 544.881 5.35253 534.974 5.30033 522.377L2.02682 522.391ZM13.4821 554.515C21.166 562.693 32.2021 566.638 46.3164 566.579L46.3028 563.306C32.8123 563.362 22.7586 559.607 15.8678 552.274L13.4821 554.515Z" fill="#C4A287"/>
</g>
</g>
<defs>
<linearGradient id="paint0_linear" x1="162.384" y1="-46.5282" x2="146.517" y2="79.2278" gradientUnits="userSpaceOnUse">
<stop stop-color="#F1C19D"/>
<stop offset="1" stop-color="#F1C19D" stop-opacity="0"/>
</linearGradient>
<clipPath id="clip0">
<rect width="321.9" height="194.575" fill="white" transform="translate(0.100342)"/>
</clipPath>
</defs>
</svg>
