<svg width="74" height="74" viewBox="0 0 74 74" fill="none" xmlns="http://www.w3.org/2000/svg">
<path d="M20.8135 28.9062H18.501V31.2187H20.8135V28.9062Z" fill="#878987"/>
<path d="M32.377 28.9062H30.0645V31.2187H32.377V28.9062Z" fill="#878987"/>
<path d="M70.6955 41.6366L66.178 40.9915C65.9632 40.3597 65.7095 39.7419 65.4184 39.1415L68.1518 35.497C68.3187 35.2743 68.3997 34.9989 68.38 34.7213C68.3602 34.4437 68.241 34.1825 68.0442 33.9857L63.1383 29.0798C62.9498 28.8926 62.702 28.7769 62.4376 28.7525V17.6225C63.5194 16.7563 64.3928 15.6582 64.9932 14.4092C65.5935 13.1601 65.9056 11.7922 65.9063 10.4063C65.9169 8.654 65.4243 6.93546 64.487 5.45483C63.5497 3.9742 62.2072 2.79371 60.6188 2.05358C60.4426 1.97037 60.2482 1.93305 60.0537 1.94508C59.8592 1.9571 59.6709 2.01809 59.5063 2.12237C59.3417 2.22665 59.2061 2.37085 59.1121 2.54156C59.0182 2.71227 58.9689 2.90397 58.9688 3.09883V9.57383L56.6563 10.345L54.3438 9.57383V3.09883C54.343 2.90436 54.2931 2.71323 54.1988 2.54315C54.1045 2.37306 53.9689 2.2295 53.8044 2.12575C53.6399 2.02201 53.4519 1.96143 53.2578 1.94962C53.0637 1.93782 52.8697 1.97516 52.6938 2.05821C51.1062 2.79801 49.7641 3.97778 48.8269 5.45751C47.8896 6.93724 47.3966 8.65479 47.4063 10.4063C47.407 11.7922 47.7191 13.1601 48.3195 14.4092C48.9199 15.6582 49.7932 16.7563 50.8751 17.6225V25.4376H47.4063C47.1281 25.4375 46.8592 25.5378 46.6489 25.7201C46.4386 25.9023 46.3011 26.1542 46.2616 26.4296L45.5135 31.6663L47.8029 31.9935L48.4088 27.7501H53.3413L53.9472 31.9935C53.9788 32.2134 54.073 32.4195 54.2185 32.5872C54.3641 32.7549 54.5549 32.8772 54.7682 32.9393C55.7319 33.2178 56.6624 33.6004 57.5432 34.0805C57.738 34.1874 57.9595 34.2358 58.1812 34.22C58.4029 34.2042 58.6153 34.1249 58.7931 33.9915L62.2167 31.4246L65.704 34.9119L63.1313 38.3355C62.9979 38.5133 62.9186 38.7257 62.9028 38.9474C62.887 39.1691 62.9354 39.3906 63.0423 39.5855C63.5224 40.4662 63.9051 41.3967 64.1835 42.3605C64.2457 42.5737 64.3679 42.7645 64.5356 42.9101C64.7034 43.0556 64.9095 43.1498 65.1293 43.1814L69.3728 43.7873V48.7198L65.1293 49.3257C64.9095 49.3573 64.7034 49.4515 64.5356 49.597C64.3679 49.7426 64.2457 49.9334 64.1835 50.1466C63.9051 51.1104 63.5224 52.0409 63.0423 52.9216C62.9354 53.1165 62.887 53.338 62.9028 53.5597C62.9186 53.7814 62.9979 53.9938 63.1313 54.1716L65.6982 57.5952L62.2109 61.0825L58.7896 58.5063C58.6118 58.3729 58.3994 58.2936 58.1777 58.2778C57.9561 58.262 57.7346 58.3105 57.5397 58.4173C56.6589 58.8974 55.7284 59.2801 54.7647 59.5585C54.5515 59.6207 54.3607 59.7429 54.2151 59.9107C54.0695 60.0784 53.9753 60.2845 53.9438 60.5043L53.3413 64.7501H48.5626V59.8603C48.5617 58.6388 48.3865 57.4236 48.0423 56.2516C50.2446 56.8964 52.5973 56.8043 54.7425 55.9893C56.8877 55.1744 58.7081 53.6812 59.9268 51.7368C61.1456 49.7924 61.696 47.5032 61.4945 45.2173C61.2929 42.9314 60.3504 40.7738 58.8102 39.0727C57.2699 37.3716 55.2163 36.22 52.9616 35.793C50.7069 35.366 48.3744 35.687 46.3189 36.7072C44.2634 37.7274 42.5972 39.391 41.5738 41.4449C40.5504 43.4989 40.2257 45.8308 40.6492 48.0862C40.6214 48.0746 40.5948 48.0608 40.5671 48.0504L31.2188 44.3111V42.5339C32.7639 41.7434 34.1324 40.6475 35.2414 39.3126H38.1563C39.0763 39.3126 39.9586 38.9471 40.6091 38.2966C41.2596 37.6461 41.6251 36.7638 41.6251 35.8438V33.3186C42.2991 33.0803 42.883 32.6396 43.2969 32.0568C43.7108 31.4739 43.9346 30.7774 43.9376 30.0626V26.5938C43.9346 25.879 43.7108 25.1825 43.2969 24.5996C42.883 24.0168 42.2991 23.5761 41.6251 23.3378V21.9688C41.6251 17.6756 39.9196 13.5583 36.8839 10.5225C33.8481 7.48679 29.7308 5.78133 25.4376 5.78133C21.1444 5.78133 17.027 7.48679 13.9913 10.5225C10.9555 13.5583 9.25007 17.6756 9.25007 21.9688V23.3378C8.57608 23.5761 7.99217 24.0168 7.57823 24.5996C7.16429 25.1825 6.94053 25.879 6.93757 26.5938V30.0626C6.93757 30.9825 7.30302 31.8648 7.95354 32.5154C8.60406 33.1659 9.48635 33.5313 10.4063 33.5313H12.7188C12.7928 33.5313 12.8645 33.5198 12.9373 33.5151C13.2929 35.4322 14.0834 37.2421 15.2483 38.8057C16.4131 40.3692 17.9211 41.6447 19.6563 42.5339V44.3111L10.308 48.0504C7.94301 48.9876 5.91523 50.6157 4.48903 52.7223C3.06283 54.8289 2.30439 57.3163 2.31257 59.8603V70.5313C2.31257 70.838 2.43438 71.1321 2.65122 71.3489C2.86806 71.5658 3.16216 71.6876 3.46882 71.6876H47.4063C47.713 71.6876 48.0071 71.5658 48.2239 71.3489C48.4407 71.1321 48.5626 70.838 48.5626 70.5313V67.0626H54.3438C54.6221 67.0626 54.891 66.9623 55.1012 66.7801C55.3115 66.5979 55.449 66.3459 55.4885 66.0705L56.1337 61.553C56.7654 61.3382 57.3833 61.0845 57.9837 60.7934L61.6282 63.5268C61.8509 63.6937 62.1263 63.7747 62.4039 63.755C62.6815 63.7352 62.9426 63.616 63.1394 63.4192L68.0454 58.5133C68.2422 58.3165 68.3614 58.0553 68.3811 57.7777C68.4009 57.5001 68.3199 57.2247 68.1529 57.002L65.4195 53.3575C65.7106 52.7571 65.9643 52.1393 66.1792 51.5075L70.6967 50.8624C70.9717 50.8226 71.2232 50.6852 71.4051 50.4752C71.5871 50.2652 71.6874 49.9967 71.6876 49.7188V42.7813C71.6876 42.5031 71.5873 42.2342 71.4051 42.0239C71.2229 41.8137 70.9709 41.6762 70.6955 41.6366ZM57.9768 31.7068C57.9224 31.6802 57.8611 31.6628 57.8068 31.6374V17.3438H55.5001V26.5129L55.4885 26.4296C55.449 26.1542 55.3115 25.9023 55.1012 25.7201C54.891 25.5378 54.6221 25.4375 54.3438 25.4376H53.1876V17.0432C53.1876 16.8567 53.1425 16.673 53.0561 16.5077C52.9697 16.3424 52.8446 16.2004 52.6915 16.0939C51.832 15.4955 51.1191 14.7103 50.6064 13.7971C50.0936 12.8839 49.7942 11.8665 49.7307 10.8211C49.6672 9.77576 49.8411 8.72957 50.2396 7.76103C50.638 6.79248 51.2506 5.92671 52.0313 5.22864V10.4063C52.0313 10.6491 52.1076 10.8857 52.2496 11.0827C52.3915 11.2796 52.5919 11.4269 52.8222 11.5036L56.2909 12.6599C56.5281 12.7389 56.7845 12.7389 57.0217 12.6599L60.4904 11.5036C60.7208 11.4269 60.9211 11.2796 61.0631 11.0827C61.205 10.8857 61.2814 10.6491 61.2813 10.4063V5.22864C62.0627 5.92669 62.6758 6.79266 63.0746 7.76156C63.4735 8.73046 63.6477 9.77711 63.5841 10.823C63.5206 11.8688 63.221 12.8867 62.7078 13.8002C62.1947 14.7137 61.4812 15.4991 60.6211 16.0974C60.4685 16.2036 60.3437 16.3449 60.2573 16.5096C60.171 16.6742 60.1256 16.8573 60.1251 17.0432V30.1007L57.9768 31.7068ZM42.7813 46.2501C42.7686 44.4422 43.3573 42.6813 44.4547 41.2445C45.5522 39.8078 47.0962 38.7766 48.8438 38.3133C50.5913 37.85 52.4434 37.9808 54.1085 38.6852C55.7736 39.3896 57.1573 40.6275 58.0419 42.2043C58.9265 43.7811 59.2618 45.6072 58.995 47.3954C58.7283 49.1835 57.8746 50.8323 56.5684 52.0823C55.2621 53.3322 53.5773 54.1124 51.7792 54.3002C49.981 54.4879 48.1714 54.0725 46.6351 53.1194C45.8358 51.8389 44.8133 50.7122 43.6161 49.7928C43.066 48.6929 42.7802 47.4799 42.7813 46.2501ZM38.1563 37.0001H36.7526C37.3161 35.9027 37.7154 34.7285 37.9378 33.5151C38.0106 33.5151 38.0823 33.5313 38.1563 33.5313H39.3126V35.8438C39.3126 36.1505 39.1907 36.4446 38.9739 36.6614C38.7571 36.8783 38.463 37.0001 38.1563 37.0001ZM35.8438 24.2813C35.3055 24.28 34.7749 24.154 34.2935 23.9133C33.812 23.6726 33.3928 23.3236 33.0688 22.8938L30.9876 20.1188C30.8946 19.9949 30.7778 19.891 30.6439 19.8131C30.51 19.7353 30.3619 19.6851 30.2083 19.6656C30.0546 19.6467 29.8987 19.6586 29.7496 19.7004C29.6005 19.7423 29.4613 19.8134 29.3399 19.9095L25.4595 23.0095C24.4357 23.8288 23.1645 24.2771 21.8532 24.2813H15.0313V23.1251C15.0313 20.3652 16.1277 17.7183 18.0792 15.7668C20.0308 13.8152 22.6777 12.7188 25.4376 12.7188C28.1975 12.7188 30.8443 13.8152 32.7959 15.7668C34.7474 17.7183 35.8438 20.3652 35.8438 23.1251V24.2813ZM41.6251 30.0626C41.6251 30.3692 41.5032 30.6633 41.2864 30.8802C41.0696 31.097 40.7755 31.2188 40.4688 31.2188H38.1563V25.4376H40.4688C40.7755 25.4376 41.0696 25.5594 41.2864 25.7762C41.5032 25.9931 41.6251 26.2872 41.6251 26.5938V30.0626ZM25.4376 8.09383C29.1162 8.09781 32.6431 9.56091 35.2443 12.1621C37.8455 14.7633 39.3086 18.2902 39.3126 21.9688V23.1251H38.1563C38.1563 19.7519 36.8163 16.5168 34.4311 14.1316C32.0459 11.7463 28.8108 10.4063 25.4376 10.4063C22.0643 10.4063 18.8293 11.7463 16.4441 14.1316C14.0588 16.5168 12.7188 19.7519 12.7188 23.1251H11.5626V21.9688C11.5665 18.2902 13.0296 14.7633 15.6309 12.1621C18.2321 9.56091 21.7589 8.09781 25.4376 8.09383ZM10.4063 31.2188C10.0997 31.2188 9.80556 31.097 9.58872 30.8802C9.37188 30.6633 9.25007 30.3692 9.25007 30.0626V26.5938C9.25007 26.2872 9.37188 25.9931 9.58872 25.7762C9.80556 25.5594 10.0997 25.4376 10.4063 25.4376H12.7188V31.2188H10.4063ZM15.0313 31.2188V26.5938H21.8532C23.6903 26.5914 25.4724 25.9661 26.9083 24.8201L29.8579 22.4602L31.2188 24.2813C31.7589 24.9977 32.4575 25.5793 33.2599 25.9805C34.0623 26.3817 34.9467 26.5916 35.8438 26.5938V31.2188C35.8457 33.2781 35.2329 35.2911 34.084 37.0001H25.4376V39.3126H31.9634C30.4365 40.5472 28.5911 41.3241 26.6408 41.5534C24.6906 41.7826 22.7154 41.4548 20.9437 40.608C19.1721 39.7611 17.6765 38.4298 16.6302 36.7681C15.5838 35.1065 15.0295 33.1825 15.0313 31.2188ZM25.4376 43.9376C26.611 43.9347 27.7784 43.7689 28.9063 43.445V45.0938C28.9063 46.0138 28.5409 46.8961 27.8903 47.5466C27.2398 48.1971 26.3575 48.5626 25.4376 48.5626C24.5176 48.5626 23.6353 48.1971 22.9848 47.5466C22.3343 46.8961 21.9688 46.0138 21.9688 45.0938V43.445C23.0967 43.7689 24.2641 43.9347 25.4376 43.9376ZM46.2501 69.3751H39.3126V56.6563H37.0001V69.3751H13.8751V56.6563H11.5626V69.3751H4.62507V59.8603C4.61833 57.7788 5.2389 55.7436 6.40585 54.02C7.57281 52.2963 9.23201 50.9643 11.1671 50.1975L19.9118 46.6999C20.2533 47.9021 20.9776 48.9603 21.9748 49.7137C22.972 50.4671 24.1877 50.8748 25.4376 50.8748C26.6874 50.8748 27.9031 50.4671 28.9003 49.7137C29.8976 48.9603 30.6218 47.9021 30.9633 46.6999L39.708 50.1975C41.6431 50.9643 43.3023 52.2963 44.4693 54.02C45.6362 55.7436 46.2568 57.7788 46.2501 59.8603V69.3751Z" fill="#878987"/>
<path d="M52.0322 30.0625H49.7197V32.375H52.0322V30.0625Z" fill="#878987"/>
<path d="M52.0322 60.125H49.7197V62.4375H52.0322V60.125Z" fill="#878987"/>
<path d="M61.5024 55.2438L59.8672 56.8789L61.5024 58.5141L63.1376 56.8789L61.5024 55.2438Z" fill="#878987"/>
<path d="M67.0625 45.0938H64.75V47.4062H67.0625V45.0938Z" fill="#878987"/>
<path d="M61.5024 33.9869L59.8672 35.6221L61.5024 37.2572L63.1376 35.6221L61.5024 33.9869Z" fill="#878987"/>
</svg>
