<svg width="75" height="74" viewBox="0 0 75 74" fill="none" xmlns="http://www.w3.org/2000/svg">
<g clip-path="url(#clip0)">
<path d="M61.5804 47.183C62.794 46.3324 63.9592 45.3706 65.0475 44.2824C75.1874 34.1426 74.3835 17.3437 74.3444 16.6336C74.2838 15.5335 73.4051 14.6554 72.305 14.5952C71.9772 14.5773 67.353 14.3536 61.5547 15.5269C60.4052 9.55339 58.3632 5.25216 58.2662 5.05035C57.7894 4.05743 56.6419 3.58222 55.6026 3.94709C55.3932 4.02055 50.9554 5.60118 45.9519 8.97418C42.6703 4.01695 39.2137 0.877742 38.9395 0.632142C38.119 -0.102641 36.8773 -0.102641 36.0566 0.632142C35.7824 0.877742 32.326 4.01695 29.0443 8.97389C24.0407 5.60089 19.6029 4.02027 19.3936 3.9468C18.3543 3.58193 17.2068 4.05714 16.73 5.05006C16.6331 5.25187 14.5911 9.5531 13.4416 15.5266C7.64342 14.3533 3.01923 14.5772 2.69123 14.595C1.59115 14.6552 0.71246 15.5335 0.651816 16.6334C0.612636 17.3436 -0.191145 34.1425 9.94874 44.2822C11.037 45.3705 12.2022 46.3323 13.4158 47.1829C5.77974 51.2074 1.55384 59.2045 1.34944 59.5986C0.83418 60.5912 1.1616 61.8129 2.1041 62.4148C2.4658 62.6459 9.6327 67.1519 17.9016 67.1512C19.6326 67.1512 21.4131 66.9535 23.1882 66.478C25.3509 65.8985 27.3117 64.9577 29.063 63.8308C32.087 69.4257 35.8216 73.0576 35.9996 73.229C36.4179 73.6317 36.9581 73.8331 37.4981 73.8331C38.0382 73.8331 38.5783 73.6317 38.9966 73.229C39.1747 73.0576 42.9092 69.4257 45.9332 63.8308C47.6847 64.9578 49.6454 65.8985 51.808 66.478C53.5837 66.9537 55.3632 67.1514 57.0947 67.1512C65.3627 67.1512 72.5306 62.6457 72.8922 62.4148C73.8346 61.8129 74.1619 60.5912 73.6468 59.5986C73.4424 59.2046 69.2165 51.2077 61.5804 47.183ZM61.9918 41.2267C56.369 46.8496 47.9912 48.5686 42.6726 49.077C46.5225 44.4817 51.9538 36.3183 51.9538 26.8319C51.9538 25.7974 51.8874 24.7793 51.7673 23.7792C58.3143 19.7436 66.3406 19.0157 70.0338 18.9094C69.911 23.4113 68.8714 34.3473 61.9918 41.2267ZM55.1549 8.79844C55.8138 10.5168 56.7436 13.2901 57.359 16.5925C55.2009 17.2599 52.9885 18.1436 50.8541 19.3117C50.1731 16.9434 49.227 14.7235 48.1616 12.6984C50.8952 10.8344 53.4867 9.54317 55.1549 8.79844ZM37.4981 5.29162C40.6022 8.57848 47.6324 17.0986 47.6324 26.8319C47.6324 36.5684 40.5976 45.0907 37.4957 48.3747C34.3913 45.0971 27.3639 36.5976 27.3639 26.8319C27.3639 17.0978 34.3952 8.57719 37.4981 5.29162ZM19.8442 8.79729C21.5089 9.53928 24.094 10.8273 26.8349 12.6979C25.7694 14.7231 24.8232 16.9433 24.1421 19.3116C22.0079 18.1436 19.7956 17.2598 17.6377 16.5925C18.2525 13.3002 19.1847 10.5199 19.8442 8.79729ZM4.96587 18.9062C8.65578 19.0079 16.6652 19.7294 23.2291 23.779C23.109 24.7793 23.0426 25.7974 23.0426 26.8319C23.0426 36.3183 28.474 44.4817 32.324 49.077C27.0046 48.5686 18.6273 46.8494 13.0045 41.2267C6.14619 34.3685 5.09523 23.4116 4.96587 18.9062ZM22.0697 62.3039C15.9339 63.9481 9.39056 61.3319 6.27958 59.7834C8.13375 56.9762 12.2712 51.7002 18.1342 49.8754C23.8256 52.4963 29.7784 53.3007 33.5837 53.5271C31.3722 56.5441 27.4026 60.875 22.0697 62.3039ZM37.4961 68.4854C36.1676 66.9362 34.1888 64.3681 32.5357 61.1533C34.6788 59.2109 36.3429 57.1344 37.4981 55.4911C38.6532 57.1342 40.3173 59.2108 42.4601 61.153C40.8109 64.3564 38.8268 66.9316 37.4961 68.4854ZM52.9267 62.3039C47.6187 60.8816 43.6411 56.5461 41.4212 53.5267C45.2272 53.2995 51.1749 52.4943 56.8619 49.8755C62.7016 51.6954 66.854 56.9822 68.7152 59.7899C65.6104 61.3415 59.0877 63.9548 52.9267 62.3039Z" fill="#878987"/>
</g>
<defs>
<clipPath id="clip0">
<rect width="73.752" height="73.752" fill="white" transform="translate(0.625 0.0830078)"/>
</clipPath>
</defs>
</svg>
