<svg width="60" height="60" viewBox="0 0 60 60" fill="none" xmlns="http://www.w3.org/2000/svg">
<g clip-path="url(#clip0)">
<path d="M29.8818 54.668C32.0176 54.668 33.749 52.9366 33.749 50.8008C33.749 48.665 32.0176 46.9336 29.8818 46.9336C27.746 46.9336 26.0146 48.665 26.0146 50.8008C26.0146 52.9366 27.746 54.668 29.8818 54.668Z" fill="#878987"/>
<path d="M59.3708 18.1481C51.6681 9.8837 41.2376 5.33215 29.9996 5.33203C18.7625 5.33215 8.33198 9.8837 0.629143 18.1481C-0.253277 19.095 -0.201129 20.5781 0.745745 21.4606C1.69274 22.3431 3.17574 22.291 4.05828 21.344C10.8645 14.0414 20.0773 10.0196 30.0004 10.0195C39.9226 10.0196 49.1354 14.0414 55.9417 21.344C56.4033 21.8393 57.0292 22.0898 57.6567 22.0898C58.2289 22.0898 58.8026 21.8815 59.2542 21.4606C60.2011 20.578 60.2533 19.095 59.3708 18.1481Z" fill="#878987"/>
<path d="M50.7651 27.827C45.0713 22.0902 37.6968 18.9309 30 18.9312C22.3013 18.9313 14.9267 22.0906 9.23473 27.8272C8.32301 28.7461 8.32875 30.23 9.24762 31.1417C10.1665 32.0534 11.6504 32.0477 12.5621 31.1288C17.3674 26.2859 23.5603 23.6188 30 23.6186C36.438 23.6184 42.6309 26.2857 47.4379 31.1291C47.8961 31.5907 48.4987 31.8218 49.1015 31.8218C49.6982 31.8218 50.2954 31.5951 50.7527 31.1415C51.6713 30.2296 51.6769 28.7457 50.7651 27.827Z" fill="#878987"/>
<path d="M41.3847 37.5342C38.3355 34.5132 33.9648 32.6367 29.9779 32.6367C29.9774 32.6367 29.9766 32.6367 29.9761 32.6367H29.8072C29.8065 32.6367 29.8062 32.6367 29.8055 32.6367C25.8184 32.6367 21.4473 34.5134 18.3982 37.5342C17.4788 38.4452 17.4719 39.9292 18.3829 40.8487C18.8412 41.3113 19.4445 41.5429 20.0479 41.5429C20.644 41.5429 21.2404 41.3169 21.6973 40.8642C23.8679 38.7136 27.0504 37.3242 29.8057 37.3242C29.8061 37.3242 29.8065 37.3242 29.8069 37.3242H29.9764C29.9769 37.3242 29.977 37.3242 29.9775 37.3242C32.7325 37.3242 35.9151 38.7137 38.0856 40.8642C39.005 41.7751 40.4892 41.7685 41.4001 40.8487C42.3112 39.9293 42.3043 38.4452 41.3847 37.5342Z" fill="#878987"/>
</g>
<defs>
<clipPath id="clip0">
<rect width="60" height="60" fill="white"/>
</clipPath>
</defs>
</svg>
