<svg width="14" height="14" viewBox="0 0 14 14" fill="none" xmlns="http://www.w3.org/2000/svg">
<g clip-path="url(#clip0)">
<path d="M3.11172 6.45372L9.3419 0.223657C9.48599 0.0794465 9.67835 0 9.88345 0C10.0886 0 10.2809 0.0794465 10.425 0.223657L10.8838 0.682352C11.1824 0.981244 11.1824 1.46703 10.8838 1.76547L5.65219 6.9971L10.8896 12.2345C11.0337 12.3787 11.1133 12.571 11.1133 12.776C11.1133 12.9812 11.0337 13.1734 10.8896 13.3178L10.4308 13.7763C10.2866 13.9206 10.0944 14 9.88926 14C9.68415 14 9.4918 13.9206 9.3477 13.7763L3.11172 7.54059C2.96728 7.39592 2.88795 7.20277 2.88841 6.99744C2.88795 6.79131 2.96728 6.59827 3.11172 6.45372Z" fill="#4A3A2F"/>
</g>
<defs>
<clipPath id="clip0">
<rect width="14" height="14" fill="white" transform="matrix(-1 0 0 1 14 0)"/>
</clipPath>
</defs>
</svg>
