<svg width="15" height="16" viewBox="0 0 15 16" fill="none" xmlns="http://www.w3.org/2000/svg">
<g clip-path="url(#clip0)">
<path fill-rule="evenodd" clip-rule="evenodd" d="M13.2422 1.18945H12.5391V0H11.3672V1.18945H3.63281V0H2.46094V1.18945H1.75781C0.788555 1.18945 0 1.98984 0 2.97363V13.4408C0 14.4246 0.788555 15.225 1.75781 15.225H7.99587V14.0355H1.75781C1.43473 14.0355 1.17188 13.7688 1.17188 13.4408V5.59043H13.8281V8.20723H15V2.97363C15 1.98984 14.2114 1.18945 13.2422 1.18945ZM1.17188 4.40098H13.8281V2.97363C13.8281 2.6457 13.5653 2.37891 13.2422 2.37891H12.5391V3.56836H11.3672V2.37891H3.63281V3.56836H2.46094V2.37891H1.75781C1.43473 2.37891 1.17188 2.6457 1.17188 2.97363V4.40098Z" fill="#6D6969"/>
<path d="M3.39844 6.83936H2.22656V8.02881H3.39844V6.83936Z" fill="#6D6969"/>
<path d="M5.74219 6.83936H4.57031V8.02881H5.74219V6.83936Z" fill="#6D6969"/>
<path d="M8.08594 6.83936H6.91406V8.02881H8.08594V6.83936Z" fill="#6D6969"/>
<path d="M10.4297 6.83936H9.25781V8.02881H10.4297V6.83936Z" fill="#6D6969"/>
<path d="M12.7734 6.83936H11.6016V8.02881H12.7734V6.83936Z" fill="#6D6969"/>
<path d="M3.39844 9.21826H2.22656V10.4077H3.39844V9.21826Z" fill="#6D6969"/>
<path d="M5.74219 9.21826H4.57031V10.4077H5.74219V9.21826Z" fill="#6D6969"/>
<path d="M8.08594 9.21826H6.91406V10.4077H8.08594V9.21826Z" fill="#6D6969"/>
<path d="M3.39844 11.5972H2.22656V12.7866H3.39844V11.5972Z" fill="#6D6969"/>
<path d="M5.74219 11.5972H4.57031V12.7866H5.74219V11.5972Z" fill="#6D6969"/>
<path d="M8.08594 11.5972H6.91406V12.7866H8.08594V11.5972Z" fill="#6D6969"/>
<path fill-rule="evenodd" clip-rule="evenodd" d="M15.0003 8.93359H9.29785V9.94832H10.0505V10.0144C10.0505 10.9829 10.5887 11.6566 11.0492 12.0558C10.5887 12.4549 10.0505 13.1286 10.0505 14.0971V14.2102H9.29785V15.2249H15.0003V14.2102H14.3346V14.0971C14.3346 13.1286 13.7963 12.4549 13.3358 12.0558C13.7963 11.6565 14.3346 10.9829 14.3346 10.0144V9.94832H15.0003V8.93359ZM13.1767 14.2102V14.0971C13.1767 13.1917 12.4295 12.6764 12.1925 12.5357C11.9555 12.6763 11.2083 13.1916 11.2083 14.0971V14.2102H13.1767ZM11.2083 9.94832H13.1767V10.0144C13.1767 10.9198 12.4295 11.4351 12.1925 11.5758C11.9555 11.435 11.2083 10.9198 11.2083 10.0144V9.94832Z" fill="#6D6969"/>
</g>
<defs>
<clipPath id="clip0">
<rect width="15" height="15.225" fill="white"/>
</clipPath>
</defs>
</svg>
