<svg width="199" height="199" viewBox="0 0 199 199" fill="none" xmlns="http://www.w3.org/2000/svg">
<circle opacity="0.2" cx="99.5" cy="99.5" r="99.5" fill="#4DD252"/>
<circle opacity="0.1" cx="99.5001" cy="99.4999" r="79.7716" fill="#4DD252"/>
<circle opacity="0.4" cx="98.642" cy="99.5" r="55.7543" fill="#4DD252"/>
<path fill-rule="evenodd" clip-rule="evenodd" d="M115.231 85.8224C115.169 85.7604 115.068 85.7604 115.006 85.8224L93.8153 107.014L81.9932 95.1915C81.9312 95.1294 81.8306 95.1294 81.7686 95.1915L78.9606 97.9995C78.8986 98.0615 78.8986 98.1621 78.9606 98.2241L90.8665 110.13C90.9155 110.179 90.9884 110.189 91.0475 110.161L93.778 112.892C93.84 112.954 93.9406 112.954 94.0026 112.892L118.039 88.855C118.101 88.793 118.101 88.6924 118.039 88.6304L115.231 85.8224Z" fill="white"/>
</svg>
