<svg width="23" height="13" viewBox="0 0 23 13" fill="none" xmlns="http://www.w3.org/2000/svg">
<path d="M3.83367 5.65545C4.89222 5.65545 5.75034 4.73473 5.75034 3.59896C5.75034 2.4632 4.89222 1.54248 3.83367 1.54248C2.77512 1.54248 1.91699 2.4632 1.91699 3.59896C1.91699 4.73473 2.77512 5.65545 3.83367 5.65545Z" fill="#6D6969"/>
<path d="M6.39211 7.09489C5.42419 7.87635 4.79169 9.13081 4.79169 10.5395V10.7966H0.718753C0.325835 10.7966 0 10.447 0 10.0254V9.51126C0 7.94833 1.17876 6.68359 2.63543 6.68359H5.03127C5.52961 6.68359 5.9992 6.83783 6.39211 7.09489Z" fill="#6D6969"/>
<path d="M19.1667 5.65545C20.2252 5.65545 21.0834 4.73473 21.0834 3.59896C21.0834 2.4632 20.2252 1.54248 19.1667 1.54248C18.1081 1.54248 17.25 2.4632 17.25 3.59896C17.25 4.73473 18.1081 5.65545 19.1667 5.65545Z" fill="#6D6969"/>
<path d="M22.9995 9.51126V10.0254C22.9995 10.447 22.6737 10.7966 22.2808 10.7966H18.2078V10.5395C18.2078 9.13081 17.5753 7.87635 16.6074 7.09489C17.0003 6.83783 17.4699 6.68359 17.9683 6.68359H20.3641C21.8208 6.68359 22.9995 7.94833 22.9995 9.51126Z" fill="#6D6969"/>
<path d="M11.5 6.16945C13.0878 6.16945 14.375 4.78837 14.375 3.08472C14.375 1.38108 13.0878 0 11.5 0C9.91219 0 8.625 1.38108 8.625 3.08472C8.625 4.78837 9.91219 6.16945 11.5 6.16945Z" fill="#6D6969"/>
<path d="M14.1358 7.71167H8.86492C7.41112 7.71167 6.22949 8.97949 6.22949 10.5393V12.0817C6.22949 12.5074 6.55149 12.8529 6.94825 12.8529H16.0525C16.4492 12.8529 16.7712 12.5074 16.7712 12.0817V10.5393C16.7712 8.97949 15.5896 7.71167 14.1358 7.71167Z" fill="#6D6969"/>
</svg>
