<svg width="9" height="13" viewBox="0 0 9 13" fill="none" xmlns="http://www.w3.org/2000/svg">
<path d="M4.13643 0.180176C1.85559 0.180176 0 2.12976 0 4.5261C0 7.50004 3.7017 11.866 3.8593 12.0504C4.00734 12.2236 4.26579 12.2233 4.41356 12.0504C4.57116 11.866 8.27286 7.50004 8.27286 4.5261C8.27281 2.12976 6.41725 0.180176 4.13643 0.180176ZM4.13643 6.71266C2.98888 6.71266 2.05531 5.73178 2.05531 4.5261C2.05531 3.32043 2.9889 2.33957 4.13643 2.33957C5.28395 2.33957 6.21753 3.32045 6.21753 4.52613C6.21753 5.7318 5.28395 6.71266 4.13643 6.71266Z" fill="#6D6969"/>
</svg>
