<svg width="155" height="118" viewBox="0 0 155 118" fill="none" xmlns="http://www.w3.org/2000/svg">
<g clip-path="url(#clip0)">
<path d="M115.222 116C125.041 116 133 115.391 133 114.641C133 113.89 125.041 113.281 115.222 113.281C105.404 113.281 97.4443 113.89 97.4443 114.641C97.4443 115.391 105.404 116 115.222 116Z" fill="#E6E6E6"/>
<path d="M122.11 75.7277L120.391 80.5349C120.261 80.8993 120.26 81.2975 120.389 81.6623C120.518 82.0271 120.769 82.3359 121.099 82.5365C121.34 82.6825 121.613 82.7655 121.894 82.7778C122.174 82.7902 122.454 82.7315 122.706 82.6072C122.958 82.4829 123.175 82.2969 123.337 82.0665C123.498 81.836 123.599 81.5685 123.631 81.2885L124.176 76.418L128.309 62.7261L124.75 61.0002L122.11 75.7277Z" fill="#A0616A"/>
<path d="M120.676 112.028H123.201V87.406L117.462 87.291L120.676 112.028Z" fill="#A0616A"/>
<path d="M109.427 112.028H111.952V87.406L106.213 87.291L109.427 112.028Z" fill="#A0616A"/>
<path d="M123.603 89.9951L117.06 89.3047L115.683 82.0561L113.158 89.4198L105.353 88.6144L108.566 76.4182C114.441 72.4166 120.021 72.5041 125.325 76.4182L123.603 89.9951Z" fill="#2F2E41"/>
<path d="M112.51 113.077C112.549 113.39 112.516 113.707 112.413 114.004C112.311 114.302 112.141 114.572 111.918 114.793C111.695 115.015 111.424 115.182 111.126 115.282C110.828 115.382 110.511 115.411 110.2 115.369L105.548 114.737C105.132 114.672 104.759 114.444 104.51 114.103C104.261 113.763 104.158 113.337 104.222 112.92C104.279 112.544 104.47 112.2 104.758 111.953C105.046 111.705 105.413 111.568 105.793 111.568H106.56L109.084 109.264C109.108 110.834 110.262 110.485 112.168 110.332L112.51 113.077Z" fill="#2F2E41"/>
<path d="M123.759 113.077C123.798 113.39 123.765 113.707 123.662 114.004C123.56 114.302 123.39 114.572 123.167 114.793C122.944 115.015 122.673 115.182 122.375 115.282C122.077 115.382 121.76 115.411 121.449 115.369L116.797 114.737C116.381 114.672 116.008 114.444 115.759 114.103C115.51 113.763 115.407 113.337 115.471 112.92C115.528 112.544 115.719 112.2 116.007 111.953C116.295 111.705 116.662 111.568 117.042 111.568H117.809L120.333 109.264C120.357 110.834 121.511 110.485 123.417 110.332L123.759 113.077Z" fill="#2F2E41"/>
<path d="M114.793 48.1138C117.028 48.1138 118.839 46.298 118.839 44.058C118.839 41.818 117.028 40.0022 114.793 40.0022C112.559 40.0022 110.747 41.818 110.747 44.058C110.747 46.298 112.559 48.1138 114.793 48.1138Z" fill="#A0616A"/>
<path d="M119.93 50.8748L114.88 51.3352V46.8478L117.52 45.2371L119.93 50.8748Z" fill="#A0616A"/>
<path d="M125.898 78.1438C120.817 74.4144 114.716 74.7933 107.992 77.6836C111.039 69.0382 112.337 60.9809 109.943 54.1648C109.943 52.9605 110.343 51.7905 111.08 50.8392C111.817 49.888 112.849 49.2096 114.013 48.9112L114.879 48.689L119.126 48.9191L123.114 51.2625C123.927 51.7404 124.602 52.4223 125.073 53.2412C125.543 54.0601 125.793 54.9877 125.797 55.9327L125.898 78.1438Z" fill="#E6E6E6"/>
<path d="M106.271 74.8073L104.551 79.6145C104.421 79.9789 104.42 80.3771 104.549 80.7419C104.679 81.1066 104.929 81.4155 105.26 81.6161C105.5 81.7621 105.773 81.8451 106.054 81.8574C106.335 81.8698 106.614 81.8111 106.866 81.6868C107.118 81.5625 107.335 81.3765 107.497 81.1461C107.658 80.9156 107.76 80.6481 107.791 80.3681L108.337 75.4976L112.469 61.8057L108.911 60.0798L106.271 74.8073Z" fill="#A0616A"/>
<path d="M129.227 65.3726H123.603V51.5657C124.575 52.1074 125.42 52.8525 126.081 53.7504C126.741 54.6483 127.2 55.6781 127.429 56.7698L129.227 65.3726Z" fill="#E6E6E6"/>
<path d="M111.708 41.8621C111.461 41.9791 111.189 42.0327 110.916 42.0178C110.643 42.003 110.378 41.9204 110.144 41.7773C109.916 41.6262 109.744 41.4041 109.654 41.1453C109.564 40.8864 109.562 40.6051 109.647 40.3448C109.818 39.9051 110.249 39.6297 110.668 39.4146C111.592 38.9404 112.583 38.6088 113.605 38.4311C114.093 38.3465 114.609 38.3 115.07 38.4807C115.298 38.5701 115.503 38.7117 115.729 38.8054C116.146 38.9775 116.61 38.9782 117.05 39.0716C117.501 39.1703 117.926 39.365 118.295 39.6425C118.665 39.92 118.971 40.2737 119.192 40.6799C119.337 40.9562 119.448 41.249 119.523 41.552C119.736 42.381 119.733 43.2505 119.515 44.078C119.169 45.389 118.287 46.5935 118.366 47.9474C117.714 47.5668 117.409 46.792 116.865 46.2684C116.46 45.8816 115.936 45.6439 115.379 45.594C115.227 45.6001 115.076 45.5616 114.946 45.4833C114.851 45.3904 114.785 45.2715 114.757 45.1415L114.144 43.2158C114.019 42.8239 113.868 42.3981 113.515 42.1879C113.298 42.0775 113.058 42.019 112.814 42.017C112.23 41.9744 111.644 41.98 111.062 42.0335" fill="#2F2E41"/>
<path d="M113.043 62.841L106.5 60.3097L109.471 52.2847C109.817 51.3502 110.425 50.5355 111.221 49.9385C112.018 49.3416 112.969 48.9875 113.961 48.9189L113.043 62.841Z" fill="#E6E6E6"/>
<path d="M77.8446 85.9147H5.98932C5.64831 85.9143 5.32138 85.7783 5.08025 85.5366C4.83913 85.2949 4.7035 84.9672 4.70312 84.6254V6.06492C4.7035 5.72309 4.83913 5.39538 5.08025 5.15367C5.32138 4.91196 5.64831 4.77601 5.98932 4.77563H77.8446C78.1856 4.77601 78.5125 4.91196 78.7536 5.15367C78.9948 5.39538 79.1304 5.72309 79.1308 6.06492V84.6254C79.1304 84.9672 78.9948 85.2949 78.7536 85.5366C78.5125 85.7783 78.1856 85.9143 77.8446 85.9147ZM5.98932 5.29135C5.78471 5.29157 5.58855 5.37315 5.44388 5.51817C5.2992 5.66319 5.21783 5.85983 5.2176 6.06492V84.6254C5.21783 84.8305 5.2992 85.0271 5.44388 85.1721C5.58855 85.3171 5.78471 85.3987 5.98932 85.3989H77.8446C78.0492 85.3987 78.2453 85.3171 78.39 85.1721C78.5347 85.0271 78.6161 84.8305 78.6163 84.6254V6.06492C78.6161 5.85983 78.5347 5.66319 78.39 5.51817C78.2453 5.37315 78.0492 5.29157 77.8446 5.29135H5.98932Z" fill="#E6E6E6"/>
<path d="M20.8169 34.0587C21.7492 34.0587 22.5049 33.3011 22.5049 32.3666C22.5049 31.4321 21.7492 30.6746 20.8169 30.6746C19.8847 30.6746 19.1289 31.4321 19.1289 32.3666C19.1289 33.3011 19.8847 34.0587 20.8169 34.0587Z" fill="#E6E6E6"/>
<path d="M27.8501 34.0587C28.7824 34.0587 29.5381 33.3011 29.5381 32.3666C29.5381 31.4321 28.7824 30.6746 27.8501 30.6746C26.9179 30.6746 26.1621 31.4321 26.1621 32.3666C26.1621 33.3011 26.9179 34.0587 27.8501 34.0587Z" fill="#E6E6E6"/>
<path d="M34.8843 34.0587C35.8166 34.0587 36.5723 33.3011 36.5723 32.3666C36.5723 31.4321 35.8166 30.6746 34.8843 30.6746C33.952 30.6746 33.1963 31.4321 33.1963 32.3666C33.1963 33.3011 33.952 34.0587 34.8843 34.0587Z" fill="#191E29"/>
<path d="M41.9175 34.0587C42.8497 34.0587 43.6055 33.3011 43.6055 32.3666C43.6055 31.4321 42.8497 30.6746 41.9175 30.6746C40.9852 30.6746 40.2295 31.4321 40.2295 32.3666C40.2295 33.3011 40.9852 34.0587 41.9175 34.0587Z" fill="#191E29"/>
<path d="M48.9507 34.0587C49.883 34.0587 50.6387 33.3011 50.6387 32.3666C50.6387 31.4321 49.883 30.6746 48.9507 30.6746C48.0184 30.6746 47.2627 31.4321 47.2627 32.3666C47.2627 33.3011 48.0184 34.0587 48.9507 34.0587Z" fill="#191E29"/>
<path d="M55.9839 34.0587C56.9162 34.0587 57.6719 33.3011 57.6719 32.3666C57.6719 31.4321 56.9162 30.6746 55.9839 30.6746C55.0516 30.6746 54.2959 31.4321 54.2959 32.3666C54.2959 33.3011 55.0516 34.0587 55.9839 34.0587Z" fill="#E6E6E6"/>
<path d="M63.0171 34.0587C63.9494 34.0587 64.7051 33.3011 64.7051 32.3666C64.7051 31.4321 63.9494 30.6746 63.0171 30.6746C62.0848 30.6746 61.3291 31.4321 61.3291 32.3666C61.3291 33.3011 62.0848 34.0587 63.0171 34.0587Z" fill="#E6E6E6"/>
<path d="M20.8169 39.4171C21.7492 39.4171 22.5049 38.6595 22.5049 37.725C22.5049 36.7905 21.7492 36.033 20.8169 36.033C19.8847 36.033 19.1289 36.7905 19.1289 37.725C19.1289 38.6595 19.8847 39.4171 20.8169 39.4171Z" fill="#E6E6E6"/>
<path d="M27.8501 39.4171C28.7824 39.4171 29.5381 38.6595 29.5381 37.725C29.5381 36.7905 28.7824 36.033 27.8501 36.033C26.9179 36.033 26.1621 36.7905 26.1621 37.725C26.1621 38.6595 26.9179 39.4171 27.8501 39.4171Z" fill="#E6E6E6"/>
<path d="M34.8843 39.4171C35.8166 39.4171 36.5723 38.6595 36.5723 37.725C36.5723 36.7905 35.8166 36.033 34.8843 36.033C33.952 36.033 33.1963 36.7905 33.1963 37.725C33.1963 38.6595 33.952 39.4171 34.8843 39.4171Z" fill="#E6E6E6"/>
<path d="M41.9175 39.4171C42.8497 39.4171 43.6055 38.6595 43.6055 37.725C43.6055 36.7905 42.8497 36.033 41.9175 36.033C40.9852 36.033 40.2295 36.7905 40.2295 37.725C40.2295 38.6595 40.9852 39.4171 41.9175 39.4171Z" fill="#E6E6E6"/>
<path d="M48.9507 39.4171C49.883 39.4171 50.6387 38.6595 50.6387 37.725C50.6387 36.7905 49.883 36.033 48.9507 36.033C48.0184 36.033 47.2627 36.7905 47.2627 37.725C47.2627 38.6595 48.0184 39.4171 48.9507 39.4171Z" fill="#E6E6E6"/>
<path d="M55.9839 39.4171C56.9162 39.4171 57.6719 38.6595 57.6719 37.725C57.6719 36.7905 56.9162 36.033 55.9839 36.033C55.0516 36.033 54.2959 36.7905 54.2959 37.725C54.2959 38.6595 55.0516 39.4171 55.9839 39.4171Z" fill="#E6E6E6"/>
<path d="M63.0171 39.4171C63.9494 39.4171 64.7051 38.6595 64.7051 37.725C64.7051 36.7905 63.9494 36.033 63.0171 36.033C62.0848 36.033 61.3291 36.7905 61.3291 37.725C61.3291 38.6595 62.0848 39.4171 63.0171 39.4171Z" fill="#E6E6E6"/>
<path d="M20.8169 44.7752C21.7492 44.7752 22.5049 44.0177 22.5049 43.0832C22.5049 42.1487 21.7492 41.3911 20.8169 41.3911C19.8847 41.3911 19.1289 42.1487 19.1289 43.0832C19.1289 44.0177 19.8847 44.7752 20.8169 44.7752Z" fill="#191E29"/>
<path d="M27.8501 44.7752C28.7824 44.7752 29.5381 44.0177 29.5381 43.0832C29.5381 42.1487 28.7824 41.3911 27.8501 41.3911C26.9179 41.3911 26.1621 42.1487 26.1621 43.0832C26.1621 44.0177 26.9179 44.7752 27.8501 44.7752Z" fill="#191E29"/>
<path d="M34.8843 44.7752C35.8166 44.7752 36.5723 44.0177 36.5723 43.0832C36.5723 42.1487 35.8166 41.3911 34.8843 41.3911C33.952 41.3911 33.1963 42.1487 33.1963 43.0832C33.1963 44.0177 33.952 44.7752 34.8843 44.7752Z" fill="#191E29"/>
<path d="M41.9175 44.7752C42.8497 44.7752 43.6055 44.0177 43.6055 43.0832C43.6055 42.1487 42.8497 41.3911 41.9175 41.3911C40.9852 41.3911 40.2295 42.1487 40.2295 43.0832C40.2295 44.0177 40.9852 44.7752 41.9175 44.7752Z" fill="#E6E6E6"/>
<path d="M48.9507 44.7752C49.883 44.7752 50.6387 44.0177 50.6387 43.0832C50.6387 42.1487 49.883 41.3911 48.9507 41.3911C48.0184 41.3911 47.2627 42.1487 47.2627 43.0832C47.2627 44.0177 48.0184 44.7752 48.9507 44.7752Z" fill="#E6E6E6"/>
<path d="M55.9839 44.7752C56.9162 44.7752 57.6719 44.0177 57.6719 43.0832C57.6719 42.1487 56.9162 41.3911 55.9839 41.3911C55.0516 41.3911 54.2959 42.1487 54.2959 43.0832C54.2959 44.0177 55.0516 44.7752 55.9839 44.7752Z" fill="#E6E6E6"/>
<path d="M63.0171 44.7752C63.9494 44.7752 64.7051 44.0177 64.7051 43.0832C64.7051 42.1487 63.9494 41.3911 63.0171 41.3911C62.0848 41.3911 61.3291 42.1487 61.3291 43.0832C61.3291 44.0177 62.0848 44.7752 63.0171 44.7752Z" fill="#E6E6E6"/>
<path d="M20.8169 50.1334C21.7492 50.1334 22.5049 49.3758 22.5049 48.4413C22.5049 47.5068 21.7492 46.7493 20.8169 46.7493C19.8847 46.7493 19.1289 47.5068 19.1289 48.4413C19.1289 49.3758 19.8847 50.1334 20.8169 50.1334Z" fill="#E6E6E6"/>
<path d="M27.8501 50.1334C28.7824 50.1334 29.5381 49.3758 29.5381 48.4413C29.5381 47.5068 28.7824 46.7493 27.8501 46.7493C26.9179 46.7493 26.1621 47.5068 26.1621 48.4413C26.1621 49.3758 26.9179 50.1334 27.8501 50.1334Z" fill="#E6E6E6"/>
<path d="M20.8169 55.4918C21.7492 55.4918 22.5049 54.7342 22.5049 53.7997C22.5049 52.8652 21.7492 52.1077 20.8169 52.1077C19.8847 52.1077 19.1289 52.8652 19.1289 53.7997C19.1289 54.7342 19.8847 55.4918 20.8169 55.4918Z" fill="#E6E6E6"/>
<path d="M27.8501 55.4918C28.7824 55.4918 29.5381 54.7342 29.5381 53.7997C29.5381 52.8652 28.7824 52.1077 27.8501 52.1077C26.9179 52.1077 26.1621 52.8652 26.1621 53.7997C26.1621 54.7342 26.9179 55.4918 27.8501 55.4918Z" fill="#E6E6E6"/>
<path d="M34.8843 55.4918C35.8166 55.4918 36.5723 54.7342 36.5723 53.7997C36.5723 52.8652 35.8166 52.1077 34.8843 52.1077C33.952 52.1077 33.1963 52.8652 33.1963 53.7997C33.1963 54.7342 33.952 55.4918 34.8843 55.4918Z" fill="#E6E6E6"/>
<path d="M34.8843 50.1334C35.8166 50.1334 36.5723 49.3758 36.5723 48.4413C36.5723 47.5068 35.8166 46.7493 34.8843 46.7493C33.952 46.7493 33.1963 47.5068 33.1963 48.4413C33.1963 49.3758 33.952 50.1334 34.8843 50.1334Z" fill="#E6E6E6"/>
<path d="M41.9175 50.1334C42.8497 50.1334 43.6055 49.3758 43.6055 48.4413C43.6055 47.5068 42.8497 46.7493 41.9175 46.7493C40.9852 46.7493 40.2295 47.5068 40.2295 48.4413C40.2295 49.3758 40.9852 50.1334 41.9175 50.1334Z" fill="#191E29"/>
<path d="M48.9507 50.1334C49.883 50.1334 50.6387 49.3758 50.6387 48.4413C50.6387 47.5068 49.883 46.7493 48.9507 46.7493C48.0184 46.7493 47.2627 47.5068 47.2627 48.4413C47.2627 49.3758 48.0184 50.1334 48.9507 50.1334Z" fill="#191E29"/>
<path d="M55.9839 50.1334C56.9162 50.1334 57.6719 49.3758 57.6719 48.4413C57.6719 47.5068 56.9162 46.7493 55.9839 46.7493C55.0516 46.7493 54.2959 47.5068 54.2959 48.4413C54.2959 49.3758 55.0516 50.1334 55.9839 50.1334Z" fill="#191E29"/>
<path d="M63.0171 50.1334C63.9494 50.1334 64.7051 49.3758 64.7051 48.4413C64.7051 47.5068 63.9494 46.7493 63.0171 46.7493C62.0848 46.7493 61.3291 47.5068 61.3291 48.4413C61.3291 49.3758 62.0848 50.1334 63.0171 50.1334Z" fill="#E6E6E6"/>
<path d="M29.1388 17.4103C28.8713 17.4147 28.6162 17.5243 28.4285 17.7156C28.2409 17.9068 28.1357 18.1642 28.1357 18.4325C28.1357 18.7007 28.2409 18.9581 28.4285 19.1493C28.6162 19.3406 28.8713 19.4502 29.1388 19.4546H54.7059C54.8399 19.457 54.973 19.4328 55.0977 19.3835C55.2224 19.3343 55.3362 19.2609 55.4325 19.1675C55.5289 19.0741 55.6059 18.9626 55.6593 18.8394C55.7126 18.7161 55.7412 18.5836 55.7434 18.4493C55.7456 18.3149 55.7214 18.1815 55.6721 18.0566C55.6228 17.9316 55.5495 17.8176 55.4562 17.7212C55.363 17.6247 55.2517 17.5475 55.1286 17.4942C55.0056 17.4409 54.8734 17.4124 54.7393 17.4103C54.7282 17.4101 54.717 17.4101 54.7059 17.4103H29.1388Z" fill="#3F3D56"/>
<path d="M60.5044 17.1256C60.4857 17.1442 60.471 17.1664 60.4609 17.1908C60.4508 17.2152 60.4456 17.2414 60.4456 17.2678C60.4456 17.2942 60.4508 17.3204 60.4609 17.3448C60.471 17.3692 60.4857 17.3913 60.5044 17.41L61.3657 18.2735H59.2417C59.1885 18.2735 59.1374 18.2947 59.0998 18.3324C59.0622 18.3701 59.041 18.4213 59.041 18.4746C59.041 18.528 59.0622 18.5791 59.0998 18.6168C59.1374 18.6546 59.1885 18.6757 59.2417 18.6757H61.3657L60.5044 19.5392C60.4857 19.5579 60.471 19.5801 60.4609 19.6045C60.4508 19.6289 60.4456 19.655 60.4456 19.6814C60.4456 19.7078 60.4508 19.734 60.4609 19.7584C60.471 19.7828 60.4857 19.805 60.5044 19.8237C60.523 19.8423 60.5451 19.8571 60.5695 19.8673C60.5938 19.8774 60.6199 19.8826 60.6462 19.8826C60.6726 19.8826 60.6987 19.8774 60.723 19.8673C60.7474 19.8572 60.7695 19.8423 60.7881 19.8237L61.9921 18.6168C62.0297 18.5791 62.0508 18.528 62.0508 18.4746C62.0508 18.4213 62.0297 18.3701 61.9921 18.3324L60.7881 17.1256C60.7695 17.1069 60.7474 17.0921 60.723 17.082C60.6987 17.0719 60.6726 17.0667 60.6463 17.0667C60.6199 17.0667 60.5938 17.0719 60.5695 17.082C60.5451 17.0921 60.523 17.1069 60.5044 17.1256Z" fill="#E6E6E6"/>
<path d="M23.3306 17.1256C23.3493 17.1442 23.3641 17.1664 23.3741 17.1908C23.3842 17.2152 23.3894 17.2414 23.3894 17.2678C23.3894 17.2942 23.3842 17.3204 23.3741 17.3448C23.3641 17.3692 23.3493 17.3913 23.3306 17.41L22.4693 18.2735H24.5933C24.6466 18.2735 24.6976 18.2947 24.7352 18.3324C24.7729 18.3701 24.794 18.4213 24.794 18.4746C24.794 18.528 24.7729 18.5791 24.7352 18.6168C24.6976 18.6546 24.6466 18.6758 24.5933 18.6758H22.4693L23.3306 19.5392C23.3683 19.5769 23.3894 19.6281 23.3894 19.6814C23.3894 19.7348 23.3683 19.7859 23.3306 19.8237C23.293 19.8614 23.242 19.8826 23.1888 19.8826C23.1355 19.8826 23.0845 19.8614 23.0469 19.8237L21.843 18.6168C21.8053 18.5791 21.7842 18.528 21.7842 18.4746C21.7842 18.4213 21.8053 18.3701 21.843 18.3324L23.0469 17.1256C23.0655 17.1069 23.0876 17.0921 23.112 17.082C23.1363 17.0719 23.1624 17.0667 23.1888 17.0667C23.2151 17.0667 23.2412 17.0719 23.2655 17.082C23.2899 17.0921 23.312 17.1069 23.3306 17.1256Z" fill="#E6E6E6"/>
<path d="M27.7096 66.2915C27.2291 66.2912 26.7533 66.3858 26.3093 66.5699C25.8653 66.7539 25.4618 67.0239 25.1219 67.3644C24.782 67.7049 24.5124 68.1091 24.3284 68.5541C24.1445 68.9991 24.0498 69.476 24.0498 69.9576C24.0498 70.4393 24.1445 70.9162 24.3284 71.3612C24.5124 71.8061 24.782 72.2104 25.1219 72.5509C25.4618 72.8913 25.8653 73.1613 26.3093 73.3454C26.7533 73.5295 27.2291 73.6241 27.7096 73.6238H56.1244C56.6049 73.6241 57.0807 73.5295 57.5247 73.3454C57.9688 73.1613 58.3722 72.8913 58.7121 72.5509C59.052 72.2104 59.3216 71.8061 59.5056 71.3612C59.6895 70.9162 59.7842 70.4393 59.7842 69.9576C59.7842 69.476 59.6895 68.9991 59.5056 68.5541C59.3216 68.1091 59.052 67.7049 58.7121 67.3644C58.3722 67.0239 57.9688 66.7539 57.5247 66.5699C57.0807 66.3858 56.6049 66.2912 56.1244 66.2915H27.7096Z" fill="#E6E6E6"/>
<path d="M5.87747 11.7832C4.71501 11.7832 3.57867 11.4377 2.61212 10.7903C1.64558 10.1429 0.89225 9.22277 0.447398 8.14622C0.00254673 7.06967 -0.113847 5.88507 0.112936 4.74221C0.33972 3.59935 0.899494 2.54957 1.72147 1.72561C2.54345 0.901657 3.59071 0.340537 4.73083 0.113208C5.87095 -0.11412 7.05271 0.00255187 8.12668 0.448473C9.20064 0.894395 10.1186 1.64954 10.7644 2.61841C11.4102 3.58728 11.7549 4.72636 11.7549 5.8916C11.7532 7.45361 11.1334 8.95114 10.0315 10.0556C8.92966 11.1602 7.43573 11.7814 5.87747 11.7832Z" fill="#191E29"/>
<path d="M8.1965 5.31078H6.45719V3.56726C6.45719 3.41312 6.3961 3.2653 6.28737 3.15631C6.17864 3.04732 6.03117 2.98608 5.8774 2.98608C5.72364 2.98608 5.57617 3.04732 5.46744 3.15631C5.35871 3.2653 5.29762 3.41312 5.29762 3.56726V5.31078H3.55829C3.40452 5.31078 3.25706 5.37201 3.14833 5.481C3.0396 5.58999 2.97852 5.73781 2.97852 5.89194C2.97852 6.04608 3.0396 6.1939 3.14833 6.30289C3.25706 6.41188 3.40452 6.47311 3.55829 6.47311H5.29762V8.21663C5.29762 8.37076 5.35871 8.51859 5.46744 8.62758C5.57617 8.73657 5.72364 8.7978 5.8774 8.7978C6.03117 8.7978 6.17864 8.73657 6.28737 8.62758C6.3961 8.51859 6.45719 8.37076 6.45719 8.21663V6.47311H8.1965C8.35026 6.47311 8.49773 6.41188 8.60645 6.30289C8.71518 6.1939 8.77627 6.04608 8.77627 5.89194C8.77627 5.73781 8.71518 5.58999 8.60645 5.481C8.49773 5.37201 8.35026 5.31078 8.1965 5.31078Z" fill="white"/>
</g>
<g clip-path="url(#clip1)">
<path d="M141.995 111.579L152.679 95.6907L142.017 113.288L142.039 115.076C141.259 115.082 140.487 115.069 139.722 115.037L140.252 92.0557L140.238 91.8784L140.257 91.8442L140.308 89.6726L128.607 72.6849L140.294 88.0472L140.336 88.5062L140.736 71.1427L130.63 53.5304L140.765 68.0925L140.659 32.1197L140.659 32L140.662 32.1177L141.333 60.4691L150.544 48.9528L141.363 62.9115L141.564 78.4428L150.04 63.2849L141.596 80.7261L141.708 89.3623L154.033 68.2475L141.745 92.3751L141.995 111.579Z" fill="#D0CDE1"/>
<path d="M101.128 117.121C126.143 117.121 146.422 116.087 146.422 114.813C146.422 113.538 126.143 112.505 101.128 112.505C76.1128 112.505 55.834 113.538 55.834 114.813C55.834 116.087 76.1128 117.121 101.128 117.121Z" fill="#D0CDE1"/>
<path d="M127.593 116.426C128.35 116.426 128.964 115.812 128.964 115.055C128.964 114.298 128.35 113.684 127.593 113.684C126.836 113.684 126.222 114.298 126.222 115.055C126.222 115.812 126.836 116.426 127.593 116.426Z" fill="#3F3D56"/>
<path d="M127.78 86.5737L124.165 76.9764C124.165 76.9764 124.726 75.1691 123.231 75.2938C121.735 75.4184 117.746 76.7895 117.746 76.7895C117.746 76.7895 116.375 76.9141 118.245 78.846L121.486 89.0042L122.545 88.5057L119.055 78.4098C119.055 78.4098 118.868 77.7243 119.554 77.5373C120.239 77.3503 122.857 76.2286 123.106 76.9141C123.355 77.5996 126.596 87.4462 126.596 87.4462L127.78 86.5737Z" fill="#3F3D56"/>
<path d="M118.058 93.1797L125.038 114.057C125.603 114.431 126.215 114.728 126.86 114.938C127.442 115.138 128.042 115.281 128.652 115.366C128.88 115.384 129.108 115.365 129.33 115.312C132.919 114.595 145.23 108.012 145.23 108.012C145.23 108.012 138.935 88.381 137.876 86.0128C136.816 83.6446 134.448 84.5171 134.448 84.5171C134.448 84.5171 122.486 87.7472 120.769 88.3473C120.733 88.3598 120.702 88.371 120.675 88.381C119.919 88.6538 119.266 89.1544 118.807 89.8137L118.806 89.8144C117.061 90.8738 118.058 93.1797 118.058 93.1797Z" fill="#191E29"/>
<path opacity="0.2" d="M123.068 87.591L123.102 87.711C123.642 87.5597 124.102 88.7647 124.107 88.7768L131.772 110.027L131.889 109.985L130.917 107.29L141.357 102.679L142.179 105.041L142.297 105L135.44 85.3001L135.436 85.2941C135.411 85.2555 134.833 84.352 134.147 84.5339L134.179 84.6544C134.752 84.5019 135.278 85.2801 135.327 85.3549L136.778 89.5246L125.803 93.1121L124.224 88.7338C124.203 88.6789 123.719 87.4089 123.068 87.591ZM136.819 89.6422L137.888 92.7138L127.084 96.6624L125.846 93.2294L136.819 89.6422ZM128.36 100.199L127.126 96.7797L137.929 92.8315L138.991 95.881L128.36 100.199ZM139.032 95.9988L140.196 99.3419L129.582 103.589L128.402 100.316L139.032 95.9988ZM130.875 107.173L129.625 103.706L140.237 99.4597L141.316 102.561L130.875 107.173Z" fill="black"/>
<path opacity="0.2" d="M118.805 92.4319C119.428 93.429 126.408 114.306 126.408 114.306C126.538 114.531 126.689 114.742 126.859 114.938C127.441 115.138 128.042 115.281 128.652 115.366C128.879 115.384 129.108 115.365 129.329 115.312C128.901 115.158 127.943 114.657 127.468 113.185C126.845 111.253 119.989 90.8739 119.989 90.8739C119.989 90.8739 120.204 89.3371 120.768 88.3474C120.733 88.3599 120.702 88.3711 120.675 88.3811C119.919 88.6539 119.266 89.1544 118.806 89.8138L118.805 89.8144C118.805 89.8144 118.182 91.4348 118.805 92.4319Z" fill="black"/>
<path d="M120.052 97.0439L120.738 99.1628C120.738 99.1628 120.177 103.338 123.106 106.08L123.729 108.199L123.085 108.217L122.405 106.182C122.405 106.182 120.146 103.457 120.13 99.3781L119.554 97.0439H120.052Z" fill="#3F3D56"/>
<path d="M131.8 116.457C132.557 116.457 133.171 115.843 133.171 115.086C133.171 114.329 132.557 113.715 131.8 113.715C131.043 113.715 130.429 114.329 130.429 115.086C130.429 115.843 131.043 116.457 131.8 116.457Z" fill="#3F3D56"/>
<path d="M145.104 110.692C145.862 110.692 146.475 110.078 146.475 109.321C146.475 108.564 145.862 107.95 145.104 107.95C144.347 107.95 143.733 108.564 143.733 109.321C143.733 110.078 144.347 110.692 145.104 110.692Z" fill="#3F3D56"/>
<path d="M95.863 50.9819C95.863 50.9819 92.6895 51.5589 92.5453 52.8572C92.4628 53.7689 92.4628 54.6862 92.5453 55.5979L95.863 50.9819Z" fill="#575A89"/>
<path d="M114.038 81.2746C114.038 81.2746 104.806 84.5923 98.7477 81.7073C92.6892 78.8223 85.3326 75.2161 85.3326 75.2161C85.3326 75.2161 81.7264 75.5046 82.1591 73.3409C82.5918 71.1772 85.4768 58.6276 92.1122 54.4444C92.1122 54.4444 96.1512 49.2514 98.4592 49.5399C100.767 49.8284 109.711 71.1772 109.711 71.1772L114.038 81.2746Z" fill="#575A89"/>
<path opacity="0.2" d="M114.038 81.2746C114.038 81.2746 104.806 84.5923 98.7477 81.7073C92.6892 78.8223 85.3326 75.2161 85.3326 75.2161C85.3326 75.2161 81.7264 75.5046 82.1591 73.3409C82.5918 71.1772 85.4768 58.6276 92.1122 54.4444C92.1122 54.4444 96.1512 49.2514 98.4592 49.5399C100.767 49.8284 109.711 71.1772 109.711 71.1772L114.038 81.2746Z" fill="black"/>
<path d="M118.942 73.4846L119.519 74.9271C119.519 74.9271 123.27 77.2351 121.683 78.8218C120.096 80.4086 117.708 76.1532 117.708 76.1532L116.778 74.3501L118.942 73.4846Z" fill="#A0616A"/>
<path d="M87.3524 99.3057L86.7754 109.259L89.8046 110.557L90.9586 98.5845L87.3524 99.3057Z" fill="#A0616A"/>
<path d="M99.6133 99.3054L103.652 104.498L104.806 107.96L107.691 107.816L108.412 104.354L104.373 100.315L99.6133 99.3054Z" fill="#A0616A"/>
<path d="M99.2521 48.3136C101.403 48.3136 103.147 46.5699 103.147 44.4189C103.147 42.2679 101.403 40.5242 99.2521 40.5242C97.1011 40.5242 95.3574 42.2679 95.3574 44.4189C95.3574 46.5699 97.1011 48.3136 99.2521 48.3136Z" fill="#A0616A"/>
<path d="M98.459 47.3761L98.7475 50.9823L103.363 49.5398C103.363 49.5398 101.632 46.7991 102.065 46.0779L98.459 47.3761Z" fill="#A0616A"/>
<path d="M98.4594 49.5398C98.4594 49.5398 101.192 50.261 102.783 48.53L106.105 50.1168L101.777 66.2726L92.6895 63.8204L94.1319 60.6469C94.1319 60.6469 92.2567 58.4832 94.2762 56.4637C94.2762 56.4637 94.7089 52.4247 96.0072 51.5592C96.8808 50.9574 97.7012 50.2818 98.4594 49.5398Z" fill="#D0CDE1"/>
<path d="M102.714 48.4578C102.714 48.4578 97.8098 52.3525 103.147 63.8924C108.484 75.4322 112.956 85.2411 114.687 84.6641C116.418 84.0871 122.332 79.6154 120.313 78.0287C118.293 76.442 109.782 71.3933 108.628 64.7578C107.474 58.1224 110.215 51.3427 110.215 51.3427L102.714 48.4578Z" fill="#878987"/>
<path d="M108.124 52.8572L120.529 73.7732L117.067 75.2157L106.393 60.7908L108.124 52.8572Z" fill="#575A89"/>
<path d="M93.4107 63.3875H92.401L88.6505 71.4654C88.6505 71.4654 81.5824 92.8141 82.3036 97.1416C83.0249 101.469 109.856 100.887 108.413 100.748C107.04 100.616 99.897 67.7226 101.994 65.9118L93.4107 63.3875Z" fill="#2F2E41"/>
<path d="M87.7844 108.104C87.7844 108.104 87.4959 106.95 86.3419 106.95C85.1879 106.95 85.1879 108.537 85.1879 108.537L81.8702 111.566C81.8702 111.566 78.9853 115.173 82.7357 115.173C86.4862 115.173 86.4862 114.307 86.4862 114.307C86.4862 114.307 87.4959 113.297 88.3614 113.874C89.2269 114.451 91.2464 113.297 90.9579 112.72C90.6694 112.143 90.2384 108.411 89.949 109.051C89.6597 109.691 87.7844 108.104 87.7844 108.104Z" fill="#2F2E41"/>
<path d="M106.969 106.374C106.969 106.374 107.258 106.229 105.815 106.374C104.373 106.518 103.796 106.374 103.796 106.374L104.806 110.268C104.806 110.268 103.94 116.904 106.825 116.327C109.71 115.75 109.71 111.711 109.71 111.711C109.71 111.711 109.277 108.105 109.566 107.816C109.854 107.528 109.71 103.633 109.277 103.633C108.845 103.633 106.756 102.698 106.756 102.698C106.756 102.698 108.123 106.374 106.969 106.374Z" fill="#2F2E41"/>
<path d="M99.3709 44.6521C99.1286 44.2791 99.251 43.7719 99.0811 43.3609C98.8142 42.7154 97.9848 42.5642 97.2889 42.5053C96.8278 42.4461 96.361 42.4474 95.9002 42.509C95.6966 42.5429 95.5036 42.6236 95.3365 42.7447C95.1693 42.8659 95.0326 43.0242 94.9372 43.2073C94.8342 43.4138 94.8602 42.7667 94.9261 41.9362C94.9929 41.0885 95.3271 40.284 95.8804 39.6385C96.4338 38.993 97.1778 38.5398 98.0052 38.3443C98.0151 38.342 98.0248 38.3397 98.0345 38.3375C98.8818 38.142 99.7556 37.9981 100.619 38.0996C101.483 38.2011 102.344 38.5739 102.883 39.2563C103.129 39.5683 103.303 39.9361 103.578 40.223C104.062 40.7272 104.778 40.9107 105.436 41.1446C106.19 41.3879 106.884 41.7884 107.473 42.3197C108.042 42.8672 108.445 43.6175 108.457 44.4072C108.471 45.3284 107.885 46.279 106.941 46.4607C106.777 46.4893 106.622 46.5562 106.488 46.6561C105.587 47.3551 106.615 48.0869 106.608 48.8738C106.602 49.5305 105.871 49.9585 105.215 49.9891C104.602 50.0001 104.004 49.7975 103.523 49.416C103.043 49.0344 102.71 48.4977 102.583 47.8978C102.484 47.3589 102.56 46.8054 102.624 46.2613C102.698 45.6385 101.357 44.1719 102.243 45.2468C102.416 45.4512 102.532 45.697 102.581 45.9601C102.729 46.8189 101.947 47.1077 101.455 47.5836C101.184 47.8527 100.994 48.1923 100.907 48.5638C100.82 48.9354 100.838 49.3239 100.96 49.6855C100.554 49.3173 100.289 48.8189 100.211 48.2761C100.133 47.7334 100.246 47.1804 100.532 46.7125C100.691 46.4691 100.896 46.2573 101.046 46.0087C101.281 45.6207 101.346 44.7769 100.688 44.8001C100.219 44.8166 99.7316 45.2073 99.3709 44.6521Z" fill="#2F2E41"/>
<path d="M66.6016 113.043C66.6016 113.043 60.8105 102.354 46.8057 106.976L66.6016 113.043Z" fill="#D0CDE1"/>
<path d="M66.9513 112.782C66.9513 112.782 59.7895 103.679 70.1264 92.3225L66.9513 112.782Z" fill="#D0CDE1"/>
</g>
<defs>
<clipPath id="clip0">
<rect width="133" height="116" fill="white"/>
</clipPath>
<clipPath id="clip1">
<rect width="107.227" height="85.12" fill="white" transform="translate(46.8057 32)"/>
</clipPath>
</defs>
</svg>
