<svg width="176" height="115" viewBox="0 0 176 115" fill="none" xmlns="http://www.w3.org/2000/svg">
<g clip-path="url(#clip0)">
<path d="M139.266 5.79272H139.266C131.349 5.79272 124.932 13.3771 124.932 22.7329V34.6195H128.365L130.352 30.2154L129.855 34.6195H151.921L153.728 30.6158L153.276 34.6195H155.76V25.2864C155.76 14.5203 148.375 5.79272 139.266 5.79272Z" fill="#2F2E41"/>
<path d="M132.347 27.1567C132.347 27.1567 136.821 38.2736 130.855 40.497L136.821 61.4602L146.962 60.8249L149.646 53.8372L149.05 43.3556L148.155 36.3678C148.155 36.3678 141.891 37.956 142.488 26.2039L132.347 27.1567Z" fill="#FFB8B8"/>
<path d="M129.96 40.1792C129.96 40.1792 120.117 39.2264 121.012 46.8493C121.907 54.4723 122.802 56.0605 122.802 56.0605L123.697 67.495L118.328 70.9888H113.257C113.257 70.9888 97.7476 74.8003 105.502 78.9294C113.257 83.0586 115.942 75.7532 115.942 75.7532C115.942 75.7532 130.258 75.7532 131.153 73.2122C132.048 70.6712 129.96 40.1792 129.96 40.1792Z" fill="#FFB8B8"/>
<path d="M149.049 37.0033C149.049 37.0033 158.295 33.5094 158.892 41.1324C159.488 48.7554 159.488 49.3906 159.488 49.3906L161.278 60.1899C161.278 60.1899 164.857 69.7186 164.857 72.5772C164.857 75.4358 167.541 84.3293 167.541 84.3293C167.541 84.3293 171.12 96.7167 167.243 96.3991C163.366 96.0814 162.769 83.0588 162.769 83.0588L154.716 65.9071L152.33 55.4255L149.049 37.0033Z" fill="#FFB8B8"/>
<path d="M131.452 38.9092H129.065L128.767 52.2494C128.767 52.2494 124.89 57.9666 129.662 63.0486L130.855 71.3068L152.628 70.354L154.12 61.7781C154.12 61.7781 157.102 54.7904 152.927 48.4379L149.049 35.4153H146.961C146.961 35.4153 151.797 54.4023 141.593 54.7904C133.241 55.108 131.452 38.9092 131.452 38.9092Z" fill="#191E29"/>
<path d="M142.117 114.617C142.155 110.578 142.188 108.152 142.188 108.152C142.188 108.152 141.963 110.578 141.581 114.617H118.156C124.346 93.8478 130.023 76.7785 130.252 76.0931C130.254 76.0856 130.256 76.0782 130.259 76.0712L130.982 73.5071V73.5054L131.288 72.4183V72.4132L131.611 71.2738L132.048 69.7192L151.435 69.0845L151.977 70.3826L153.822 74.8001C153.982 74.8494 154.134 74.9258 154.272 75.0263C157.59 77.3406 161.732 94.2951 165.507 114.617L142.117 114.617Z" fill="#2F2E41"/>
<path d="M153.523 66.5427L129.96 67.4956C129.96 67.4956 128.885 76.0714 129.96 76.0714C130.259 76.0714 154.716 78.2948 154.418 74.4833C154.12 70.6718 153.523 66.5427 153.523 66.5427Z" fill="#2F2E41"/>
<path d="M136.956 30.7944C141.584 30.7944 145.336 26.7987 145.336 21.8698C145.336 16.941 141.584 12.9453 136.956 12.9453C132.327 12.9453 128.575 16.941 128.575 21.8698C128.575 26.7987 132.327 30.7944 136.956 30.7944Z" fill="#FFB8B8"/>
<path d="M143.34 10.459C141.901 8.48556 139.778 7.2356 137.409 7.2356H137.127C131.701 7.2356 127.303 12.4642 127.303 18.9139V18.914H129.121L129.414 16.534L129.845 18.914H140.628L141.531 16.9004L141.306 18.914H143.427C144.417 24.1491 142.994 29.3842 139.16 34.6193H142.774L144.58 30.5923L144.129 34.6193H151.017L152.372 25.3572C152.372 18.4207 148.588 12.5386 143.34 10.459Z" fill="#2F2E41"/>
<path d="M145.321 11.4345C148.286 11.4345 150.69 8.87479 150.69 5.71724C150.69 2.5597 148.286 0 145.321 0C142.356 0 139.952 2.5597 139.952 5.71724C139.952 8.87479 142.356 11.4345 145.321 11.4345Z" fill="#2F2E41"/>
<path d="M98.4114 59.1128C102.453 59.1128 105.73 55.6234 105.73 51.3191C105.73 47.0147 102.453 43.5254 98.4114 43.5254C94.3694 43.5254 91.0928 47.0147 91.0928 51.3191C91.0928 55.6234 94.3694 59.1128 98.4114 59.1128Z" fill="#191E29"/>
<path d="M45.9522 45.2249C45.9497 45.4482 45.896 45.6675 45.7957 45.8637C45.6954 46.0598 45.5516 46.2268 45.3767 46.3502L45.3286 46.3822H23.6484L23.7357 46.0993C23.7507 46.0491 25.3377 41.1444 32.3636 42.0914C33.0263 41.8502 39.4928 39.6017 43.3636 42.1277C45.081 43.2487 45.9522 44.2907 45.9522 45.2249Z" fill="#F2F2F2"/>
<path d="M80.5731 85.1266C82.7552 85.1765 84.4911 86.8605 84.4911 86.8605C84.4911 86.8605 82.689 88.4636 80.5069 88.4138C78.3247 88.3639 76.5889 86.6799 76.5889 86.6799C76.5889 86.6799 78.3909 85.0768 80.5731 85.1266Z" fill="#191E29"/>
<path d="M69.6025 77.1941C71.574 78.1915 73.8346 77.5152 73.8346 77.5152C73.8346 77.5152 72.8989 75.2217 70.9274 74.2243C68.956 73.2269 66.6953 73.9033 66.6953 73.9033C66.6953 73.9033 67.631 76.1967 69.6025 77.1941Z" fill="#191E29"/>
<path d="M69.8029 76.2033C71.9765 75.9917 73.879 77.4574 73.879 77.4574C73.879 77.4574 72.2575 79.266 70.0839 79.4775C67.9103 79.6891 66.0078 78.2234 66.0078 78.2234C66.0078 78.2234 67.6294 76.4148 69.8029 76.2033Z" fill="#3F3D56"/>
<path d="M77.7706 76.604C77.5623 78.9177 78.9301 80.9502 78.9301 80.9502C78.9301 80.9502 80.6357 79.2315 80.844 76.9178C81.0524 74.6041 79.6846 72.5715 79.6846 72.5715C79.6846 72.5715 77.979 74.2903 77.7706 76.604Z" fill="#3F3D56"/>
<path d="M88.0063 90.7934C86.8663 92.7754 87.2585 95.2408 87.2585 95.2408C87.2585 95.2408 89.4992 94.4928 90.6392 92.5107C91.7793 90.5287 91.3871 88.0632 91.3871 88.0632C91.3871 88.0632 89.1464 88.8113 88.0063 90.7934Z" fill="#3F3D56"/>
<path d="M84.6993 112.344L84.8654 112.224C84.2798 111.319 83.9601 110.249 83.9468 109.15C83.9514 107.543 84.6929 106.056 85.41 104.618C85.5431 104.351 85.6758 104.085 85.8034 103.819C86.3391 102.735 86.766 101.593 87.0771 100.414C88.1894 96.0121 87.0943 90.8188 84.1477 86.5217C81.8102 83.1129 78.3257 80.1321 73.4952 77.4089L73.4014 77.5976C78.2044 80.3053 81.6666 83.2656 83.9858 86.6477C86.8969 90.8929 87.9801 96.0185 86.8834 100.358C86.576 101.523 86.1542 102.651 85.6249 103.722C85.4977 103.987 85.3655 104.252 85.2329 104.518C84.5044 105.978 83.7511 107.489 83.7463 109.15C83.7595 110.291 84.0913 111.403 84.6993 112.344Z" fill="#3F3D56"/>
<path d="M63.9732 77.6893C65.0252 77.6893 65.8781 76.7811 65.8781 75.6608C65.8781 74.5405 65.0252 73.6323 63.9732 73.6323C62.9212 73.6323 62.0684 74.5405 62.0684 75.6608C62.0684 76.7811 62.9212 77.6893 63.9732 77.6893Z" fill="#3F3D56"/>
<path d="M111.949 114.741H7.08203L8.85157 112.369L34.8147 77.585L36.0097 75.9835L46.7371 61.6112L59.5155 44.4907L75.9605 66.5234L111.949 114.741Z" fill="#3F3D56"/>
<path d="M76.759 66.9238C76.0835 67.3506 75.3782 67.7218 74.6495 68.034C70.9349 69.6062 66.8037 69.6495 63.0606 68.1556C58.6345 66.3664 54.9559 62.4873 50.2696 61.7734C48.8358 61.5549 47.3872 61.6506 45.9375 61.743L59.4148 43.6863L76.759 66.9238Z" fill="#F2F2F2"/>
<path d="M81.7434 43.735C82.1004 44.9111 81.8635 46.1904 81.5725 47.387C81.2815 48.5835 80.9355 49.8075 81.0841 51.0333C81.4053 53.6823 83.8411 55.3812 86.1019 56.5376C88.3627 57.6939 90.9064 58.894 91.9027 61.3451C92.4538 62.7009 92.4278 64.2303 92.6422 65.6899C93.1079 68.7711 94.6467 71.5522 96.9521 73.479C95.0324 73.4305 93.3128 72.1875 91.9539 70.7428C90.595 69.2981 89.4677 67.6078 88.0055 66.2824C86.0348 64.4961 83.5733 63.4734 81.2598 62.2383C78.9463 61.0032 76.6411 59.4156 75.4436 56.9724C74.2194 54.4749 74.3548 51.4209 75.212 48.7555C75.8485 46.776 77.0192 43.7043 78.5264 42.2912C79.7129 41.1788 81.2946 42.2563 81.7434 43.735Z" fill="#F2F2F2"/>
<path d="M141.536 99.1472H72.46V114.735H141.536V99.1472Z" fill="#F2F2F2"/>
<path d="M70.2539 100.855L77.7731 84.0933H137.826L143.44 100.855H70.2539Z" fill="#3F3D56"/>
<path d="M116.873 85.1611H89.002V94.9833H116.873V85.1611Z" fill="#F2F2F2"/>
<path d="M90.8067 77.1538L86.3955 86.9761H119.48L116.873 77.1538H90.8067Z" fill="#3F3D56"/>
<path d="M113.464 102.243H91.458V114.734H113.464V102.243Z" fill="#CCCCCC"/>
<path d="M86.8959 102.67H75.166V114.735H86.8959V102.67Z" fill="#CCCCCC"/>
<path d="M123.339 103.417H117.273V114.734H123.339V103.417Z" fill="#3F3D56"/>
<path d="M132.864 104.058H129.906V106.994H132.864V104.058Z" fill="#191E29"/>
<path d="M136.824 104.058H133.866V106.994H136.824V104.058Z" fill="#191E29"/>
<path d="M132.864 108.062H129.906V111.104H132.864V108.062Z" fill="#191E29"/>
<path d="M136.824 108.062H133.866V111.104H136.824V108.062Z" fill="#191E29"/>
<path d="M93.8732 87.8484H91.5586V90.1461H93.8732V87.8484Z" fill="#3F3D56"/>
<path d="M96.9718 87.8484H94.6572V90.1461H96.9718V87.8484Z" fill="#3F3D56"/>
<path d="M93.8732 90.9824H91.5586V93.3637H93.8732V90.9824Z" fill="#3F3D56"/>
<path d="M96.9718 90.9824H94.6572V93.3637H96.9718V90.9824Z" fill="#3F3D56"/>
<path d="M111.217 87.8484H108.902V90.1461H111.217V87.8484Z" fill="#3F3D56"/>
<path d="M114.316 87.8484H112.002V90.1461H114.316V87.8484Z" fill="#3F3D56"/>
<path d="M111.217 90.9824H108.902V93.3637H111.217V90.9824Z" fill="#3F3D56"/>
<path d="M114.316 90.9824H112.002V93.3637H114.316V90.9824Z" fill="#3F3D56"/>
<path d="M102.595 87.8484H100.28V90.1461H102.595V87.8484Z" fill="#3F3D56"/>
<path d="M105.694 87.8484H103.38V90.1461H105.694V87.8484Z" fill="#3F3D56"/>
<path d="M102.595 90.9824H100.28V93.3637H102.595V90.9824Z" fill="#3F3D56"/>
<path d="M105.694 90.9824H103.38V93.3637H105.694V90.9824Z" fill="#3F3D56"/>
<path d="M120.084 104.564H118.627V106.011H120.084V104.564Z" fill="#F2F2F2"/>
<path d="M122.035 104.564H120.578V106.011H122.035V104.564Z" fill="#F2F2F2"/>
<path d="M120.084 106.537H118.627V108.036H120.084V106.537Z" fill="#F2F2F2"/>
<path d="M122.035 106.537H120.578V108.036H122.035V106.537Z" fill="#F2F2F2"/>
<path d="M122.537 110.304C122.758 110.304 122.938 110.113 122.938 109.877C122.938 109.641 122.758 109.45 122.537 109.45C122.315 109.45 122.136 109.641 122.136 109.877C122.136 110.113 122.315 110.304 122.537 110.304Z" fill="#F2F2F2"/>
<path d="M98.3612 74.5933H95.0527V75.4399H95.7145V77.9028H97.6996V75.4399H98.3612V74.5933Z" fill="#F2F2F2"/>
<path d="M91.5851 111.103C91.0152 113.347 89.0629 114.736 89.0629 114.736C89.0629 114.736 88.0348 112.488 88.6047 110.245C89.1747 108.001 91.1269 106.611 91.1269 106.611C91.1269 106.611 92.1551 108.859 91.5851 111.103Z" fill="#191E29"/>
<path d="M86.3997 111.103C86.9696 113.347 88.9218 114.736 88.9218 114.736C88.9218 114.736 89.95 112.488 89.38 110.245C88.8101 108.001 86.8579 106.611 86.8579 106.611C86.8579 106.611 85.8297 108.859 86.3997 111.103Z" fill="#191E29"/>
<path d="M87.2368 110.621C88.8007 112.243 88.9918 114.735 88.9918 114.735C88.9918 114.735 86.6471 114.599 85.0831 112.977C83.5192 111.356 83.3281 108.864 83.3281 108.864C83.3281 108.864 85.6728 109 87.2368 110.621Z" fill="#3F3D56"/>
<path d="M90.7472 110.621C89.1832 112.243 88.9922 114.735 88.9922 114.735C88.9922 114.735 91.3369 114.599 92.9008 112.977C94.4648 111.356 94.6558 108.864 94.6558 108.864C94.6558 108.864 92.3112 109 90.7472 110.621Z" fill="#3F3D56"/>
<path d="M175.825 114.63H0V114.843H175.825V114.63Z" fill="#3F3D56"/>
<path d="M113.649 53.8988C113.647 54.1221 113.593 54.3414 113.493 54.5375C113.393 54.7337 113.249 54.9007 113.074 55.0241L113.026 55.0561H91.3457L91.4329 54.7732C91.448 54.723 93.035 49.8183 100.061 50.7653C100.724 50.524 107.19 48.2756 111.061 50.8016C112.778 51.9226 113.649 52.9646 113.649 53.8988Z" fill="#F2F2F2"/>
<path d="M46.9131 81.0316C46.9107 81.2549 46.8569 81.4742 46.7566 81.6703C46.6563 81.8665 46.5125 82.0335 46.3377 82.1569L46.2896 82.1889H24.6094L24.6966 81.906C24.7116 81.8558 26.2987 76.9511 33.3246 77.8981C33.9872 77.6568 40.4537 75.4084 44.3246 77.9344C46.0419 79.0554 46.9131 80.0974 46.9131 81.0316Z" fill="#F2F2F2"/>
</g>
<defs>
<clipPath id="clip0">
<rect width="175.825" height="114.843" fill="white"/>
</clipPath>
</defs>
</svg>
