<svg width="168" height="160" viewBox="0 0 168 160" fill="none" xmlns="http://www.w3.org/2000/svg">
<g clip-path="url(#clip0)">
<path d="M101.659 8.97684L14.1553 27.7639L40.0963 148.742L127.6 129.955L101.659 8.97684Z" fill="#E0E0E0"/>
<g opacity="0.5">
<path opacity="0.5" d="M100.619 11.3396L16.0728 29.4917L41.1369 146.381L125.683 128.229L100.619 11.3396Z" fill="url(#paint0_linear)"/>
</g>
<path d="M99.7259 12.4313L17.3325 30.1213L41.8429 144.428L124.236 126.738L99.7259 12.4313Z" fill="#FAFAFA"/>
<path d="M78.0118 11.9098L37.1375 20.6855L39.2619 30.5931L80.1363 21.8173L78.0118 11.9098Z" fill="url(#paint1_linear)"/>
<path d="M55.4981 6.62072C52.3423 7.29899 50.3457 10.469 51.0399 13.7005C51.7341 16.9321 54.853 19.0058 58.0026 18.3275C61.1522 17.6493 63.1549 14.4792 62.4607 11.2477C61.7665 8.01619 58.6538 5.94245 55.4981 6.62072ZM57.4783 15.8624C56.8114 16.0216 56.1122 15.9784 55.4698 15.7385C54.8275 15.4985 54.2711 15.0726 53.8715 14.515C53.472 13.9575 53.2474 13.2935 53.2263 12.6077C53.2053 11.9219 53.3888 11.2454 53.7535 10.6644C54.1181 10.0834 54.6474 9.62414 55.2738 9.34524C55.9003 9.06634 56.5955 8.98039 57.271 9.09835C57.9464 9.21631 58.5715 9.53284 59.0665 10.0076C59.5615 10.4823 59.904 11.0938 60.0504 11.7641C60.1516 12.2022 60.1652 12.6561 60.0906 13.0995C60.0159 13.543 59.8545 13.9673 59.6155 14.3481C59.3765 14.7289 59.0646 15.0587 58.6979 15.3186C58.3311 15.5785 57.9167 15.7633 57.4783 15.8624Z" fill="url(#paint2_linear)"/>
<path d="M77.4899 11.5773L37.4766 20.1682L39.5074 29.639L79.5207 21.0481L77.4899 11.5773Z" fill="#6C63FF"/>
<path d="M55.4993 6.62085C54.3933 6.85839 53.3825 7.41877 52.5948 8.23113C51.807 9.0435 51.2777 10.0714 51.0737 11.1847C50.8698 12.2981 51.0003 13.447 51.4489 14.4861C51.8974 15.5253 52.6438 16.408 53.5937 17.0227C54.5436 17.6373 55.6543 17.9563 56.7854 17.9393C57.9165 17.9224 59.0171 17.5701 59.9482 16.9272C60.8792 16.2843 61.5988 15.3796 62.016 14.3275C62.4332 13.2753 62.5293 12.123 62.292 11.0163C62.1345 10.2814 61.8338 9.58468 61.4071 8.96603C60.9805 8.34739 60.4362 7.8189 59.8055 7.41074C59.1747 7.00258 58.4698 6.72274 57.7309 6.58721C56.9921 6.45168 56.2338 6.46311 55.4993 6.62085ZM57.3915 15.4527C56.7531 15.5898 56.0884 15.5343 55.4815 15.2934C54.8746 15.0524 54.3528 14.6368 53.9819 14.0991C53.6111 13.5613 53.408 12.9256 53.3982 12.2723C53.3884 11.6191 53.5725 10.9776 53.9271 10.429C54.2817 9.88038 54.791 9.44934 55.3904 9.19035C55.9898 8.93137 56.6526 8.85607 57.2948 8.974C57.937 9.09192 58.5298 9.39776 58.9983 9.85283C59.4668 10.3079 59.7899 10.8918 59.9267 11.5306C60.1102 12.3871 59.9462 13.2815 59.4708 14.017C58.9954 14.7525 58.2474 15.2689 57.3915 15.4527Z" fill="#6C63FF"/>
<path d="M142.307 23.9565H52.8118V147.689H142.307V23.9565Z" fill="#E0E0E0"/>
<g opacity="0.5">
<path opacity="0.5" d="M140.795 26.0488H54.325V145.599H140.795V26.0488Z" fill="url(#paint3_linear)"/>
</g>
<path d="M139.693 26.9302H55.4248V143.839H139.693V26.9302Z" fill="white"/>
<path d="M118.572 21.8604H76.7676V31.9934H118.572V21.8604Z" fill="url(#paint4_linear)"/>
<path d="M97.6697 11.9692C94.4423 11.9692 91.8252 14.6495 91.8252 17.9569C91.8252 21.2642 94.4423 23.9445 97.6697 23.9445C100.897 23.9445 103.514 21.2642 103.514 17.9569C103.514 14.6495 100.897 11.9692 97.6697 11.9692ZM97.6697 21.4117C96.9836 21.428 96.3082 21.2393 95.7297 20.8698C95.1513 20.5002 94.696 19.9665 94.4221 19.3368C94.1482 18.7071 94.068 18.01 94.1918 17.3345C94.3157 16.659 94.6379 16.0358 95.1173 15.5444C95.5967 15.053 96.2117 14.7157 96.8836 14.5756C97.5554 14.4355 98.2538 14.499 98.8895 14.7579C99.5252 15.0168 100.069 15.4594 100.452 16.0292C100.836 16.599 101.04 17.2701 101.041 17.9569C101.047 18.8595 100.696 19.728 100.064 20.3723C99.4328 21.0167 98.5717 21.3845 97.6697 21.3954V21.4117Z" fill="url(#paint5_linear)"/>
<path d="M118.131 21.4258H77.2073V31.1121H118.131V21.4258Z" fill="#6C63FF"/>
<path d="M97.6693 11.9692C96.5381 11.9692 95.4323 12.3049 94.4917 12.9338C93.5511 13.5627 92.818 14.4565 92.3851 15.5023C91.9522 16.5481 91.8389 17.6989 92.0596 18.8091C92.2803 19.9193 92.8251 20.9391 93.625 21.7395C94.4249 22.5399 95.444 23.085 96.5535 23.3058C97.663 23.5267 98.813 23.4133 99.8581 22.9802C100.903 22.547 101.797 21.8134 102.425 20.8722C103.054 19.931 103.389 18.8245 103.389 17.6925C103.389 16.1746 102.786 14.7189 101.714 13.6455C100.641 12.5722 99.1863 11.9692 97.6693 11.9692ZM97.6693 20.9958C97.017 20.995 96.3794 20.8007 95.8373 20.4376C95.2951 20.0745 94.8727 19.5589 94.6232 18.9557C94.3737 18.3525 94.3085 17.6889 94.4357 17.0486C94.5628 16.4083 94.8767 15.8201 95.3377 15.3582C95.7988 14.8964 96.3862 14.5815 97.0259 14.4535C97.6656 14.3254 98.3289 14.3899 98.932 14.6388C99.5351 14.8877 100.051 15.3098 100.415 15.8518C100.778 16.3939 100.973 17.0315 100.975 17.6843C100.974 18.1183 100.889 18.5479 100.722 18.9487C100.556 19.3495 100.312 19.7136 100.006 20.0202C99.6986 20.3268 99.3343 20.5698 98.9334 20.7354C98.5326 20.9011 98.103 20.9861 97.6693 20.9855V20.9958Z" fill="#6C63FF"/>
<g opacity="0.5">
<path opacity="0.5" d="M3.8967 151.033H3.12671V155.404H3.8967V151.033Z" fill="#47E6B1"/>
<path opacity="0.5" d="M5.69653 153.605V152.834H1.32849V153.605H5.69653Z" fill="#47E6B1"/>
</g>
<g opacity="0.5">
<path opacity="0.5" d="M93.2285 0H92.4585V4.37085H93.2285V0Z" fill="#47E6B1"/>
<path opacity="0.5" d="M95.0286 2.56979V1.79932L90.6605 1.79932V2.56979H95.0286Z" fill="#47E6B1"/>
</g>
<path opacity="0.5" d="M157.905 158.309C157.692 158.217 157.521 158.05 157.424 157.839C157.327 157.629 157.311 157.39 157.378 157.168C157.389 157.134 157.396 157.099 157.399 157.064C157.405 156.962 157.378 156.861 157.323 156.776C157.267 156.691 157.186 156.626 157.09 156.591C156.995 156.556 156.891 156.552 156.793 156.581C156.696 156.61 156.61 156.669 156.549 156.75C156.528 156.779 156.51 156.81 156.496 156.842C156.403 157.055 156.236 157.226 156.026 157.323C155.815 157.42 155.577 157.436 155.355 157.369C155.321 157.358 155.286 157.351 155.251 157.348C155.149 157.342 155.049 157.369 154.964 157.425C154.879 157.48 154.814 157.562 154.778 157.657C154.743 157.753 154.74 157.857 154.768 157.954C154.797 158.052 154.856 158.138 154.937 158.199C154.966 158.22 154.997 158.238 155.03 158.252C155.242 158.345 155.413 158.512 155.51 158.722C155.607 158.933 155.623 159.172 155.556 159.393C155.545 159.427 155.538 159.462 155.535 159.498C155.529 159.599 155.556 159.7 155.612 159.785C155.667 159.87 155.749 159.935 155.844 159.971C155.939 160.006 156.043 160.009 156.141 159.981C156.238 159.952 156.324 159.893 156.385 159.811C156.407 159.783 156.424 159.752 156.439 159.719C156.531 159.507 156.698 159.336 156.909 159.239C157.119 159.141 157.358 159.125 157.579 159.193C157.613 159.204 157.648 159.21 157.684 159.213C157.785 159.219 157.886 159.193 157.971 159.137C158.056 159.081 158.121 159 158.156 158.904C158.191 158.809 158.195 158.705 158.166 158.607C158.137 158.51 158.078 158.424 157.997 158.363C157.968 158.341 157.937 158.324 157.905 158.309Z" fill="#4D8AF0"/>
<path opacity="0.5" d="M27.988 116.289C27.7756 116.197 27.6047 116.03 27.5076 115.819C27.4106 115.609 27.3942 115.37 27.4617 115.148C27.4726 115.114 27.4795 115.079 27.4822 115.044C27.4883 114.942 27.4616 114.841 27.406 114.756C27.3505 114.671 27.269 114.606 27.1736 114.571C27.0783 114.536 26.9742 114.532 26.8767 114.561C26.7792 114.59 26.6935 114.649 26.6324 114.73C26.6111 114.759 26.5932 114.79 26.5791 114.822C26.4867 115.035 26.3193 115.206 26.109 115.303C25.8987 115.4 25.66 115.416 25.4385 115.349C25.4046 115.338 25.3695 115.331 25.334 115.328C25.2326 115.322 25.1319 115.349 25.0468 115.405C24.9618 115.46 24.8969 115.542 24.8617 115.637C24.8266 115.733 24.8231 115.837 24.8517 115.934C24.8803 116.032 24.9396 116.118 25.0207 116.179C25.0492 116.2 25.0802 116.218 25.1129 116.232C25.3252 116.325 25.4962 116.492 25.5933 116.702C25.6903 116.913 25.7066 117.152 25.6391 117.373C25.6283 117.407 25.6214 117.442 25.6187 117.478C25.6126 117.579 25.6393 117.68 25.6948 117.765C25.7504 117.85 25.8319 117.915 25.9272 117.951C26.0226 117.986 26.1267 117.989 26.2242 117.961C26.3217 117.932 26.4073 117.873 26.4685 117.791C26.4898 117.763 26.5077 117.732 26.5218 117.699C26.6142 117.487 26.7815 117.316 26.9918 117.219C27.2022 117.121 27.4408 117.105 27.6624 117.173C27.6963 117.184 27.7314 117.19 27.7669 117.193C27.8683 117.199 27.969 117.173 28.054 117.117C28.1391 117.061 28.204 116.98 28.2392 116.884C28.2743 116.789 28.2778 116.685 28.2492 116.587C28.2205 116.49 28.1613 116.404 28.0802 116.343C28.0516 116.321 28.0207 116.304 27.988 116.289Z" fill="#FDD835"/>
<path opacity="0.5" d="M136.198 13.9713C135.986 13.8788 135.815 13.7114 135.718 13.501C135.621 13.2905 135.604 13.0517 135.672 12.83C135.683 12.796 135.69 12.761 135.692 12.7255C135.699 12.624 135.672 12.5232 135.616 12.4381C135.561 12.353 135.479 12.288 135.384 12.2529C135.289 12.2177 135.184 12.2142 135.087 12.2428C134.989 12.2715 134.904 12.3308 134.843 12.4119C134.821 12.4405 134.803 12.4714 134.789 12.5041C134.697 12.7167 134.53 12.8878 134.319 12.9849C134.109 13.082 133.87 13.0983 133.649 13.0308C133.615 13.0199 133.58 13.013 133.544 13.0103C133.443 13.0042 133.342 13.0309 133.257 13.0865C133.172 13.1421 133.107 13.2236 133.072 13.319C133.037 13.4144 133.033 13.5186 133.062 13.6162C133.091 13.7137 133.15 13.7995 133.231 13.8607C133.259 13.882 133.29 13.8999 133.323 13.914C133.535 14.0065 133.706 14.1739 133.803 14.3843C133.901 14.5948 133.917 14.8336 133.849 15.0553C133.838 15.0893 133.832 15.1243 133.829 15.1599C133.823 15.2613 133.849 15.3621 133.905 15.4472C133.961 15.5323 134.042 15.5973 134.137 15.6324C134.233 15.6676 134.337 15.6711 134.434 15.6425C134.532 15.6138 134.618 15.5545 134.679 15.4734C134.7 15.4448 134.718 15.4139 134.732 15.3812C134.824 15.1686 134.992 14.9976 135.202 14.9004C135.412 14.8033 135.651 14.787 135.873 14.8545C135.906 14.8654 135.942 14.8723 135.977 14.875C136.078 14.8811 136.179 14.8544 136.264 14.7988C136.349 14.7432 136.414 14.6617 136.449 14.5663C136.484 14.4709 136.488 14.3667 136.459 14.2691C136.431 14.1716 136.371 14.0858 136.29 14.0246C136.262 14.0033 136.231 13.9854 136.198 13.9713Z" fill="#FDD835"/>
<path opacity="0.5" d="M166.416 65.9828C167.268 65.9828 167.958 65.2919 167.958 64.4397C167.958 63.5876 167.268 62.8967 166.416 62.8967C165.564 62.8967 164.874 63.5876 164.874 64.4397C164.874 65.2919 165.564 65.9828 166.416 65.9828Z" fill="#F55F44"/>
<path opacity="0.5" d="M47.2505 154.543C48.1022 154.543 48.7925 153.852 48.7925 153C48.7925 152.148 48.1022 151.457 47.2505 151.457C46.3989 151.457 45.7085 152.148 45.7085 153C45.7085 153.852 46.3989 154.543 47.2505 154.543Z" fill="#F55F44"/>
<path opacity="0.5" d="M150.579 99.3348C151.431 99.3348 152.121 98.644 152.121 97.7918C152.121 96.9396 151.431 96.2488 150.579 96.2488C149.727 96.2488 149.037 96.9396 149.037 97.7918C149.037 98.644 149.727 99.3348 150.579 99.3348Z" fill="#F55F44"/>
<path opacity="0.5" d="M17.845 21.2867C18.6966 21.2867 19.387 20.5959 19.387 19.7437C19.387 18.8915 18.6966 18.2007 17.845 18.2007C16.9934 18.2007 16.303 18.8915 16.303 19.7437C16.303 20.5959 16.9934 21.2867 17.845 21.2867Z" fill="#4D8AF0"/>
<path opacity="0.5" d="M1.54202 63.3783C2.39366 63.3783 3.08405 62.6874 3.08405 61.8352C3.08405 60.9831 2.39366 60.2922 1.54202 60.2922C0.690388 60.2922 0 60.9831 0 61.8352C0 62.6874 0.690388 63.3783 1.54202 63.3783Z" fill="#47E6B1"/>
</g>
<defs>
<linearGradient id="paint0_linear" x1="83.4089" y1="137.305" x2="58.314" y2="20.4224" gradientUnits="userSpaceOnUse">
<stop stop-color="#808080" stop-opacity="0.25"/>
<stop offset="0.54" stop-color="#808080" stop-opacity="0.12"/>
<stop offset="1" stop-color="#808080" stop-opacity="0.1"/>
</linearGradient>
<linearGradient id="paint1_linear" x1="22486.6" y1="-2930.07" x2="22381.4" y2="-3419.97" gradientUnits="userSpaceOnUse">
<stop stop-color="#808080" stop-opacity="0.25"/>
<stop offset="0.54" stop-color="#808080" stop-opacity="0.12"/>
<stop offset="1" stop-color="#808080" stop-opacity="0.1"/>
</linearGradient>
<linearGradient id="paint2_linear" x1="6566.15" y1="334.21" x2="6419.41" y2="-349.245" gradientUnits="userSpaceOnUse">
<stop stop-color="#808080" stop-opacity="0.25"/>
<stop offset="0.54" stop-color="#808080" stop-opacity="0.12"/>
<stop offset="1" stop-color="#808080" stop-opacity="0.1"/>
</linearGradient>
<linearGradient id="paint3_linear" x1="41248.7" y1="84969.7" x2="41248.7" y2="15223.2" gradientUnits="userSpaceOnUse">
<stop stop-color="#808080" stop-opacity="0.25"/>
<stop offset="0.54" stop-color="#808080" stop-opacity="0.12"/>
<stop offset="1" stop-color="#808080" stop-opacity="0.1"/>
</linearGradient>
<linearGradient id="paint4_linear" x1="20015.1" y1="1603.94" x2="20015.1" y2="1102.86" gradientUnits="userSpaceOnUse">
<stop stop-color="#808080" stop-opacity="0.25"/>
<stop offset="0.54" stop-color="#808080" stop-opacity="0.12"/>
<stop offset="1" stop-color="#808080" stop-opacity="0.1"/>
</linearGradient>
<linearGradient id="paint5_linear" x1="7886.83" y1="2124.29" x2="7886.83" y2="1424.45" gradientUnits="userSpaceOnUse">
<stop stop-color="#808080" stop-opacity="0.25"/>
<stop offset="0.54" stop-color="#808080" stop-opacity="0.12"/>
<stop offset="1" stop-color="#808080" stop-opacity="0.1"/>
</linearGradient>
<clipPath id="clip0">
<rect width="167.956" height="160" fill="white"/>
</clipPath>
</defs>
</svg>
