<svg width="60" height="60" viewBox="0 0 60 60" fill="none" xmlns="http://www.w3.org/2000/svg">
<path d="M47.7405 22.8908C43.8255 22.8908 40.6404 26.076 40.6404 29.9906C40.6404 33.9071 43.8255 37.0924 47.7405 37.0924C51.5524 37.0924 54.7375 33.9935 54.8385 30.1863C54.84 30.1221 54.8417 30.058 54.8417 29.9906C54.8417 29.925 54.84 29.8588 54.8385 29.795C54.7375 25.9895 51.5524 22.8908 47.7405 22.8908ZM58.5417 30.164C58.5429 30.1063 58.5429 30.0501 58.5429 29.9906C58.5429 26.8987 57.212 23.9479 54.893 21.8965C52.919 20.15 50.3785 19.1894 47.7405 19.1894C44.1143 19.1894 40.7737 21.0064 38.7882 23.9446C37.8323 22.535 36.5509 21.3626 35.061 20.5352C36.2109 19.2342 36.8444 17.5378 36.8028 15.7574C36.7161 12.1201 33.8037 9.13707 30.1728 8.96573C30.0606 8.96075 29.9482 8.95753 29.8377 8.95753C25.9968 8.95753 22.871 12.0832 22.871 15.9243C22.871 17.6403 23.5044 19.2743 24.6158 20.5352C23.1261 21.3608 21.8431 22.535 20.8855 23.9461C20.3755 23.1925 19.7692 22.4996 19.0877 21.8965C17.1135 20.15 14.5732 19.1894 11.935 19.1894C11.8548 19.1894 11.7761 19.1894 11.6959 19.1926C8.89907 19.2521 6.26564 20.3873 4.27873 22.3874C2.2933 24.3872 1.17691 27.0302 1.13549 29.8269C1.09202 32.7443 2.19388 35.4966 4.24015 37.5731C6.28659 39.6499 9.01942 40.7933 11.9366 40.7933C13.1026 40.7933 14.2508 40.6061 15.3399 40.245C14.3135 41.4834 13.1041 42.5673 11.744 43.4588C11.2246 43.8021 10.9134 44.3782 10.9134 45.0018V45.0211C10.9134 46.0394 11.7426 46.8685 12.761 46.8685C13.1184 46.8685 13.4664 46.7643 13.7683 46.5672C17.354 44.2206 20.0468 40.8302 21.5093 36.8739C23.5365 39.3324 26.5676 40.7933 29.8377 40.7933C33.4636 40.7933 36.8043 38.978 38.7897 36.0401C40.7752 38.978 44.1143 40.7933 47.7405 40.7933C48.9079 40.7933 50.0578 40.6061 51.145 40.2433C50.1202 41.4834 48.9112 42.5673 47.5528 43.4588C47.03 43.8006 46.7172 44.3782 46.7172 45.0018V45.0211C46.7172 45.531 46.9242 45.9929 47.2593 46.3265C47.5944 46.6618 48.0562 46.8685 48.5661 46.8685C48.9255 46.8685 49.2749 46.7626 49.5783 46.5636C55.1384 42.9234 58.4884 36.7887 58.5417 30.164ZM59.9979 30.0006C59.9979 46.5687 46.5663 60 29.9979 60C13.4313 60 0 46.5687 0 30.0006C0 13.4322 13.4313 0.000576019 29.9979 0.000576019C46.5663 0.000576019 59.9979 13.4322 59.9979 30.0006ZM29.8377 22.8908C25.9229 22.8908 22.7378 26.076 22.7378 29.9906C22.7378 33.9071 25.9229 37.0924 29.8377 37.0924C33.7539 37.0924 36.939 33.9071 36.939 29.9906C36.939 26.076 33.7539 22.8908 29.8377 22.8908ZM29.8377 19.1894C31.6387 19.1894 33.1031 17.7253 33.1031 15.9243C33.1031 14.1249 31.6387 12.659 29.8377 12.659C28.0384 12.659 26.5724 14.1249 26.5724 15.9243C26.5724 17.7253 28.0384 19.1894 29.8377 19.1894ZM19.0329 29.7964C19.035 29.8609 19.035 29.925 19.035 29.9906C19.035 30.0562 19.035 30.1221 19.0329 30.1863C18.9305 33.9935 15.7471 37.0924 11.935 37.0924C8.02007 37.0924 4.83532 33.9071 4.83532 29.9906C4.83532 26.076 8.02007 22.8908 11.935 22.8908C15.7471 22.8908 18.9305 25.9896 19.0329 29.7964Z" fill="white"/>
</svg>
