<svg width="102" height="22" viewBox="0 0 102 22" fill="none" xmlns="http://www.w3.org/2000/svg">
<path d="M69.2459 19.5215C69.3256 19.6039 69.3657 19.7026 69.3657 19.8179C69.3657 19.9334 69.3256 20.0312 69.2459 20.1108C69.1654 20.1911 69.0679 20.231 68.9525 20.231C68.8371 20.231 68.7393 20.1911 68.6593 20.1108C68.5793 20.0312 68.5392 19.9334 68.5392 19.8179C68.5392 19.7026 68.5793 19.6039 68.6593 19.5215C68.7393 19.439 68.8371 19.3983 68.9525 19.3983C69.0679 19.3983 69.1654 19.439 69.2459 19.5215ZM66.5608 18.1588C66.6583 18.3321 66.7072 18.5322 66.7072 18.7583C66.7072 18.9718 66.6563 19.1704 66.5535 19.3549C66.4518 19.5391 66.3074 19.7026 66.1212 19.8444C65.9516 19.9738 65.7598 20.0721 65.5445 20.141C65.3289 20.2098 65.1017 20.2464 64.8615 20.2508C64.6216 20.2508 64.3929 20.218 64.1756 20.1512C63.9577 20.0845 63.7646 19.9846 63.5954 19.8513C63.3426 19.6604 63.1689 19.4293 63.0758 19.158L64.0086 18.7254C64.0086 18.7697 64.0241 18.8251 64.0552 18.8918C64.0865 18.9586 64.1351 19.0228 64.2022 19.0848C64.2687 19.1473 64.3548 19.2006 64.462 19.2451C64.568 19.2892 64.6992 19.3116 64.8548 19.3116C64.9789 19.3116 65.0891 19.296 65.1845 19.265C65.28 19.234 65.3603 19.1946 65.425 19.1481C65.4885 19.1015 65.5375 19.0482 65.5711 18.9882C65.6042 18.9284 65.6212 18.8672 65.6212 18.8048C65.6212 18.7343 65.5975 18.6678 65.5509 18.6054C65.5044 18.5433 65.4323 18.4945 65.3348 18.459C65.157 18.3965 64.9693 18.3445 64.7713 18.3023C64.5739 18.2598 64.3814 18.2065 64.1949 18.1423C64.0086 18.0779 63.8355 17.9924 63.6756 17.8858C63.5154 17.7788 63.3892 17.6305 63.2954 17.4392C63.2114 17.2704 63.1689 17.0906 63.1689 16.8996C63.1689 16.6865 63.2187 16.4796 63.3186 16.2799C63.419 16.0801 63.5558 15.9112 63.7289 15.7735C63.8929 15.6447 64.0771 15.546 64.2816 15.4771C64.4863 15.4083 64.7016 15.3738 64.928 15.3738C65.1547 15.3738 65.3711 15.4072 65.5776 15.4737C65.7841 15.5403 65.9697 15.6382 66.1341 15.7668C66.2937 15.8866 66.4208 16.0266 66.5139 16.1868L65.7545 16.7064C65.6611 16.5775 65.5445 16.4741 65.4045 16.3965C65.2648 16.3189 65.1081 16.2799 64.9347 16.2799C64.6948 16.2799 64.5094 16.3332 64.3782 16.4398C64.2476 16.5461 64.182 16.6865 64.182 16.8596C64.182 16.9394 64.2183 17.0104 64.2918 17.0727C64.365 17.1349 64.4608 17.1908 64.5783 17.2394C64.696 17.2886 64.8284 17.3316 64.9748 17.3692C65.1213 17.4073 65.2671 17.445 65.4112 17.4825C65.5553 17.5206 65.6921 17.5592 65.821 17.5991C65.9498 17.6392 66.0541 17.6837 66.1341 17.7323C66.3203 17.8434 66.4627 17.9857 66.5608 18.1588V18.1588ZM60.2041 15.4405H61.2169V18.459C61.2169 18.6941 61.1676 18.9209 61.0701 19.1381C60.972 19.3557 60.8385 19.5474 60.6695 19.7113C60.5002 19.8756 60.3034 20.0068 60.079 20.1044C59.8538 20.2022 59.6127 20.2508 59.3544 20.2508C59.1008 20.2508 58.8606 20.2022 58.6333 20.1044C58.4066 20.0068 58.2098 19.8756 58.0429 19.7113C57.8756 19.5474 57.7436 19.3557 57.646 19.1381C57.5479 18.9209 57.499 18.6941 57.499 18.459V15.4405H58.5118V18.2587C58.5118 18.3922 58.5335 18.5176 58.5783 18.6353C58.6225 18.753 58.6822 18.8572 58.7569 18.9487C58.8325 19.0395 58.9218 19.1115 59.0258 19.1651C59.1298 19.2181 59.2396 19.2451 59.3544 19.2451C59.4736 19.2451 59.5843 19.2181 59.6862 19.1651C59.7885 19.1115 59.8778 19.0395 59.9554 18.9487C60.0327 18.8572 60.0936 18.753 60.1376 18.6353C60.1818 18.5176 60.2041 18.3922 60.2041 18.2587V15.4405ZM55.0405 18.6054L55.6934 19.2252C55.4315 19.5626 55.1328 19.8179 54.7972 19.991C54.4621 20.1645 54.1165 20.2508 53.7612 20.2508C53.4417 20.2508 53.1415 20.1855 52.8618 20.0543C52.5821 19.9234 52.3387 19.7468 52.1319 19.5248C51.9254 19.3031 51.7632 19.0439 51.6457 18.7487C51.528 18.4532 51.4688 18.1389 51.4688 17.8055C51.4688 17.4726 51.53 17.1595 51.6522 16.8662C51.7746 16.5731 51.9401 16.3157 52.1489 16.0934C52.3574 15.8713 52.6037 15.696 52.8884 15.5673C53.1725 15.4382 53.4745 15.3738 53.7946 15.3738C54.0922 15.3738 54.3751 15.4294 54.6443 15.5403C54.9126 15.6514 55.1759 15.8359 55.4336 16.0934L54.8469 16.8063C54.6604 16.6332 54.4841 16.5166 54.3177 16.4565C54.1508 16.3965 53.9768 16.3666 53.7946 16.3666C53.6125 16.3666 53.4405 16.4043 53.2783 16.4796C53.116 16.5555 52.9751 16.6574 52.8551 16.7864C52.735 16.9152 52.6407 17.0672 52.5718 17.2426C52.503 17.4184 52.4687 17.6061 52.4687 17.8055C52.4687 18.0056 52.503 18.1924 52.5718 18.3653C52.6407 18.5386 52.735 18.6909 52.8551 18.8219C52.9751 18.9528 53.116 19.0562 53.2783 19.1317C53.4405 19.2074 53.6125 19.2451 53.7946 19.2451C54.0076 19.2451 54.2164 19.1959 54.4208 19.0983C54.6252 19.0008 54.832 18.8362 55.0405 18.6054ZM48.5875 18.3653C48.5186 18.5386 48.4249 18.6909 48.3051 18.8219C48.1856 18.9528 48.0459 19.0562 47.8866 19.1317C47.727 19.2074 47.5562 19.2451 47.3746 19.2451C47.193 19.2451 47.0229 19.2074 46.8633 19.1317C46.7033 19.0562 46.5639 18.9528 46.4441 18.8219C46.3249 18.6909 46.2306 18.5386 46.1615 18.3653C46.0933 18.1924 46.0593 18.0056 46.0593 17.8055C46.0593 17.6061 46.0933 17.4184 46.1615 17.2426C46.2306 17.0672 46.3249 16.914 46.4441 16.783C46.5639 16.6522 46.7033 16.5487 46.8633 16.4729C47.0229 16.3976 47.193 16.3599 47.3746 16.3599C47.5562 16.3599 47.727 16.3976 47.8866 16.4729C48.0459 16.5487 48.1856 16.6522 48.3051 16.783C48.4249 16.914 48.5186 17.0672 48.5875 17.2426C48.6566 17.4184 48.6905 17.6061 48.6905 17.8055C48.6905 18.0056 48.6566 18.1924 48.5875 18.3653ZM49.0206 16.0934C48.8092 15.8713 48.562 15.696 48.2773 15.5673C47.9932 15.4382 47.6912 15.3738 47.3714 15.3738C47.0513 15.3738 46.7493 15.4382 46.4652 15.5673C46.1811 15.696 45.9345 15.8713 45.7257 16.0934C45.5169 16.3157 45.3517 16.5731 45.2296 16.8662C45.1071 17.1595 45.0462 17.4726 45.0462 17.8055C45.0462 18.1344 45.1071 18.4478 45.2296 18.7451C45.3517 19.0429 45.5169 19.3031 45.7257 19.5248C45.9345 19.7468 46.1811 19.9234 46.4652 20.0543C46.7493 20.1855 47.0513 20.2508 47.3714 20.2508C47.6912 20.2508 47.9932 20.1855 48.2773 20.0543C48.562 19.9234 48.8092 19.7468 49.0206 19.5248C49.2318 19.3031 49.3982 19.0429 49.5203 18.7451C49.6421 18.4478 49.7033 18.1344 49.7033 17.8055C49.7033 17.4726 49.6421 17.1595 49.5203 16.8662C49.3982 16.5731 49.2318 16.3157 49.0206 16.0934ZM40.4553 15.4405H43.4072V16.3599H41.4681V17.2128H43.1738V18.1321H41.4681V20.1645H40.4553V15.4405ZM36.5309 16.8996C36.6733 16.8996 36.8352 16.9195 37.0174 16.9597L36.8511 17.5657C36.8203 17.5526 36.7887 17.5393 36.7579 17.5259C36.7313 17.5171 36.6999 17.5086 36.6645 17.4992C36.6288 17.4904 36.5913 17.4857 36.5511 17.4857C36.4223 17.4857 36.3022 17.5071 36.1912 17.5492C36.0805 17.5915 35.985 17.6483 35.905 17.7191C35.8251 17.7901 35.7615 17.8735 35.715 17.969C35.6684 18.0648 35.645 18.1655 35.645 18.2721L35.6385 20.1645H34.9921V16.9726H35.505L35.6385 17.3264C35.7273 17.1972 35.8438 17.0941 35.9882 17.0162C36.1326 16.9383 36.3136 16.8996 36.5309 16.8996V16.8996ZM32.1869 16.9726H32.8333V20.1645H32.3202L32.1869 19.8776C32.0756 19.9799 31.9458 20.0642 31.7971 20.1311C31.6483 20.1978 31.4828 20.231 31.3006 20.231C31.1852 20.231 31.0543 20.2142 30.9076 20.1812C30.7611 20.1478 30.6244 20.0824 30.4981 19.9846C30.3713 19.8868 30.2647 19.7526 30.178 19.5816C30.0916 19.4105 30.0483 19.1873 30.0483 18.9121V16.9726H30.661V18.9121C30.661 19.0495 30.6821 19.1663 30.7242 19.2618C30.7667 19.357 30.8218 19.4336 30.8909 19.4914C30.9597 19.5491 31.0388 19.5913 31.1278 19.6182C31.2166 19.6448 31.3074 19.6577 31.4008 19.6577C31.472 19.6577 31.5528 19.6448 31.6439 19.6182C31.735 19.5913 31.8205 19.5479 31.9004 19.4882C31.9804 19.4282 32.0481 19.3517 32.1037 19.2583C32.1594 19.1651 32.1869 19.0517 32.1869 18.9182V16.9726ZM27.4428 18.9964C27.3936 19.1302 27.3268 19.2468 27.2421 19.3473C27.1575 19.4477 27.0573 19.5269 26.9411 19.5842C26.8257 19.6425 26.703 19.6712 26.5735 19.6712C26.4443 19.6712 26.3216 19.6425 26.2059 19.5842C26.0899 19.5269 25.9886 19.4477 25.9013 19.3473C25.8143 19.2468 25.7467 19.1302 25.6975 18.9964C25.6486 18.8629 25.6243 18.7202 25.6243 18.5688C25.6243 18.4171 25.6486 18.2748 25.6975 18.1412C25.7467 18.0077 25.8143 17.8917 25.9013 17.7935C25.9886 17.6954 26.0899 17.6175 26.2059 17.5595C26.3216 17.5015 26.4443 17.4726 26.5735 17.4726C26.703 17.4726 26.8257 17.5015 26.9411 17.5595C27.0573 17.6175 27.1575 17.6954 27.2421 17.7935C27.3268 17.8917 27.3936 18.0077 27.4428 18.1412C27.492 18.2748 27.5166 18.4171 27.5166 18.5688C27.5166 18.7202 27.492 18.8629 27.4428 18.9964ZM27.7061 17.3861C27.5617 17.2351 27.3918 17.1161 27.1965 17.0297C27.0008 16.943 26.7946 16.8996 26.5767 16.8996C26.3547 16.8996 26.1471 16.943 25.9538 17.0297C25.7607 17.1161 25.5921 17.2351 25.4477 17.3861C25.303 17.537 25.1887 17.7148 25.1044 17.9192C25.0203 18.1233 24.9779 18.3409 24.9779 18.5717C24.9779 18.8031 25.0203 19.0207 25.1044 19.2252C25.1887 19.4293 25.303 19.6071 25.4477 19.7579C25.5921 19.909 25.7607 20.0276 25.9538 20.1146C26.1471 20.2011 26.3547 20.2445 26.5767 20.2445C26.7946 20.2445 27.0008 20.2011 27.1965 20.1146C27.3918 20.0276 27.5617 19.909 27.7061 19.7579C27.8508 19.6071 27.965 19.4293 28.0493 19.2252C28.1334 19.0207 28.1759 18.8031 28.1759 18.5717C28.1759 18.3409 28.1334 18.1233 28.0493 17.9192C27.965 17.7148 27.8508 17.537 27.7061 17.3861ZM22.6456 16.9726H23.3588L21.2998 21.437H20.5873L21.3265 19.8044L19.9743 16.9726H20.6936L21.6797 19.045L22.6456 16.9726ZM15.6762 19.0585C15.6273 19.1959 15.5593 19.3104 15.4724 19.4015C15.3854 19.4926 15.2852 19.5602 15.1713 19.605C15.0576 19.6493 14.9343 19.6712 14.8005 19.6712C14.6713 19.6712 14.5486 19.6425 14.4326 19.5845C14.3169 19.5271 14.2165 19.4483 14.1315 19.3482C14.0472 19.2483 13.9801 19.1317 13.9309 18.9982C13.8823 18.8651 13.8574 18.7232 13.8574 18.5717C13.8574 18.4213 13.8823 18.2786 13.9309 18.1453C13.9801 18.0124 14.0472 17.8969 14.1315 17.7994C14.2165 17.7013 14.3169 17.6248 14.4326 17.5695C14.5486 17.5136 14.6713 17.4857 14.8005 17.4857C14.9343 17.4857 15.0576 17.5047 15.1713 17.5426C15.2852 17.5806 15.3854 17.6427 15.4724 17.7291C15.5593 17.8155 15.6273 17.9279 15.6762 18.0657C15.7251 18.2035 15.75 18.3723 15.75 18.5717C15.75 18.7583 15.7251 18.9209 15.6762 19.0585ZM15.7565 17.3194C15.6367 17.1861 15.4946 17.0827 15.3303 17.0092C15.1657 16.936 14.9727 16.8996 14.7504 16.8996C14.5284 16.8996 14.3243 16.943 14.1374 17.0297C13.9508 17.1161 13.7886 17.2351 13.6509 17.3861C13.5133 17.537 13.4055 17.7148 13.3279 17.9192C13.2503 18.1233 13.2113 18.3409 13.2113 18.5717C13.2113 18.8031 13.2503 19.0207 13.3279 19.2252C13.4055 19.4293 13.5133 19.6071 13.6509 19.7579C13.7886 19.909 13.9508 20.0276 14.1374 20.1146C14.3243 20.2011 14.5284 20.2445 14.7504 20.2445C14.9636 20.2445 15.1525 20.2078 15.3168 20.1343C15.4809 20.061 15.6276 19.9603 15.7565 19.8311L15.8897 20.1645H16.4028V15.3006H15.7565V17.3194ZM11.0961 17.5592C11.1825 17.7323 11.2259 17.9566 11.2259 18.232V20.1645H10.6128V18.2255C10.6128 18.0879 10.5918 17.9713 10.5496 17.8755C10.5074 17.7801 10.4518 17.7037 10.3829 17.6457C10.3141 17.5882 10.2365 17.5469 10.1498 17.5226C10.0634 17.498 9.97349 17.4857 9.88006 17.4857C9.80889 17.4857 9.72776 17.4992 9.63696 17.5259C9.54588 17.5526 9.46006 17.5958 9.3801 17.6559C9.30044 17.7159 9.23249 17.7912 9.17714 17.8826C9.12149 17.9733 9.09396 18.0856 9.09396 18.2189V20.1645H8.44756V16.9726H8.9604L9.09396 17.2529C9.20027 17.1506 9.32914 17.0663 9.47997 16.9993C9.6311 16.933 9.79541 16.8996 9.97348 16.8996C10.0889 16.8996 10.2198 16.9172 10.3662 16.9527C10.5127 16.9884 10.6495 17.0552 10.776 17.153C10.9025 17.2505 11.0091 17.3861 11.0961 17.5592V17.5592ZM6.40178 16.9726L6.40881 20.1645H5.75568V16.9726H6.40178ZM6.36839 15.5673C6.44864 15.6467 6.48876 15.7448 6.48876 15.8602C6.48876 15.9757 6.44864 16.0746 6.36839 16.1567C6.28872 16.2393 6.19119 16.2799 6.0755 16.2799C5.95981 16.2799 5.86228 16.2393 5.78233 16.1567C5.70237 16.0746 5.66225 15.9757 5.66225 15.8602C5.66225 15.7448 5.70237 15.6467 5.78233 15.5673C5.86228 15.487 5.95981 15.447 6.0755 15.447C6.19119 15.447 6.28872 15.487 6.36839 15.5673ZM0.798635 15.4405H3.99018V16.067H1.49804V17.3525H3.75675V17.9989H1.49804V20.1645H0.798635V15.4405ZM0.79629 12.5375H101.704V12.8152H0.79629V12.5375ZM99.6568 7.55612C99.6568 6.93081 99.1264 6.76709 98.2826 6.41358L97.1404 5.92388C96.1472 5.55661 95.2495 4.79511 95.2495 3.50291C95.2495 2.03381 96.5828 0.863743 98.5005 0.863743C99.5751 0.863743 100.649 1.27202 101.452 2.03381L100.432 3.29877C99.8197 2.85008 99.2626 2.59117 98.3916 2.59117C97.7253 2.59117 97.2763 2.87731 97.2763 3.39396C97.2763 3.92466 97.875 4.12851 98.7316 4.44131L99.8062 4.90377C100.976 5.3387 101.711 6.06007 101.711 7.31156C101.711 8.78037 100.473 10.0587 98.2689 10.0587C97.0722 10.0587 95.8482 9.62411 94.896 8.78037L96.052 7.40674C96.7186 7.95063 97.5484 8.33138 98.4051 8.33138C99.2626 8.33138 99.6568 8.00482 99.6568 7.55612V7.55612ZM93.6574 9.89561H87.6451V1.02717H93.5213V2.71388H89.6587V4.49549H92.9367V6.16903H89.6587V8.20954H93.6574V9.89561ZM79.3068 5.51619C79.3068 2.57799 81.1704 0.863743 83.5372 0.863743C84.6662 0.863743 85.5911 1.40792 86.1892 1.99281L85.0874 3.23082C84.6662 2.85007 84.1903 2.59117 83.5372 2.59117C82.286 2.59117 81.3607 3.66605 81.3607 5.44765C81.3607 7.27056 82.286 8.33138 83.6186 8.33138C84.2579 8.33138 84.7889 8.01858 85.2236 7.54235L86.3254 8.75313C85.6049 9.61005 84.6115 10.0587 83.4147 10.0587C81.2111 10.0587 79.3068 8.49451 79.3068 5.51619V5.51619ZM74.0694 5.40724C74.3005 4.52273 74.5454 3.48915 74.763 2.55075H74.8172C75.0216 3.48915 75.2934 4.52273 75.5248 5.40724L75.7286 6.22321H73.865L74.0694 5.40724ZM73.4573 7.78749H76.1369L76.6673 9.89561H78.7895L76.0279 1.02717H73.6342L70.8729 9.89561H72.9128L73.4573 7.78749ZM65.9481 2.6184H66.9685C68.029 2.6184 68.6004 2.95844 68.6004 3.88337C68.6004 4.80858 68.0703 5.29828 66.9685 5.29828H65.9481V2.6184ZM65.9481 6.88952H67.0909C68.9677 6.88952 70.5592 5.96459 70.5592 3.88337C70.5592 1.73448 69.009 1.02717 67.0909 1.02717H63.9489V9.89561H65.9481V6.88952ZM60.5473 7.55612C60.5473 6.93081 60.0172 6.76709 59.1734 6.41358L58.0312 5.92388C57.0383 5.55661 56.14 4.79511 56.14 3.50291C56.14 2.03381 57.4735 0.863743 59.3913 0.863743C60.4662 0.863743 61.5402 1.27202 62.3427 2.03381L61.3229 3.29877C60.7107 2.85008 60.1534 2.59117 59.2824 2.59117C58.6161 2.59117 58.1668 2.87731 58.1668 3.39396C58.1668 3.92466 58.7654 4.12851 59.6224 4.44131L60.697 4.90377C61.8665 5.3387 62.6013 6.06007 62.6013 7.31156C62.6013 8.78037 61.3633 10.0587 59.1599 10.0587C57.9632 10.0587 56.7387 9.62411 55.7865 8.78037L56.9428 7.40674C57.6097 7.95063 58.4392 8.33138 59.2961 8.33138C60.1534 8.33138 60.5473 8.00482 60.5473 7.55612V7.55612ZM50.2364 9.89561H48.2099V1.02717H50.2364V4.65892H50.2777L52.9025 1.02717H55.1196L52.4538 4.54967L55.3648 9.89561H53.1476L51.2571 6.12773L50.2364 7.4747V9.89561ZM42.4146 2.6184H43.3941C44.4552 2.6184 45.0125 2.91773 45.0125 3.78847C45.0125 4.65892 44.4552 5.10791 43.3941 5.10791H42.4146V2.6184ZM42.4146 6.69914H43.4623L45.1622 9.89561H47.4066L45.4073 6.34563C46.346 5.92388 46.9854 5.09414 46.9854 3.78847C46.9854 1.68001 45.4346 1.02717 43.5575 1.02717H40.4151V9.89561H42.4146V6.69914ZM35.722 2.59117C36.6466 2.59117 37.2315 3.58433 37.2315 5.42071C37.2315 7.33851 36.6466 8.33138 35.722 8.33138C34.7968 8.33138 34.2119 7.33851 34.2119 5.42071C34.2119 3.58433 34.7968 2.59117 35.722 2.59117ZM35.722 10.0587C37.8302 10.0587 39.2858 8.4541 39.2858 5.42071C39.2858 2.45556 37.8302 0.863743 35.722 0.863743C33.6132 0.863743 32.1582 2.45556 32.1582 5.42071C32.1582 8.4541 33.6132 10.0587 35.722 10.0587V10.0587ZM25.0572 9.89561L23.874 1.02717H25.9549L26.2273 5.74698C26.2408 6.50906 26.254 7.17537 26.2677 7.97787H26.3219C26.4446 7.17537 26.6075 6.4953 26.7574 5.74698L27.3561 3.27124H28.6345L29.1925 5.74698C29.3418 6.48182 29.4912 7.1616 29.6274 7.97787H29.6822C29.6956 7.1616 29.7091 6.48182 29.7363 5.74698L29.9812 1.02717H31.9265L30.8382 9.89561H28.6887L28.172 7.14813C28.0631 6.59019 27.9547 5.99212 27.9272 5.46142H27.8865C27.832 5.99212 27.7641 6.59019 27.6554 7.14813L27.1385 9.89561H25.0572ZM16.392 3.4209C16.4541 3.26304 16.5411 3.12421 16.653 3.00413C16.7651 2.88405 16.8955 2.78886 17.0446 2.71828C17.1936 2.64769 17.3512 2.61255 17.5167 2.61255C17.6825 2.61255 17.84 2.64769 17.9891 2.71828C18.1382 2.78886 18.2688 2.88405 18.3807 3.00413C18.4923 3.12421 18.5796 3.26304 18.6416 3.4209C18.7037 3.57818 18.7351 3.74805 18.7351 3.93081C18.7351 4.03801 18.7037 4.17508 18.6416 4.34056C18.5796 4.50633 18.5113 4.66419 18.4366 4.81327L18.4117 4.86335C18.2957 5.00423 18.161 5.10557 18.0076 5.16795C17.8547 5.22975 17.6989 5.2608 17.5416 5.2608C17.1523 5.2608 16.848 5.12841 16.6284 4.86335C16.4087 4.59741 16.2989 4.28696 16.2989 3.93081C16.2989 3.74805 16.3299 3.57818 16.392 3.4209V3.4209ZM15.1683 6.04162C15.4138 6.32074 15.7116 6.54567 16.0613 6.71671C16.4113 6.88747 16.8026 6.97709 17.2358 6.985L15.6197 9.89561H17.7402C18.1476 9.13801 18.5175 8.45117 18.8502 7.83465C18.9916 7.57662 19.1305 7.318 19.2678 7.05997C19.4052 6.80194 19.5297 6.57086 19.6418 6.36613C19.7543 6.16258 19.8457 5.99153 19.9169 5.85447C19.9871 5.71681 20.0305 5.63598 20.0472 5.61108C20.1804 5.34427 20.2926 5.07803 20.384 4.81122C20.4757 4.54499 20.5211 4.26587 20.5211 3.97387C20.5211 3.54948 20.4402 3.15204 20.2777 2.78095C20.1151 2.41075 19.8946 2.0877 19.6155 1.81297C19.3364 1.53796 19.0118 1.31947 18.6414 1.15692C18.2706 0.994662 17.8728 0.913239 17.4481 0.913239C17.0235 0.913239 16.6254 0.994662 16.2552 1.15692C15.8844 1.31947 15.5617 1.53796 15.287 1.81297C15.0122 2.0877 14.7952 2.41075 14.6374 2.78095C14.4789 3.15204 14.4001 3.54948 14.4001 3.97387C14.4001 4.35725 14.4663 4.72833 14.5999 5.08594C14.7331 5.44414 14.9226 5.76279 15.1683 6.04162V6.04162ZM9.6724 6.35383C9.81064 6.15848 9.98842 6.01497 10.206 5.9233C10.3317 5.86472 10.4825 5.83543 10.6582 5.83543C10.8343 5.83543 10.9845 5.86472 11.1102 5.9233C11.3281 6.01497 11.5058 6.15848 11.6441 6.35383C11.782 6.54977 11.8514 6.77676 11.8514 7.03479C11.8514 7.20202 11.8198 7.35959 11.7568 7.50984C11.6945 7.6595 11.6104 7.79306 11.5061 7.90963C11.4016 8.02619 11.2756 8.11992 11.1292 8.1905C10.9828 8.26138 10.8258 8.29653 10.6582 8.29653C10.491 8.29653 10.3337 8.26138 10.1873 8.1905C10.0408 8.11992 9.9152 8.02619 9.81064 7.90963C9.70579 7.79306 9.62231 7.6595 9.55934 7.50984C9.49637 7.35959 9.46533 7.20202 9.46533 7.03479C9.46533 6.77676 9.53416 6.54977 9.6724 6.35383ZM10.0148 2.91831C10.1899 2.73116 10.4064 2.63744 10.6647 2.63744C10.9224 2.63744 11.1371 2.73116 11.3082 2.91831C11.4786 3.10605 11.5638 3.32074 11.5638 3.56178C11.5638 3.72843 11.5202 3.88248 11.4329 4.02395C11.3453 4.16599 11.2267 4.27407 11.0768 4.34876C11.01 4.37424 10.9438 4.39474 10.877 4.41173C10.8103 4.42842 10.7394 4.43662 10.6647 4.43662C10.5311 4.43662 10.3938 4.40733 10.2523 4.34876C10.0939 4.27407 9.97114 4.16599 9.88386 4.02395C9.79629 3.88248 9.75265 3.72843 9.75265 3.56178C9.75265 3.32074 9.83993 3.10605 10.0148 2.91831ZM8.48476 9.20276C8.76358 9.46487 9.09044 9.67308 9.46533 9.82743C9.83993 9.98119 10.2356 10.0582 10.6521 10.0582C11.0683 10.0582 11.464 9.98119 11.8389 9.82743C12.2137 9.67308 12.5426 9.46487 12.8256 9.20276C13.1088 8.94031 13.3337 8.63627 13.5007 8.29067C13.667 7.94477 13.7502 7.58043 13.7502 7.19763C13.7502 6.9806 13.7168 6.76416 13.6503 6.54801C13.5839 6.33099 13.4942 6.12714 13.3818 5.93589C13.2693 5.74376 13.136 5.5692 12.982 5.41104C12.8279 5.25259 12.6633 5.12343 12.4885 5.02356C12.755 4.80682 12.9653 4.56344 13.1193 4.29282C13.2734 4.02219 13.3504 3.72843 13.3504 3.41183C13.3504 3.07882 13.2795 2.76045 13.1381 2.45615C12.9963 2.15243 12.803 1.8862 12.5573 1.65658C12.3113 1.42783 12.024 1.24683 11.6951 1.11357C11.3658 0.980308 11.0185 0.913239 10.6521 0.913239C10.2854 0.913239 9.9398 0.980308 9.615 1.11357C9.29048 1.24683 9.00492 1.42783 8.75919 1.65658C8.51376 1.8862 8.32016 2.15243 8.1787 2.45615C8.03665 2.76045 7.96606 3.07882 7.96606 3.41183C7.96606 3.72843 8.03401 4.02219 8.1702 4.29282C8.3061 4.56344 8.52283 4.80682 8.82011 5.02356C8.41417 5.2482 8.10402 5.55895 7.88904 5.95434C7.67406 6.35002 7.56628 6.76416 7.56628 7.19763C7.56628 7.58043 7.64946 7.94477 7.81611 8.29067C7.98276 8.63627 8.20535 8.94031 8.48476 9.20276V9.20276ZM2.78701 3.4209C2.8491 3.26304 2.93639 3.12421 3.04827 3.00413C3.16015 2.88405 3.29077 2.78886 3.43956 2.71828C3.58893 2.64769 3.74621 2.61255 3.91227 2.61255C4.07775 2.61255 4.23503 2.64769 4.3844 2.71828C4.53348 2.78886 4.6641 2.88405 4.77599 3.00413C4.88787 3.12421 4.97485 3.26304 5.03694 3.4209C5.09874 3.57818 5.13008 3.74805 5.13008 3.93081C5.13008 4.03801 5.09874 4.17508 5.03694 4.34056C4.97485 4.50633 4.90632 4.66419 4.83192 4.81327L4.80703 4.86335C4.69076 5.00423 4.55632 5.10557 4.40315 5.16795C4.24997 5.22975 4.09415 5.2608 3.93687 5.2608C3.54763 5.2608 3.24333 5.12841 3.02367 4.86335C2.804 4.59741 2.69417 4.28696 2.69417 3.93081C2.69417 3.74805 2.72522 3.57818 2.78701 3.4209V3.4209ZM1.56364 6.04162C1.80908 6.32074 2.10695 6.54567 2.45665 6.71671C2.80664 6.88747 3.19793 6.97709 3.6311 6.985L2.01498 9.89561H4.13545C4.54255 9.13801 4.91276 8.45117 5.24518 7.83465C5.38694 7.57662 5.52606 7.318 5.66313 7.05997C5.80049 6.80194 5.92496 6.57086 6.03743 6.36613C6.1496 6.16258 6.24098 5.99153 6.31186 5.85447C6.38245 5.71681 6.42609 5.63598 6.44278 5.61108C6.57575 5.34427 6.68792 5.07803 6.77959 4.81122C6.87097 4.54499 6.91695 4.26587 6.91695 3.97387C6.91695 3.54948 6.83554 3.15204 6.67299 2.78095C6.51073 2.41075 6.28989 2.0877 6.01107 1.81297C5.73195 1.53796 5.40685 1.31947 5.03665 1.15692C4.66586 0.994662 4.26842 0.913239 3.84344 0.913239C3.41876 0.913239 3.02074 0.994662 2.65053 1.15692C2.27974 1.31947 1.95698 1.53796 1.68197 1.81297C1.40724 2.0877 1.19051 2.41075 1.03265 2.78095C0.874199 3.15204 0.79541 3.54948 0.79541 3.97387C0.79541 4.35725 0.861604 4.72833 0.995158 5.08594C1.12813 5.44414 1.31762 5.76279 1.56364 6.04162" fill="white"/>
</svg>
