<svg width="20" height="20" viewBox="0 0 20 20" fill="none" xmlns="http://www.w3.org/2000/svg">
<g clip-path="url(#clip0)">
<path d="M19.0771 9.13942C19.0768 9.1392 19.0767 9.13893 19.0764 9.13871L15.1465 5.2278C14.8521 4.93482 14.3759 4.93591 14.0829 5.23035C13.7899 5.52476 13.791 6.00095 14.0854 6.29397L16.7239 8.9197H0.796044C0.38066 8.9197 0.0439453 9.25641 0.0439453 9.6718C0.0439453 10.0872 0.38066 10.4239 0.796044 10.4239H16.7239L14.0854 13.0496C13.791 13.3426 13.7899 13.8188 14.0829 14.1132C14.376 14.4077 14.8522 14.4087 15.1466 14.1158L19.0764 10.2049C19.0767 10.2047 19.0768 10.2044 19.0771 10.2042C19.3717 9.91017 19.3707 9.43244 19.0771 9.13942Z" fill="#4A3A2F"/>
</g>
<defs>
<clipPath id="clip0">
<rect width="19.2537" height="19.2537" fill="white" transform="translate(0.0439453 0.0449219)"/>
</clipPath>
</defs>
</svg>
