<svg width="131" height="38" viewBox="0 0 131 38" fill="none" xmlns="http://www.w3.org/2000/svg">
<rect width="131" height="38" rx="5" fill="white"/>
<path d="M38.5708 16.5254C38.5629 15.067 39.2223 13.9663 40.5569 13.1557C39.8101 12.0867 38.6821 11.4986 37.1925 11.3834C35.7824 11.2721 34.2412 12.206 33.6772 12.206C33.0814 12.206 31.7149 11.4231 30.6425 11.4231C28.426 11.4589 26.0706 13.1914 26.0706 16.7161C26.0706 17.7572 26.2612 18.8328 26.6425 19.9427C27.151 21.4011 28.9861 24.9774 30.9007 24.9178C31.9016 24.894 32.6087 24.2065 33.9115 24.2065C35.1747 24.2065 35.8301 24.9178 36.9462 24.9178C38.8767 24.89 40.537 21.6395 41.0216 20.1772C38.4318 18.9573 38.5708 16.6009 38.5708 16.5254ZM36.3226 10.0006C37.407 8.71308 37.3077 7.54084 37.2759 7.11963C36.3186 7.17526 35.2104 7.77131 34.5789 8.50645C33.8837 9.29324 33.4746 10.2668 33.562 11.3635C34.5987 11.443 35.5441 10.9105 36.3226 10.0006Z" fill="#4A3A2F"/>
<path d="M53.94 25.6181H51.03L50.53 27.0381H49.34L51.83 20.0781H53.15L55.64 27.0381H54.44L53.94 25.6181ZM53.62 24.6881L52.49 21.4581L51.35 24.6881H53.62ZM58.2627 22.3381C58.456 22.0848 58.7193 21.8714 59.0527 21.6981C59.386 21.5248 59.7627 21.4381 60.1827 21.4381C60.6627 21.4381 61.0993 21.5581 61.4927 21.7981C61.8927 22.0314 62.206 22.3614 62.4327 22.7881C62.6593 23.2148 62.7727 23.7048 62.7727 24.2581C62.7727 24.8114 62.6593 25.3081 62.4327 25.7481C62.206 26.1814 61.8927 26.5214 61.4927 26.7681C61.0993 27.0081 60.6627 27.1281 60.1827 27.1281C59.7627 27.1281 59.3893 27.0448 59.0627 26.8781C58.736 26.7048 58.4693 26.4914 58.2627 26.2381V29.6581H57.1227V21.5281H58.2627V22.3381ZM61.6127 24.2581C61.6127 23.8781 61.5327 23.5514 61.3727 23.2781C61.2193 22.9981 61.0127 22.7881 60.7527 22.6481C60.4993 22.5014 60.226 22.4281 59.9327 22.4281C59.646 22.4281 59.3727 22.5014 59.1127 22.6481C58.8593 22.7948 58.6527 23.0081 58.4927 23.2881C58.3393 23.5681 58.2627 23.8981 58.2627 24.2781C58.2627 24.6581 58.3393 24.9914 58.4927 25.2781C58.6527 25.5581 58.8593 25.7714 59.1127 25.9181C59.3727 26.0648 59.646 26.1381 59.9327 26.1381C60.226 26.1381 60.4993 26.0648 60.7527 25.9181C61.0127 25.7648 61.2193 25.5448 61.3727 25.2581C61.5327 24.9714 61.6127 24.6381 61.6127 24.2581ZM65.44 22.3381C65.6333 22.0848 65.8967 21.8714 66.23 21.6981C66.5633 21.5248 66.94 21.4381 67.36 21.4381C67.84 21.4381 68.2767 21.5581 68.67 21.7981C69.07 22.0314 69.3833 22.3614 69.61 22.7881C69.8367 23.2148 69.95 23.7048 69.95 24.2581C69.95 24.8114 69.8367 25.3081 69.61 25.7481C69.3833 26.1814 69.07 26.5214 68.67 26.7681C68.2767 27.0081 67.84 27.1281 67.36 27.1281C66.94 27.1281 66.5667 27.0448 66.24 26.8781C65.9133 26.7048 65.6467 26.4914 65.44 26.2381V29.6581H64.3V21.5281H65.44V22.3381ZM68.79 24.2581C68.79 23.8781 68.71 23.5514 68.55 23.2781C68.3967 22.9981 68.19 22.7881 67.93 22.6481C67.6767 22.5014 67.4033 22.4281 67.11 22.4281C66.8233 22.4281 66.55 22.5014 66.29 22.6481C66.0367 22.7948 65.83 23.0081 65.67 23.2881C65.5167 23.5681 65.44 23.8981 65.44 24.2781C65.44 24.6581 65.5167 24.9914 65.67 25.2781C65.83 25.5581 66.0367 25.7714 66.29 25.9181C66.55 26.0648 66.8233 26.1381 67.11 26.1381C67.4033 26.1381 67.6767 26.0648 67.93 25.9181C68.19 25.7648 68.3967 25.5448 68.55 25.2581C68.71 24.9714 68.79 24.6381 68.79 24.2581ZM76.765 27.1081C76.2983 27.1081 75.8783 27.0281 75.505 26.8681C75.1317 26.7014 74.8383 26.4681 74.625 26.1681C74.4117 25.8681 74.305 25.5181 74.305 25.1181H75.525C75.5517 25.4181 75.6683 25.6648 75.875 25.8581C76.0883 26.0514 76.385 26.1481 76.765 26.1481C77.1583 26.1481 77.465 26.0548 77.685 25.8681C77.905 25.6748 78.015 25.4281 78.015 25.1281C78.015 24.8948 77.945 24.7048 77.805 24.5581C77.6717 24.4114 77.5017 24.2981 77.295 24.2181C77.095 24.1381 76.815 24.0514 76.455 23.9581C76.0017 23.8381 75.6317 23.7181 75.345 23.5981C75.065 23.4714 74.825 23.2781 74.625 23.0181C74.425 22.7581 74.325 22.4114 74.325 21.9781C74.325 21.5781 74.425 21.2281 74.625 20.9281C74.825 20.6281 75.105 20.3981 75.465 20.2381C75.825 20.0781 76.2417 19.9981 76.715 19.9981C77.3883 19.9981 77.9383 20.1681 78.365 20.5081C78.7983 20.8414 79.0383 21.3014 79.085 21.8881H77.825C77.805 21.6348 77.685 21.4181 77.465 21.2381C77.245 21.0581 76.955 20.9681 76.595 20.9681C76.2683 20.9681 76.0017 21.0514 75.795 21.2181C75.5883 21.3848 75.485 21.6248 75.485 21.9381C75.485 22.1514 75.5483 22.3281 75.675 22.4681C75.8083 22.6014 75.975 22.7081 76.175 22.7881C76.375 22.8681 76.6483 22.9548 76.995 23.0481C77.455 23.1748 77.8283 23.3014 78.115 23.4281C78.4083 23.5548 78.655 23.7514 78.855 24.0181C79.0617 24.2781 79.165 24.6281 79.165 25.0681C79.165 25.4214 79.0683 25.7548 78.875 26.0681C78.6883 26.3814 78.4117 26.6348 78.045 26.8281C77.685 27.0148 77.2583 27.1081 76.765 27.1081ZM82.2402 22.4581V25.5081C82.2402 25.7148 82.2868 25.8648 82.3802 25.9581C82.4802 26.0448 82.6468 26.0881 82.8802 26.0881H83.5802V27.0381H82.6802C82.1668 27.0381 81.7735 26.9181 81.5002 26.6781C81.2268 26.4381 81.0902 26.0481 81.0902 25.5081V22.4581H80.4402V21.5281H81.0902V20.1581H82.2402V21.5281H83.5802V22.4581H82.2402ZM87.4209 27.1281C86.9009 27.1281 86.4309 27.0114 86.0109 26.7781C85.5909 26.5381 85.2609 26.2048 85.0209 25.7781C84.7809 25.3448 84.6609 24.8448 84.6609 24.2781C84.6609 23.7181 84.7842 23.2214 85.0309 22.7881C85.2775 22.3548 85.6142 22.0214 86.0409 21.7881C86.4675 21.5548 86.9442 21.4381 87.4709 21.4381C87.9975 21.4381 88.4742 21.5548 88.9009 21.7881C89.3275 22.0214 89.6642 22.3548 89.9109 22.7881C90.1575 23.2214 90.2809 23.7181 90.2809 24.2781C90.2809 24.8381 90.1542 25.3348 89.9009 25.7681C89.6475 26.2014 89.3009 26.5381 88.8609 26.7781C88.4275 27.0114 87.9475 27.1281 87.4209 27.1281ZM87.4209 26.1381C87.7142 26.1381 87.9875 26.0681 88.2409 25.9281C88.5009 25.7881 88.7109 25.5781 88.8709 25.2981C89.0309 25.0181 89.1109 24.6781 89.1109 24.2781C89.1109 23.8781 89.0342 23.5414 88.8809 23.2681C88.7275 22.9881 88.5242 22.7781 88.2709 22.6381C88.0175 22.4981 87.7442 22.4281 87.4509 22.4281C87.1575 22.4281 86.8842 22.4981 86.6309 22.6381C86.3842 22.7781 86.1875 22.9881 86.0409 23.2681C85.8942 23.5414 85.8209 23.8781 85.8209 24.2781C85.8209 24.8714 85.9709 25.3314 86.2709 25.6581C86.5775 25.9781 86.9609 26.1381 87.4209 26.1381ZM92.9478 22.3281C93.1145 22.0481 93.3345 21.8314 93.6078 21.6781C93.8878 21.5181 94.2178 21.4381 94.5978 21.4381V22.6181H94.3078C93.8611 22.6181 93.5211 22.7314 93.2878 22.9581C93.0611 23.1848 92.9478 23.5781 92.9478 24.1381V27.0381H91.8078V21.5281H92.9478V22.3281ZM101.096 24.1481C101.096 24.3548 101.082 24.5414 101.056 24.7081H96.8457C96.879 25.1481 97.0424 25.5014 97.3357 25.7681C97.629 26.0348 97.989 26.1681 98.4157 26.1681C99.029 26.1681 99.4624 25.9114 99.7157 25.3981H100.946C100.779 25.9048 100.476 26.3214 100.036 26.6481C99.6024 26.9681 99.0624 27.1281 98.4157 27.1281C97.889 27.1281 97.4157 27.0114 96.9957 26.7781C96.5824 26.5381 96.2557 26.2048 96.0157 25.7781C95.7824 25.3448 95.6657 24.8448 95.6657 24.2781C95.6657 23.7114 95.779 23.2148 96.0057 22.7881C96.239 22.3548 96.5624 22.0214 96.9757 21.7881C97.3957 21.5548 97.8757 21.4381 98.4157 21.4381C98.9357 21.4381 99.399 21.5514 99.8057 21.7781C100.212 22.0048 100.529 22.3248 100.756 22.7381C100.982 23.1448 101.096 23.6148 101.096 24.1481ZM99.9057 23.7881C99.899 23.3681 99.749 23.0314 99.4557 22.7781C99.1624 22.5248 98.799 22.3981 98.3657 22.3981C97.9724 22.3981 97.6357 22.5248 97.3557 22.7781C97.0757 23.0248 96.909 23.3614 96.8557 23.7881H99.9057Z" fill="#4A3A2F"/>
<path d="M51.058 10.1591C51.59 10.1591 52.0497 10.2594 52.437 10.4601C52.829 10.6561 53.1277 10.9384 53.333 11.3071C53.543 11.6758 53.648 12.1098 53.648 12.6091C53.648 13.1084 53.543 13.5424 53.333 13.9111C53.1277 14.2751 52.829 14.5551 52.437 14.7511C52.0497 14.9424 51.59 15.0381 51.058 15.0381H49.539V10.1591H51.058ZM51.058 14.5131C51.688 14.5131 52.1687 14.3474 52.5 14.0161C52.8313 13.6801 52.997 13.2111 52.997 12.6091C52.997 12.0024 52.829 11.5288 52.493 11.1881C52.1617 10.8474 51.6833 10.6771 51.058 10.6771H50.176V14.5131H51.058ZM56.1612 15.1011C55.8019 15.1011 55.4752 15.0194 55.1812 14.8561C54.8919 14.6928 54.6632 14.4618 54.4952 14.1631C54.3319 13.8598 54.2502 13.5098 54.2502 13.1131C54.2502 12.7211 54.3342 12.3758 54.5022 12.0771C54.6749 11.7738 54.9082 11.5428 55.2022 11.3841C55.4962 11.2208 55.8252 11.1391 56.1892 11.1391C56.5532 11.1391 56.8822 11.2208 57.1762 11.3841C57.4702 11.5428 57.7012 11.7714 57.8692 12.0701C58.0419 12.3688 58.1282 12.7164 58.1282 13.1131C58.1282 13.5098 58.0396 13.8598 57.8622 14.1631C57.6896 14.4618 57.4539 14.6928 57.1552 14.8561C56.8566 15.0194 56.5252 15.1011 56.1612 15.1011ZM56.1612 14.5411C56.3899 14.5411 56.6046 14.4874 56.8052 14.3801C57.0059 14.2728 57.1669 14.1118 57.2882 13.8971C57.4142 13.6824 57.4772 13.4211 57.4772 13.1131C57.4772 12.8051 57.4166 12.5438 57.2952 12.3291C57.1739 12.1144 57.0152 11.9558 56.8192 11.8531C56.6232 11.7458 56.4109 11.6921 56.1822 11.6921C55.9489 11.6921 55.7342 11.7458 55.5382 11.8531C55.3469 11.9558 55.1929 12.1144 55.0762 12.3291C54.9596 12.5438 54.9012 12.8051 54.9012 13.1131C54.9012 13.4258 54.9572 13.6894 55.0692 13.9041C55.1859 14.1188 55.3399 14.2798 55.5312 14.3871C55.7226 14.4898 55.9326 14.5411 56.1612 14.5411ZM64.0758 11.2021L62.8788 15.0381H62.2208L61.2968 11.9931L60.3728 15.0381H59.7148L58.5108 11.2021H59.1618L60.0438 14.4221L60.9958 11.2021H61.6468L62.5778 14.4291L63.4458 11.2021H64.0758ZM66.5769 11.1321C67.0436 11.1321 67.4216 11.2744 67.7109 11.5591C68.0003 11.8391 68.1449 12.2451 68.1449 12.7771V15.0381H67.5149V12.8681C67.5149 12.4854 67.4193 12.1938 67.2279 11.9931C67.0366 11.7878 66.7753 11.6851 66.4439 11.6851C66.1079 11.6851 65.8396 11.7901 65.6389 12.0001C65.4429 12.2101 65.3449 12.5158 65.3449 12.9171V15.0381H64.7079V11.2021H65.3449V11.7481C65.4709 11.5521 65.6413 11.4004 65.8559 11.2931C66.0753 11.1858 66.3156 11.1321 66.5769 11.1321ZM69.8225 9.85809V15.0381H69.1855V9.85809H69.8225ZM72.5811 15.1011C72.2218 15.1011 71.8951 15.0194 71.6011 14.8561C71.3118 14.6928 71.0831 14.4618 70.9151 14.1631C70.7518 13.8598 70.6701 13.5098 70.6701 13.1131C70.6701 12.7211 70.7541 12.3758 70.9221 12.0771C71.0948 11.7738 71.3281 11.5428 71.6221 11.3841C71.9161 11.2208 72.2451 11.1391 72.6091 11.1391C72.9731 11.1391 73.3021 11.2208 73.5961 11.3841C73.8901 11.5428 74.1211 11.7714 74.2891 12.0701C74.4618 12.3688 74.5481 12.7164 74.5481 13.1131C74.5481 13.5098 74.4595 13.8598 74.2821 14.1631C74.1095 14.4618 73.8738 14.6928 73.5751 14.8561C73.2765 15.0194 72.9451 15.1011 72.5811 15.1011ZM72.5811 14.5411C72.8098 14.5411 73.0245 14.4874 73.2251 14.3801C73.4258 14.2728 73.5868 14.1118 73.7081 13.8971C73.8341 13.6824 73.8971 13.4211 73.8971 13.1131C73.8971 12.8051 73.8365 12.5438 73.7151 12.3291C73.5938 12.1144 73.4351 11.9558 73.2391 11.8531C73.0431 11.7458 72.8308 11.6921 72.6021 11.6921C72.3688 11.6921 72.1541 11.7458 71.9581 11.8531C71.7668 11.9558 71.6128 12.1144 71.4961 12.3291C71.3795 12.5438 71.3211 12.8051 71.3211 13.1131C71.3211 13.4258 71.3771 13.6894 71.4891 13.9041C71.6058 14.1188 71.7598 14.2798 71.9511 14.3871C72.1425 14.4898 72.3525 14.5411 72.5811 14.5411ZM75.1477 13.1061C75.1477 12.7141 75.227 12.3711 75.3857 12.0771C75.5443 11.7784 75.7613 11.5474 76.0367 11.3841C76.3167 11.2208 76.627 11.1391 76.9677 11.1391C77.3037 11.1391 77.5953 11.2114 77.8427 11.3561C78.09 11.5008 78.2743 11.6828 78.3957 11.9021V11.2021H79.0397V15.0381H78.3957V14.3241C78.2697 14.5481 78.0807 14.7348 77.8287 14.8841C77.5813 15.0288 77.292 15.1011 76.9607 15.1011C76.62 15.1011 76.312 15.0171 76.0367 14.8491C75.7613 14.6811 75.5443 14.4454 75.3857 14.1421C75.227 13.8388 75.1477 13.4934 75.1477 13.1061ZM78.3957 13.1131C78.3957 12.8238 78.3373 12.5718 78.2207 12.3571C78.104 12.1424 77.9453 11.9791 77.7447 11.8671C77.5487 11.7504 77.3317 11.6921 77.0937 11.6921C76.8557 11.6921 76.6387 11.7481 76.4427 11.8601C76.2467 11.9721 76.0903 12.1354 75.9737 12.3501C75.857 12.5648 75.7987 12.8168 75.7987 13.1061C75.7987 13.4001 75.857 13.6568 75.9737 13.8761C76.0903 14.0908 76.2467 14.2564 76.4427 14.3731C76.6387 14.4851 76.8557 14.5411 77.0937 14.5411C77.3317 14.5411 77.5487 14.4851 77.7447 14.3731C77.9453 14.2564 78.104 14.0908 78.2207 13.8761C78.3373 13.6568 78.3957 13.4024 78.3957 13.1131ZM79.8781 13.1061C79.8781 12.7141 79.9575 12.3711 80.1161 12.0771C80.2748 11.7784 80.4918 11.5474 80.7671 11.3841C81.0471 11.2208 81.3598 11.1391 81.7051 11.1391C82.0038 11.1391 82.2815 11.2091 82.5381 11.3491C82.7948 11.4844 82.9908 11.6641 83.1261 11.8881V9.85809H83.7701V15.0381H83.1261V14.3171C83.0001 14.5458 82.8135 14.7348 82.5661 14.8841C82.3188 15.0288 82.0295 15.1011 81.6981 15.1011C81.3575 15.1011 81.0471 15.0171 80.7671 14.8491C80.4918 14.6811 80.2748 14.4454 80.1161 14.1421C79.9575 13.8388 79.8781 13.4934 79.8781 13.1061ZM83.1261 13.1131C83.1261 12.8238 83.0678 12.5718 82.9511 12.3571C82.8345 12.1424 82.6758 11.9791 82.4751 11.8671C82.2791 11.7504 82.0621 11.6921 81.8241 11.6921C81.5861 11.6921 81.3691 11.7481 81.1731 11.8601C80.9771 11.9721 80.8208 12.1354 80.7041 12.3501C80.5875 12.5648 80.5291 12.8168 80.5291 13.1061C80.5291 13.4001 80.5875 13.6568 80.7041 13.8761C80.8208 14.0908 80.9771 14.2564 81.1731 14.3731C81.3691 14.4851 81.5861 14.5411 81.8241 14.5411C82.0621 14.5411 82.2791 14.4851 82.4751 14.3731C82.6758 14.2564 82.8345 14.0908 82.9511 13.8761C83.0678 13.6568 83.1261 13.4024 83.1261 13.1131ZM88.3858 15.1011C88.0265 15.1011 87.6998 15.0194 87.4058 14.8561C87.1165 14.6928 86.8878 14.4618 86.7198 14.1631C86.5565 13.8598 86.4748 13.5098 86.4748 13.1131C86.4748 12.7211 86.5588 12.3758 86.7268 12.0771C86.8995 11.7738 87.1328 11.5428 87.4268 11.3841C87.7208 11.2208 88.0498 11.1391 88.4138 11.1391C88.7778 11.1391 89.1068 11.2208 89.4008 11.3841C89.6948 11.5428 89.9258 11.7714 90.0938 12.0701C90.2665 12.3688 90.3528 12.7164 90.3528 13.1131C90.3528 13.5098 90.2642 13.8598 90.0868 14.1631C89.9142 14.4618 89.6785 14.6928 89.3798 14.8561C89.0812 15.0194 88.7498 15.1011 88.3858 15.1011ZM88.3858 14.5411C88.6145 14.5411 88.8292 14.4874 89.0298 14.3801C89.2305 14.2728 89.3915 14.1118 89.5128 13.8971C89.6388 13.6824 89.7018 13.4211 89.7018 13.1131C89.7018 12.8051 89.6412 12.5438 89.5198 12.3291C89.3985 12.1144 89.2398 11.9558 89.0438 11.8531C88.8478 11.7458 88.6355 11.6921 88.4068 11.6921C88.1735 11.6921 87.9588 11.7458 87.7628 11.8531C87.5715 11.9558 87.4175 12.1144 87.3008 12.3291C87.1842 12.5438 87.1258 12.8051 87.1258 13.1131C87.1258 13.4258 87.1818 13.6894 87.2938 13.9041C87.4105 14.1188 87.5645 14.2798 87.7558 14.3871C87.9472 14.4898 88.1572 14.5411 88.3858 14.5411ZM93.0594 11.1321C93.526 11.1321 93.904 11.2744 94.1934 11.5591C94.4827 11.8391 94.6274 12.2451 94.6274 12.7771V15.0381H93.9974V12.8681C93.9974 12.4854 93.9017 12.1938 93.7104 11.9931C93.519 11.7878 93.2577 11.6851 92.9264 11.6851C92.5904 11.6851 92.322 11.7901 92.1214 12.0001C91.9254 12.2101 91.8274 12.5158 91.8274 12.9171V15.0381H91.1904V11.2021H91.8274V11.7481C91.9534 11.5521 92.1237 11.4004 92.3384 11.2931C92.5577 11.1858 92.798 11.1321 93.0594 11.1321ZM98.3111 11.7271V13.9881C98.3111 14.1748 98.3508 14.3078 98.4301 14.3871C98.5095 14.4618 98.6471 14.4991 98.8431 14.4991H99.3121V15.0381H98.7381C98.3835 15.0381 98.1175 14.9564 97.9401 14.7931C97.7628 14.6298 97.6741 14.3614 97.6741 13.9881V11.7271H97.1771V11.2021H97.6741V10.2361H98.3111V11.2021H99.3121V11.7271H98.3111ZM101.988 11.1321C102.277 11.1321 102.539 11.1951 102.772 11.3211C103.005 11.4424 103.187 11.6268 103.318 11.8741C103.453 12.1214 103.521 12.4224 103.521 12.7771V15.0381H102.891V12.8681C102.891 12.4854 102.795 12.1938 102.604 11.9931C102.413 11.7878 102.151 11.6851 101.82 11.6851C101.484 11.6851 101.216 11.7901 101.015 12.0001C100.819 12.2101 100.721 12.5158 100.721 12.9171V15.0381H100.084V9.85809H100.721V11.7481C100.847 11.5521 101.02 11.4004 101.239 11.2931C101.463 11.1858 101.713 11.1321 101.988 11.1321ZM108.061 12.9731C108.061 13.0944 108.054 13.2228 108.04 13.3581H104.974C104.998 13.7361 105.126 14.0324 105.359 14.2471C105.597 14.4571 105.884 14.5621 106.22 14.5621C106.496 14.5621 106.724 14.4991 106.906 14.3731C107.093 14.2424 107.224 14.0698 107.298 13.8551H107.984C107.882 14.2238 107.676 14.5248 107.368 14.7581C107.06 14.9868 106.678 15.1011 106.22 15.1011C105.856 15.1011 105.53 15.0194 105.24 14.8561C104.956 14.6928 104.732 14.4618 104.568 14.1631C104.405 13.8598 104.323 13.5098 104.323 13.1131C104.323 12.7164 104.403 12.3688 104.561 12.0701C104.72 11.7714 104.942 11.5428 105.226 11.3841C105.516 11.2208 105.847 11.1391 106.22 11.1391C106.584 11.1391 106.906 11.2184 107.186 11.3771C107.466 11.5358 107.681 11.7551 107.83 12.0351C107.984 12.3104 108.061 12.6231 108.061 12.9731ZM107.403 12.8401C107.403 12.5974 107.35 12.3898 107.242 12.2171C107.135 12.0398 106.988 11.9068 106.801 11.8181C106.619 11.7248 106.416 11.6781 106.192 11.6781C105.87 11.6781 105.595 11.7808 105.366 11.9861C105.142 12.1914 105.014 12.4761 104.981 12.8401H107.403Z" fill="#4A3A2F"/>
</svg>
