<svg width="184" height="45" viewBox="0 0 184 45" fill="none" xmlns="http://www.w3.org/2000/svg">
<rect width="184" height="45" rx="5" fill="black"/>
<path d="M48.5577 23.2111C48.5465 21.1627 49.4726 19.6167 51.3472 18.4781C50.2984 16.9767 48.7139 16.1507 46.6217 15.9888C44.6411 15.8325 42.4764 17.1442 41.6841 17.1442C40.8472 17.1442 38.928 16.0446 37.4216 16.0446C34.3084 16.0949 31 18.5283 31 23.479C31 24.9413 31.2678 26.452 31.8034 28.0111C32.5175 30.0595 35.0951 35.0827 37.7843 34.999C39.1902 34.9655 40.1833 33.9999 42.0133 33.9999C43.7875 33.9999 44.708 34.999 46.2758 34.999C48.9872 34.9599 51.3193 30.3943 52 28.3404C48.3624 26.6269 48.5577 23.3172 48.5577 23.2111ZM45.3998 14.0465C46.923 12.2381 46.7835 10.5916 46.7388 10C45.3943 10.0781 43.8377 10.9153 42.9506 11.9479C41.9742 13.053 41.3996 14.4204 41.5223 15.9609C42.9785 16.0725 44.3063 15.3246 45.3998 14.0465Z" fill="white"/>
<path d="M69.916 33.012H65.842L65.142 35H63.476L66.962 25.256H68.81L72.296 35H70.616L69.916 33.012ZM69.468 31.71L67.886 27.188L66.29 31.71H69.468ZM75.9677 28.42C76.2384 28.0653 76.6071 27.7667 77.0737 27.524C77.5404 27.2813 78.0677 27.16 78.6557 27.16C79.3277 27.16 79.9391 27.328 80.4897 27.664C81.0497 27.9907 81.4884 28.4527 81.8057 29.05C82.1231 29.6473 82.2817 30.3333 82.2817 31.108C82.2817 31.8827 82.1231 32.578 81.8057 33.194C81.4884 33.8007 81.0497 34.2767 80.4897 34.622C79.9391 34.958 79.3277 35.126 78.6557 35.126C78.0677 35.126 77.5451 35.0093 77.0877 34.776C76.6304 34.5333 76.2571 34.2347 75.9677 33.88V38.668H74.3717V27.286H75.9677V28.42ZM80.6577 31.108C80.6577 30.576 80.5457 30.1187 80.3217 29.736C80.1071 29.344 79.8177 29.05 79.4537 28.854C79.0991 28.6487 78.7164 28.546 78.3057 28.546C77.9044 28.546 77.5217 28.6487 77.1577 28.854C76.8031 29.0593 76.5137 29.358 76.2897 29.75C76.0751 30.142 75.9677 30.604 75.9677 31.136C75.9677 31.668 76.0751 32.1347 76.2897 32.536C76.5137 32.928 76.8031 33.2267 77.1577 33.432C77.5217 33.6373 77.9044 33.74 78.3057 33.74C78.7164 33.74 79.0991 33.6373 79.4537 33.432C79.8177 33.2173 80.1071 32.9093 80.3217 32.508C80.5457 32.1067 80.6577 31.64 80.6577 31.108ZM86.016 28.42C86.2867 28.0653 86.6553 27.7667 87.122 27.524C87.5887 27.2813 88.116 27.16 88.704 27.16C89.376 27.16 89.9873 27.328 90.538 27.664C91.098 27.9907 91.5367 28.4527 91.854 29.05C92.1713 29.6473 92.33 30.3333 92.33 31.108C92.33 31.8827 92.1713 32.578 91.854 33.194C91.5367 33.8007 91.098 34.2767 90.538 34.622C89.9873 34.958 89.376 35.126 88.704 35.126C88.116 35.126 87.5933 35.0093 87.136 34.776C86.6787 34.5333 86.3053 34.2347 86.016 33.88V38.668H84.42V27.286H86.016V28.42ZM90.706 31.108C90.706 30.576 90.594 30.1187 90.37 29.736C90.1553 29.344 89.866 29.05 89.502 28.854C89.1473 28.6487 88.7647 28.546 88.354 28.546C87.9527 28.546 87.57 28.6487 87.206 28.854C86.8513 29.0593 86.562 29.358 86.338 29.75C86.1233 30.142 86.016 30.604 86.016 31.136C86.016 31.668 86.1233 32.1347 86.338 32.536C86.562 32.928 86.8513 33.2267 87.206 33.432C87.57 33.6373 87.9527 33.74 88.354 33.74C88.7647 33.74 89.1473 33.6373 89.502 33.432C89.866 33.2173 90.1553 32.9093 90.37 32.508C90.594 32.1067 90.706 31.64 90.706 31.108ZM101.871 35.098C101.218 35.098 100.63 34.986 100.107 34.762C99.5843 34.5287 99.1737 34.202 98.875 33.782C98.5763 33.362 98.427 32.872 98.427 32.312H100.135C100.172 32.732 100.336 33.0773 100.625 33.348C100.924 33.6187 101.339 33.754 101.871 33.754C102.422 33.754 102.851 33.6233 103.159 33.362C103.467 33.0913 103.621 32.746 103.621 32.326C103.621 31.9993 103.523 31.7333 103.327 31.528C103.14 31.3227 102.902 31.164 102.613 31.052C102.333 30.94 101.941 30.8187 101.437 30.688C100.802 30.52 100.284 30.352 99.883 30.184C99.491 30.0067 99.155 29.736 98.875 29.372C98.595 29.008 98.455 28.5227 98.455 27.916C98.455 27.356 98.595 26.866 98.875 26.446C99.155 26.026 99.547 25.704 100.051 25.48C100.555 25.256 101.138 25.144 101.801 25.144C102.744 25.144 103.514 25.382 104.111 25.858C104.718 26.3247 105.054 26.9687 105.119 27.79H103.355C103.327 27.4353 103.159 27.132 102.851 26.88C102.543 26.628 102.137 26.502 101.633 26.502C101.176 26.502 100.802 26.6187 100.513 26.852C100.224 27.0853 100.079 27.4213 100.079 27.86C100.079 28.1587 100.168 28.406 100.345 28.602C100.532 28.7887 100.765 28.938 101.045 29.05C101.325 29.162 101.708 29.2833 102.193 29.414C102.837 29.5913 103.36 29.7687 103.761 29.946C104.172 30.1233 104.517 30.3987 104.797 30.772C105.086 31.136 105.231 31.626 105.231 32.242C105.231 32.7367 105.096 33.2033 104.825 33.642C104.564 34.0807 104.176 34.4353 103.663 34.706C103.159 34.9673 102.562 35.098 101.871 35.098ZM109.536 28.588V32.858C109.536 33.1473 109.602 33.3573 109.732 33.488C109.872 33.6093 110.106 33.67 110.432 33.67H111.412V35H110.152C109.434 35 108.883 34.832 108.5 34.496C108.118 34.16 107.926 33.614 107.926 32.858V28.588H107.016V27.286H107.926V25.368H109.536V27.286H111.412V28.588H109.536ZM116.789 35.126C116.061 35.126 115.403 34.9627 114.815 34.636C114.227 34.3 113.765 33.8333 113.429 33.236C113.093 32.6293 112.925 31.9293 112.925 31.136C112.925 30.352 113.098 29.6567 113.443 29.05C113.789 28.4433 114.26 27.9767 114.857 27.65C115.455 27.3233 116.122 27.16 116.859 27.16C117.597 27.16 118.264 27.3233 118.861 27.65C119.459 27.9767 119.93 28.4433 120.275 29.05C120.621 29.6567 120.793 30.352 120.793 31.136C120.793 31.92 120.616 32.6153 120.261 33.222C119.907 33.8287 119.421 34.3 118.805 34.636C118.199 34.9627 117.527 35.126 116.789 35.126ZM116.789 33.74C117.2 33.74 117.583 33.642 117.937 33.446C118.301 33.25 118.595 32.956 118.819 32.564C119.043 32.172 119.155 31.696 119.155 31.136C119.155 30.576 119.048 30.1047 118.833 29.722C118.619 29.33 118.334 29.036 117.979 28.84C117.625 28.644 117.242 28.546 116.831 28.546C116.421 28.546 116.038 28.644 115.683 28.84C115.338 29.036 115.063 29.33 114.857 29.722C114.652 30.1047 114.549 30.576 114.549 31.136C114.549 31.9667 114.759 32.6107 115.179 33.068C115.609 33.516 116.145 33.74 116.789 33.74ZM124.527 28.406C124.76 28.014 125.068 27.7107 125.451 27.496C125.843 27.272 126.305 27.16 126.837 27.16V28.812H126.431C125.806 28.812 125.33 28.9707 125.003 29.288C124.686 29.6053 124.527 30.156 124.527 30.94V35H122.931V27.286H124.527V28.406ZM135.934 30.954C135.934 31.2433 135.915 31.5047 135.878 31.738H129.984C130.031 32.354 130.259 32.8487 130.67 33.222C131.081 33.5953 131.585 33.782 132.182 33.782C133.041 33.782 133.647 33.4227 134.002 32.704H135.724C135.491 33.4133 135.066 33.9967 134.45 34.454C133.843 34.902 133.087 35.126 132.182 35.126C131.445 35.126 130.782 34.9627 130.194 34.636C129.615 34.3 129.158 33.8333 128.822 33.236C128.495 32.6293 128.332 31.9293 128.332 31.136C128.332 30.3427 128.491 29.6473 128.808 29.05C129.135 28.4433 129.587 27.9767 130.166 27.65C130.754 27.3233 131.426 27.16 132.182 27.16C132.91 27.16 133.559 27.3187 134.128 27.636C134.697 27.9533 135.141 28.4013 135.458 28.98C135.775 29.5493 135.934 30.2073 135.934 30.954ZM134.268 30.45C134.259 29.862 134.049 29.3907 133.638 29.036C133.227 28.6813 132.719 28.504 132.112 28.504C131.561 28.504 131.09 28.6813 130.698 29.036C130.306 29.3813 130.073 29.8527 129.998 30.45H134.268Z" fill="white"/>
<path d="M65.646 12.727C66.33 12.727 66.921 12.856 67.419 13.114C67.923 13.366 68.307 13.729 68.571 14.203C68.841 14.677 68.976 15.235 68.976 15.877C68.976 16.519 68.841 17.077 68.571 17.551C68.307 18.019 67.923 18.379 67.419 18.631C66.921 18.877 66.33 19 65.646 19H63.693V12.727H65.646ZM65.646 18.325C66.456 18.325 67.074 18.112 67.5 17.686C67.926 17.254 68.139 16.651 68.139 15.877C68.139 15.097 67.923 14.488 67.491 14.05C67.065 13.612 66.45 13.393 65.646 13.393H64.512V18.325H65.646ZM72.2073 19.081C71.7453 19.081 71.3253 18.976 70.9473 18.766C70.5753 18.556 70.2813 18.259 70.0653 17.875C69.8553 17.485 69.7503 17.035 69.7503 16.525C69.7503 16.021 69.8583 15.577 70.0743 15.193C70.2963 14.803 70.5963 14.506 70.9743 14.302C71.3523 14.092 71.7753 13.987 72.2433 13.987C72.7113 13.987 73.1343 14.092 73.5123 14.302C73.8903 14.506 74.1873 14.8 74.4033 15.184C74.6253 15.568 74.7363 16.015 74.7363 16.525C74.7363 17.035 74.6223 17.485 74.3943 17.875C74.1723 18.259 73.8693 18.556 73.4853 18.766C73.1013 18.976 72.6753 19.081 72.2073 19.081ZM72.2073 18.361C72.5013 18.361 72.7773 18.292 73.0353 18.154C73.2933 18.016 73.5003 17.809 73.6563 17.533C73.8183 17.257 73.8993 16.921 73.8993 16.525C73.8993 16.129 73.8213 15.793 73.6653 15.517C73.5093 15.241 73.3053 15.037 73.0533 14.905C72.8013 14.767 72.5283 14.698 72.2343 14.698C71.9343 14.698 71.6583 14.767 71.4063 14.905C71.1603 15.037 70.9623 15.241 70.8123 15.517C70.6623 15.793 70.5873 16.129 70.5873 16.525C70.5873 16.927 70.6593 17.266 70.8033 17.542C70.9533 17.818 71.1513 18.025 71.3973 18.163C71.6433 18.295 71.9133 18.361 72.2073 18.361ZM82.3831 14.068L80.8441 19H79.9981L78.8101 15.085L77.6221 19H76.7761L75.2281 14.068H76.0651L77.1991 18.208L78.4231 14.068H79.2601L80.4571 18.217L81.5731 14.068H82.3831ZM85.5989 13.978C86.1989 13.978 86.6849 14.161 87.0569 14.527C87.4289 14.887 87.6149 15.409 87.6149 16.093V19H86.8049V16.21C86.8049 15.718 86.6819 15.343 86.4359 15.085C86.1899 14.821 85.8539 14.689 85.4279 14.689C84.9959 14.689 84.6509 14.824 84.3929 15.094C84.1409 15.364 84.0149 15.757 84.0149 16.273V19H83.1959V14.068H84.0149V14.77C84.1769 14.518 84.3959 14.323 84.6719 14.185C84.9539 14.047 85.2629 13.978 85.5989 13.978ZM89.7718 12.34V19H88.9528V12.34H89.7718ZM93.3186 19.081C92.8566 19.081 92.4366 18.976 92.0586 18.766C91.6866 18.556 91.3926 18.259 91.1766 17.875C90.9666 17.485 90.8616 17.035 90.8616 16.525C90.8616 16.021 90.9696 15.577 91.1856 15.193C91.4076 14.803 91.7076 14.506 92.0856 14.302C92.4636 14.092 92.8866 13.987 93.3546 13.987C93.8226 13.987 94.2456 14.092 94.6236 14.302C95.0016 14.506 95.2986 14.8 95.5146 15.184C95.7366 15.568 95.8476 16.015 95.8476 16.525C95.8476 17.035 95.7336 17.485 95.5056 17.875C95.2836 18.259 94.9806 18.556 94.5966 18.766C94.2126 18.976 93.7866 19.081 93.3186 19.081ZM93.3186 18.361C93.6126 18.361 93.8886 18.292 94.1466 18.154C94.4046 18.016 94.6116 17.809 94.7676 17.533C94.9296 17.257 95.0106 16.921 95.0106 16.525C95.0106 16.129 94.9326 15.793 94.7766 15.517C94.6206 15.241 94.4166 15.037 94.1646 14.905C93.9126 14.767 93.6396 14.698 93.3456 14.698C93.0456 14.698 92.7696 14.767 92.5176 14.905C92.2716 15.037 92.0736 15.241 91.9236 15.517C91.7736 15.793 91.6986 16.129 91.6986 16.525C91.6986 16.927 91.7706 17.266 91.9146 17.542C92.0646 17.818 92.2626 18.025 92.5086 18.163C92.7546 18.295 93.0246 18.361 93.3186 18.361ZM96.6184 16.516C96.6184 16.012 96.7204 15.571 96.9244 15.193C97.1284 14.809 97.4074 14.512 97.7614 14.302C98.1214 14.092 98.5204 13.987 98.9584 13.987C99.3904 13.987 99.7654 14.08 100.083 14.266C100.401 14.452 100.638 14.686 100.794 14.968V14.068H101.622V19H100.794V18.082C100.632 18.37 100.389 18.61 100.065 18.802C99.7474 18.988 99.3754 19.081 98.9494 19.081C98.5114 19.081 98.1154 18.973 97.7614 18.757C97.4074 18.541 97.1284 18.238 96.9244 17.848C96.7204 17.458 96.6184 17.014 96.6184 16.516ZM100.794 16.525C100.794 16.153 100.719 15.829 100.569 15.553C100.419 15.277 100.215 15.067 99.9574 14.923C99.7054 14.773 99.4264 14.698 99.1204 14.698C98.8144 14.698 98.5354 14.77 98.2834 14.914C98.0314 15.058 97.8304 15.268 97.6804 15.544C97.5304 15.82 97.4554 16.144 97.4554 16.516C97.4554 16.894 97.5304 17.224 97.6804 17.506C97.8304 17.782 98.0314 17.995 98.2834 18.145C98.5354 18.289 98.8144 18.361 99.1204 18.361C99.4264 18.361 99.7054 18.289 99.9574 18.145C100.215 17.995 100.419 17.782 100.569 17.506C100.719 17.224 100.794 16.897 100.794 16.525ZM102.7 16.516C102.7 16.012 102.802 15.571 103.006 15.193C103.21 14.809 103.489 14.512 103.843 14.302C104.203 14.092 104.605 13.987 105.049 13.987C105.433 13.987 105.79 14.077 106.12 14.257C106.45 14.431 106.702 14.662 106.876 14.95V12.34H107.704V19H106.876V18.073C106.714 18.367 106.474 18.61 106.156 18.802C105.838 18.988 105.466 19.081 105.04 19.081C104.602 19.081 104.203 18.973 103.843 18.757C103.489 18.541 103.21 18.238 103.006 17.848C102.802 17.458 102.7 17.014 102.7 16.516ZM106.876 16.525C106.876 16.153 106.801 15.829 106.651 15.553C106.501 15.277 106.297 15.067 106.039 14.923C105.787 14.773 105.508 14.698 105.202 14.698C104.896 14.698 104.617 14.77 104.365 14.914C104.113 15.058 103.912 15.268 103.762 15.544C103.612 15.82 103.537 16.144 103.537 16.516C103.537 16.894 103.612 17.224 103.762 17.506C103.912 17.782 104.113 17.995 104.365 18.145C104.617 18.289 104.896 18.361 105.202 18.361C105.508 18.361 105.787 18.289 106.039 18.145C106.297 17.995 106.501 17.782 106.651 17.506C106.801 17.224 106.876 16.897 106.876 16.525ZM113.639 19.081C113.177 19.081 112.757 18.976 112.379 18.766C112.007 18.556 111.713 18.259 111.497 17.875C111.287 17.485 111.182 17.035 111.182 16.525C111.182 16.021 111.29 15.577 111.506 15.193C111.728 14.803 112.028 14.506 112.406 14.302C112.784 14.092 113.207 13.987 113.675 13.987C114.143 13.987 114.566 14.092 114.944 14.302C115.322 14.506 115.619 14.8 115.835 15.184C116.057 15.568 116.168 16.015 116.168 16.525C116.168 17.035 116.054 17.485 115.826 17.875C115.604 18.259 115.301 18.556 114.917 18.766C114.533 18.976 114.107 19.081 113.639 19.081ZM113.639 18.361C113.933 18.361 114.209 18.292 114.467 18.154C114.725 18.016 114.932 17.809 115.088 17.533C115.25 17.257 115.331 16.921 115.331 16.525C115.331 16.129 115.253 15.793 115.097 15.517C114.941 15.241 114.737 15.037 114.485 14.905C114.233 14.767 113.96 14.698 113.666 14.698C113.366 14.698 113.09 14.767 112.838 14.905C112.592 15.037 112.394 15.241 112.244 15.517C112.094 15.793 112.019 16.129 112.019 16.525C112.019 16.927 112.091 17.266 112.235 17.542C112.385 17.818 112.583 18.025 112.829 18.163C113.075 18.295 113.345 18.361 113.639 18.361ZM119.648 13.978C120.248 13.978 120.734 14.161 121.106 14.527C121.478 14.887 121.664 15.409 121.664 16.093V19H120.854V16.21C120.854 15.718 120.731 15.343 120.485 15.085C120.239 14.821 119.903 14.689 119.477 14.689C119.045 14.689 118.7 14.824 118.442 15.094C118.19 15.364 118.064 15.757 118.064 16.273V19H117.245V14.068H118.064V14.77C118.226 14.518 118.445 14.323 118.721 14.185C119.003 14.047 119.312 13.978 119.648 13.978ZM126.4 14.743V17.65C126.4 17.89 126.451 18.061 126.553 18.163C126.655 18.259 126.832 18.307 127.084 18.307H127.687V19H126.949C126.493 19 126.151 18.895 125.923 18.685C125.695 18.475 125.581 18.13 125.581 17.65V14.743H124.942V14.068H125.581V12.826H126.4V14.068H127.687V14.743H126.4ZM131.127 13.978C131.499 13.978 131.835 14.059 132.135 14.221C132.435 14.377 132.669 14.614 132.837 14.932C133.011 15.25 133.098 15.637 133.098 16.093V19H132.288V16.21C132.288 15.718 132.165 15.343 131.919 15.085C131.673 14.821 131.337 14.689 130.911 14.689C130.479 14.689 130.134 14.824 129.876 15.094C129.624 15.364 129.498 15.757 129.498 16.273V19H128.679V12.34H129.498V14.77C129.66 14.518 129.882 14.323 130.164 14.185C130.452 14.047 130.773 13.978 131.127 13.978ZM138.936 16.345C138.936 16.501 138.927 16.666 138.909 16.84H134.967C134.997 17.326 135.162 17.707 135.462 17.983C135.768 18.253 136.137 18.388 136.569 18.388C136.923 18.388 137.217 18.307 137.451 18.145C137.691 17.977 137.859 17.755 137.955 17.479H138.837C138.705 17.953 138.441 18.34 138.045 18.64C137.649 18.934 137.157 19.081 136.569 19.081C136.101 19.081 135.681 18.976 135.309 18.766C134.943 18.556 134.655 18.259 134.445 17.875C134.235 17.485 134.13 17.035 134.13 16.525C134.13 16.015 134.232 15.568 134.436 15.184C134.64 14.8 134.925 14.506 135.291 14.302C135.663 14.092 136.089 13.987 136.569 13.987C137.037 13.987 137.451 14.089 137.811 14.293C138.171 14.497 138.447 14.779 138.639 15.139C138.837 15.493 138.936 15.895 138.936 16.345ZM138.09 16.174C138.09 15.862 138.021 15.595 137.883 15.373C137.745 15.145 137.556 14.974 137.316 14.86C137.082 14.74 136.821 14.68 136.533 14.68C136.119 14.68 135.765 14.812 135.471 15.076C135.183 15.34 135.018 15.706 134.976 16.174H138.09Z" fill="white"/>
</svg>
