<svg width="14" height="14" viewBox="0 0 14 14" fill="none" xmlns="http://www.w3.org/2000/svg">
<g clip-path="url(#clip0)">
<path d="M3.11132 6.45372L9.3415 0.223657C9.4856 0.0794465 9.67795 0 9.88306 0C10.0882 0 10.2805 0.0794465 10.4246 0.223657L10.8834 0.682352C11.182 0.981244 11.182 1.46703 10.8834 1.76547L5.65179 6.9971L10.8892 12.2345C11.0333 12.3787 11.1129 12.571 11.1129 12.776C11.1129 12.9812 11.0333 13.1734 10.8892 13.3178L10.4304 13.7763C10.2862 13.9206 10.094 14 9.88886 14C9.68376 14 9.4914 13.9206 9.34731 13.7763L3.11132 7.54059C2.96689 7.39592 2.88755 7.20277 2.88801 6.99744C2.88755 6.79131 2.96689 6.59827 3.11132 6.45372Z" fill="#4A3A2F"/>
</g>
<defs>
<clipPath id="clip0">
<rect width="14" height="14" fill="white" transform="matrix(-1 0 0 1 14 0)"/>
</clipPath>
</defs>
</svg>
