<svg width="14" height="13" viewBox="0 0 14 13" fill="none" xmlns="http://www.w3.org/2000/svg">
<path d="M10.0933 13C9.67367 13 9.25759 12.9258 8.85072 12.778C7.05826 12.1269 5.39448 11.0663 4.03918 9.71108C2.68388 8.3558 1.62336 6.692 0.97224 4.89954C0.763004 4.3235 0.701256 3.72887 0.788775 3.13212C0.870758 2.57314 1.08728 2.03049 1.41496 1.56281C1.74408 1.09307 2.18287 0.702379 2.68386 0.432969C3.21811 0.145686 3.80123 0 4.41708 0C4.60862 0 4.77416 0.133829 4.8143 0.321103L5.45194 3.29674C5.4808 3.43148 5.43939 3.57169 5.34197 3.66913L4.25243 4.75865C5.28025 6.80216 6.94805 8.46996 8.99156 9.49778L10.0811 8.40823C10.1785 8.31081 10.3187 8.26945 10.4535 8.29827L13.4291 8.93591C13.6164 8.97605 13.7502 9.14159 13.7502 9.33313C13.7502 9.94898 13.6045 10.5321 13.3172 11.0664C13.0478 11.5674 12.6571 12.0061 12.1874 12.3353C11.7197 12.663 11.1771 12.8795 10.6181 12.9615C10.4429 12.9872 10.2678 13 10.0933 13ZM4.0925 0.830241C3.28016 0.919917 2.55914 1.3457 2.08035 2.02906C1.54193 2.79748 1.41638 3.74261 1.73588 4.62216C2.98769 8.06819 5.68207 10.7626 9.1281 12.0144C10.0076 12.3339 10.9528 12.2084 11.7212 11.6699C12.4046 11.1911 12.8303 10.4701 12.92 9.65776L10.4993 9.13905L9.36148 10.2769C9.2404 10.398 9.05643 10.4302 8.9015 10.3573C6.48466 9.22192 4.52834 7.2656 3.39291 4.84876C3.32012 4.69381 3.35226 4.50983 3.47335 4.38878L4.61121 3.25091L4.0925 0.830241Z" fill="#989595"/>
<path d="M13.3442 6.90598C13.1199 6.90598 12.938 6.72409 12.938 6.49975C12.938 3.36377 10.3867 0.812468 7.25072 0.812468C7.02637 0.812468 6.84448 0.630577 6.84448 0.406234C6.84448 0.181891 7.02637 0 7.25072 0C8.98688 0 10.6191 0.676075 11.8467 1.90371C13.0744 3.13135 13.7505 4.76358 13.7505 6.49975C13.7505 6.72409 13.5686 6.90598 13.3442 6.90598Z" fill="#989595"/>
<path d="M11.7193 6.90604C11.4949 6.90604 11.3131 6.72415 11.3131 6.49981C11.3131 4.25983 9.49069 2.43747 7.25072 2.43747C7.02637 2.43747 6.84448 2.25558 6.84448 2.03123C6.84448 1.80689 7.02637 1.625 7.25072 1.625C9.93869 1.625 12.1255 3.81183 12.1255 6.49981C12.1255 6.72415 11.9437 6.90604 11.7193 6.90604Z" fill="#989595"/>
<path d="M10.0944 6.90611C9.87001 6.90611 9.68812 6.72422 9.68812 6.49987C9.68812 5.15587 8.59472 4.06247 7.25072 4.06247C7.02637 4.06247 6.84448 3.88058 6.84448 3.65623C6.84448 3.43189 7.02637 3.25 7.25072 3.25C9.04272 3.25 10.5006 4.70787 10.5006 6.49987C10.5006 6.72422 10.3187 6.90611 10.0944 6.90611Z" fill="#989595"/>
</svg>
