<svg width="28" height="28" viewBox="0 0 28 28" fill="none" xmlns="http://www.w3.org/2000/svg">
<path d="M16.5652 13.9999L27.4679 3.09695C28.1774 2.38776 28.1774 1.24109 27.4679 0.531895C26.7587 -0.177298 25.612 -0.177298 24.9028 0.531895L13.9998 11.4349L3.0972 0.531895C2.38767 -0.177298 1.24134 -0.177298 0.532144 0.531895C-0.177381 1.24109 -0.177381 2.38776 0.532144 3.09695L11.4348 13.9999L0.532144 24.9029C-0.177381 25.6121 -0.177381 26.7588 0.532144 27.468C0.885578 27.8217 1.35029 27.9994 1.81467 27.9994C2.27905 27.9994 2.74343 27.8217 3.0972 27.468L13.9998 16.565L24.9028 27.468C25.2566 27.8217 25.721 27.9994 26.1853 27.9994C26.6497 27.9994 27.1141 27.8217 27.4679 27.468C28.1774 26.7588 28.1774 25.6121 27.4679 24.9029L16.5652 13.9999Z" fill="black"/>
</svg>
