<svg width="31" height="31" viewBox="0 0 31 31" fill="none" xmlns="http://www.w3.org/2000/svg">
<g clip-path="url(#clip0)">
<path d="M27.1641 2.67204H25.736V0.291992H23.356V2.67204H7.64767V0.291992H5.26763V2.67204H3.8396C1.87106 2.67204 0.269531 4.27357 0.269531 6.24211V27.1865C0.269531 29.155 1.87106 30.7566 3.8396 30.7566H27.1641C29.1326 30.7566 30.7341 29.155 30.7341 27.1865V6.24211C30.7341 4.27357 29.1326 2.67204 27.1641 2.67204ZM28.3541 27.1865C28.3541 27.8427 27.8202 28.3765 27.1641 28.3765H3.8396C3.18342 28.3765 2.64958 27.8427 2.64958 27.1865V11.4782H28.3541V27.1865ZM28.3541 9.09816H2.64958V6.24211C2.64958 5.58593 3.18342 5.05208 3.8396 5.05208H5.26763V7.43213H7.64767V5.05208H23.356V7.43213H25.736V5.05208H27.1641C27.8202 5.05208 28.3541 5.58593 28.3541 6.24211V9.09816Z" fill="white"/>
<path d="M7.17106 13.9771H4.79102V16.3571H7.17106V13.9771Z" fill="white"/>
<path d="M11.9318 13.9771H9.55176V16.3571H11.9318V13.9771Z" fill="white"/>
<path d="M16.6916 13.9771H14.3115V16.3571H16.6916V13.9771Z" fill="white"/>
<path d="M21.4513 13.9771H19.0713V16.3571H21.4513V13.9771Z" fill="white"/>
<path d="M26.2121 13.9771H23.832V16.3571H26.2121V13.9771Z" fill="white"/>
<path d="M7.17106 18.7373H4.79102V21.1174H7.17106V18.7373Z" fill="white"/>
<path d="M11.9318 18.7373H9.55176V21.1174H11.9318V18.7373Z" fill="white"/>
<path d="M16.6916 18.7373H14.3115V21.1174H16.6916V18.7373Z" fill="white"/>
<path d="M21.4513 18.7373H19.0713V21.1174H21.4513V18.7373Z" fill="white"/>
<path d="M7.17106 23.4976H4.79102V25.8776H7.17106V23.4976Z" fill="white"/>
<path d="M11.9318 23.4976H9.55176V25.8776H11.9318V23.4976Z" fill="white"/>
<path d="M16.6916 23.4976H14.3115V25.8776H16.6916V23.4976Z" fill="white"/>
<path d="M21.4513 23.4976H19.0713V25.8776H21.4513V23.4976Z" fill="white"/>
<path d="M26.2121 18.7373H23.832V21.1174H26.2121V18.7373Z" fill="white"/>
</g>
<defs>
<clipPath id="clip0">
<rect width="30.4646" height="30.4646" fill="white" transform="translate(0.269531 0.291992)"/>
</clipPath>
</defs>
</svg>
