<svg width="13" height="7" viewBox="0 0 13 7" fill="none" xmlns="http://www.w3.org/2000/svg">
<path d="M12.4922 0.579186L12.1079 0.192204C11.9869 0.0713492 11.826 0.00476943 11.654 0.00476943C11.4821 0.00476943 11.321 0.0713492 11.2001 0.192204L6.81611 4.57635L2.42709 0.187339C2.30633 0.0664844 2.14522 0 1.97334 0C1.80145 0 1.64025 0.0664844 1.51939 0.187339L1.13499 0.571937C0.884692 0.82204 0.884692 1.22944 1.13499 1.47954L6.36064 6.72398C6.4814 6.84474 6.64231 6.92982 6.81572 6.92982H6.81773C6.98971 6.92982 7.15063 6.84464 7.27139 6.72398L12.4922 1.49375C12.6131 1.37299 12.6795 1.20721 12.6797 1.03532C12.6797 0.863343 12.6131 0.69985 12.4922 0.579186Z" fill="#6D6969"/>
</svg>
