<svg width="19" height="12" viewBox="0 0 19 12" fill="none" xmlns="http://www.w3.org/2000/svg">
<path d="M9.91911 7.75025L3.12168 0.953119C2.93497 0.76596 2.68532 0.663 2.41913 0.663C2.1528 0.663 1.9033 0.76596 1.71629 0.953119L1.12098 1.54872C0.933674 1.73559 0.830566 1.98538 0.830566 2.25157C0.830566 2.51776 0.933674 2.76725 1.12098 2.95426L9.2139 11.0473C9.4015 11.2351 9.65218 11.3379 9.91867 11.3372C10.1863 11.3379 10.4367 11.2352 10.6245 11.0473L18.7096 2.9618C18.8969 2.77479 19 2.52529 19 2.25895C19 1.99276 18.8969 1.74327 18.7096 1.55611L18.1142 0.960653C17.7268 0.573186 17.096 0.573186 16.7087 0.960653L9.91911 7.75025Z" fill="#6C6B6B" fill-opacity="0.39"/>
</svg>
