<svg width="500" height="109" viewBox="0 0 500 109" fill="none" xmlns="http://www.w3.org/2000/svg">
<path fill-rule="evenodd" clip-rule="evenodd" d="M17.3425 109H0.953857C1.00503 108.955 1.05672 108.909 1.10893 108.863C3.62151 106.645 7.33667 103.638 12.2429 100.381C22.0555 93.866 36.6562 86.332 55.9315 82.1155C82.4343 76.3181 106.562 79.9444 129.782 83.488L130.218 83.5546C153.467 87.1029 175.823 90.515 200.316 85.5978C220.66 81.5137 232.907 72.3354 245.854 62.6323L246.44 62.1931C259.695 52.2621 273.749 41.9256 297.133 38.0667C328.566 32.8798 353.048 36.9105 374.551 41.5418C377.512 42.1796 380.4 42.8231 383.228 43.4534C401.121 47.4413 416.634 50.8986 433.448 49.0306C451.665 47.0066 468.039 35.3174 480.171 23.5104C486.17 17.6728 490.977 11.9574 494.283 7.70216C495.933 5.57772 497.203 3.82561 498.053 2.61526C498.477 2.01031 498.797 1.54136 499.006 1.22967C499.111 1.07384 499.188 0.957386 499.237 0.88296L499.29 0.803204L499.3 0.787609L499.3 0.786743C499.3 0.787189 499.3 0.787688 500 1.24025V16.5815C496.671 20.6825 492.332 25.6293 487.146 30.6769C474.467 43.0157 456.09 56.5765 434.552 58.9695C415.954 61.0357 398.659 57.1632 380.867 53.1793L380.866 53.1791C378.074 52.5539 375.269 51.9258 372.445 51.3176C351.432 46.7918 328.381 43.0456 298.762 47.9333C277.92 51.3725 265.516 60.3964 252.436 70.196L251.572 70.844C238.656 80.5274 224.861 90.8699 202.285 95.4022C176.049 100.669 152.186 97.025 129.318 93.533L128.274 93.3736C104.903 89.8069 82.5202 86.5358 58.0685 91.8845C40.2064 95.7918 26.7421 102.758 17.7741 108.712C17.6291 108.808 17.4852 108.904 17.3425 109Z" fill="white"/>
</svg>
