<svg width="206" height="33" viewBox="0 0 206 33" fill="none" xmlns="http://www.w3.org/2000/svg">
<rect x="180.5" y="7.5" width="25" height="25" rx="4.5" fill="#E7E7E7" stroke="#E7E7E7"/>
<path d="M192.736 20.64H191.224V22.192H190.168V20.64H188.656V19.664H190.168V18.112H191.224V19.664H192.736V20.64ZM193.767 21.864V20.984L196.383 17.24H197.687V20.888H198.391V21.864H197.687V23H196.567V21.864H193.767ZM196.639 18.44L194.999 20.888H196.639V18.44Z" fill="#3E432F"/>
<rect x="0.5" y="7.5" width="25" height="25" rx="4.5" fill="#E7E7E7" stroke="#E7E7E7"/>
<path d="M20.7656 21.9062H16.0781V21.4375H16.3125C16.4419 21.4375 16.5469 21.3326 16.5469 21.2031C16.5469 21.0737 16.4419 20.9688 16.3125 20.9688H16.0781V20.7344C16.0781 20.2166 16.4979 19.7969 17.0156 19.7969C17.5334 19.7969 17.9531 20.2166 17.9531 20.7344C17.9531 20.8638 18.0581 20.9688 18.1875 20.9688C18.3169 20.9688 18.4219 20.8638 18.4219 20.7344C18.4219 19.9577 17.7923 19.3281 17.0156 19.3281C16.239 19.3281 15.6094 19.9577 15.6094 20.7344V21.9062H11.6766C11.7936 21.7781 11.8588 21.611 11.8594 21.4375V20.0312C11.8594 19.9018 11.7544 19.7969 11.625 19.7969H8.10938C7.97994 19.7969 7.875 19.9018 7.875 20.0312V21.4375C7.87562 21.611 7.94077 21.7781 8.05781 21.9062H6.23438C6.10494 21.9062 6 22.0112 6 22.1406V27.7656C6 27.8951 6.10494 28 6.23438 28H20.7656C20.8951 28 21 27.8951 21 27.7656V22.1406C21 22.0112 20.8951 21.9062 20.7656 21.9062ZM8.34375 20.2656H11.3906V21.4375C11.3906 21.5669 11.2857 21.6719 11.1562 21.6719H8.57812C8.44869 21.6719 8.34375 21.5669 8.34375 21.4375V20.2656ZM9.75 27.5312H6.46875V24.7188H9.75V27.5312ZM9.75 24.25H6.46875V22.375H7.17188C7.17188 22.5044 7.27682 22.6094 7.40625 22.6094H8.8125C8.94193 22.6094 9.04688 22.5044 9.04688 22.375H9.75V24.25ZM16.7812 27.5312H10.2188V22.375H16.7812V27.5312ZM20.5312 27.5312H17.25V24.7188H20.5312V27.5312ZM20.5312 24.25H17.25V22.375H17.9531C17.9531 22.5044 18.0581 22.6094 18.1875 22.6094H19.5938C19.7232 22.6094 19.8281 22.5044 19.8281 22.375H20.5312V24.25Z" fill="#575957"/>
<path d="M10.6875 25.8906H16.3125C16.4419 25.8906 16.5469 25.7857 16.5469 25.6562V23.3125C16.5469 23.1831 16.4419 23.0781 16.3125 23.0781H10.6875C10.5581 23.0781 10.4531 23.1831 10.4531 23.3125V25.6562C10.4531 25.7857 10.5581 25.8906 10.6875 25.8906ZM10.9219 23.5469H16.0781V25.4219H10.9219V23.5469Z" fill="#575957"/>
<path d="M14.9062 26.5938H12.0938C11.9643 26.5938 11.8594 26.6987 11.8594 26.8281C11.8594 26.9576 11.9643 27.0625 12.0938 27.0625H14.9062C15.0357 27.0625 15.1406 26.9576 15.1406 26.8281C15.1406 26.6987 15.0357 26.5938 14.9062 26.5938Z" fill="#575957"/>
<path d="M8.57812 16.5156H18.4219C18.5513 16.5156 18.6562 16.4107 18.6562 16.2812V13.2344C18.6562 13.1049 18.5513 13 18.4219 13H8.57812C8.44869 13 8.34375 13.1049 8.34375 13.2344V16.2812C8.34375 16.4107 8.44869 16.5156 8.57812 16.5156ZM13.7344 13.4688H18.1875V16.0469H13.7344V13.4688ZM8.8125 13.4688H13.2656V16.0469H8.8125V13.4688Z" fill="#575957"/>
<path d="M11.8594 14.6406H9.98438C9.85494 14.6406 9.75 14.7456 9.75 14.875C9.75 15.0044 9.85494 15.1094 9.98438 15.1094H11.8594C11.9888 15.1094 12.0938 15.0044 12.0938 14.875C12.0938 14.7456 11.9888 14.6406 11.8594 14.6406Z" fill="#575957"/>
<path d="M17.0156 14.6406H15.1406C15.0112 14.6406 14.9062 14.7456 14.9062 14.875C14.9062 15.0044 15.0112 15.1094 15.1406 15.1094H17.0156C17.1451 15.1094 17.25 15.0044 17.25 14.875C17.25 14.7456 17.1451 14.6406 17.0156 14.6406Z" fill="#575957"/>
<path d="M8.67187 18.7891C8.47761 18.9009 8.35389 19.1042 8.34375 19.3281C8.34375 19.4576 8.44869 19.5625 8.57812 19.5625C8.70756 19.5625 8.8125 19.4576 8.8125 19.3281C8.8125 19.2787 8.83594 19.2527 8.95313 19.1641C9.14739 19.0522 9.27111 18.8489 9.28125 18.625C9.27111 18.4011 9.14739 18.1978 8.95313 18.0859C8.83477 17.9971 8.8125 17.9711 8.8125 17.9219C8.8125 17.8727 8.83594 17.8469 8.95313 17.7578C9.14739 17.646 9.27111 17.4427 9.28125 17.2188C9.28125 17.0893 9.17631 16.9844 9.04688 16.9844C8.91744 16.9844 8.8125 17.0893 8.8125 17.2188C8.8125 17.2677 8.78906 17.2938 8.67187 17.3828C8.47761 17.4947 8.35389 17.6979 8.34375 17.9219C8.35389 18.1458 8.47761 18.3491 8.67187 18.4609C8.78906 18.5498 8.8125 18.5758 8.8125 18.625C8.8125 18.6742 8.78906 18.7 8.67187 18.7891Z" fill="#575957"/>
<path d="M10.125 17.7578C10.3193 17.646 10.443 17.4427 10.4531 17.2188C10.4531 17.0893 10.3482 16.9844 10.2188 16.9844C10.0893 16.9844 9.98438 17.0893 9.98438 17.2188C9.98438 17.2677 9.96094 17.2938 9.84375 17.3828C9.64948 17.4947 9.52576 17.6979 9.51562 17.9219C9.52576 18.1458 9.64948 18.3491 9.84375 18.4609C9.96094 18.5498 9.98438 18.5758 9.98438 18.625C9.98438 18.6742 9.96094 18.7005 9.84375 18.7891C9.64948 18.9009 9.52576 19.1042 9.51562 19.3281C9.51562 19.4576 9.62057 19.5625 9.75 19.5625C9.87943 19.5625 9.98438 19.4576 9.98438 19.3281C9.98438 19.2787 10.0078 19.2527 10.125 19.1641C10.3193 19.0522 10.443 18.8489 10.4531 18.625C10.443 18.4011 10.3193 18.1978 10.125 18.0859C10.0078 17.9971 9.98438 17.9711 9.98438 17.9219C9.98438 17.8727 10.0078 17.8462 10.125 17.7578Z" fill="#575957"/>
<path d="M11.2969 17.7578C11.4911 17.646 11.6149 17.4427 11.625 17.2188C11.625 17.0893 11.5201 16.9844 11.3906 16.9844C11.2612 16.9844 11.1562 17.0893 11.1562 17.2188C11.1562 17.2677 11.1328 17.2938 11.0156 17.3828C10.8214 17.4947 10.6976 17.6979 10.6875 17.9219C10.6976 18.1458 10.8214 18.3491 11.0156 18.4609C11.1328 18.5498 11.1562 18.5758 11.1562 18.625C11.1562 18.6742 11.1328 18.7005 11.0156 18.7891C10.8214 18.9009 10.6976 19.1042 10.6875 19.3281C10.6875 19.4576 10.7924 19.5625 10.9219 19.5625C11.0513 19.5625 11.1562 19.4576 11.1562 19.3281C11.1562 19.2787 11.1797 19.2527 11.2969 19.1641C11.4911 19.0522 11.6149 18.8489 11.625 18.625C11.6149 18.4011 11.4911 18.1978 11.2969 18.0859C11.1797 17.9971 11.1562 17.9711 11.1562 17.9219C11.1562 17.8727 11.1797 17.8462 11.2969 17.7578Z" fill="#575957"/>
<circle cx="24.5" cy="7.5" r="6.5" fill="#3E432F"/>
<path d="M23.432 8.448C23.4853 8.752 23.608 8.98667 23.8 9.152C23.9973 9.31733 24.2613 9.4 24.592 9.4C25.0347 9.4 25.36 9.22667 25.568 8.88C25.7813 8.53333 25.8827 7.94933 25.872 7.128C25.76 7.368 25.5733 7.55733 25.312 7.696C25.0507 7.82933 24.76 7.896 24.44 7.896C24.0827 7.896 23.7627 7.824 23.48 7.68C23.2027 7.53067 22.984 7.31467 22.824 7.032C22.664 6.74933 22.584 6.408 22.584 6.008C22.584 5.43733 22.7493 4.97867 23.08 4.632C23.4107 4.28 23.88 4.104 24.488 4.104C25.2347 4.104 25.7573 4.34667 26.056 4.832C26.36 5.31733 26.512 6.04 26.512 7C26.512 7.672 26.4507 8.22667 26.328 8.664C26.2107 9.10133 26.008 9.43467 25.72 9.664C25.4373 9.89333 25.048 10.008 24.552 10.008C24.008 10.008 23.584 9.86133 23.28 9.568C22.976 9.27467 22.8027 8.90133 22.76 8.448H23.432ZM24.56 7.28C24.9173 7.28 25.2107 7.17067 25.44 6.952C25.6693 6.728 25.784 6.42667 25.784 6.048C25.784 5.648 25.672 5.32533 25.448 5.08C25.224 4.83467 24.9093 4.712 24.504 4.712C24.1307 4.712 23.832 4.82933 23.608 5.064C23.3893 5.29867 23.28 5.608 23.28 5.992C23.28 6.38133 23.3893 6.69333 23.608 6.928C23.8267 7.16267 24.144 7.28 24.56 7.28Z" fill="white"/>
<rect x="36.5" y="7.5" width="25" height="25" rx="4.5" fill="#FAF9F8" stroke="#E7E7E7"/>
<path d="M55.7581 13H43.6613C43.5274 13 43.4194 13.1084 43.4194 13.2419V22.2187C43.3407 22.2028 43.2599 22.1935 43.1774 22.1935C42.5104 22.1935 41.9677 22.7362 41.9677 23.4032V23.4083C41.7311 23.5863 41.57 23.8437 41.5105 24.129H41.2419C41.1081 24.129 41 24.2375 41 24.371V25.3387C41 25.4722 41.1081 25.5806 41.2419 25.5806H41.4839V26.3065C41.4839 27.2403 42.2438 28 43.1774 28H55.7581C55.8919 28 56 27.8916 56 27.7581V13.2419C56 13.1084 55.8919 13 55.7581 13ZM55.5161 13.4839V15.9032H43.9032V13.4839H55.5161ZM42.341 23.7412C42.4269 23.6928 42.4751 23.5972 42.4625 23.4993L42.4586 23.4712C42.4555 23.4489 42.4516 23.4267 42.4516 23.4032C42.4516 23.0031 42.7773 22.6774 43.1774 22.6774C43.4329 22.6774 43.665 22.8107 43.7982 23.0343C43.8345 23.0953 43.896 23.1373 43.9661 23.149C44.0365 23.1611 44.1082 23.141 44.1625 23.0948C44.2569 23.0147 44.4141 22.9194 44.629 22.9194C44.8879 22.9194 45.1291 23.0623 45.2586 23.2924C45.3089 23.3824 45.4114 23.4303 45.5121 23.4122C45.7646 23.3672 46.0234 23.5406 46.0714 23.7976C46.0887 23.8895 46.1573 23.9635 46.248 23.9873C46.3392 24.0115 46.4346 23.9802 46.4951 23.9084C46.6347 23.7412 46.8365 23.6452 47.0484 23.6452C47.3633 23.6452 47.6295 23.8481 47.7297 24.129H42.0162C42.0749 23.9688 42.1857 23.8285 42.341 23.7412ZM45.5968 21.4677C45.5968 19.1998 47.4418 17.3548 49.7097 17.3548C51.9776 17.3548 53.8226 19.1998 53.8226 21.4677C53.8226 23.7357 51.9776 25.5806 49.7097 25.5806C49.3683 25.5806 49.0344 25.5347 48.7093 25.4532C48.7284 25.4186 48.7419 25.3808 48.7419 25.3387V24.9656C49.0555 25.0522 49.3794 25.0968 49.7097 25.0968C51.7107 25.0968 53.3387 23.4688 53.3387 21.4677C53.3387 19.4667 51.7107 17.8387 49.7097 17.8387C47.7086 17.8387 46.0806 19.4667 46.0806 21.4677C46.0806 22.1055 46.2464 22.7208 46.5592 23.2673C46.505 23.2917 46.4523 23.3195 46.4022 23.352C46.2795 23.1671 46.0952 23.0304 45.8818 22.9641C45.6953 22.4875 45.5968 21.9855 45.5968 21.4677ZM47.0624 23.1627C46.8699 22.863 46.7298 22.5366 46.6487 22.1935H46.8065C47.0269 22.1935 47.2344 22.1077 47.3905 21.9516L47.5323 21.8101C47.6617 21.6806 47.8867 21.6806 48.0161 21.8101L48.1579 21.9516C48.4702 22.2635 49.0136 22.2637 49.326 21.9516L49.4677 21.8101C49.5972 21.6806 49.8221 21.6806 49.9516 21.8101L50.0934 21.9516C50.4057 22.2635 50.9491 22.2637 51.2615 21.9516L51.4032 21.8101C51.5327 21.6806 51.7576 21.6806 51.8871 21.8101L52.0289 21.9516C52.1851 22.1077 52.3925 22.1935 52.6129 22.1935H52.7671C52.4379 23.5784 51.1937 24.6129 49.7097 24.6129C49.3777 24.6129 49.0536 24.5587 48.7419 24.4578V24.371C48.7419 24.2375 48.6338 24.129 48.5 24.129H48.2336C48.1221 23.582 47.6401 23.1696 47.0624 23.1627ZM46.5645 21.4677C46.5645 19.7336 47.9755 18.3226 49.7097 18.3226C51.4439 18.3226 52.8548 19.7336 52.8548 21.4677C52.8548 21.5495 52.8488 21.6296 52.8426 21.7097H52.6129C52.5215 21.7097 52.4358 21.6741 52.371 21.6095L52.2292 21.4677C51.9169 21.1559 51.3735 21.1556 51.0611 21.4677L50.9194 21.6093C50.7899 21.7387 50.565 21.7387 50.4355 21.6093L50.2937 21.4677C49.9814 21.1559 49.438 21.1556 49.1256 21.4677L48.9839 21.6093C48.8544 21.7387 48.6295 21.7387 48.5 21.6093L48.3582 21.4677C48.0459 21.1559 47.5025 21.1556 47.1901 21.4677L47.0484 21.6093C46.9835 21.6741 46.8979 21.7097 46.8065 21.7097H46.5737C46.5677 21.6296 46.5645 21.5488 46.5645 21.4677ZM41.4839 24.6129H48.2581V25.0968H41.4839V24.6129ZM46.3226 27.5161H43.1774C42.5104 27.5161 41.9677 26.9734 41.9677 26.3065V25.5806H47.7742V26.3065C47.7742 26.9734 47.2315 27.5161 46.5645 27.5161H46.3226ZM47.7474 27.5161C48.0621 27.2084 48.2581 26.7802 48.2581 26.3065V25.8265C48.7246 25.9821 49.2108 26.0645 49.7097 26.0645C52.2444 26.0645 54.3065 24.0025 54.3065 21.4677C54.3065 18.933 52.2444 16.871 49.7097 16.871C47.1749 16.871 45.1129 18.933 45.1129 21.4677C45.1129 21.8614 45.1674 22.246 45.2643 22.6204C45.0762 22.5022 44.8571 22.4355 44.629 22.4355C44.4314 22.4355 44.2359 22.486 44.0609 22.5811C44.0129 22.5289 43.9589 22.4839 43.9032 22.4413V16.3871H55.5161V27.5161H47.7474Z" fill="#575957"/>
<path d="M45.1096 15.4184C45.5097 15.4184 45.8354 15.0927 45.8354 14.6926C45.8354 14.2925 45.5097 13.9668 45.1096 13.9668C44.7095 13.9668 44.3838 14.2925 44.3838 14.6926C44.3838 15.0927 44.7095 15.4184 45.1096 15.4184ZM45.1096 14.4507C45.2431 14.4507 45.3515 14.5593 45.3515 14.6926C45.3515 14.8259 45.2431 14.9345 45.1096 14.9345C44.9761 14.9345 44.8677 14.8259 44.8677 14.6926C44.8677 14.5593 44.9761 14.4507 45.1096 14.4507Z" fill="#575957"/>
<path d="M47.0508 15.4184C47.4509 15.4184 47.7766 15.0927 47.7766 14.6926C47.7766 14.2925 47.4509 13.9668 47.0508 13.9668C46.6506 13.9668 46.325 14.2925 46.325 14.6926C46.325 15.0927 46.6506 15.4184 47.0508 15.4184ZM47.0508 14.4507C47.1842 14.4507 47.2927 14.5593 47.2927 14.6926C47.2927 14.8259 47.1842 14.9345 47.0508 14.9345C46.9173 14.9345 46.8088 14.8259 46.8088 14.6926C46.8088 14.5593 46.9173 14.4507 47.0508 14.4507Z" fill="#575957"/>
<path d="M48.9844 15.4184C49.3845 15.4184 49.7102 15.0927 49.7102 14.6926C49.7102 14.2925 49.3845 13.9668 48.9844 13.9668C48.5842 13.9668 48.2585 14.2925 48.2585 14.6926C48.2585 15.0927 48.5842 15.4184 48.9844 15.4184ZM48.9844 14.4507C49.1178 14.4507 49.2263 14.5593 49.2263 14.6926C49.2263 14.8259 49.1178 14.9345 48.9844 14.9345C48.8509 14.9345 48.7424 14.8259 48.7424 14.6926C48.7424 14.5593 48.8509 14.4507 48.9844 14.4507Z" fill="#575957"/>
<path d="M54.5498 14.9373H55.0337V15.4211H54.5498V14.9373Z" fill="#575957"/>
<path d="M54.5498 13.9668H55.0337V14.4507H54.5498V13.9668Z" fill="#575957"/>
<path d="M53.583 14.9373H54.0669V15.4211H53.583V14.9373Z" fill="#575957"/>
<path d="M53.583 13.9668H54.0669V14.4507H53.583V13.9668Z" fill="#575957"/>
<path d="M52.6162 14.9373H53.1001V15.4211H52.6162V14.9373Z" fill="#575957"/>
<path d="M52.6162 13.9668H53.1001V14.4507H52.6162V13.9668Z" fill="#575957"/>
<path d="M51.6418 14.9373H52.1257V15.4211H51.6418V14.9373Z" fill="#575957"/>
<path d="M51.6418 13.9668H52.1257V14.4507H51.6418V13.9668Z" fill="#575957"/>
<circle cx="61" cy="7" r="7" fill="#E7E7E7"/>
<path d="M57.304 4.88V4.216H58.808V10H58.072V4.88H57.304ZM59.8665 4.88V4.216H61.3705V10H60.6345V4.88H59.8665Z" fill="#262A27"/>
<rect x="72.5" y="7.5" width="25" height="25" rx="4.5" fill="#FAF9F8" stroke="#E7E7E7"/>
<g clip-path="url(#clip0)">
<path d="M92.1211 19.0352H91.8281V17.7168C91.8281 17.0705 91.3023 16.5449 90.6562 16.5449C90.4303 16.5449 90.2191 16.6091 90.0401 16.7204C89.9203 16.2007 89.4536 15.8125 88.8984 15.8125H88.8981C88.2522 15.8125 87.7262 16.3381 87.7262 16.9844V19.0352H83.2738V16.9844C83.2738 16.3381 82.7478 15.8125 82.1016 15.8125C81.5464 15.8125 81.0797 16.2007 80.9599 16.7204C80.7809 16.6091 80.5697 16.5449 80.3438 16.5449C79.6977 16.5449 79.1719 17.0705 79.1719 17.7168V19.0352H78.8789C78.3944 19.0352 78 19.4295 78 19.9141V21.0859C78 21.5705 78.3944 21.9648 78.8789 21.9648H79.1719V23.2832C79.1719 23.9295 79.6977 24.4551 80.3438 24.4551C80.5697 24.4551 80.7809 24.3909 80.9599 24.2796C81.0797 24.7993 81.5464 25.1875 82.1016 25.1875H82.1019C82.7478 25.1875 83.2738 24.6619 83.2738 24.0156V21.9648H87.7262V24.0156C87.7262 24.6619 88.2522 25.1875 88.8984 25.1875C89.4536 25.1875 89.9203 24.7993 90.0401 24.2796C90.2191 24.3909 90.4303 24.4551 90.6562 24.4551C91.3023 24.4551 91.8281 23.9295 91.8281 23.2832V21.9648H92.1211C92.6056 21.9648 93 21.5705 93 21.0859V19.9141C93 19.4295 92.6056 19.0352 92.1211 19.0352ZM79.1719 21.3789H78.8789C78.7174 21.3789 78.5859 21.2474 78.5859 21.0859V19.9141C78.5859 19.7526 78.7174 19.6211 78.8789 19.6211H79.1719V21.3789ZM80.9297 23.2832C80.9297 23.4449 80.8641 23.5914 80.758 23.6975C80.6519 23.8036 80.5055 23.8691 80.3438 23.8691C80.0206 23.8691 79.7578 23.6064 79.7578 23.2832V17.7168C79.7578 17.3936 80.0206 17.1309 80.3438 17.1309C80.6669 17.1309 80.9297 17.3936 80.9297 17.7168V23.2832ZM82.6878 24.0156C82.6878 24.3388 82.4247 24.6016 82.1019 24.6016H82.1016C81.7787 24.6016 81.5156 24.3388 81.5156 24.0156V16.9844C81.5156 16.6612 81.7787 16.3984 82.1019 16.3984C82.4247 16.3984 82.6878 16.6612 82.6878 16.9844V24.0156ZM87.7245 20.207H85.6758C85.5141 20.207 85.3828 20.3383 85.3828 20.5C85.3828 20.6617 85.5141 20.793 85.6758 20.793H87.7245V21.3789H83.2723V19.6211H87.7245V20.207ZM89.4844 24.0156C89.4844 24.3388 89.2213 24.6016 88.8981 24.6016C88.5753 24.6016 88.3122 24.3388 88.3122 24.0156V20.515C88.3119 20.5214 88.3114 20.5278 88.3104 20.534V20.466C88.3114 20.4722 88.3119 20.4786 88.3122 20.485V16.9844C88.3122 16.6612 88.5753 16.3984 88.8981 16.3984H88.8984C89.2213 16.3984 89.4844 16.6612 89.4844 16.9844V24.0156ZM91.2422 23.2832C91.2422 23.6064 90.9794 23.8691 90.6562 23.8691C90.3331 23.8691 90.0703 23.6064 90.0703 23.2832V17.7168C90.0703 17.3936 90.3331 17.1309 90.6562 17.1309C90.9794 17.1309 91.2422 17.3936 91.2422 17.7168V23.2832ZM92.4141 21.0859C92.4141 21.2474 92.2826 21.3789 92.1211 21.3789H91.8281V19.6211H92.1211C92.2826 19.6211 92.4141 19.7526 92.4141 19.9141V21.0859Z" fill="#575957"/>
<path d="M84.5045 20.793C84.3427 20.793 84.2114 20.6618 84.2114 20.5C84.2114 20.3382 84.3425 20.207 84.5043 20.207H84.5045C84.6663 20.207 84.7975 20.3382 84.7975 20.5C84.7975 20.6618 84.6663 20.793 84.5045 20.793Z" fill="#575957"/>
</g>
<circle cx="95.5" cy="7.5" r="6.5" fill="#E7E7E7"/>
<path d="M93.408 9.416C94.0853 8.872 94.616 8.42667 95 8.08C95.384 7.728 95.7067 7.36267 95.968 6.984C96.2347 6.6 96.368 6.224 96.368 5.856C96.368 5.50933 96.2827 5.23733 96.112 5.04C95.9467 4.83733 95.6773 4.736 95.304 4.736C94.9413 4.736 94.6587 4.85067 94.456 5.08C94.2587 5.304 94.152 5.60533 94.136 5.984H93.432C93.4533 5.38667 93.6347 4.92533 93.976 4.6C94.3173 4.27467 94.7573 4.112 95.296 4.112C95.8453 4.112 96.28 4.264 96.6 4.568C96.9253 4.872 97.088 5.29067 97.088 5.824C97.088 6.26667 96.9547 6.69867 96.688 7.12C96.4267 7.536 96.128 7.904 95.792 8.224C95.456 8.53867 95.0267 8.90667 94.504 9.328H97.256V9.936H93.408V9.416Z" fill="#262A27"/>
<rect x="108.5" y="7.5" width="25" height="25" rx="4.5" fill="#FAF9F8" stroke="#E7E7E7"/>
<g clip-path="url(#clip1)">
<path d="M127.533 26.0667H114.467C114.338 26.0667 114.233 26.1712 114.233 26.3V26.7666C114.233 26.8954 114.338 27 114.467 27H127.533C127.662 27 127.767 26.8954 127.767 26.7666V26.3C127.767 26.1712 127.662 26.0667 127.533 26.0667Z" fill="#575957"/>
<path d="M114.7 25.6001H115.633V23.9667H121.233V25.6001H122.167V23.9667H122.633V23.0334H122.167V22.1C122.167 21.7963 121.971 21.5396 121.7 21.443V20.2334C121.958 20.2334 122.167 20.0245 122.167 19.7667C122.167 19.5089 121.958 19.3 121.7 19.3H115.167C114.909 19.3 114.7 19.5089 114.7 19.7667C114.7 20.0245 114.909 20.2334 115.167 20.2334V21.443C114.896 21.5396 114.7 21.7963 114.7 22.1V23.0334H114.233V23.9667H114.7V25.6001ZM121.233 23.0334V22.1C121.233 21.9715 121.338 21.8667 121.467 21.8667C121.595 21.8667 121.7 21.9715 121.7 22.1V23.0334H121.233ZM121.233 20.2334V21.443C120.962 21.5396 120.767 21.7963 120.767 22.1V23.0334H120.533V20.2334H121.233ZM120.067 20.2334V23.0334H119.6V20.2334H120.067ZM119.133 20.2334V23.0334H118.667V20.2334H119.133ZM118.2 20.2334V23.0334H117.733V20.2334H118.2ZM117.267 20.2334V23.0334H116.8V20.2334H117.267ZM116.333 20.2334V23.0334H116.1V22.1C116.1 21.7963 115.904 21.5396 115.633 21.443V20.2334H116.333ZM115.167 22.1C115.167 21.9715 115.271 21.8667 115.4 21.8667C115.529 21.8667 115.633 21.9715 115.633 22.1V23.0334H115.167V22.1Z" fill="#575957"/>
<path d="M125.2 23.2665V25.5999H127.067V23.2665C127.067 23.1378 126.962 23.0332 126.833 23.0332H125.433C125.305 23.0332 125.2 23.1378 125.2 23.2665Z" fill="#575957"/>
<path d="M121 13.9333V14.855C120.31 15.1993 119.833 15.9111 119.833 16.7333C119.833 17.8911 120.775 18.8333 121.933 18.8333C123.091 18.8333 124.033 17.8911 124.033 16.7333C124.033 15.9109 123.557 15.1993 122.867 14.855V13.9333H125.667V22.5667H126.6V13.4667C126.6 13.2088 126.391 13 126.133 13H119.6L119.133 13.4667L119.6 13.9333H121ZM122.633 16.9667H121.7V15.5667H122.167V16.5H122.633V16.9667ZM122.4 13.9333V14.6875C122.25 14.6532 122.094 14.6333 121.933 14.6333C121.773 14.6333 121.617 14.6532 121.467 14.6875V13.9333H122.4Z" fill="#575957"/>
</g>
<circle cx="133.5" cy="7.5" r="6.5" fill="#E7E7E7"/>
<path d="M135.056 4.784L132.832 10H132.096L134.352 4.856H131.264V4.232H135.056V4.784Z" fill="#262A27"/>
<rect x="144.5" y="7.5" width="25" height="25" rx="4.5" fill="#FAF9F8" stroke="#E7E7E7"/>
<g clip-path="url(#clip2)">
<path d="M150.56 23.7178C156.26 22.0974 158.344 25.372 164.671 23.7203C164.906 23.659 165.047 23.4189 164.986 23.1841C164.924 22.9493 164.684 22.8087 164.449 22.8699C163.207 23.1942 162.13 23.3142 161.155 23.3155L159.881 21.2621C160.634 22.1979 162.034 22.2518 162.854 21.3798C163.215 20.9964 163.404 20.4955 163.388 19.9695C163.334 18.206 161.173 17.4147 159.983 18.68C159.41 19.2895 159.306 20.1562 159.629 20.8556L157.886 18.0459L160.473 17.2994C161.276 17.0675 161.656 16.1479 161.248 15.4164C160.951 14.8853 160.336 14.6322 159.752 14.8008L155.835 15.931C154.82 16.224 154.365 17.4045 154.923 18.3032L156.106 20.2111C155.253 20.7408 152.547 22.4191 152.518 22.439C151.838 22.5109 151.111 22.6474 150.319 22.8724C150.086 22.9388 149.95 23.1818 150.017 23.4153C150.083 23.6488 150.326 23.7842 150.56 23.7178ZM160.624 19.2822C161.037 18.8423 161.728 18.8224 162.166 19.2348C162.606 19.6481 162.627 20.3382 162.214 20.7777C161.801 21.217 161.11 21.2383 160.671 20.825C160.232 20.4117 160.21 19.7216 160.624 19.2822ZM157.085 20.1212L155.669 17.8398C155.419 17.4369 155.623 16.907 156.079 16.7755L159.995 15.6453C160.185 15.5906 160.384 15.6727 160.48 15.8448C160.613 16.0823 160.489 16.3799 160.229 16.4549L157.085 17.3623C156.805 17.4431 156.68 17.7692 156.833 18.0162L160.093 23.271C158.043 23.0988 156.377 22.4804 154.267 22.3865L156.943 20.7262C157.149 20.5983 157.213 20.3274 157.085 20.1212Z" fill="#575957"/>
<path d="M164.449 24.9207C158.395 26.501 156.271 23.2312 150.319 24.9231C150.086 24.9895 149.95 25.2325 150.017 25.466C150.083 25.6995 150.326 25.8349 150.559 25.7686C156.26 24.1481 158.344 27.4228 164.671 25.7711C164.906 25.7098 165.047 25.4697 164.985 25.2349C164.924 25 164.684 24.8594 164.449 24.9207Z" fill="#575957"/>
</g>
<circle cx="168.5" cy="7.5" r="6.5" fill="#E7E7E7"/>
<path d="M166.48 5.672C166.517 5.18133 166.707 4.79733 167.048 4.52C167.389 4.24267 167.832 4.104 168.376 4.104C168.739 4.104 169.051 4.17067 169.312 4.304C169.579 4.432 169.779 4.608 169.912 4.832C170.051 5.056 170.12 5.30933 170.12 5.592C170.12 5.92267 170.024 6.208 169.832 6.448C169.645 6.688 169.4 6.84267 169.096 6.912V6.952C169.443 7.03733 169.717 7.20533 169.92 7.456C170.123 7.70667 170.224 8.03467 170.224 8.44C170.224 8.744 170.155 9.01867 170.016 9.264C169.877 9.504 169.669 9.69333 169.392 9.832C169.115 9.97067 168.781 10.04 168.392 10.04C167.827 10.04 167.363 9.89333 167 9.6C166.637 9.30133 166.435 8.88 166.392 8.336H167.096C167.133 8.656 167.264 8.91733 167.488 9.12C167.712 9.32267 168.011 9.424 168.384 9.424C168.757 9.424 169.04 9.328 169.232 9.136C169.429 8.93867 169.528 8.68533 169.528 8.376C169.528 7.976 169.395 7.688 169.128 7.512C168.861 7.336 168.459 7.248 167.92 7.248H167.736V6.64H167.928C168.419 6.63467 168.789 6.55467 169.04 6.4C169.291 6.24 169.416 5.99467 169.416 5.664C169.416 5.38133 169.323 5.15467 169.136 4.984C168.955 4.81333 168.693 4.728 168.352 4.728C168.021 4.728 167.755 4.81333 167.552 4.984C167.349 5.15467 167.229 5.384 167.192 5.672H166.48Z" fill="#262A27"/>
<defs>
<clipPath id="clip0">
<rect width="15" height="15" fill="white" transform="translate(78 13)"/>
</clipPath>
<clipPath id="clip1">
<rect width="14" height="14" fill="white" transform="translate(114 13)"/>
</clipPath>
<clipPath id="clip2">
<rect width="15" height="15" fill="white" transform="translate(150 13)"/>
</clipPath>
</defs>
</svg>
