<svg width="184" height="45" viewBox="0 0 184 45" fill="none" xmlns="http://www.w3.org/2000/svg">
<rect width="184" height="45" rx="5" fill="black"/>
<g clip-path="url(#clip0)">
<path d="M55.9167 22.5C55.9167 23.2812 55.4617 23.9687 54.8009 24.3229L49.1675 27.3333L44.4009 22.5L49.1675 17.6666L54.8009 20.677C55.4617 21.0312 55.9167 21.7187 55.9167 22.5Z" fill="#FFC107"/>
<path d="M44.4009 22.5L32.7009 34.3645C32.3109 33.9895 32.0834 33.4791 32.0834 32.9166V12.0833C32.0834 11.5208 32.3109 11.0104 32.7009 10.6354L44.4009 22.5Z" fill="#03A9F4"/>
<path d="M44.4008 22.5L49.1675 27.3333C34.8967 34.8594 34.2987 35.9865 32.7008 34.3646L44.4008 22.5Z" fill="#F44336"/>
<path d="M49.1675 17.6665L44.4008 22.4998L32.7008 10.6352C33.3703 9.95502 34.4439 9.80606 35.3008 10.2602L49.1675 17.6665Z" fill="#4CAF50"/>
</g>
<path d="M71.092 27.07C70.84 26.5847 70.49 26.2207 70.042 25.978C69.594 25.726 69.076 25.6 68.488 25.6C67.844 25.6 67.27 25.7447 66.766 26.034C66.262 26.3233 65.8653 26.734 65.576 27.266C65.296 27.798 65.156 28.414 65.156 29.114C65.156 29.814 65.296 30.4347 65.576 30.976C65.8653 31.508 66.262 31.9187 66.766 32.208C67.27 32.4973 67.844 32.642 68.488 32.642C69.356 32.642 70.0607 32.3993 70.602 31.914C71.1433 31.4287 71.4747 30.7707 71.596 29.94H67.942V28.666H73.304V29.912C73.2013 30.668 72.9307 31.3633 72.492 31.998C72.0627 32.6327 71.498 33.1413 70.798 33.524C70.1073 33.8973 69.3373 34.084 68.488 34.084C67.5733 34.084 66.738 33.874 65.982 33.454C65.226 33.0247 64.624 32.432 64.176 31.676C63.7373 30.92 63.518 30.066 63.518 29.114C63.518 28.162 63.7373 27.308 64.176 26.552C64.624 25.796 65.226 25.208 65.982 24.788C66.7473 24.3587 67.5827 24.144 68.488 24.144C69.524 24.144 70.4433 24.4007 71.246 24.914C72.058 25.418 72.646 26.1367 73.01 27.07H71.092ZM78.2241 34.126C77.4961 34.126 76.8381 33.9627 76.2501 33.636C75.6621 33.3 75.2001 32.8333 74.8641 32.236C74.5281 31.6293 74.3601 30.9293 74.3601 30.136C74.3601 29.352 74.5328 28.6567 74.8781 28.05C75.2235 27.4433 75.6948 26.9767 76.2921 26.65C76.8895 26.3233 77.5568 26.16 78.2941 26.16C79.0315 26.16 79.6988 26.3233 80.2961 26.65C80.8935 26.9767 81.3648 27.4433 81.7101 28.05C82.0555 28.6567 82.2281 29.352 82.2281 30.136C82.2281 30.92 82.0508 31.6153 81.6961 32.222C81.3415 32.8287 80.8561 33.3 80.2401 33.636C79.6335 33.9627 78.9615 34.126 78.2241 34.126ZM78.2241 32.74C78.6348 32.74 79.0175 32.642 79.3721 32.446C79.7361 32.25 80.0301 31.956 80.2541 31.564C80.4781 31.172 80.5901 30.696 80.5901 30.136C80.5901 29.576 80.4828 29.1047 80.2681 28.722C80.0535 28.33 79.7688 28.036 79.4141 27.84C79.0595 27.644 78.6768 27.546 78.2661 27.546C77.8555 27.546 77.4728 27.644 77.1181 27.84C76.7728 28.036 76.4975 28.33 76.2921 28.722C76.0868 29.1047 75.9841 29.576 75.9841 30.136C75.9841 30.9667 76.1941 31.6107 76.6141 32.068C77.0435 32.516 77.5801 32.74 78.2241 32.74ZM87.1519 34.126C86.4239 34.126 85.7659 33.9627 85.1779 33.636C84.5899 33.3 84.1279 32.8333 83.7919 32.236C83.4559 31.6293 83.2879 30.9293 83.2879 30.136C83.2879 29.352 83.4605 28.6567 83.8059 28.05C84.1512 27.4433 84.6225 26.9767 85.2199 26.65C85.8172 26.3233 86.4845 26.16 87.2219 26.16C87.9592 26.16 88.6265 26.3233 89.2239 26.65C89.8212 26.9767 90.2925 27.4433 90.6379 28.05C90.9832 28.6567 91.1559 29.352 91.1559 30.136C91.1559 30.92 90.9785 31.6153 90.6239 32.222C90.2692 32.8287 89.7839 33.3 89.1679 33.636C88.5612 33.9627 87.8892 34.126 87.1519 34.126ZM87.1519 32.74C87.5625 32.74 87.9452 32.642 88.2999 32.446C88.6639 32.25 88.9579 31.956 89.1819 31.564C89.4059 31.172 89.5179 30.696 89.5179 30.136C89.5179 29.576 89.4105 29.1047 89.1959 28.722C88.9812 28.33 88.6965 28.036 88.3419 27.84C87.9872 27.644 87.6045 27.546 87.1939 27.546C86.7832 27.546 86.4005 27.644 86.0459 27.84C85.7005 28.036 85.4252 28.33 85.2199 28.722C85.0145 29.1047 84.9119 29.576 84.9119 30.136C84.9119 30.9667 85.1219 31.6107 85.5419 32.068C85.9712 32.516 86.5079 32.74 87.1519 32.74ZM95.8416 26.16C96.4389 26.16 96.9663 26.2813 97.4236 26.524C97.8903 26.7573 98.2543 27.0513 98.5156 27.406V26.286H100.126V34.126C100.126 34.8353 99.9763 35.4653 99.6776 36.016C99.3789 36.576 98.9449 37.0147 98.3756 37.332C97.8156 37.6493 97.1436 37.808 96.3596 37.808C95.3143 37.808 94.4463 37.5607 93.7556 37.066C93.0649 36.5807 92.6729 35.918 92.5796 35.078H94.1616C94.2829 35.4793 94.5396 35.8013 94.9316 36.044C95.3329 36.296 95.8089 36.422 96.3596 36.422C97.0036 36.422 97.5216 36.226 97.9136 35.834C98.3149 35.442 98.5156 34.8727 98.5156 34.126V32.838C98.2449 33.202 97.8763 33.51 97.4096 33.762C96.9523 34.0047 96.4296 34.126 95.8416 34.126C95.1696 34.126 94.5536 33.958 93.9936 33.622C93.4429 33.2767 93.0043 32.8007 92.6776 32.194C92.3603 31.578 92.2016 30.8827 92.2016 30.108C92.2016 29.3333 92.3603 28.6473 92.6776 28.05C93.0043 27.4527 93.4429 26.9907 93.9936 26.664C94.5536 26.328 95.1696 26.16 95.8416 26.16ZM98.5156 30.136C98.5156 29.604 98.4036 29.142 98.1796 28.75C97.9649 28.358 97.6803 28.0593 97.3256 27.854C96.9709 27.6487 96.5883 27.546 96.1776 27.546C95.7669 27.546 95.3843 27.6487 95.0296 27.854C94.6749 28.05 94.3856 28.344 94.1616 28.736C93.9469 29.1187 93.8396 29.576 93.8396 30.108C93.8396 30.64 93.9469 31.1067 94.1616 31.508C94.3856 31.9093 94.6749 32.2173 95.0296 32.432C95.3936 32.6373 95.7763 32.74 96.1776 32.74C96.5883 32.74 96.9709 32.6373 97.3256 32.432C97.6803 32.2267 97.9649 31.928 98.1796 31.536C98.4036 31.1347 98.5156 30.668 98.5156 30.136ZM103.818 23.64V34H102.222V23.64H103.818ZM112.983 29.954C112.983 30.2433 112.965 30.5047 112.927 30.738H107.033C107.08 31.354 107.309 31.8487 107.719 32.222C108.13 32.5953 108.634 32.782 109.231 32.782C110.09 32.782 110.697 32.4227 111.051 31.704H112.773C112.54 32.4133 112.115 32.9967 111.499 33.454C110.893 33.902 110.137 34.126 109.231 34.126C108.494 34.126 107.831 33.9627 107.243 33.636C106.665 33.3 106.207 32.8333 105.871 32.236C105.545 31.6293 105.381 30.9293 105.381 30.136C105.381 29.3427 105.54 28.6473 105.857 28.05C106.184 27.4433 106.637 26.9767 107.215 26.65C107.803 26.3233 108.475 26.16 109.231 26.16C109.959 26.16 110.608 26.3187 111.177 26.636C111.747 26.9533 112.19 27.4013 112.507 27.98C112.825 28.5493 112.983 29.2073 112.983 29.954ZM111.317 29.45C111.308 28.862 111.098 28.3907 110.687 28.036C110.277 27.6813 109.768 27.504 109.161 27.504C108.611 27.504 108.139 27.6813 107.747 28.036C107.355 28.3813 107.122 28.8527 107.047 29.45H111.317ZM124.995 27.168C124.995 27.6627 124.878 28.1293 124.645 28.568C124.411 29.0067 124.038 29.366 123.525 29.646C123.011 29.9167 122.353 30.052 121.551 30.052H119.787V34H118.191V24.27H121.551C122.297 24.27 122.927 24.4007 123.441 24.662C123.963 24.914 124.351 25.2593 124.603 25.698C124.864 26.1367 124.995 26.6267 124.995 27.168ZM121.551 28.75C122.157 28.75 122.61 28.6147 122.909 28.344C123.207 28.064 123.357 27.672 123.357 27.168C123.357 26.104 122.755 25.572 121.551 25.572H119.787V28.75H121.551ZM128.113 23.64V34H126.517V23.64H128.113ZM129.676 30.108C129.676 29.3333 129.835 28.6473 130.152 28.05C130.479 27.4527 130.918 26.9907 131.468 26.664C132.028 26.328 132.644 26.16 133.316 26.16C133.923 26.16 134.45 26.2813 134.898 26.524C135.356 26.7573 135.72 27.0513 135.99 27.406V26.286H137.6V34H135.99V32.852C135.72 33.216 135.351 33.5193 134.884 33.762C134.418 34.0047 133.886 34.126 133.288 34.126C132.626 34.126 132.019 33.958 131.468 33.622C130.918 33.2767 130.479 32.8007 130.152 32.194C129.835 31.578 129.676 30.8827 129.676 30.108ZM135.99 30.136C135.99 29.604 135.878 29.142 135.654 28.75C135.44 28.358 135.155 28.0593 134.8 27.854C134.446 27.6487 134.063 27.546 133.652 27.546C133.242 27.546 132.859 27.6487 132.504 27.854C132.15 28.05 131.86 28.344 131.636 28.736C131.422 29.1187 131.314 29.576 131.314 30.108C131.314 30.64 131.422 31.1067 131.636 31.508C131.86 31.9093 132.15 32.2173 132.504 32.432C132.868 32.6373 133.251 32.74 133.652 32.74C134.063 32.74 134.446 32.6373 134.8 32.432C135.155 32.2267 135.44 31.928 135.654 31.536C135.878 31.1347 135.99 30.668 135.99 30.136ZM146.64 26.286L141.908 37.626H140.256L141.824 33.874L138.786 26.286H140.564L142.734 32.166L144.988 26.286H146.64Z" fill="white"/>
<path d="M68.445 13.545C68.271 13.179 68.019 12.897 67.689 12.699C67.359 12.495 66.975 12.393 66.537 12.393C66.099 12.393 65.703 12.495 65.349 12.699C65.001 12.897 64.725 13.185 64.521 13.563C64.323 13.935 64.224 14.367 64.224 14.859C64.224 15.351 64.323 15.783 64.521 16.155C64.725 16.527 65.001 16.815 65.349 17.019C65.703 17.217 66.099 17.316 66.537 17.316C67.149 17.316 67.653 17.133 68.049 16.767C68.445 16.401 68.676 15.906 68.742 15.282H66.24V14.616H69.615V15.246C69.567 15.762 69.405 16.236 69.129 16.668C68.853 17.094 68.49 17.433 68.04 17.685C67.59 17.931 67.089 18.054 66.537 18.054C65.955 18.054 65.424 17.919 64.944 17.649C64.464 17.373 64.083 16.992 63.801 16.506C63.525 16.02 63.387 15.471 63.387 14.859C63.387 14.247 63.525 13.698 63.801 13.212C64.083 12.72 64.464 12.339 64.944 12.069C65.424 11.793 65.955 11.655 66.537 11.655C67.203 11.655 67.791 11.82 68.301 12.15C68.817 12.48 69.192 12.945 69.426 13.545H68.445ZM75.1979 15.345C75.1979 15.501 75.1889 15.666 75.1709 15.84H71.2289C71.2589 16.326 71.4239 16.707 71.7239 16.983C72.0299 17.253 72.3989 17.388 72.8309 17.388C73.1849 17.388 73.4789 17.307 73.7129 17.145C73.9529 16.977 74.1209 16.755 74.2169 16.479H75.0989C74.9669 16.953 74.7029 17.34 74.3069 17.64C73.9109 17.934 73.4189 18.081 72.8309 18.081C72.3629 18.081 71.9429 17.976 71.5709 17.766C71.2049 17.556 70.9169 17.259 70.7069 16.875C70.4969 16.485 70.3919 16.035 70.3919 15.525C70.3919 15.015 70.4939 14.568 70.6979 14.184C70.9019 13.8 71.1869 13.506 71.5529 13.302C71.9249 13.092 72.3509 12.987 72.8309 12.987C73.2989 12.987 73.7129 13.089 74.0729 13.293C74.4329 13.497 74.7089 13.779 74.9009 14.139C75.0989 14.493 75.1979 14.895 75.1979 15.345ZM74.3519 15.174C74.3519 14.862 74.2829 14.595 74.1449 14.373C74.0069 14.145 73.8179 13.974 73.5779 13.86C73.3439 13.74 73.0829 13.68 72.7949 13.68C72.3809 13.68 72.0269 13.812 71.7329 14.076C71.4449 14.34 71.2799 14.706 71.2379 15.174H74.3519ZM77.2779 13.743V16.65C77.2779 16.89 77.3289 17.061 77.4309 17.163C77.5329 17.259 77.7099 17.307 77.9619 17.307H78.5649V18H77.8269C77.3709 18 77.0289 17.895 76.8009 17.685C76.5729 17.475 76.4589 17.13 76.4589 16.65V13.743H75.8199V13.068H76.4589V11.826H77.2779V13.068H78.5649V13.743H77.2779ZM82.3797 12.267C82.2237 12.267 82.0917 12.213 81.9837 12.105C81.8757 11.997 81.8217 11.865 81.8217 11.709C81.8217 11.553 81.8757 11.421 81.9837 11.313C82.0917 11.205 82.2237 11.151 82.3797 11.151C82.5297 11.151 82.6557 11.205 82.7577 11.313C82.8657 11.421 82.9197 11.553 82.9197 11.709C82.9197 11.865 82.8657 11.997 82.7577 12.105C82.6557 12.213 82.5297 12.267 82.3797 12.267ZM82.7757 13.068V18H81.9567V13.068H82.7757ZM85.1705 13.743V16.65C85.1705 16.89 85.2215 17.061 85.3235 17.163C85.4255 17.259 85.6025 17.307 85.8545 17.307H86.4575V18H85.7195C85.2635 18 84.9215 17.895 84.6935 17.685C84.4655 17.475 84.3515 17.13 84.3515 16.65V13.743H83.7125V13.068H84.3515V11.826H85.1705V13.068H86.4575V13.743H85.1705ZM92.0003 18.081C91.5383 18.081 91.1183 17.976 90.7403 17.766C90.3683 17.556 90.0743 17.259 89.8583 16.875C89.6483 16.485 89.5433 16.035 89.5433 15.525C89.5433 15.021 89.6513 14.577 89.8673 14.193C90.0893 13.803 90.3893 13.506 90.7673 13.302C91.1453 13.092 91.5683 12.987 92.0363 12.987C92.5043 12.987 92.9273 13.092 93.3053 13.302C93.6833 13.506 93.9803 13.8 94.1963 14.184C94.4183 14.568 94.5293 15.015 94.5293 15.525C94.5293 16.035 94.4153 16.485 94.1873 16.875C93.9653 17.259 93.6623 17.556 93.2783 17.766C92.8943 17.976 92.4683 18.081 92.0003 18.081ZM92.0003 17.361C92.2943 17.361 92.5703 17.292 92.8283 17.154C93.0863 17.016 93.2933 16.809 93.4493 16.533C93.6113 16.257 93.6923 15.921 93.6923 15.525C93.6923 15.129 93.6143 14.793 93.4583 14.517C93.3023 14.241 93.0983 14.037 92.8463 13.905C92.5943 13.767 92.3213 13.698 92.0273 13.698C91.7273 13.698 91.4513 13.767 91.1993 13.905C90.9533 14.037 90.7553 14.241 90.6053 14.517C90.4553 14.793 90.3803 15.129 90.3803 15.525C90.3803 15.927 90.4523 16.266 90.5963 16.542C90.7463 16.818 90.9443 17.025 91.1903 17.163C91.4363 17.295 91.7063 17.361 92.0003 17.361ZM98.0091 12.978C98.6091 12.978 99.0951 13.161 99.4671 13.527C99.8391 13.887 100.025 14.409 100.025 15.093V18H99.2151V15.21C99.2151 14.718 99.0921 14.343 98.8461 14.085C98.6001 13.821 98.2641 13.689 97.8381 13.689C97.4061 13.689 97.0611 13.824 96.8031 14.094C96.5511 14.364 96.4251 14.757 96.4251 15.273V18H95.6061V13.068H96.4251V13.77C96.5871 13.518 96.8061 13.323 97.0821 13.185C97.3641 13.047 97.6731 12.978 98.0091 12.978Z" fill="white"/>
<defs>
<clipPath id="clip0">
<rect width="26" height="25" fill="white" transform="translate(31 10)"/>
</clipPath>
</defs>
</svg>
