<svg width="23" height="24" viewBox="0 0 23 24" fill="none" xmlns="http://www.w3.org/2000/svg">
<path d="M22.9415 6.76337C22.8877 5.54106 22.69 4.70073 22.4068 3.97257C22.1147 3.19965 21.6653 2.50765 21.0766 1.93239C20.5013 1.34818 19.8047 0.894223 19.0408 0.606681C18.3084 0.323528 17.4725 0.125865 16.2501 0.0719732C15.0187 0.0135169 14.6278 0 11.5045 0C8.38119 0 7.99025 0.0135169 6.76337 0.067409C5.54106 0.121301 4.70073 0.31914 3.97274 0.602117C3.19965 0.894223 2.50765 1.34362 1.93239 1.93239C1.34818 2.50765 0.894399 3.20421 0.606681 3.96818C0.323528 4.70073 0.125865 5.53649 0.0719732 6.75881C0.0135169 7.99025 0 8.38119 0 11.5045C0 14.6278 0.0135169 15.0187 0.067409 16.2456C0.121301 17.4679 0.31914 18.3082 0.602293 19.0364C0.894399 19.8093 1.34818 20.5013 1.93239 21.0766C2.50765 21.6608 3.20421 22.1147 3.96818 22.4023C4.70073 22.6854 5.53649 22.8831 6.75899 22.937C7.98569 22.991 8.3768 23.0044 11.5001 23.0044C14.6234 23.0044 15.0143 22.991 16.2412 22.937C17.4635 22.8831 18.3038 22.6854 19.0318 22.4023C20.5778 21.8045 21.8002 20.5822 22.3979 19.0364C22.6809 18.3038 22.8787 17.4679 22.9326 16.2456C22.9865 15.0187 23 14.6278 23 11.5045C23 8.38119 22.9954 7.99025 22.9415 6.76337ZM20.8699 16.1557C20.8204 17.2792 20.6317 17.8859 20.4744 18.2903C20.0879 19.2925 19.2925 20.0879 18.2903 20.4744C17.8859 20.6317 17.2748 20.8204 16.1557 20.8698C14.9423 20.9238 14.5784 20.9372 11.509 20.9372C8.43965 20.9372 8.07118 20.9238 6.86221 20.8698C5.73872 20.8204 5.13204 20.6317 4.72759 20.4744C4.22886 20.2901 3.77491 19.998 3.40644 19.616C3.02445 19.243 2.73235 18.7936 2.54803 18.2949C2.39074 17.8904 2.20203 17.2792 2.1527 16.1603C2.09863 14.9469 2.08529 14.5828 2.08529 11.5134C2.08529 8.44404 2.09863 8.07557 2.1527 6.86677C2.20203 5.74329 2.39074 5.1366 2.54803 4.73215C2.73235 4.23325 3.02445 3.77947 3.411 3.41083C3.78386 3.02884 4.23325 2.73674 4.73215 2.55259C5.1366 2.3953 5.74785 2.20659 6.86677 2.15709C8.08013 2.1032 8.44421 2.08968 11.5134 2.08968C14.5874 2.08968 14.9513 2.1032 16.1603 2.15709C17.2837 2.20659 17.8904 2.3953 18.2949 2.55259C18.7936 2.73674 19.2476 3.02884 19.616 3.41083C19.998 3.78386 20.2901 4.23325 20.4744 4.73215C20.6317 5.1366 20.8204 5.74767 20.8699 6.86677C20.9238 8.08013 20.9374 8.44404 20.9374 11.5134C20.9374 14.5828 20.9238 14.9423 20.8699 16.1557Z" fill="white"/>
<path d="M11.5045 5.59509C8.242 5.59509 5.59497 8.24195 5.59497 11.5046C5.59497 14.7673 8.242 17.4141 11.5045 17.4141C14.7672 17.4141 17.414 14.7673 17.414 11.5046C17.414 8.24195 14.7672 5.59509 11.5045 5.59509ZM11.5045 15.338C9.38796 15.338 7.67113 13.6213 7.67113 11.5046C7.67113 9.3879 9.38796 7.67126 11.5045 7.67126C13.6212 7.67126 15.3379 9.3879 15.3379 11.5046C15.3379 13.6213 13.6212 15.338 11.5045 15.338Z" fill="white"/>
<path d="M19.0274 5.36135C19.0274 6.12322 18.4097 6.74096 17.6477 6.74096C16.8858 6.74096 16.2681 6.12322 16.2681 5.36135C16.2681 4.59932 16.8858 3.98175 17.6477 3.98175C18.4097 3.98175 19.0274 4.59932 19.0274 5.36135Z" fill="white"/>
</svg>
