<svg width="40" height="40" viewBox="0 0 40 40" fill="none" xmlns="http://www.w3.org/2000/svg">
<circle cx="20" cy="20" r="19.75" stroke="white" stroke-width="0.5"/>
<path d="M24.6192 10.3999H16.1807C13.4343 10.3999 11.2 12.6342 11.2 15.3806V23.8193C11.2 26.5656 13.4343 28.7999 16.1807 28.7999H24.6194C27.3656 28.7999 29.6 26.5656 29.6 23.8193V15.3806C29.6 12.6342 27.3656 10.3999 24.6192 10.3999V10.3999ZM20.4 24.631C17.6257 24.631 15.3688 22.3741 15.3688 19.5999C15.3688 16.8257 17.6257 14.5688 20.4 14.5688C23.1742 14.5688 25.4311 16.8257 25.4311 19.5999C25.4311 22.3741 23.1742 24.631 20.4 24.631ZM25.5514 15.7553C24.7315 15.7553 24.0647 15.0885 24.0647 14.2687C24.0647 13.4488 24.7315 12.7819 25.5514 12.7819C26.3712 12.7819 27.0381 13.4488 27.0381 14.2687C27.0381 15.0885 26.3712 15.7553 25.5514 15.7553Z" fill="white"/>
<path d="M20.3999 15.6475C18.2207 15.6475 16.4475 17.4205 16.4475 19.5999C16.4475 21.7792 18.2207 23.5523 20.3999 23.5523C22.5793 23.5523 24.3524 21.7792 24.3524 19.5999C24.3524 17.4205 22.5793 15.6475 20.3999 15.6475Z" fill="white"/>
<path d="M25.5515 13.8608C25.3266 13.8608 25.1436 14.0439 25.1436 14.2688C25.1436 14.4937 25.3266 14.6767 25.5515 14.6767C25.7765 14.6767 25.9596 14.4938 25.9596 14.2688C25.9596 14.0438 25.7765 13.8608 25.5515 13.8608Z" fill="white"/>
</svg>
