<svg width="40" height="40" viewBox="0 0 40 40" fill="none" xmlns="http://www.w3.org/2000/svg">
<path d="M12.7344 10.3999C11.3228 10.3999 10.3999 11.3268 10.3999 12.5451C10.3999 13.7365 11.2953 14.6898 12.6802 14.6898H12.707C14.1462 14.6898 15.0418 13.7365 15.0418 12.5451C15.0149 11.3268 14.1462 10.3999 12.7344 10.3999Z" fill="white"/>
<path d="M10.6438 16.3848H14.7704V28.7998H10.6438V16.3848Z" fill="white"/>
<path d="M24.8993 16.0935C22.6732 16.0935 21.1804 18.1853 21.1804 18.1853V16.3849H17.0537V28.7999H21.1802V21.8669C21.1802 21.4957 21.2071 21.1251 21.3161 20.8597C21.6144 20.1186 22.2933 19.3508 23.4333 19.3508C24.9266 19.3508 25.5238 20.4893 25.5238 22.1583V28.7999H29.65V21.6813C29.65 17.868 27.6141 16.0935 24.8993 16.0935Z" fill="white"/>
<circle cx="20" cy="20" r="19.75" stroke="white" stroke-width="0.5"/>
</svg>
