<svg width="25" height="23" viewBox="0 0 25 23" fill="none" xmlns="http://www.w3.org/2000/svg">
<path d="M2.91808 0C1.15363 0 0 1.15863 0 2.68148C0 4.1707 1.11927 5.36237 2.85038 5.36237H2.88386C4.68283 5.36237 5.80238 4.1707 5.80238 2.68148C5.76875 1.15863 4.68283 0 2.91808 0Z" fill="white"/>
<path d="M0.304932 7.4812H5.46316V23H0.304932V7.4812Z" fill="white"/>
<path d="M18.1241 7.117C15.3414 7.117 13.4755 9.73181 13.4755 9.73181V7.48123H8.31714V23H13.4752V14.3337C13.4752 13.8698 13.5089 13.4065 13.6451 13.0748C14.018 12.1483 14.8666 11.1886 16.2917 11.1886C18.1582 11.1886 18.9047 12.6117 18.9047 14.6979V23H24.0625V14.1018C24.0625 9.33512 21.5176 7.117 18.1241 7.117Z" fill="white"/>
</svg>
