<svg width="17" height="17" viewBox="0 0 17 17" fill="none" xmlns="http://www.w3.org/2000/svg">
<path d="M8.5 7.96875C9.87532 7.96875 10.9902 6.85383 10.9902 5.47852C10.9902 4.1032 9.87532 2.98828 8.5 2.98828C7.12468 2.98828 6.00977 4.1032 6.00977 5.47852C6.00977 6.85383 7.12468 7.96875 8.5 7.96875Z" fill="#3A2B20"/>
<path d="M8.5 0C3.80558 0 0 3.80558 0 8.5C0 13.1944 3.80558 17 8.5 17C13.1944 17 17 13.1944 17 8.5C17 3.80558 13.1944 0 8.5 0ZM8.5 1.99219C10.4224 1.99219 11.9863 3.55615 11.9863 5.47852C11.9863 7.40088 10.4224 8.96484 8.5 8.96484C6.57764 8.96484 5.01367 7.40088 5.01367 5.47852C5.01367 3.55615 6.57764 1.99219 8.5 1.99219ZM14.1596 11.7141C13.0035 13.7458 10.8349 15.0078 8.5 15.0078C6.16509 15.0078 3.99646 13.7458 2.84039 11.7141L2.66422 11.4045L2.90029 11.1377C3.56216 10.3899 4.514 9.96094 5.51172 9.96094H11.4883C12.486 9.96094 13.4378 10.3899 14.0997 11.1378L14.3357 11.4045L14.1596 11.7141Z" fill="#3A2B20"/>
<path d="M5.51171 10.957C4.92056 10.957 4.35189 11.168 3.90524 11.5449C4.92199 13.0755 6.64938 14.0117 8.49999 14.0117C10.3506 14.0117 12.078 13.0755 13.0947 11.5449C12.6481 11.168 12.0794 10.957 11.4883 10.957H5.51171Z" fill="#3A2B20"/>
</svg>
