<svg width="17" height="17" viewBox="0 0 17 17" fill="none" xmlns="http://www.w3.org/2000/svg">
<g clip-path="url(#clip0)">
<path d="M12.9246 11.2458C12.3692 10.6975 11.6758 10.6975 11.1239 11.2458C10.703 11.6633 10.282 12.0807 9.86812 12.5052C9.75492 12.6219 9.65941 12.6467 9.52144 12.5689C9.24905 12.4203 8.95897 12.3 8.6972 12.1373C7.47674 11.3697 6.45439 10.3827 5.54878 9.27189C5.09952 8.72004 4.69977 8.12927 4.42031 7.46421C4.36371 7.32978 4.37432 7.24134 4.48398 7.13168C4.90495 6.72486 5.31531 6.30743 5.7292 5.89C6.30582 5.30985 6.30582 4.63064 5.72566 4.04695C5.39667 3.71442 5.06768 3.38896 4.73869 3.05644C4.39908 2.71683 4.06302 2.37369 3.71988 2.03762C3.16448 1.49638 2.47112 1.49638 1.91927 2.04116C1.49476 2.45859 1.08795 2.88663 0.656366 3.29699C0.256624 3.6755 0.054984 4.13892 0.0125335 4.68017C-0.0546797 5.56101 0.16111 6.39233 0.465339 7.20243C1.08795 8.87922 2.03601 10.3685 3.18571 11.734C4.73869 13.5806 6.59236 15.0416 8.76087 16.0958C9.73723 16.5698 10.749 16.9342 11.8491 16.9943C12.6062 17.0368 13.2642 16.8458 13.7913 16.255C14.1521 15.8517 14.5589 15.4838 14.941 15.0982C15.507 14.5251 15.5105 13.8318 14.948 13.2658C14.2759 12.5901 13.6002 11.918 12.9246 11.2458Z" fill="#3A2B20"/>
<path d="M12.2489 8.42641L13.5542 8.20355C13.3491 7.00432 12.783 5.9183 11.9234 5.05514C11.0143 4.14599 9.86458 3.57291 8.59814 3.39603L8.41418 4.70846C9.39408 4.84643 10.2855 5.28862 10.9895 5.99259C11.6546 6.65765 12.0897 7.49958 12.2489 8.42641Z" fill="#3A2B20"/>
<path d="M14.29 2.75221C12.783 1.24521 10.8763 0.293616 8.77148 0L8.58752 1.31243C10.4058 1.56713 12.0543 2.39138 13.3561 3.68965C14.5907 4.92426 15.4008 6.48431 15.6944 8.20002L16.9998 7.97715C16.6566 5.98905 15.7192 4.18491 14.29 2.75221Z" fill="#3A2B20"/>
</g>
<defs>
<clipPath id="clip0">
<rect width="17" height="17" fill="white"/>
</clipPath>
</defs>
</svg>
