<svg width="131" height="39" viewBox="0 0 131 39" fill="none" xmlns="http://www.w3.org/2000/svg">
<rect y="0.0380859" width="130.844" height="38" rx="5" fill="white"/>
<g clip-path="url(#clip0)">
<path d="M43.763 16.0384C43.763 16.5939 43.4395 17.0828 42.9695 17.3347L38.9636 19.4754L35.574 16.0384L38.9636 12.6013L42.9695 14.7421C43.4395 14.9939 43.763 15.4828 43.763 16.0384Z" fill="#FFC107"/>
<path d="M35.5738 16.0384L27.2538 24.4754C26.9765 24.2087 26.8147 23.8458 26.8147 23.4458V8.63095C26.8147 8.23095 26.9765 7.86799 27.2538 7.60132L35.5738 16.0384Z" fill="#03A9F4"/>
<path d="M35.5739 16.0383L38.9635 19.4754C28.8154 24.8272 28.3902 25.6287 27.2539 24.4754L35.5739 16.0383Z" fill="#F44336"/>
<path d="M38.9635 12.6011L35.5739 16.0381L27.2539 7.60106C27.73 7.11736 28.4934 7.01143 29.1028 7.33439L38.9635 12.6011Z" fill="#4CAF50"/>
</g>
<path d="M54.78 20.0881C54.6 19.7414 54.35 19.4814 54.03 19.3081C53.71 19.1281 53.34 19.0381 52.92 19.0381C52.46 19.0381 52.05 19.1414 51.69 19.3481C51.33 19.5548 51.0467 19.8481 50.84 20.2281C50.64 20.6081 50.54 21.0481 50.54 21.5481C50.54 22.0481 50.64 22.4914 50.84 22.8781C51.0467 23.2581 51.33 23.5514 51.69 23.7581C52.05 23.9648 52.46 24.0681 52.92 24.0681C53.54 24.0681 54.0433 23.8948 54.43 23.5481C54.8167 23.2014 55.0533 22.7314 55.14 22.1381H52.53V21.2281H56.36V22.1181C56.2867 22.6581 56.0933 23.1548 55.78 23.6081C55.4733 24.0614 55.07 24.4248 54.57 24.6981C54.0767 24.9648 53.5267 25.0981 52.92 25.0981C52.2667 25.0981 51.67 24.9481 51.13 24.6481C50.59 24.3414 50.16 23.9181 49.84 23.3781C49.5267 22.8381 49.37 22.2281 49.37 21.5481C49.37 20.8681 49.5267 20.2581 49.84 19.7181C50.16 19.1781 50.59 18.7581 51.13 18.4581C51.6767 18.1514 52.2733 17.9981 52.92 17.9981C53.66 17.9981 54.3167 18.1814 54.89 18.5481C55.47 18.9081 55.89 19.4214 56.15 20.0881H54.78ZM59.8744 25.1281C59.3544 25.1281 58.8844 25.0114 58.4644 24.7781C58.0444 24.5381 57.7144 24.2048 57.4744 23.7781C57.2344 23.3448 57.1144 22.8448 57.1144 22.2781C57.1144 21.7181 57.2377 21.2214 57.4844 20.7881C57.731 20.3548 58.0677 20.0214 58.4944 19.7881C58.921 19.5548 59.3977 19.4381 59.9244 19.4381C60.451 19.4381 60.9277 19.5548 61.3544 19.7881C61.781 20.0214 62.1177 20.3548 62.3644 20.7881C62.611 21.2214 62.7344 21.7181 62.7344 22.2781C62.7344 22.8381 62.6077 23.3348 62.3544 23.7681C62.101 24.2014 61.7544 24.5381 61.3144 24.7781C60.881 25.0114 60.401 25.1281 59.8744 25.1281ZM59.8744 24.1381C60.1677 24.1381 60.441 24.0681 60.6944 23.9281C60.9544 23.7881 61.1644 23.5781 61.3244 23.2981C61.4844 23.0181 61.5644 22.6781 61.5644 22.2781C61.5644 21.8781 61.4877 21.5414 61.3344 21.2681C61.181 20.9881 60.9777 20.7781 60.7244 20.6381C60.471 20.4981 60.1977 20.4281 59.9044 20.4281C59.611 20.4281 59.3377 20.4981 59.0844 20.6381C58.8377 20.7781 58.641 20.9881 58.4944 21.2681C58.3477 21.5414 58.2744 21.8781 58.2744 22.2781C58.2744 22.8714 58.4244 23.3314 58.7244 23.6581C59.031 23.9781 59.4144 24.1381 59.8744 24.1381ZM66.2513 25.1281C65.7313 25.1281 65.2613 25.0114 64.8413 24.7781C64.4213 24.5381 64.0913 24.2048 63.8513 23.7781C63.6113 23.3448 63.4913 22.8448 63.4913 22.2781C63.4913 21.7181 63.6147 21.2214 63.8613 20.7881C64.108 20.3548 64.4447 20.0214 64.8713 19.7881C65.298 19.5548 65.7747 19.4381 66.3013 19.4381C66.828 19.4381 67.3047 19.5548 67.7313 19.7881C68.158 20.0214 68.4947 20.3548 68.7413 20.7881C68.988 21.2214 69.1113 21.7181 69.1113 22.2781C69.1113 22.8381 68.9847 23.3348 68.7313 23.7681C68.478 24.2014 68.1313 24.5381 67.6913 24.7781C67.258 25.0114 66.778 25.1281 66.2513 25.1281ZM66.2513 24.1381C66.5447 24.1381 66.818 24.0681 67.0713 23.9281C67.3313 23.7881 67.5413 23.5781 67.7013 23.2981C67.8613 23.0181 67.9413 22.6781 67.9413 22.2781C67.9413 21.8781 67.8647 21.5414 67.7113 21.2681C67.558 20.9881 67.3547 20.7781 67.1013 20.6381C66.848 20.4981 66.5747 20.4281 66.2813 20.4281C65.988 20.4281 65.7147 20.4981 65.4613 20.6381C65.2147 20.7781 65.018 20.9881 64.8713 21.2681C64.7247 21.5414 64.6513 21.8781 64.6513 22.2781C64.6513 22.8714 64.8013 23.3314 65.1013 23.6581C65.408 23.9781 65.7913 24.1381 66.2513 24.1381ZM72.4583 19.4381C72.8849 19.4381 73.2616 19.5248 73.5883 19.6981C73.9216 19.8648 74.1816 20.0748 74.3683 20.3281V19.5281H75.5183V25.1281C75.5183 25.6348 75.4116 26.0848 75.1983 26.4781C74.9849 26.8781 74.6749 27.1914 74.2683 27.4181C73.8683 27.6448 73.3883 27.7581 72.8283 27.7581C72.0816 27.7581 71.4616 27.5814 70.9683 27.2281C70.4749 26.8814 70.1949 26.4081 70.1283 25.8081H71.2583C71.3449 26.0948 71.5283 26.3248 71.8083 26.4981C72.0949 26.6781 72.4349 26.7681 72.8283 26.7681C73.2883 26.7681 73.6583 26.6281 73.9383 26.3481C74.2249 26.0681 74.3683 25.6614 74.3683 25.1281V24.2081C74.1749 24.4681 73.9116 24.6881 73.5783 24.8681C73.2516 25.0414 72.8783 25.1281 72.4583 25.1281C71.9783 25.1281 71.5383 25.0081 71.1383 24.7681C70.7449 24.5214 70.4316 24.1814 70.1983 23.7481C69.9716 23.3081 69.8583 22.8114 69.8583 22.2581C69.8583 21.7048 69.9716 21.2148 70.1983 20.7881C70.4316 20.3614 70.7449 20.0314 71.1383 19.7981C71.5383 19.5581 71.9783 19.4381 72.4583 19.4381ZM74.3683 22.2781C74.3683 21.8981 74.2883 21.5681 74.1283 21.2881C73.9749 21.0081 73.7716 20.7948 73.5183 20.6481C73.2649 20.5014 72.9916 20.4281 72.6983 20.4281C72.4049 20.4281 72.1316 20.5014 71.8783 20.6481C71.6249 20.7881 71.4183 20.9981 71.2583 21.2781C71.1049 21.5514 71.0283 21.8781 71.0283 22.2581C71.0283 22.6381 71.1049 22.9714 71.2583 23.2581C71.4183 23.5448 71.6249 23.7648 71.8783 23.9181C72.1383 24.0648 72.4116 24.1381 72.6983 24.1381C72.9916 24.1381 73.2649 24.0648 73.5183 23.9181C73.7716 23.7714 73.9749 23.5581 74.1283 23.2781C74.2883 22.9914 74.3683 22.6581 74.3683 22.2781ZM78.1556 17.6381V25.0381H77.0156V17.6381H78.1556ZM84.7023 22.1481C84.7023 22.3548 84.689 22.5414 84.6623 22.7081H80.4523C80.4857 23.1481 80.649 23.5014 80.9423 23.7681C81.2357 24.0348 81.5957 24.1681 82.0223 24.1681C82.6357 24.1681 83.069 23.9114 83.3223 23.3981H84.5523C84.3857 23.9048 84.0823 24.3214 83.6423 24.6481C83.209 24.9681 82.669 25.1281 82.0223 25.1281C81.4957 25.1281 81.0223 25.0114 80.6023 24.7781C80.189 24.5381 79.8623 24.2048 79.6223 23.7781C79.389 23.3448 79.2723 22.8448 79.2723 22.2781C79.2723 21.7114 79.3857 21.2148 79.6123 20.7881C79.8457 20.3548 80.169 20.0214 80.5823 19.7881C81.0023 19.5548 81.4823 19.4381 82.0223 19.4381C82.5423 19.4381 83.0057 19.5514 83.4123 19.7781C83.819 20.0048 84.1357 20.3248 84.3623 20.7381C84.589 21.1448 84.7023 21.6148 84.7023 22.1481ZM83.5123 21.7881C83.5057 21.3681 83.3557 21.0314 83.0623 20.7781C82.769 20.5248 82.4057 20.3981 81.9723 20.3981C81.579 20.3981 81.2423 20.5248 80.9623 20.7781C80.6823 21.0248 80.5157 21.3614 80.4623 21.7881H83.5123ZM93.2819 20.1581C93.2819 20.5114 93.1985 20.8448 93.0319 21.1581C92.8652 21.4714 92.5985 21.7281 92.2319 21.9281C91.8652 22.1214 91.3952 22.2181 90.8219 22.2181H89.5619V25.0381H88.4219V18.0881H90.8219C91.3552 18.0881 91.8052 18.1814 92.1719 18.3681C92.5452 18.5481 92.8219 18.7948 93.0019 19.1081C93.1885 19.4214 93.2819 19.7714 93.2819 20.1581ZM90.8219 21.2881C91.2552 21.2881 91.5785 21.1914 91.7919 20.9981C92.0052 20.7981 92.1119 20.5181 92.1119 20.1581C92.1119 19.3981 91.6819 19.0181 90.8219 19.0181H89.5619V21.2881H90.8219ZM95.5091 17.6381V25.0381H94.3691V17.6381H95.5091ZM96.6259 22.2581C96.6259 21.7048 96.7392 21.2148 96.9659 20.7881C97.1992 20.3614 97.5125 20.0314 97.9059 19.7981C98.3059 19.5581 98.7459 19.4381 99.2259 19.4381C99.6592 19.4381 100.036 19.5248 100.356 19.6981C100.683 19.8648 100.943 20.0748 101.136 20.3281V19.5281H102.286V25.0381H101.136V24.2181C100.943 24.4781 100.679 24.6948 100.346 24.8681C100.013 25.0414 99.6325 25.1281 99.2059 25.1281C98.7325 25.1281 98.2992 25.0081 97.9059 24.7681C97.5125 24.5214 97.1992 24.1814 96.9659 23.7481C96.7392 23.3081 96.6259 22.8114 96.6259 22.2581ZM101.136 22.2781C101.136 21.8981 101.056 21.5681 100.896 21.2881C100.743 21.0081 100.539 20.7948 100.286 20.6481C100.033 20.5014 99.7592 20.4281 99.4659 20.4281C99.1725 20.4281 98.8992 20.5014 98.6459 20.6481C98.3925 20.7881 98.1859 20.9981 98.0259 21.2781C97.8725 21.5514 97.7959 21.8781 97.7959 22.2581C97.7959 22.6381 97.8725 22.9714 98.0259 23.2581C98.1859 23.5448 98.3925 23.7648 98.6459 23.9181C98.9059 24.0648 99.1792 24.1381 99.4659 24.1381C99.7592 24.1381 100.033 24.0648 100.286 23.9181C100.539 23.7714 100.743 23.5581 100.896 23.2781C101.056 22.9914 101.136 22.6581 101.136 22.2781ZM108.743 19.5281L105.363 27.6281H104.183L105.303 24.9481L103.133 19.5281H104.403L105.953 23.7281L107.563 19.5281H108.743Z" fill="#4A3A2F"/>
<path d="M53.235 10.5731C53.0997 10.2884 52.9037 10.0691 52.647 9.91509C52.3903 9.75642 52.0917 9.67709 51.751 9.67709C51.4103 9.67709 51.1023 9.75642 50.827 9.91509C50.5563 10.0691 50.3417 10.2931 50.183 10.5871C50.029 10.8764 49.952 11.2124 49.952 11.5951C49.952 11.9778 50.029 12.3138 50.183 12.6031C50.3417 12.8924 50.5563 13.1164 50.827 13.2751C51.1023 13.4291 51.4103 13.5061 51.751 13.5061C52.227 13.5061 52.619 13.3638 52.927 13.0791C53.235 12.7944 53.4147 12.4094 53.466 11.9241H51.52V11.4061H54.145V11.8961C54.1077 12.2974 53.9817 12.6661 53.767 13.0021C53.5523 13.3334 53.27 13.5971 52.92 13.7931C52.57 13.9844 52.1803 14.0801 51.751 14.0801C51.2983 14.0801 50.8853 13.9751 50.512 13.7651C50.1387 13.5504 49.8423 13.2541 49.623 12.8761C49.4083 12.4981 49.301 12.0711 49.301 11.5951C49.301 11.1191 49.4083 10.6921 49.623 10.3141C49.8423 9.93142 50.1387 9.63509 50.512 9.42509C50.8853 9.21042 51.2983 9.10309 51.751 9.10309C52.269 9.10309 52.7263 9.23142 53.123 9.48809C53.5243 9.74475 53.816 10.1064 53.998 10.5731H53.235ZM58.4872 11.9731C58.4872 12.0944 58.4802 12.2228 58.4662 12.3581H55.4002C55.4236 12.7361 55.5519 13.0324 55.7852 13.2471C56.0232 13.4571 56.3102 13.5621 56.6462 13.5621C56.9216 13.5621 57.1502 13.4991 57.3322 13.3731C57.5189 13.2424 57.6496 13.0698 57.7242 12.8551H58.4102C58.3076 13.2238 58.1022 13.5248 57.7942 13.7581C57.4862 13.9868 57.1036 14.1011 56.6462 14.1011C56.2822 14.1011 55.9556 14.0194 55.6662 13.8561C55.3816 13.6928 55.1576 13.4618 54.9942 13.1631C54.8309 12.8598 54.7492 12.5098 54.7492 12.1131C54.7492 11.7164 54.8286 11.3688 54.9872 11.0701C55.1459 10.7714 55.3676 10.5428 55.6522 10.3841C55.9416 10.2208 56.2729 10.1391 56.6462 10.1391C57.0102 10.1391 57.3322 10.2184 57.6122 10.3771C57.8922 10.5358 58.1069 10.7551 58.2562 11.0351C58.4102 11.3104 58.4872 11.6231 58.4872 11.9731ZM57.8292 11.8401C57.8292 11.5974 57.7756 11.3898 57.6682 11.2171C57.5609 11.0398 57.4139 10.9068 57.2272 10.8181C57.0452 10.7248 56.8422 10.6781 56.6182 10.6781C56.2962 10.6781 56.0209 10.7808 55.7922 10.9861C55.5682 11.1914 55.4399 11.4761 55.4072 11.8401H57.8292ZM60.1051 10.7271V12.9881C60.1051 13.1748 60.1447 13.3078 60.2241 13.3871C60.3034 13.4618 60.4411 13.4991 60.6371 13.4991H61.1061V14.0381H60.5321C60.1774 14.0381 59.9114 13.9564 59.7341 13.7931C59.5567 13.6298 59.4681 13.3614 59.4681 12.9881V10.7271H58.9711V10.2021H59.4681V9.23609H60.1051V10.2021H61.1061V10.7271H60.1051ZM64.0731 9.57909C63.9517 9.57909 63.8491 9.53709 63.7651 9.45309C63.6811 9.36909 63.6391 9.26642 63.6391 9.14509C63.6391 9.02375 63.6811 8.92109 63.7651 8.83709C63.8491 8.75309 63.9517 8.71109 64.0731 8.71109C64.1897 8.71109 64.2877 8.75309 64.3671 8.83709C64.4511 8.92109 64.4931 9.02375 64.4931 9.14509C64.4931 9.26642 64.4511 9.36909 64.3671 9.45309C64.2877 9.53709 64.1897 9.57909 64.0731 9.57909ZM64.3811 10.2021V14.0381H63.7441V10.2021H64.3811ZM66.2437 10.7271V12.9881C66.2437 13.1748 66.2834 13.3078 66.3627 13.3871C66.4421 13.4618 66.5797 13.4991 66.7757 13.4991H67.2447V14.0381H66.6707C66.3161 14.0381 66.0501 13.9564 65.8727 13.7931C65.6954 13.6298 65.6067 13.3614 65.6067 12.9881V10.7271H65.1097V10.2021H65.6067V9.23609H66.2437V10.2021H67.2447V10.7271H66.2437ZM71.5558 14.1011C71.1964 14.1011 70.8698 14.0194 70.5758 13.8561C70.2864 13.6928 70.0578 13.4618 69.8898 13.1631C69.7264 12.8598 69.6448 12.5098 69.6448 12.1131C69.6448 11.7211 69.7288 11.3758 69.8968 11.0771C70.0694 10.7738 70.3028 10.5428 70.5968 10.3841C70.8908 10.2208 71.2198 10.1391 71.5838 10.1391C71.9478 10.1391 72.2768 10.2208 72.5708 10.3841C72.8648 10.5428 73.0958 10.7714 73.2638 11.0701C73.4364 11.3688 73.5228 11.7164 73.5228 12.1131C73.5228 12.5098 73.4341 12.8598 73.2568 13.1631C73.0841 13.4618 72.8484 13.6928 72.5498 13.8561C72.2511 14.0194 71.9198 14.1011 71.5558 14.1011ZM71.5558 13.5411C71.7844 13.5411 71.9991 13.4874 72.1998 13.3801C72.4004 13.2728 72.5614 13.1118 72.6828 12.8971C72.8088 12.6824 72.8718 12.4211 72.8718 12.1131C72.8718 11.8051 72.8111 11.5438 72.6898 11.3291C72.5684 11.1144 72.4098 10.9558 72.2138 10.8531C72.0178 10.7458 71.8054 10.6921 71.5768 10.6921C71.3434 10.6921 71.1288 10.7458 70.9328 10.8531C70.7414 10.9558 70.5874 11.1144 70.4708 11.3291C70.3541 11.5438 70.2958 11.8051 70.2958 12.1131C70.2958 12.4258 70.3518 12.6894 70.4638 12.9041C70.5804 13.1188 70.7344 13.2798 70.9258 13.3871C71.1171 13.4898 71.3271 13.5411 71.5558 13.5411ZM76.2293 10.1321C76.696 10.1321 77.074 10.2744 77.3633 10.5591C77.6526 10.8391 77.7973 11.2451 77.7973 11.7771V14.0381H77.1673V11.8681C77.1673 11.4854 77.0716 11.1938 76.8803 10.9931C76.689 10.7878 76.4276 10.6851 76.0963 10.6851C75.7603 10.6851 75.492 10.7901 75.2913 11.0001C75.0953 11.2101 74.9973 11.5158 74.9973 11.9171V14.0381H74.3603V10.2021H74.9973V10.7481C75.1233 10.5521 75.2936 10.4004 75.5083 10.2931C75.7276 10.1858 75.968 10.1321 76.2293 10.1321Z" fill="#4A3A2F"/>
<defs>
<clipPath id="clip0">
<rect width="18.4889" height="17.7778" fill="white" transform="translate(26.0444 7.14941)"/>
</clipPath>
</defs>
</svg>
