<svg width="26" height="26" viewBox="0 0 26 26" fill="none" xmlns="http://www.w3.org/2000/svg">
<g clip-path="url(#clip0)">
<path d="M11.1946 24.0159V19.6777C11.1946 19.089 10.7174 18.6123 10.1292 18.6123C8.03005 18.6123 6.88809 16.4594 6.72959 12.2097H10.1292C10.7174 12.2097 11.1946 11.7323 11.1946 11.1443V1.98403C11.1946 1.39562 10.7174 0.918863 10.1292 0.918863H1.06546C0.477354 0.918863 0 1.39614 0 1.98403V11.1444C0 13.1814 0.205645 15.0507 0.609337 16.7016C1.02405 18.394 1.66065 19.8735 2.50103 21.0997C3.36532 22.3597 4.44739 23.3484 5.7153 24.037C6.99281 24.73 8.47783 25.0817 10.1296 25.0817C10.7174 25.0812 11.1946 24.604 11.1946 24.0159ZM24.9348 18.6119C25.523 18.6119 26 19.089 26 19.6768V24.0159C26 24.604 25.523 25.0809 24.9348 25.0809C23.2839 25.0809 21.7981 24.7291 20.5214 24.0362C19.2528 23.3477 18.1709 22.3598 17.3067 21.0988C16.4658 19.8727 15.8293 18.3931 15.4146 16.6999C15.0106 15.049 14.8054 13.1796 14.8054 11.1435V1.98313C14.8054 1.39473 15.2829 0.917969 15.8708 0.917969H24.9348C25.523 0.917969 26 1.39517 26 1.98313V11.1435C26 11.7318 25.523 12.2089 24.9348 12.2089H21.583C21.7396 16.459 22.8651 18.6119 24.9348 18.6119Z" fill="#878987"/>
</g>
<defs>
<clipPath id="clip0">
<rect width="26" height="26" fill="white" transform="matrix(-1 0 0 1 26 0)"/>
</clipPath>
</defs>
</svg>
