<svg width="18" height="18" viewBox="0 0 18 18" fill="none" xmlns="http://www.w3.org/2000/svg">
<path d="M6.5 6L9 0.5V14.5L7.5 15.5L4 17.5L4.5 11L0.5 7L6.5 6Z" fill="white"/>
<path d="M17.0832 6.61242L17.0831 6.61241L11.887 6.12015L11.5866 6.09169L11.4723 5.81238L9.41907 0.796311C9.41903 0.796213 9.41898 0.796114 9.41894 0.796016C9.34023 0.604967 9.1713 0.499032 9.00001 0.499032C8.82838 0.499032 8.65989 0.605222 8.5822 0.795281L8.58211 0.795514L6.52859 5.81238L6.41427 6.09169L6.11381 6.12015L0.917702 6.61233C0.91758 6.61235 0.917457 6.61236 0.917335 6.61237C0.746954 6.62893 0.585907 6.75173 0.523387 6.95017C0.461094 7.1508 0.521716 7.36482 0.663049 7.49419C0.663061 7.49421 0.663072 7.49422 0.663084 7.49423L4.59086 11.0882L4.80263 11.282L4.7416 11.5624L3.5836 16.8846C3.58358 16.8847 3.58355 16.8848 3.58353 16.8849C3.53849 17.0935 3.61861 17.2984 3.76842 17.4114L3.7694 17.4122C3.84912 17.4726 3.93955 17.501 4.0289 17.501C4.10547 17.501 4.18341 17.4799 4.25514 17.4351L4.25528 17.435L8.73585 14.6394L9.00003 14.4746L9.26421 14.6394L13.7438 17.435C13.8963 17.5301 14.0849 17.5223 14.2312 17.4118L14.2316 17.4114C14.3814 17.2985 14.4615 17.0937 14.4165 16.8851L17.0832 6.61242ZM17.0832 6.61242C17.2534 6.62849 17.4145 6.75108 17.4764 6.94934C17.5391 7.15108 17.4784 7.36474 17.3368 7.49431L13.4092 11.0882L13.1974 11.282L13.2584 11.5624L14.4164 16.8846L17.0832 6.61242Z" stroke="#8E8E8E" stroke-width="0.998064"/>
</svg>
