<svg width="18" height="18" viewBox="0 0 18 18" fill="none" xmlns="http://www.w3.org/2000/svg">
<path d="M6.5 6L9 0.5V14.5L7.5 15.5L4 17.5L4.5 11L0.5 7L6.5 6Z" fill="#4A3A2F"/>
<path d="M17.0832 6.61242L17.0831 6.61241L11.887 6.12015L11.5866 6.09169L11.4723 5.81238L9.41907 0.796312C9.41903 0.796235 9.419 0.796158 9.41897 0.796081C9.34027 0.604991 9.17132 0.499032 9.00001 0.499032C8.82838 0.499032 8.65989 0.605222 8.5822 0.795281L8.58211 0.795514L6.52859 5.81238L6.41427 6.09169L6.11381 6.12015L0.917702 6.61233C0.91765 6.61234 0.917598 6.61234 0.917546 6.61235C0.747096 6.62883 0.58595 6.75164 0.523397 6.95014C0.461082 7.15079 0.521718 7.36485 0.663084 7.49423L4.59086 11.0882L4.80263 11.282L4.7416 11.5624L3.5836 16.8846C3.58358 16.8847 3.58355 16.8848 3.58353 16.8849C3.53849 17.0935 3.61861 17.2984 3.76842 17.4114L3.7694 17.4122C3.84912 17.4726 3.93955 17.501 4.0289 17.501C4.10547 17.501 4.18341 17.4799 4.25514 17.4351L4.25528 17.435L8.73585 14.6394L9.00004 14.4746L9.26421 14.6394L13.7438 17.435C13.7439 17.435 13.7439 17.435 13.744 17.4351C13.8964 17.5301 14.0849 17.5223 14.2312 17.4118L14.2316 17.4114C14.3814 17.2984 14.4615 17.0935 14.4165 16.8849C14.4165 16.8848 14.4164 16.8847 14.4164 16.8846L13.2584 11.5624L13.1974 11.282L13.4092 11.0882L17.3369 7.49431C17.3369 7.49427 17.3369 7.49423 17.337 7.4942C17.4783 7.36468 17.539 7.15124 17.4765 6.94964L17.0832 6.61242ZM17.0832 6.61242C17.2534 6.62849 17.4145 6.75108 17.4764 6.94934L17.0832 6.61242Z" stroke="#4A3A2F" stroke-width="0.998064"/>
</svg>
