<svg width="13" height="14" viewBox="0 0 13 14" fill="none" xmlns="http://www.w3.org/2000/svg">
<path d="M9.03752 8.08859C10.4976 6.02676 10.0093 3.17173 7.94748 1.71195C5.88565 0.252164 3.03061 0.740153 1.57083 2.80233C0.111051 4.86417 0.59904 7.71885 2.66122 9.17863C4.13286 10.2205 6.07854 10.3008 7.63076 9.38408L11.0034 12.7365C11.3676 13.1199 11.9735 13.1352 12.3568 12.7711C12.7402 12.4072 12.7555 11.8014 12.3917 11.418C12.3802 11.4058 12.369 11.3946 12.3568 11.3831L9.03752 8.08859ZM5.30138 8.40113C3.67208 8.40148 2.35113 7.08157 2.35008 5.45226C2.34973 3.82296 3.66964 2.50201 5.29929 2.50131C6.9265 2.50061 8.24676 3.81843 8.2499 5.44564C8.25269 7.07529 6.93348 8.39834 5.30348 8.40113C5.30278 8.40113 5.30243 8.40113 5.30138 8.40113Z" fill="white"/>
</svg>
