<svg width="25" height="25" viewBox="0 0 25 25" fill="none" xmlns="http://www.w3.org/2000/svg">
<g clip-path="url(#clip0)">
<path d="M5.64499 4.18339C4.52976 4.50249 3.71094 5.53036 3.71094 6.74667C3.71094 7.96299 4.52976 8.99086 5.64499 9.31015L5.64499 25H7.10983L7.10983 9.30996C8.22487 8.99086 9.04388 7.96299 9.04388 6.74667C9.04388 5.53036 8.22487 4.50249 7.10983 4.1832V0H5.64499V4.18339ZM7.57904 6.74667C7.57904 7.40929 7.04002 7.9483 6.37741 7.9483C5.7148 7.9483 5.17578 7.4091 5.17578 6.74667C5.17578 6.08406 5.7148 5.54504 6.37741 5.54504C7.04002 5.54504 7.57904 6.08406 7.57904 6.74667Z" fill="#3E432F"/>
<path d="M9.83813 20.3051C9.83813 21.5214 10.6572 22.5492 11.7722 22.8683V25H13.237V22.8683C14.3523 22.5492 15.1711 21.5212 15.1711 20.3049C15.1711 19.0886 14.3523 18.0607 13.237 17.7416L13.237 0H11.7722L11.7722 17.7416C10.6572 18.0607 9.83813 19.0887 9.83813 20.3051ZM13.7062 20.3051C13.7062 20.9675 13.1672 21.5065 12.5046 21.5065C11.8422 21.5065 11.303 20.9675 11.303 20.3051C11.303 19.6424 11.8422 19.1034 12.5046 19.1034C13.1672 19.1034 13.7062 19.6424 13.7062 20.3051Z" fill="#3E432F"/>
<path d="M15.9651 7.08935C15.9651 8.30566 16.7839 9.33372 17.8991 9.65282V25H19.364V9.65282C20.479 9.33372 21.298 8.30566 21.298 7.08935C21.298 5.87322 20.479 4.84516 19.364 4.52606V0H17.8991V4.52606C16.7839 4.84516 15.9651 5.87322 15.9651 7.08935ZM19.8332 7.08935C19.8332 7.75196 19.2942 8.29098 18.6316 8.29098C17.9689 8.29098 17.4299 7.75196 17.4299 7.08935C17.4299 6.42693 17.9689 5.88772 18.6316 5.88772C19.2942 5.88772 19.8332 6.42673 19.8332 7.08935Z" fill="#3E432F"/>
</g>
<defs>
<clipPath id="clip0">
<rect width="25" height="25" fill="white" transform="translate(0 25) rotate(-90)"/>
</clipPath>
</defs>
</svg>
