<svg width="31" height="31" viewBox="0 0 31 31" fill="none" xmlns="http://www.w3.org/2000/svg">
<g clip-path="url(#clip0)">
<path fill-rule="evenodd" clip-rule="evenodd" d="M26.6872 22.0754C32.7098 7.57811 21.4398 1.18457 14.6272 1.18457C6.9494 1.18457 0.702148 7.43183 0.702148 15.1097C0.702148 22.7875 6.94876 29.0341 14.6272 29.0341C19.5824 29.0341 24.2035 26.3672 26.6872 22.0754ZM14.6272 26.503C18.6812 26.503 22.4627 24.32 24.4958 20.807C28.9442 7.57811 20.0381 3.71757 14.6272 3.71757C8.34537 3.71757 3.23387 8.82844 3.23387 15.1109C3.23387 21.3922 8.34537 26.503 14.6272 26.503Z" fill="#8E8E8E"/>
<path d="M14.6282 4.34961C13.9289 4.34961 13.3623 4.9162 13.3623 5.61547V13.2965C12.79 13.6977 12.4131 14.3592 12.4131 15.1104C12.4131 16.332 13.4072 17.3261 14.6288 17.3261C14.9634 17.3261 15.2787 17.246 15.5633 17.112L19.9666 19.6534C20.1666 19.7694 20.3832 19.8239 20.5985 19.8239C21.0357 19.8239 21.4613 19.597 21.6958 19.1906C22.0451 18.5862 21.8381 17.8113 21.2318 17.462L16.824 14.9168C16.7651 14.2477 16.417 13.6631 15.8953 13.2978V5.61547C15.894 4.91684 15.3268 4.34961 14.6282 4.34961ZM14.6282 16.059C14.1045 16.059 13.6789 15.6327 13.6789 15.1104C13.6789 14.5874 14.1052 14.1611 14.6282 14.1611C15.1512 14.1611 15.5774 14.5874 15.5774 15.1104C15.5774 15.6327 15.1512 16.059 14.6282 16.059Z" fill="#8E8E8E"/>
</g>
<defs>
<clipPath id="clip0">
<rect width="30.1249" height="30.1249" fill="white" transform="translate(0.702148 0.046875)"/>
</clipPath>
</defs>
</svg>
