<svg width="14" height="13" viewBox="0 0 14 13" fill="none" xmlns="http://www.w3.org/2000/svg">
<path d="M13.0422 0H0.957757C0.704936 0 0.5 0.204936 0.5 0.457757V7.2553C0.5 7.50808 0.704936 7.71306 0.957757 7.71306H13.0423C13.295 7.71306 13.5 7.50812 13.5 7.2553V0.457757C13.5 0.204936 13.295 0 13.0422 0ZM12.5845 6.79754H1.41551V0.915513H12.5845V6.79754Z" fill="#989595"/>
<path d="M13.0422 8.30811H10.0211C9.76833 8.30811 9.56335 8.51304 9.56335 8.76586V9.81869H8.96828V8.76586C8.96828 8.51309 8.7633 8.30811 8.51053 8.30811H5.48941C5.23663 8.30811 5.03165 8.51304 5.03165 8.76586V9.81869H4.43663V8.76586C4.43663 8.51309 4.23165 8.30811 3.97887 8.30811H0.957757C0.704936 8.30811 0.5 8.51309 0.5 8.76586V11.0317C0.5 11.2845 0.704936 11.4895 0.957757 11.4895H2.76585V12.5423C2.76585 12.7951 2.97078 13.0001 3.22361 13.0001H6.24472C6.4975 13.0001 6.70248 12.7951 6.70248 12.5423V11.4895H7.29755V12.5423C7.29755 12.7951 7.50248 13.0001 7.7553 13.0001H10.7764C11.0292 13.0001 11.2342 12.7951 11.2342 12.5423V11.4895H13.0423C13.295 11.4895 13.5 11.2845 13.5 11.0317V8.76586C13.5 8.51309 13.295 8.30811 13.0422 8.30811ZM2.76585 10.2764V10.574H1.41551V9.22362H3.52116V9.81869H3.22361C2.97078 9.81869 2.76585 10.0236 2.76585 10.2764ZM5.78697 12.0845H3.68132V10.7342H5.78697V12.0845ZM6.70244 10.574V10.2764C6.70244 10.0236 6.4975 9.81864 6.24468 9.81864H5.94712V9.22358H8.05277V9.81864H7.75522C7.50244 9.81864 7.29746 10.0236 7.29746 10.2764V10.574H6.70244ZM10.3187 12.0845H8.21302V10.7342H10.3187V12.0845ZM12.5845 10.574H11.2342V10.2764C11.2342 10.0236 11.0292 9.81864 10.7764 9.81864H10.4789V9.22358H12.5845V10.574Z" fill="#989595"/>
<path d="M5.64849 5.77067C5.71616 5.80691 5.79043 5.82485 5.86445 5.82485C5.95326 5.82485 6.04181 5.79903 6.11841 5.74795L8.38426 4.23737C8.51163 4.1525 8.5881 4.00958 8.5881 3.85652C8.5881 3.70345 8.51163 3.56054 8.38426 3.47567L6.11841 1.96513C5.97804 1.87146 5.79735 1.86262 5.64849 1.94241C5.49966 2.02208 5.40674 2.1772 5.40674 2.34598V5.3671C5.40674 5.53588 5.49971 5.691 5.64849 5.77067ZM6.32225 3.20131L7.30517 3.85656L6.32225 4.51181V3.20131Z" fill="#989595"/>
</svg>
