<svg width="26" height="21" viewBox="0 0 26 21" fill="none" xmlns="http://www.w3.org/2000/svg">
<path d="M8.17678 20.9998C17.9886 20.9998 23.3542 12.9213 23.3542 5.91609C23.3542 5.68665 23.3495 5.45815 23.3391 5.23092C24.3806 4.48254 25.2858 3.54864 26 2.48565C25.0442 2.90803 24.0155 3.19199 22.9367 3.32046C24.0379 2.66389 24.8835 1.6257 25.2823 0.388096C24.2516 0.995365 23.1102 1.43656 21.8951 1.67485C20.9217 0.644404 19.5357 0 18.0011 0C15.0555 0 12.6665 2.37408 12.6665 5.30061C12.6665 5.71683 12.7134 6.12136 12.8048 6.50946C8.3714 6.28775 4.43994 4.17835 1.80927 0.970556C1.35135 1.75386 1.08709 2.66405 1.08709 3.63524C1.08709 5.47427 2.02885 7.09824 3.46082 8.04793C2.58567 8.02123 1.76364 7.78246 1.04495 7.38504C1.04416 7.40732 1.04416 7.42897 1.04416 7.45267C1.04416 10.0202 2.88285 12.1639 5.32399 12.6496C4.87561 12.7708 4.40385 12.8361 3.91731 12.8361C3.57418 12.8361 3.23965 12.8026 2.91465 12.7405C3.59374 14.8469 5.56313 16.3797 7.8979 16.4226C6.07209 17.8448 3.77214 18.692 1.27248 18.692C0.842546 18.692 0.417537 18.6675 0 18.6185C2.36085 20.1224 5.16419 21 8.17694 21" fill="white"/>
</svg>
