<svg width="40" height="40" viewBox="0 0 40 40" fill="none" xmlns="http://www.w3.org/2000/svg">
<path d="M16.1415 27.9998C23.991 27.9998 28.2835 21.537 28.2835 15.9328C28.2835 15.7493 28.2797 15.5665 28.2714 15.3847C29.1046 14.786 29.8287 14.0389 30.4001 13.1885C29.6355 13.5264 28.8125 13.7535 27.9494 13.8563C28.8304 13.3311 29.5069 12.5005 29.8259 11.5104C29.0014 11.9962 28.0882 12.3492 27.1162 12.5398C26.3374 11.7155 25.2286 11.2 24.001 11.2C21.6445 11.2 19.7333 13.0992 19.7333 15.4404C19.7333 15.7734 19.7708 16.097 19.844 16.4075C16.2972 16.2302 13.1521 14.5426 11.0475 11.9764C10.6812 12.603 10.4698 13.3312 10.4698 14.1081C10.4698 15.5794 11.2232 16.8785 12.3688 17.6383C11.6686 17.6169 11.011 17.4259 10.4361 17.108C10.4354 17.1258 10.4354 17.1431 10.4354 17.1621C10.4354 19.2161 11.9064 20.931 13.8593 21.3196C13.5006 21.4166 13.1232 21.4688 12.7339 21.4688C12.4594 21.4688 12.1918 21.442 11.9318 21.3923C12.4751 23.0775 14.0506 24.3037 15.9184 24.3381C14.4578 25.4758 12.6178 26.1535 10.6181 26.1535C10.2741 26.1535 9.93413 26.1339 9.6001 26.0947C11.4888 27.2978 13.7315 28 16.1417 28" fill="white"/>
<circle cx="20" cy="20" r="19.75" stroke="white" stroke-width="0.5"/>
</svg>
