<svg width="18" height="13" viewBox="0 0 18 13" fill="none" xmlns="http://www.w3.org/2000/svg">
<path d="M8.54071 10.0479C7.72399 10.0479 7.05957 10.7101 7.05957 11.5237C7.05957 12.3376 7.72399 13.0002 8.54071 13.0002C9.35769 13.0002 10.0221 12.3376 10.0221 11.5237C10.0221 10.7101 9.35756 10.0479 8.54071 10.0479Z" fill="#989595"/>
<path d="M12.1543 8.03674C11.19 7.07299 9.90642 6.54199 8.54052 6.54199C7.17986 6.54199 5.8998 7.06949 4.93578 8.02717C4.54643 8.41464 4.54575 9.04591 4.93416 9.43405C5.12284 9.623 5.37406 9.72678 5.64145 9.72678C5.90762 9.72678 6.15789 9.62354 6.3463 9.43621C6.93296 8.85319 7.71221 8.53203 8.54052 8.53203C9.37192 8.53203 10.1533 8.85521 10.7404 9.44174C10.9291 9.63015 11.1802 9.73419 11.4473 9.73419C11.7137 9.73419 11.9638 9.63096 12.1524 9.44362C12.5423 9.05612 12.543 8.42515 12.1543 8.03674Z" fill="#989595"/>
<path d="M16.7963 3.40996C14.5917 1.21079 11.6595 0 8.54034 0C5.42536 0 2.4961 1.20796 0.292185 3.4019C-0.0971702 3.78937 -0.0974398 4.42064 0.291646 4.80878C0.480191 4.99679 0.731001 5.10016 0.997848 5.10016C1.26456 5.10016 1.5151 4.99719 1.70365 4.80932C3.53048 2.99098 5.95838 1.98936 8.54034 1.98936C11.1261 1.98936 13.5564 2.99301 15.3836 4.8162C15.5722 5.00434 15.8234 5.10811 16.0901 5.10811C16.3567 5.10811 16.6072 5.00461 16.7956 4.817C17.1851 4.42923 17.1855 3.79773 16.7963 3.40996Z" fill="#989595"/>
<path d="M14.4164 5.78129C12.8471 4.21565 10.7603 3.35352 8.54031 3.35352C6.3244 3.35352 4.2407 4.21295 2.67277 5.77307C2.48395 5.96081 2.38004 6.21054 2.37964 6.47644C2.37964 6.74208 2.48314 6.99208 2.67169 7.18008C2.86023 7.36822 3.11118 7.472 3.37803 7.472C3.64447 7.472 3.89501 7.36849 4.08382 7.18116C5.27494 5.99611 6.85769 5.34328 8.54031 5.34328C10.2264 5.34328 11.8114 5.99841 13.0033 7.1875C13.1921 7.37591 13.4429 7.47968 13.7099 7.47968C13.9765 7.47968 14.2271 7.37618 14.4154 7.18857C14.604 7.00084 14.7081 6.75111 14.7083 6.4852C14.7085 6.2193 14.6048 5.96957 14.4164 5.78129Z" fill="#989595"/>
</svg>
