<svg width="24" height="24" viewBox="0 0 24 24" fill="none" xmlns="http://www.w3.org/2000/svg">
<path d="M23.8147 21.3288L23.4723 20.9864C23.335 20.849 23.1124 20.8491 22.9751 20.9863C22.8378 21.1236 22.8378 21.3462 22.9751 21.4835L23.2677 21.7762L21.7762 23.2677L19.2406 20.7321L20.7321 19.2405L21.915 20.4235C22.0524 20.5607 22.275 20.5607 22.4123 20.4235C22.5495 20.2861 22.5495 20.0636 22.4123 19.9263L20.9813 18.4954C20.9811 18.4952 20.9809 18.495 20.9807 18.4947L19.9864 17.5004C19.9861 17.5001 19.9858 17.4999 19.9855 17.4996L19.108 16.6221C18.9885 16.5025 18.8295 16.4366 18.6605 16.4366C18.4914 16.4366 18.3325 16.5025 18.213 16.622L18.1633 16.6717L16.9053 15.4134C17.8044 14.29 18.4538 12.9587 18.769 11.5042H21.2461C21.4403 11.5042 21.5977 11.3468 21.5977 11.1526C21.5977 10.9584 21.4403 10.801 21.2461 10.801H18.8937C18.9247 10.5774 18.9478 10.3514 18.9629 10.1232H22.9219C23.1161 10.1232 23.2734 9.96581 23.2734 9.77161C23.2734 9.57741 23.1161 9.42005 22.9219 9.42005H18.9836C18.9819 9.19256 18.9725 8.96653 18.9553 8.74214H21.2462C21.4404 8.74214 21.5978 8.58478 21.5978 8.39058C21.5978 8.19637 21.4404 8.03901 21.2462 8.03901H18.875C18.6293 6.42281 17.9725 4.911 16.9388 3.60516C16.8183 3.45295 16.5973 3.42727 16.445 3.54769C16.2928 3.6682 16.267 3.88931 16.3875 4.04156C17.6264 5.60667 18.2812 7.49147 18.2812 9.49219C18.2812 14.3385 14.3385 18.2812 9.49219 18.2812C4.64587 18.2812 0.703125 14.3385 0.703125 9.49219C0.703125 4.64587 4.64587 0.703125 9.49219 0.703125C11.683 0.703125 13.7818 1.51397 15.4017 2.98627C15.5453 3.11695 15.7678 3.10627 15.8983 2.96259C16.0289 2.81892 16.0183 2.59655 15.8745 2.46595C14.125 0.875766 11.8583 0 9.49219 0C4.25817 0 0 4.25817 0 9.49219C0 14.1132 3.31941 17.9729 7.69889 18.8137V21.1855C7.69889 21.3797 7.85625 21.5371 8.05045 21.5371C8.24466 21.5371 8.40202 21.3797 8.40202 21.1855V18.9214C8.62575 18.9471 8.85178 18.9651 9.07992 18.9749V22.8388C9.07992 23.033 9.23728 23.1904 9.43148 23.1904C9.62569 23.1904 9.78305 23.033 9.78305 22.8388V18.9795C10.011 18.9726 10.2372 18.9581 10.461 18.9353V21.1855C10.461 21.3797 10.6183 21.5371 10.8125 21.5371C11.0067 21.5371 11.1641 21.3797 11.1641 21.1855V18.8369C12.7514 18.5537 14.203 17.8742 15.4135 16.9053L16.6718 18.1633L16.6221 18.213C16.5025 18.3325 16.4367 18.4914 16.4367 18.6605C16.4367 18.8296 16.5025 18.9885 16.622 19.108L17.4999 19.9858C17.5001 19.986 17.5002 19.9862 17.5004 19.9864L18.4948 20.9807C18.495 20.9809 18.4952 20.9811 18.4954 20.9813L21.3287 23.8146C21.4482 23.9342 21.6071 24 21.7762 24C21.9453 24 22.1041 23.9342 22.2237 23.8147L23.8147 22.2237C23.9342 22.1041 24 21.9453 24 21.7762C24 21.6071 23.9342 21.4482 23.8147 21.3288ZM16.4447 15.9473L17.666 17.1688L17.1689 17.666L15.9473 16.4447C16.1191 16.2851 16.2851 16.1191 16.4447 15.9473ZM18.7434 20.2349L18.2462 19.7377L19.7377 18.2462L20.2349 18.7434L18.7434 20.2349ZM18.6605 17.169L19.2405 17.749L17.749 19.2405L17.169 18.6605L18.6605 17.169Z" fill="#4A3A2F"/>
<path d="M4.59646 15.9277C6.00454 16.9861 7.69607 17.5568 9.49227 17.5781C13.9509 17.5781 17.5782 13.9508 17.5782 9.49219C17.5782 5.03358 13.9509 1.40625 9.49227 1.40625C7.34057 1.40625 5.31674 2.24845 3.79372 3.7777C2.27713 5.30044 1.4293 7.32858 1.40633 9.48844C1.38524 11.4768 2.10772 13.388 3.44066 14.8699C3.5705 15.0143 3.79279 15.0261 3.93716 14.8962C4.08154 14.7664 4.0933 14.544 3.96346 14.3997C2.74865 13.0492 2.09019 11.3076 2.10946 9.49594C2.13041 7.52048 2.90549 5.66592 4.29191 4.27392C5.68204 2.87808 7.52886 2.10938 9.49227 2.10938C13.5632 2.10938 16.8751 5.42128 16.8751 9.49219C16.8751 13.5631 13.5632 16.875 9.49644 16.875C7.85493 16.8555 6.30664 16.3336 5.0189 15.3657C4.86379 15.249 4.64329 15.2803 4.52666 15.4355C4.40994 15.5907 4.44121 15.8111 4.59646 15.9277Z" fill="#4A3A2F"/>
<path d="M10.8281 3.21094H8.39057C8.09334 3.21094 7.85151 3.45277 7.85151 3.75V4.99219H5.57808C5.28084 4.99219 5.03901 5.23402 5.03901 5.53125V9.30469H4.56848C4.37428 9.30469 4.21692 9.46205 4.21692 9.65625C4.21692 9.85045 4.37428 10.0078 4.56848 10.0078H14.6502C14.8444 10.0078 15.0017 9.85045 15.0017 9.65625C15.0017 9.46205 14.8444 9.30469 14.6502 9.30469H14.1796V7.3125C14.1796 7.01527 13.9378 6.77344 13.6406 6.77344H11.3671V3.75C11.3671 3.45277 11.1253 3.21094 10.8281 3.21094ZM5.74214 5.69531H7.85151V9.30469H5.74214V5.69531ZM8.55464 3.91406H10.664V9.30469H8.55464V3.91406ZM13.4765 7.47656V9.30469H11.3671V7.47656H13.4765Z" fill="#4A3A2F"/>
<path d="M13.5469 12.9873H11.8918L11.1399 11.0653C11.0867 10.9295 10.9565 10.8416 10.8094 10.8418C10.6635 10.8431 10.5336 10.9344 10.4828 11.0712L9.45533 13.8419L8.73721 11.8064C8.69127 11.6761 8.57324 11.5848 8.43552 11.5731C8.29799 11.5612 8.16608 11.6314 8.09868 11.752L7.40905 12.9873H5.7583C5.5641 12.9873 5.40674 13.1446 5.40674 13.3388C5.40674 13.533 5.5641 13.6904 5.7583 13.6904H7.6154C7.7428 13.6904 7.86027 13.6214 7.92238 13.5102L8.33315 12.7745L9.11554 14.9922C9.1648 15.1318 9.29619 15.2256 9.44427 15.2268H9.44713C9.59399 15.2268 9.72557 15.1354 9.77671 14.9974L10.8212 12.1808L11.3243 13.4669C11.3771 13.6017 11.507 13.6904 11.6517 13.6904H13.5469C13.7411 13.6904 13.8984 13.5331 13.8984 13.3389C13.8984 13.1447 13.7411 12.9873 13.5469 12.9873Z" fill="#4A3A2F"/>
</svg>
