<svg width="22" height="27" viewBox="0 0 22 27" fill="none" xmlns="http://www.w3.org/2000/svg">
<path d="M15.8283 0.85376C14.4551 0.948736 12.8502 1.82767 11.9149 2.97221C11.0618 4.0105 10.3599 5.55265 10.6336 7.05134C12.1339 7.09802 13.6841 6.19817 14.5823 5.03431C15.4226 3.95094 16.0585 2.41845 15.8283 0.85376Z" fill="#191E29"/>
<path d="M21.2547 9.49497C19.9363 7.84174 18.0835 6.88232 16.3336 6.88232C14.0236 6.88232 13.0465 7.98823 11.4416 7.98823C9.78674 7.98823 8.52952 6.88554 6.53181 6.88554C4.56951 6.88554 2.48004 8.08482 1.1552 10.1357C-0.707289 13.0236 -0.388556 18.4533 2.62975 23.0781C3.7099 24.733 5.15224 26.5938 7.03888 26.6099C8.71786 26.626 9.19113 25.533 11.4657 25.5217C13.7403 25.5089 14.1717 26.6244 15.8475 26.6067C17.7357 26.5922 19.257 24.5301 20.3371 22.8753C21.1114 21.6889 21.3996 21.0917 22 19.7524C17.6327 18.0895 16.9325 11.879 21.2547 9.49497Z" fill="#191E29"/>
</svg>
