<svg width="19" height="19" viewBox="0 0 19 19" fill="none" xmlns="http://www.w3.org/2000/svg">
<path d="M12.2832 5.60352V6.7168H12.8398C13.147 6.7168 13.3965 6.46727 13.3965 6.16016C13.3965 5.85304 13.147 5.60352 12.8398 5.60352H12.2832Z" fill="#575957"/>
<path d="M2.26367 19H8.94336C9.25103 19 9.5 18.751 9.5 18.4434C9.5 18.1357 9.25103 17.8867 8.94336 17.8867H7.27344V13.9531C7.27344 13.6455 7.02447 13.3965 6.7168 13.3965H6.16016V2.7832C6.16016 1.86237 6.90925 1.11328 7.83008 1.11328H12.2832V2.22656H8.94336C8.63569 2.22656 8.38672 2.47553 8.38672 2.7832V10.6133C8.38672 10.921 8.63569 11.1699 8.94336 11.1699H16.7363C17.044 11.1699 17.293 10.921 17.293 10.6133V2.7832C17.293 2.47553 17.044 2.22656 16.7363 2.22656H13.3965V1.11328H15.623C15.9307 1.11328 16.1797 0.864314 16.1797 0.556641C16.1797 0.248967 15.9307 0 15.623 0H7.83008C6.29549 0 5.04688 1.24862 5.04688 2.7832V13.3965H4.49023C4.18256 13.3965 3.93359 13.6455 3.93359 13.9531V17.8867H2.26367C1.956 17.8867 1.70703 18.1357 1.70703 18.4434C1.70703 18.751 1.956 19 2.26367 19ZM14.5098 6.16016C14.5098 7.08099 13.7607 7.83008 12.8398 7.83008H12.2832V8.38672C12.2832 8.69439 12.0342 8.94336 11.7266 8.94336C11.4189 8.94336 11.1699 8.69439 11.1699 8.38672C11.1699 8.22032 11.1699 4.88582 11.1699 5.04688C11.1699 4.7392 11.4189 4.49023 11.7266 4.49023H12.8398C13.7607 4.49023 14.5098 5.23932 14.5098 6.16016Z" fill="#575957"/>
</svg>
