<svg width="25" height="24" viewBox="0 0 25 24" fill="none" xmlns="http://www.w3.org/2000/svg">
<path d="M24.695 10.2491C24.4317 9.88236 24.0326 9.62968 23.5686 9.5339C23.8679 9.00584 23.8557 8.34697 23.4745 7.81605C23.2033 7.43809 22.7941 7.19399 22.3487 7.1016C22.4281 6.96186 22.4868 6.81103 22.5219 6.65199C22.6192 6.2097 22.5242 5.75902 22.254 5.38286C21.9907 5.01598 21.5916 4.7633 21.1276 4.6677C21.4269 4.13963 21.4147 3.48076 21.0335 2.94966C20.4761 2.17321 19.3373 1.95966 18.4954 2.47396L16.6724 3.58763C15.7006 3.13301 14.667 2.81046 13.5944 2.62675C13.2553 2.15194 12.8611 1.71055 12.4198 1.31598L11.6656 0.641743C11.1132 0.147814 10.2471 0.0736532 9.6058 0.465544C8.84715 0.928916 8.63869 1.87532 9.14104 2.57511C9.1608 2.60281 9.18017 2.63068 9.19935 2.65856C6.72714 3.11997 4.47404 4.33013 2.8064 6.10338C0.99675 8.02781 0 10.4924 0 13.0432C0 13.5322 0.0362279 14.022 0.107909 14.4987C0.660238 18.2052 3.33684 21.3993 7.09291 22.8348C8.48584 23.3673 9.96382 23.6375 11.4852 23.6375C13.8946 23.6375 16.201 22.9568 18.1552 21.6693C20.0669 20.4095 21.4973 18.6709 22.2917 16.6415C22.3659 16.4525 22.2596 16.2436 22.0546 16.1753C21.8495 16.1071 21.6232 16.205 21.5492 16.3942C20.8093 18.284 19.477 19.903 17.696 21.0765C15.8767 22.2754 13.729 22.9091 11.4852 22.9091C10.3251 22.9091 9.19238 22.7402 8.10826 22.4072L11.3207 20.4448C11.3209 20.4447 11.3211 20.4447 11.3213 20.4445C11.3215 20.4445 11.3215 20.4443 11.3217 20.4441L13.9915 18.8133H13.9917C14.2313 18.6668 14.395 18.443 14.4524 18.183C14.5097 17.923 14.4539 17.6578 14.2951 17.4368L14.2598 17.3874L14.7784 17.0706C15.1485 16.8445 15.5935 16.7559 16.0317 16.8208C16.6662 16.9148 17.3105 16.7861 17.846 16.4589L22.1476 13.8313C22.1182 14.1755 22.0697 14.5177 22.0021 14.8542C21.9622 15.052 22.1038 15.2421 22.3183 15.2788C22.3425 15.2831 22.3669 15.285 22.3907 15.285C22.5773 15.285 22.7431 15.1624 22.7784 14.9871C22.8879 14.4441 22.9508 13.8878 22.9671 13.3308L24.1793 12.5902C24.5871 12.3411 24.8655 11.9603 24.9627 11.5182C25.0602 11.0759 24.965 10.6252 24.695 10.2491ZM15.9058 4.05582L14.6994 4.79279L14.4619 4.20254C14.3627 3.95629 14.249 3.71486 14.123 3.47862C14.735 3.62176 15.331 3.81476 15.9058 4.05582ZM3.4029 6.58069C5.00564 4.87642 7.1888 3.73077 9.57713 3.33351C9.96033 4.18985 10.0522 5.14661 9.82317 6.05852L8.86052 9.89469C8.70921 9.74566 8.51277 9.64291 8.29153 9.60145C8.00945 9.54837 7.72215 9.60002 7.4825 9.74655L4.75573 11.412C4.75553 11.412 4.75553 11.412 4.75534 11.4122C4.75534 11.4122 4.75515 11.4122 4.75515 11.4124L0.822391 13.8147C0.800887 13.5588 0.789651 13.3009 0.789651 13.0432C0.789651 10.6679 1.71782 8.3727 3.4029 6.58069ZM13.6786 18.0377C13.6633 18.1071 13.6195 18.1669 13.5554 18.2061H13.5556L11.2107 19.6384L6.85849 13.6513C6.73702 13.4843 6.49176 13.4398 6.31062 13.5518C6.12967 13.6639 6.08124 13.8899 6.20271 14.057L10.5522 20.0406L7.20469 22.0855C3.87832 20.7434 1.49793 17.9092 0.92565 14.6113L4.86305 12.2141L5.31619 12.8377C5.39252 12.9424 5.51729 12.9991 5.64457 12.9991C5.72012 12.9991 5.79665 12.9792 5.86407 12.9374C6.04521 12.8254 6.09364 12.5992 5.97217 12.4321L5.52213 11.8129L7.91859 10.3538C7.98233 10.3146 8.05885 10.3011 8.13402 10.3152C8.20919 10.3293 8.27409 10.3697 8.31652 10.4287L13.6368 17.839C13.679 17.8978 13.6939 17.9684 13.6786 18.0377ZM24.189 11.3731C24.1336 11.6247 23.9753 11.8413 23.7432 11.983L22.3574 12.8295C22.357 12.8297 22.3566 12.83 22.3561 12.8302L17.4099 15.8517C17.0399 16.0777 16.5949 16.1666 16.1566 16.1015C15.5224 16.0077 14.878 16.1362 14.3423 16.4634L13.8237 16.7802L9.46632 10.711L10.5927 6.22293C10.8827 5.06673 10.7298 3.84889 10.1773 2.78794C10.1723 2.77686 10.1668 2.76614 10.1606 2.7556C10.0545 2.55509 9.93398 2.36049 9.79934 2.17285C9.53741 1.80795 9.6461 1.31455 10.0419 1.07277C10.3763 0.868515 10.8281 0.907114 11.1159 1.16462L11.8701 1.83904C12.6859 2.56867 13.3262 3.47362 13.7214 4.45611L14.1322 5.47667C14.1329 5.47864 14.1337 5.48025 14.1345 5.48203C14.1354 5.48436 14.1366 5.48686 14.1376 5.48918C14.1405 5.49544 14.1432 5.50116 14.1461 5.50598C14.154 5.52135 14.1628 5.53654 14.1732 5.55101C14.2937 5.71881 14.5386 5.76474 14.7203 5.65359L18.9315 3.08137C19.4104 2.78883 20.058 2.91017 20.3752 3.35192C20.6923 3.79367 20.5608 4.39107 20.0818 4.6836L19.7163 4.90698C19.7163 4.90698 19.7161 4.90698 19.7159 4.90715L18.9005 5.40537C18.8993 5.40609 18.8985 5.4068 18.8974 5.40734C18.8927 5.41038 18.8883 5.41323 18.8846 5.41609C18.716 5.53028 18.6724 5.74741 18.7893 5.91002C18.9096 6.07782 19.1546 6.12375 19.3366 6.0126L20.1526 5.51402C20.3845 5.37267 20.6621 5.32281 20.9347 5.37392C21.2072 5.42503 21.4422 5.57103 21.5957 5.78511C21.7493 5.99902 21.8035 6.25545 21.7481 6.50688C21.6927 6.75849 21.5344 6.97508 21.3024 7.11679L20.121 7.83856C19.9391 7.94954 19.8893 8.17541 20.0098 8.34321C20.0857 8.44901 20.2113 8.50637 20.3393 8.50637C20.4141 8.50637 20.4898 8.48671 20.5569 8.44579L20.7398 8.3341L21.3725 7.94757C21.8516 7.65504 22.499 7.77637 22.8162 8.21812C23.1333 8.66005 23.0018 9.25727 22.5229 9.54998L21.9328 9.91042C21.9297 9.91221 21.9266 9.91417 21.9235 9.91614L21.3415 10.2716C21.1596 10.3825 21.1098 10.6086 21.2303 10.7764C21.3062 10.8822 21.4318 10.9396 21.5598 10.9396C21.6346 10.9396 21.7104 10.9199 21.7774 10.879L21.9603 10.7673C21.9603 10.7673 21.9603 10.7671 21.9605 10.7671L22.5932 10.3808C22.8251 10.2391 23.1029 10.189 23.3757 10.2403C23.6484 10.2912 23.8833 10.4374 24.0369 10.6513C24.1903 10.8652 24.2444 11.1217 24.189 11.3731Z" fill="#4A3A2F"/>
</svg>
