<svg width="17" height="19" viewBox="0 0 17 19" fill="none" xmlns="http://www.w3.org/2000/svg">
<path d="M16.6497 9.05493C15.9599 8.02761 14.8024 8.14954 14.7671 8.1415C14.6147 8.1415 14.4649 8.15872 14.3193 8.19121L15.1184 5.09861C15.5162 3.55871 14.7966 1.94418 13.3845 1.21239C11.832 0.407964 10.189 3.57143e-05 8.50018 0C6.81243 3.57143e-05 5.16946 0.407964 3.617 1.21236C2.20486 1.94414 1.48521 3.55868 1.88311 5.09854L2.68218 8.19118C2.38254 8.12432 2.17839 8.14557 2.06629 8.14146C0.59975 8.14146 -0.398929 9.62818 0.155071 10.9831C0.876428 12.7471 2.12761 14.2249 3.75836 15.231L2.34443 17.1473C2.11021 17.4647 2.17768 17.9119 2.49514 18.1461C2.81461 18.3818 3.26136 18.3108 3.49404 17.9954L5.04764 15.8898C6.13093 16.3376 7.29461 16.57 8.48418 16.57H8.51729C9.70686 16.57 10.8705 16.3376 11.9538 15.8898L13.5074 17.9954C13.741 18.3119 14.1881 18.3809 14.5063 18.1461C14.8238 17.9119 14.8912 17.4647 14.657 17.1473L13.2431 15.231C14.8716 14.2263 16.1241 12.7496 16.8464 10.9831C17.1066 10.3467 17.0331 9.62586 16.6497 9.05493ZM4.27432 2.48079C5.62168 1.78261 7.04346 1.42861 8.50125 1.42857C9.95796 1.42861 11.3797 1.78261 12.7271 2.48075C13.5538 2.90918 13.9683 3.83868 13.7351 4.74125L12.4948 9.54168C11.5209 10.2641 10.0522 10.7913 8.50071 10.7913C6.94764 10.7913 5.47846 10.2626 4.50661 9.54168L3.26629 4.74118C3.03311 3.83868 3.44761 2.90914 4.27432 2.48079ZM15.524 10.4424C14.3629 13.282 11.597 15.1415 8.51729 15.1415H8.48418C5.39811 15.1415 2.63593 13.2758 1.47746 10.4424C1.30714 10.026 1.61304 9.57004 2.06632 9.57004C2.14425 9.58336 2.48586 9.49811 2.74689 9.82818C3.65796 10.9801 5.84711 12.2198 8.50075 12.2198C11.1544 12.2198 13.3435 10.98 14.2546 9.82814C14.3843 9.66411 14.5711 9.57004 14.767 9.57004C14.8421 9.58336 15.2245 9.49511 15.4636 9.85129C15.583 10.029 15.605 10.2444 15.524 10.4424Z" fill="#575957"/>
</svg>
