<svg width="24" height="29" viewBox="0 0 24 29" fill="none" xmlns="http://www.w3.org/2000/svg">
<path d="M17.3999 28.7996H6.6C6.2688 28.7996 6 28.5308 6 28.1996C6 27.8684 6.2688 27.5996 6.6 27.5996H17.3999C17.7311 27.5996 17.9999 27.8684 17.9999 28.1996C17.9999 28.5308 17.7311 28.7996 17.3999 28.7996Z" fill="#4A3A2F"/>
<path d="M18.3828 15.5999H5.61724C5.08684 15.5999 4.58645 15.3683 4.24325 14.9639C3.90005 14.5595 3.75365 14.0267 3.84125 13.5047L5.84164 1.50479C5.98564 0.632396 6.73204 0 7.61643 0H16.3836C17.268 0 18.0144 0.632397 18.1584 1.50359L20.1588 13.5035C20.2464 14.0267 20.1 14.5583 19.7568 14.9627C19.4148 15.3683 18.9132 15.5999 18.3828 15.5999ZM7.61643 1.19999C7.32243 1.19999 7.07283 1.41119 7.02483 1.70039L5.02444 13.7003C4.99564 13.8767 5.04244 14.0507 5.15884 14.1875C5.27524 14.3243 5.43724 14.3999 5.61724 14.3999H18.384C18.5628 14.3999 18.726 14.3243 18.8424 14.1875C18.9588 14.0507 19.0056 13.8779 18.9768 13.7003L16.9764 1.70039C16.9272 1.41119 16.6776 1.19999 16.3836 1.19999H7.61643Z" fill="#4A3A2F"/>
<path d="M12.0001 28.7996C11.6689 28.7996 11.4001 28.5308 11.4001 28.1996V22.1996C11.4001 21.8684 11.6689 21.5996 12.0001 21.5996C12.3313 21.5996 12.6001 21.8684 12.6001 22.1996V28.1996C12.6001 28.5308 12.3313 28.7996 12.0001 28.7996Z" fill="#4A3A2F"/>
<path d="M21 22.7988H3.00014C2.66895 22.7988 2.40015 22.53 2.40015 22.1988V19.7988C2.40015 18.1452 3.74654 16.7988 5.40013 16.7988H18.6001C20.2537 16.7988 21.6 18.1452 21.6 19.7988V22.1988C21.6 22.53 21.3312 22.7988 21 22.7988ZM3.60014 21.5988H20.4001V19.7988C20.4001 18.8064 19.5925 17.9988 18.6001 17.9988H5.40013C4.40774 17.9988 3.60014 18.8064 3.60014 19.7988V21.5988Z" fill="#4A3A2F"/>
<path d="M20.9999 21.6004C20.6687 21.6004 20.3999 21.3316 20.3999 21.0004V17.4004C20.3999 15.7468 21.7463 14.4004 23.3999 14.4004C23.7311 14.4004 23.9999 14.6692 23.9999 15.0004C23.9999 15.3316 23.7311 15.6004 23.3999 15.6004C22.4075 15.6004 21.5999 16.408 21.5999 17.4004V21.0004C21.5999 21.3316 21.3311 21.6004 20.9999 21.6004Z" fill="#4A3A2F"/>
<path d="M2.99998 21.6004C2.66879 21.6004 2.39999 21.3316 2.39999 21.0004V17.4004C2.39999 16.408 1.59239 15.6004 0.599997 15.6004C0.268799 15.6004 0 15.3316 0 15.0004C0 14.6692 0.268799 14.4004 0.599997 14.4004C2.25359 14.4004 3.59998 15.7468 3.59998 17.4004V21.0004C3.59998 21.3316 3.33118 21.6004 2.99998 21.6004Z" fill="#4A3A2F"/>
</svg>
