<svg width="24" height="12" viewBox="0 0 24 12" fill="none" xmlns="http://www.w3.org/2000/svg">
<path d="M23.25 10.5H22.4685C22.1065 6.13387 18.6148 2.64253 14.2484 2.28131C14.2489 2.27081 14.25 2.26059 14.25 2.25V1.5H15C15.4142 1.5 15.75 1.16419 15.75 0.75C15.75 0.335812 15.4142 0 15 0H12C11.5858 0 11.25 0.335812 11.25 0.75C11.25 1.16419 11.5858 1.5 12 1.5H12.75V2.25C12.75 2.26059 12.7511 2.27091 12.7516 2.28131C8.38528 2.64253 4.89347 6.13378 4.5315 10.5H3.75C3.33581 10.5 3 10.8358 3 11.25C3 11.6642 3.33581 12 3.75 12H23.25C23.6642 12 24 11.6642 24 11.25C24 10.8358 23.6642 10.5 23.25 10.5ZM13.5 3.75C17.3824 3.75 20.5852 6.71541 20.9629 10.5H6.03713C6.41484 6.71541 9.61763 3.75 13.5 3.75Z" fill="#989595"/>
<path d="M10.1237 5.40367C8.86286 6.13314 7.85504 7.27173 7.28589 8.60955C7.12379 8.99074 7.30126 9.43117 7.68236 9.59327C7.77817 9.63405 7.87773 9.65336 7.97561 9.65336C8.26726 9.65336 8.54467 9.48217 8.66608 9.1968C9.10895 8.1558 9.89326 7.26986 10.8747 6.70211C11.2332 6.49464 11.3558 6.03592 11.1484 5.67733C10.9409 5.31864 10.4821 5.1963 10.1237 5.40367Z" fill="#989595"/>
<path d="M6.75 3.75H0.75C0.335812 3.75 0 3.41419 0 3C0 2.58581 0.335812 2.25 0.75 2.25H6.75C7.16419 2.25 7.5 2.58581 7.5 3C7.5 3.41419 7.16419 3.75 6.75 3.75Z" fill="#989595"/>
<path d="M4.5 6H0.75C0.335812 6 0 5.66419 0 5.25C0 4.83581 0.335812 4.5 0.75 4.5H4.5C4.91419 4.5 5.25 4.83581 5.25 5.25C5.25 5.66419 4.91419 6 4.5 6Z" fill="#989595"/>
<path d="M3.75 8.25H0.75C0.335812 8.25 0 7.91419 0 7.5C0 7.08581 0.335812 6.75 0.75 6.75H3.75C4.16419 6.75 4.5 7.08581 4.5 7.5C4.5 7.91419 4.16419 8.25 3.75 8.25Z" fill="#989595"/>
</svg>
