<svg width="27" height="27" viewBox="0 0 27 27" fill="none" xmlns="http://www.w3.org/2000/svg">
<path d="M7.47429 7.52722C9.01867 5.96982 11.1574 5.00341 13.5087 5.00569C15.6765 5.0078 17.6543 5.82169 19.1544 7.16007C19.3693 7.35182 19.7143 7.33922 19.9179 7.13555L22.67 4.38346C22.8941 4.15935 22.888 3.79315 22.6551 3.5782C20.2021 1.31402 16.9082 -0.0522577 13.2945 0.00153164C9.64111 0.0559033 6.33635 1.57349 3.93563 3.98856C3.66795 4.25782 3.98105 7.51764 3.98105 7.51764C3.98105 7.51764 5.96739 9.04688 7.47429 7.52722Z" fill="url(#paint0_linear)"/>
<path d="M7.47436 7.52726C9.01874 5.96986 11.1575 5.00345 13.5088 5.00573C15.6765 5.00785 17.6544 5.82173 19.1544 7.16011C19.3694 7.35186 19.7144 7.33926 19.918 7.13559L21.4973 5.55627C21.3598 5.44997 21.2242 5.33836 21.0918 5.22115C19.0328 3.39766 16.354 2.23732 13.3802 2.26856C10.2961 2.30096 7.52604 3.55887 5.52307 5.57586C5.30405 5.79642 5.21802 7.52117 5.21802 7.52117C5.21802 7.52117 5.475 7.49793 7.47436 7.52726Z" fill="url(#paint1_linear)"/>
<path d="M5.00623 13.4235C4.98506 15.8133 5.95072 17.9776 7.51993 19.5336L6.3155 22.1328L3.98074 23.0727C1.52634 20.6316 0.00530815 17.2533 1.39206e-05 13.5198C-0.0052803 9.8123 1.49987 6.43829 3.93574 3.98865L7.4744 7.52731C5.96766 9.04675 5.02635 11.129 5.00623 13.4235Z" fill="url(#paint2_linear)"/>
<path d="M5.00612 13.4235C4.98494 15.8133 5.95061 17.9776 7.51982 19.5336L5.58478 21.4692C3.57615 19.4743 2.31771 16.725 2.26953 13.6819C2.21924 10.5165 3.46709 7.64646 5.52336 5.57642L7.47429 7.52734C5.96755 9.04678 5.02623 11.129 5.00612 13.4235Z" fill="url(#paint3_linear)"/>
<path d="M19.4875 19.5405C17.9396 21.0743 15.8025 22.0096 13.4452 21.9947C11.1346 21.9801 9.0434 21.0426 7.52046 19.533L3.98096 23.0725C6.41265 25.4908 9.76019 26.9891 13.4578 27.0005C17.1631 27.0119 20.5328 25.4882 22.9843 23.0374L21.9726 20.8744L19.4875 19.5405Z" fill="url(#paint4_linear)"/>
<path d="M19.4875 19.5403C17.9395 21.0741 15.8026 22.0097 13.4454 21.9948C11.1348 21.9802 9.04357 21.0428 7.52064 19.533L5.58496 21.4686C7.61546 23.4858 10.4123 24.7325 13.5004 24.7325C16.5885 24.7325 19.3853 23.4857 21.4158 21.4686L19.4875 19.5403Z" fill="url(#paint5_linear)"/>
<path d="M27.0005 12.1138C27.0005 11.8476 26.7847 11.6318 26.5186 11.6318H13.9522C13.7138 11.6318 13.5205 11.8251 13.5205 12.0635V16.2185C13.5205 16.4569 13.7138 16.6502 13.9522 16.6502H20.0893C20.7215 16.6502 21.114 17.34 20.7888 17.8821C20.4259 18.4871 19.9894 19.0416 19.4925 19.5347C19.4906 19.5366 19.4894 19.5385 19.4875 19.5404L22.9848 23.0378C23.15 22.8726 23.3175 22.7074 23.4864 22.5418C25.6716 20.1184 27.0005 16.9032 27.0005 13.3957V12.1138Z" fill="url(#paint6_linear)"/>
<path d="M24.1649 17.0357C24.6588 15.5427 23.5523 14.0032 21.9799 14.0032H13.5205V16.2185C13.5205 16.4569 13.7138 16.6502 13.9522 16.6502H20.0893C20.7214 16.6502 21.114 17.34 20.7888 17.8821C20.4271 18.4852 19.9922 19.0379 19.4973 19.5299C19.4938 19.5334 19.4911 19.5368 19.4875 19.5404L21.4156 21.4686C22.4406 20.4515 23.2697 19.2376 23.843 17.8886C23.961 17.6096 24.0685 17.3253 24.1649 17.0357Z" fill="url(#paint7_linear)"/>
<defs>
<linearGradient id="paint0_linear" x1="3.82741" y1="4.10006" x2="22.8339" y2="4.10006" gradientUnits="userSpaceOnUse">
<stop stop-color="#FF637B"/>
<stop offset="1" stop-color="#F90217"/>
</linearGradient>
<linearGradient id="paint1_linear" x1="18.2213" y1="11.4025" x2="6.27999" y2="-0.538916" gradientUnits="userSpaceOnUse">
<stop stop-color="#FF637B"/>
<stop offset="1" stop-color="#F90217"/>
</linearGradient>
<linearGradient id="paint2_linear" x1="0.321056" y1="9.89356" x2="7.66245" y2="17.235" gradientUnits="userSpaceOnUse">
<stop stop-color="#FFD833"/>
<stop offset="1" stop-color="#F2B631"/>
</linearGradient>
<linearGradient id="paint3_linear" x1="9.33055" y1="17.2993" x2="1.48636" y2="9.45513" gradientUnits="userSpaceOnUse">
<stop stop-color="#FFD833"/>
<stop offset="1" stop-color="#F2B631"/>
</linearGradient>
<linearGradient id="paint4_linear" x1="12.3373" y1="21.3338" x2="16.4335" y2="25.43" gradientUnits="userSpaceOnUse">
<stop stop-color="#28A265"/>
<stop offset="1" stop-color="#28895E"/>
</linearGradient>
<linearGradient id="paint5_linear" x1="18.7332" y1="26.7015" x2="6.88453" y2="14.8528" gradientUnits="userSpaceOnUse">
<stop stop-color="#28A265"/>
<stop offset="1" stop-color="#28895E"/>
</linearGradient>
<linearGradient id="paint6_linear" x1="19.2701" y1="13.1653" x2="25.553" y2="19.4482" gradientUnits="userSpaceOnUse">
<stop stop-color="#7FAEF4"/>
<stop offset="1" stop-color="#4C8DF1"/>
</linearGradient>
<linearGradient id="paint7_linear" x1="24.5319" y1="21.505" x2="16.3753" y2="13.3484" gradientUnits="userSpaceOnUse">
<stop stop-color="#7FAEF4"/>
<stop offset="1" stop-color="#4C8DF1"/>
</linearGradient>
</defs>
</svg>
