<svg width="26" height="24" viewBox="0 0 26 24" fill="none" xmlns="http://www.w3.org/2000/svg">
<path d="M23.8334 13.2V2.4H25.1334V1.2C25.1334 0.519922 24.5701 0 23.8334 0H2.1667C1.42995 0 0.866699 0.519922 0.866699 1.2V2.4H2.1667V13.2H3.03337V2.4H22.9667V13.2H23.8334ZM1.73337 1.2C1.73337 0.959961 1.90666 0.8 2.1667 0.8H23.8334C24.0934 0.8 24.2667 0.959961 24.2667 1.2V1.6H1.73337V1.2Z" fill="#4A3A2F"/>
<path d="M22.0999 16.8V15.2C22.0999 14.5199 21.5366 14 20.7999 14H5.1999C4.46315 14 3.8999 14.5199 3.8999 15.2V16.8H11.6999V21.6H10.8332C10.0965 21.6 9.53323 22.1199 9.53323 22.8V24H16.4666V22.8C16.4666 22.1199 15.9033 21.6 15.1666 21.6H14.2999V16.8H22.0999ZM4.76657 15.2C4.76657 14.96 4.93986 14.8 5.1999 14.8H20.7999C21.0599 14.8 21.2332 14.96 21.2332 15.2V16H4.76657V15.2ZM15.5999 22.8V23.2H10.3999V22.8C10.3999 22.56 10.5732 22.4 10.8332 22.4H15.1666C15.4266 22.4 15.5999 22.56 15.5999 22.8ZM13.4332 21.6H12.5666V16.8H13.4332V21.6Z" fill="#4A3A2F"/>
<path d="M24.7 14C23.9632 14 23.4 14.5199 23.4 15.2V17.6C23.4 17.84 23.2267 18 22.9667 18H20.3667C19.6299 18 19.0667 18.5199 19.0667 19.2C19.0667 19.8801 19.6299 20.4 20.3667 20.4H22.9667V22.4H22.5333C21.7966 22.4 21.2333 22.9199 21.2333 23.6V24H22.1V23.6C22.1 23.36 22.2733 23.2 22.5333 23.2H22.9667V24H23.8333V23.2H24.2667C24.5267 23.2 24.7 23.36 24.7 23.6V24H25.5667V23.6C25.5667 22.9199 25.0034 22.4 24.2667 22.4H23.8333V20.4C25.0466 20.4 26 19.5199 26 18.4V15.2C26 14.5199 25.4367 14 24.7 14ZM25.1333 18.4C25.1333 19.0801 24.5701 19.6 23.8333 19.6H20.3667C20.1066 19.6 19.9333 19.44 19.9333 19.2C19.9333 18.96 20.1066 18.8 20.3667 18.8H22.9667C23.7034 18.8 24.2667 18.2801 24.2667 17.6V15.2C24.2667 14.96 24.4399 14.8 24.7 14.8C24.96 14.8 25.1333 14.96 25.1333 15.2V18.4Z" fill="#4A3A2F"/>
<path d="M2.16667 20.4V22.4H1.73333C0.996582 22.4 0.433333 22.9199 0.433333 23.6V24H1.3V23.6C1.3 23.36 1.47329 23.2 1.73333 23.2H2.16667V24H3.03333V23.2H3.46667C3.72671 23.2 3.9 23.36 3.9 23.6V24H4.76667V23.6C4.76667 22.9199 4.20342 22.4 3.46667 22.4H3.03333V20.4H5.63333C6.37009 20.4 6.93333 19.8801 6.93333 19.2C6.93333 18.5199 6.37009 18 5.63333 18H3.03333C2.77329 18 2.6 17.84 2.6 17.6V15.2C2.6 14.5199 2.03675 14 1.3 14C0.563249 14 0 14.5199 0 15.2V18.4C0 19.5199 0.953418 20.4 2.16667 20.4ZM0.866667 15.2C0.866667 14.96 1.03996 14.8 1.3 14.8C1.56004 14.8 1.73333 14.96 1.73333 15.2V17.6C1.73333 18.2801 2.29658 18.8 3.03333 18.8H5.63333C5.89338 18.8 6.06667 18.96 6.06667 19.2C6.06667 19.44 5.89338 19.6 5.63333 19.6H2.16667C1.42992 19.6 0.866667 19.0801 0.866667 18.4V15.2Z" fill="#4A3A2F"/>
<path d="M13.4333 4.40039H21.6667V5.20039H13.4333V4.40039Z" fill="#4A3A2F"/>
<path d="M13.4333 6.40039H21.6667V7.20039H13.4333V6.40039Z" fill="#4A3A2F"/>
<path d="M13.4333 8.40039H21.6667V9.20039H13.4333V8.40039Z" fill="#4A3A2F"/>
<path d="M13.4333 10.4004H21.6667V11.2004H13.4333V10.4004Z" fill="#4A3A2F"/>
<path d="M8.23349 4C6.06683 4 4.3335 5.6 4.3335 7.6C4.3335 9.6 6.06683 11.2 8.23349 11.2C10.4002 11.2 12.1335 9.6 12.1335 7.6V7.2H8.66683V4H8.23349ZM11.2235 8C10.9634 9.51992 9.44674 10.6 7.80016 10.36C6.15358 10.1199 4.9835 8.71992 5.24354 7.2C5.41683 5.95996 6.50016 5 7.80016 4.84004V8H11.2235Z" fill="#4A3A2F"/>
<path d="M12.5665 5.99961C12.5665 4.67969 11.3965 3.59961 9.96654 3.59961H9.5332V6.39961H12.5665V5.99961ZM10.3999 5.59961V4.43965C11.0065 4.59961 11.4832 5.03965 11.6565 5.59961H10.3999Z" fill="#4A3A2F"/>
</svg>
