<svg width="52" height="48" viewBox="0 0 52 48" fill="none" xmlns="http://www.w3.org/2000/svg">
<path d="M40.5867 0H10.5069C4.71338 0 0 4.71338 0 10.5069C0 16.3004 4.71338 21.0138 10.5069 21.0138H18.1573V29.5024L17.7837 29.1891C15.9373 27.6396 13.0479 27.7656 11.3434 29.4703C9.55709 31.2566 9.67404 34.0956 11.6165 35.7254L18.1572 41.2137V46.5031C18.1572 47.3298 18.8274 48 19.6541 48H37.6166C38.4433 48 39.1135 47.3298 39.1135 46.5031V29.6826C39.1135 27.4217 37.4216 25.5059 35.178 25.2263L27.1385 24.2247V21.0136H40.5867C46.3803 21.0136 51.0936 16.3002 51.0936 10.5067C51.0936 4.71318 46.3803 0 40.5867 0ZM21.1509 45.0062V42.0125H36.1198V45.0062H21.1509ZM34.808 28.1972C35.5558 28.2904 36.1198 28.9289 36.1198 29.6826V39.0187H20.1989L13.5408 33.4319C12.9498 32.9361 12.914 32.1335 13.4603 31.5871C14.0738 30.9737 15.1948 30.9248 15.8595 31.4824L18.692 33.8592C19.6635 34.6743 21.151 33.9828 21.151 32.7124V13.5717C21.151 12.7463 21.8225 12.0748 22.6479 12.0748C23.4733 12.0748 24.1448 12.7463 24.1448 13.5717V25.5468C24.1448 26.3019 24.7073 26.9388 25.4567 27.0322L34.808 28.1972ZM40.5867 18.02H27.1385V13.5717C27.1385 11.0956 25.124 9.08108 22.6478 9.08108C20.1717 9.08108 18.1572 11.0956 18.1572 13.5717V18.02H10.5068C6.36414 18.02 2.99376 14.6496 2.99376 10.5069C2.99376 6.36424 6.36414 2.99376 10.5069 2.99376H40.5867C44.7294 2.99376 48.0998 6.36414 48.0998 10.5069C48.0998 14.6497 44.7294 18.02 40.5867 18.02Z" fill="#3A2B20"/>
<path d="M39.4472 6.42679L34.518 11.3558L32.5827 9.42056C31.9982 8.83597 31.0504 8.83597 30.4658 9.42056C29.8812 10.0051 29.8812 10.9529 30.4658 11.5374L33.4595 14.5312C34.044 15.1158 34.9919 15.1159 35.5764 14.5312L41.564 8.54368C42.1485 7.9591 42.1485 7.01137 41.564 6.42679C40.9795 5.84211 40.0317 5.84211 39.4472 6.42679Z" fill="#3A2B20"/>
</svg>
