<svg width="47" height="47" viewBox="0 0 47 47" fill="none" xmlns="http://www.w3.org/2000/svg">
<path d="M42.4878 37.3634C44.7851 34.9556 46.0365 31.945 46.0365 28.7728C46.0365 21.3691 39.1526 15.3455 30.691 15.3455C30.6387 15.3455 30.5872 15.3486 30.5349 15.3489C30.6387 14.7136 30.6909 14.071 30.691 13.4273C30.691 6.02359 23.8071 0 15.3455 0C6.88389 0 0 6.02359 0 13.4273C0 16.5993 1.25162 19.6099 3.54865 22.0179L1.97573 28.3074C1.61607 29.7005 3.05735 31.1866 4.59214 30.5359L13.4297 26.7474C14.1189 26.8227 14.8119 26.8572 15.5052 26.8508C15.3997 27.486 15.3462 28.1289 15.3455 28.7728C15.3455 36.1765 22.2294 42.2001 30.691 42.2001C31.3314 42.1997 31.9712 42.1644 32.6077 42.0944L41.4446 45.8814C42.6837 46.499 44.4919 45.2213 44.061 43.6531L42.4878 37.3634ZM13.4192 22.8811C13.0721 22.8325 12.7183 22.8799 12.3963 23.0182L6.63573 25.4879L7.53896 21.8764C7.62431 21.5364 7.61485 21.1796 7.51163 20.8446C7.4084 20.5096 7.21534 20.2092 6.95343 19.9762C4.94317 18.1883 3.83637 15.8625 3.83637 13.4273C3.83637 8.13887 8.99942 3.83637 15.3455 3.83637C21.6916 3.83637 26.8546 8.13887 26.8546 13.4273C26.8547 14.2542 26.7276 15.0761 26.4777 15.8644C22.251 16.922 18.7644 19.5255 16.876 22.9314C15.7262 23.0599 14.5647 23.0429 13.4192 22.8811ZM39.0843 35.3217C38.8226 35.5545 38.6297 35.8545 38.5264 36.1891C38.4231 36.5237 38.4133 36.8803 38.4983 37.22L39.4012 40.8317L33.6414 38.3637C33.4026 38.2613 33.1455 38.2086 32.8856 38.2086C32.7961 38.2085 32.7067 38.2148 32.6181 38.2273C31.9797 38.3175 31.3357 38.3631 30.691 38.3637C24.3449 38.3637 19.1819 34.0613 19.1819 28.7728C19.1819 23.4844 24.3449 19.1819 30.691 19.1819C37.0371 19.1819 42.2001 23.4844 42.2001 28.7728C42.2001 31.2084 41.0936 33.534 39.0843 35.3217Z" fill="#3A2B20"/>
</svg>
