<svg width="52" height="49" viewBox="0 0 52 49" fill="none" xmlns="http://www.w3.org/2000/svg">
<path d="M25.6521 49.0009C25.0641 49.0009 24.5869 48.5237 24.5869 47.9357V35.1531C24.5869 34.5651 25.0641 34.0879 25.6521 34.0879C26.2401 34.0879 26.7173 34.5651 26.7173 35.1531V47.9357C26.7173 48.5237 26.2401 49.0009 25.6521 49.0009Z" fill="#3A2B20"/>
<path d="M35.2391 49.0001C35.0367 49.0001 34.8322 48.9425 34.649 48.8211L25.0621 42.4298C24.5721 42.1038 24.44 41.4434 24.7659 40.9534C25.0919 40.4634 25.7502 40.3313 26.2423 40.6573L35.8293 47.0486C36.3193 47.3745 36.4514 48.035 36.1254 48.525C35.9209 48.8339 35.5821 49.0001 35.2391 49.0001Z" fill="#3A2B20"/>
<path d="M16.065 48.999C15.7198 48.999 15.3832 48.8329 15.1766 48.524C14.8506 48.034 14.9827 47.3735 15.4727 47.0476L25.0597 40.6563C25.5497 40.3282 26.2122 40.4624 26.536 40.9524C26.862 41.4424 26.7299 42.1028 26.2399 42.4288L16.653 48.8201C16.474 48.9415 16.2695 48.999 16.065 48.999Z" fill="#3A2B20"/>
<path d="M46.9565 8.52174H4.34778C1.99791 8.52174 0.0869141 6.61074 0.0869141 4.26087C0.0869141 1.911 1.99791 0 4.34778 0H46.9565C49.3063 0 51.2173 1.911 51.2173 4.26087C51.2173 6.61074 49.3063 8.52174 46.9565 8.52174ZM4.34778 2.13043C3.17391 2.13043 2.21735 3.087 2.21735 4.26087C2.21735 5.43474 3.17391 6.3913 4.34778 6.3913H46.9565C48.1303 6.3913 49.0869 5.43474 49.0869 4.26087C49.0869 3.087 48.1303 2.13043 46.9565 2.13043H4.34778Z" fill="#3A2B20"/>
<path d="M43.7608 36.2167H7.54343C5.78156 36.2167 4.34778 34.7829 4.34778 33.0211V7.45584C4.34778 6.86784 4.825 6.39062 5.413 6.39062H45.8913C46.4793 6.39062 46.9565 6.86784 46.9565 7.45584V33.0211C46.9565 34.7829 45.5227 36.2167 43.7608 36.2167ZM6.47821 8.52106V33.0211C6.47821 33.6091 6.95543 34.0863 7.54343 34.0863H43.7608C44.3488 34.0863 44.826 33.6091 44.826 33.0211V8.52106H6.47821Z" fill="#3A2B20"/>
<path d="M13.9346 29.8252C13.662 29.8252 13.3893 29.7208 13.1805 29.5142C12.765 29.0987 12.765 28.4234 13.1805 28.008L21.7022 19.4862C22.0623 19.1262 22.6247 19.0708 23.0465 19.352L28.6261 23.0717L36.5364 13.1823C36.905 12.7264 37.5739 12.6475 38.0341 13.0161C38.4922 13.3847 38.5667 14.0536 38.2003 14.5138L29.6786 25.166C29.3334 25.5963 28.7177 25.6964 28.2554 25.3875L22.5906 21.6124L14.6867 29.5163C14.48 29.7208 14.2073 29.8252 13.9346 29.8252Z" fill="#3A2B20"/>
</svg>
