<svg width="59" height="38" viewBox="0 0 59 38" fill="none" xmlns="http://www.w3.org/2000/svg">
<path d="M9.83366 16.7205C12.5491 16.7205 14.7503 13.9984 14.7503 10.6405C14.7503 7.28266 12.5491 4.56055 9.83366 4.56055C7.11826 4.56055 4.91699 7.28266 4.91699 10.6405C4.91699 13.9984 7.11826 16.7205 9.83366 16.7205Z" fill="#3A2B20"/>
<path d="M16.3971 20.9758C13.9142 23.2862 12.2917 26.995 12.2917 31.1598V31.9198H1.84375C0.835833 31.9198 0 30.8862 0 29.6398V28.1198C0 23.499 3.02375 19.7598 6.76042 19.7598H12.9062C14.1846 19.7598 15.3892 20.2158 16.3971 20.9758Z" fill="#3A2B20"/>
<path d="M49.1667 16.7205C51.8821 16.7205 54.0833 13.9984 54.0833 10.6405C54.0833 7.28266 51.8821 4.56055 49.1667 4.56055C46.4513 4.56055 44.25 7.28266 44.25 10.6405C44.25 13.9984 46.4513 16.7205 49.1667 16.7205Z" fill="#3A2B20"/>
<path d="M59.0001 28.1198V29.6398C59.0001 30.8862 58.1643 31.9198 57.1564 31.9198H46.7084V31.1598C46.7084 26.995 45.0859 23.2862 42.603 20.9758C43.6109 20.2158 44.8155 19.7598 46.0939 19.7598H52.2397C55.9764 19.7598 59.0001 23.499 59.0001 28.1198Z" fill="#3A2B20"/>
<path d="M29.5 18.24C33.5731 18.24 36.875 14.1568 36.875 9.12C36.875 4.08316 33.5731 0 29.5 0C25.4269 0 22.125 4.08316 22.125 9.12C22.125 14.1568 25.4269 18.24 29.5 18.24Z" fill="#3A2B20"/>
<path d="M36.2607 22.8008H22.7399C19.0106 22.8008 15.9795 26.5491 15.9795 31.1608V35.7208C15.9795 36.9793 16.8055 38.0008 17.8232 38.0008H41.1774C42.1952 38.0008 43.0212 36.9793 43.0212 35.7208V31.1608C43.0212 26.5491 39.99 22.8008 36.2607 22.8008Z" fill="#3A2B20"/>
</svg>
