<svg width="21" height="21" viewBox="0 0 21 21" fill="none" xmlns="http://www.w3.org/2000/svg">
<path d="M20.5586 3.26485C16.5869 -1.08828 10.1246 -1.08828 6.153 3.26485C5.8878 3.55547 5.8878 4.02677 6.153 4.31744C6.41816 4.60806 6.84817 4.60806 7.11337 4.31744C10.5554 0.544843 16.1561 0.544843 19.5982 4.31744C19.8634 4.60811 20.2934 4.60806 20.5586 4.31744C20.8238 4.02677 20.8238 3.55551 20.5586 3.26485Z" fill="#575957"/>
<path d="M18.638 5.37068C15.7254 2.17852 10.9864 2.17852 8.0739 5.37068C7.8087 5.6613 7.8087 6.13261 8.0739 6.42328C8.3391 6.71399 8.76907 6.7139 9.03426 6.42328C11.4173 3.81151 15.2946 3.81151 17.6776 6.42328C17.9428 6.71394 18.3728 6.71394 18.638 6.42328C18.9032 6.13261 18.9032 5.66135 18.638 5.37068Z" fill="#575957"/>
<path d="M13.3556 8.92578C12.2323 8.92578 11.3184 9.92747 11.3184 11.1587C11.3184 12.3899 12.2323 13.3916 13.3556 13.3916C14.479 13.3916 15.3929 12.3899 15.3929 11.1587C15.3929 9.92747 14.479 8.92578 13.3556 8.92578ZM13.3556 11.903C12.9812 11.903 12.6765 11.5691 12.6765 11.1587C12.6765 10.7482 12.9812 10.4143 13.3556 10.4143C13.7301 10.4143 14.0347 10.7482 14.0347 11.1587C14.0347 11.5691 13.7301 11.903 13.3556 11.903Z" fill="#575957"/>
<path d="M18.7881 8.92645H17.6497C16.8854 7.16774 15.2479 5.94922 13.3554 5.94922C11.4629 5.94922 9.82537 7.16774 9.06105 8.92645H2.03726C0.913915 8.92645 0 9.92814 0 11.1594V17.1138C0 18.345 0.913915 19.3467 2.03726 19.3467H2.71636V20.091C2.71636 20.5021 3.02041 20.8353 3.39546 20.8353C3.77052 20.8353 4.07457 20.5021 4.07457 20.091V19.3467H16.7508V20.091C16.7508 20.5021 17.0549 20.8353 17.43 20.8353C17.805 20.8353 18.1091 20.5021 18.1091 20.091V19.3467H18.7882C19.9115 19.3467 20.8254 18.345 20.8254 17.1138V11.1594C20.8253 9.92809 19.9114 8.92645 18.7881 8.92645ZM13.3554 7.43781C15.2276 7.43781 16.7508 9.10727 16.7508 11.1593C16.7508 13.2114 15.2276 14.8808 13.3554 14.8808C11.4831 14.8808 9.95996 13.2114 9.95996 11.1593C9.95996 9.10732 11.4831 7.43781 13.3554 7.43781ZM19.4672 17.1138C19.4672 17.5242 19.1625 17.8581 18.7881 17.8581H2.03726C1.66281 17.8581 1.35816 17.5242 1.35816 17.1138V11.1594C1.35816 10.749 1.66281 10.4101 2.03726 10.4101H8.65049C8.6186 10.6533 8.60176 10.9066 8.60176 11.1594C8.60176 14.0322 10.7342 16.3695 13.3554 16.3695C15.9765 16.3695 18.109 14.0322 18.109 11.1594C18.109 10.9066 18.0922 10.6582 18.0603 10.415H18.7881C19.1625 10.415 19.4672 10.749 19.4672 11.1594V17.1138Z" fill="#575957"/>
<path d="M6.56497 11.9043H3.3959C3.02088 11.9043 2.7168 12.2375 2.7168 12.6486C2.7168 13.0596 3.02084 13.3929 3.3959 13.3929H6.56497C6.93999 13.3929 7.24407 13.0597 7.24407 12.6486C7.24407 12.2376 6.94003 11.9043 6.56497 11.9043Z" fill="#575957"/>
<path d="M6.56497 14.8809H3.3959C3.02088 14.8809 2.7168 15.2141 2.7168 15.6252C2.7168 16.0362 3.02084 16.3695 3.3959 16.3695H6.56497C6.93999 16.3695 7.24407 16.0363 7.24407 15.6252C7.24407 15.2141 6.94003 14.8809 6.56497 14.8809Z" fill="#575957"/>
</svg>
