<svg width="27" height="27" viewBox="0 0 27 27" fill="none" xmlns="http://www.w3.org/2000/svg">
<path d="M24.3 0H2.7C1.20945 0.00148832 0.00148832 1.20945 0 2.7V24.3C0.00148832 25.7906 1.20945 26.9985 2.7 27H24.3C25.7906 26.9985 26.9985 25.7906 27 24.3V2.7C26.9985 1.20945 25.7906 0.00148832 24.3 0ZM2.7 0.9H24.3C25.2941 0.9 26.1 1.70589 26.1 2.7V5.4H0.9V2.7C0.9 1.70589 1.70589 0.9 2.7 0.9ZM24.3 26.1H2.7C1.70589 26.1 0.9 25.2941 0.9 24.3V6.3H26.1V24.3C26.1 25.2941 25.2941 26.1 24.3 26.1Z" fill="#878987"/>
<path d="M3.15078 4.50078C3.89637 4.50078 4.50078 3.89637 4.50078 3.15078C4.50078 2.4052 3.89637 1.80078 3.15078 1.80078C2.4052 1.80078 1.80078 2.4052 1.80078 3.15078C1.80078 3.89637 2.4052 4.50078 3.15078 4.50078ZM3.15078 2.70078C3.39931 2.70078 3.60078 2.90225 3.60078 3.15078C3.60078 3.39931 3.39931 3.60078 3.15078 3.60078C2.90225 3.60078 2.70078 3.39931 2.70078 3.15078C2.70078 2.90225 2.90225 2.70078 3.15078 2.70078Z" fill="#878987"/>
<path d="M6.74941 4.50078C7.495 4.50078 8.09941 3.89637 8.09941 3.15078C8.09941 2.4052 7.495 1.80078 6.74941 1.80078C6.00383 1.80078 5.39941 2.4052 5.39941 3.15078C5.39941 3.89637 6.00383 4.50078 6.74941 4.50078ZM6.74941 2.70078C6.99794 2.70078 7.19941 2.90225 7.19941 3.15078C7.19941 3.39931 6.99794 3.60078 6.74941 3.60078C6.50089 3.60078 6.29941 3.39931 6.29941 3.15078C6.29941 2.90225 6.50089 2.70078 6.74941 2.70078Z" fill="#878987"/>
<path d="M10.351 4.50078C11.0966 4.50078 11.701 3.89637 11.701 3.15078C11.701 2.4052 11.0966 1.80078 10.351 1.80078C9.60539 1.80078 9.00098 2.4052 9.00098 3.15078C9.00098 3.89637 9.60539 4.50078 10.351 4.50078ZM10.351 2.70078C10.5995 2.70078 10.801 2.90225 10.801 3.15078C10.801 3.39931 10.5995 3.60078 10.351 3.60078C10.1024 3.60078 9.90098 3.39931 9.90098 3.15078C9.90098 2.90225 10.1024 2.70078 10.351 2.70078Z" fill="#878987"/>
<path d="M19.3494 3.59922H24.7494C24.9979 3.59922 25.1994 3.39775 25.1994 3.14922C25.1994 2.90069 24.9979 2.69922 24.7494 2.69922H19.3494C19.1009 2.69922 18.8994 2.90069 18.8994 3.14922C18.8994 3.39775 19.1009 3.59922 19.3494 3.59922Z" fill="#878987"/>
<path d="M4.49883 13.0508C4.2503 13.0508 4.04883 13.2523 4.04883 13.5008V13.9508C4.04883 14.1993 4.2503 14.4008 4.49883 14.4008C4.74736 14.4008 4.94883 14.1993 4.94883 13.9508V13.5008C4.94883 13.2523 4.74736 13.0508 4.49883 13.0508Z" fill="#878987"/>
<path d="M6.29961 13.0508C6.05108 13.0508 5.84961 13.2523 5.84961 13.5008V13.9508C5.84961 14.1993 6.05108 14.4008 6.29961 14.4008C6.54814 14.4008 6.74961 14.1993 6.74961 13.9508V13.5008C6.74961 13.2523 6.54814 13.0508 6.29961 13.0508Z" fill="#878987"/>
<path d="M4.49883 10.8008C4.2503 10.8008 4.04883 11.0023 4.04883 11.2508V11.7008C4.04883 11.9493 4.2503 12.1508 4.49883 12.1508C4.74736 12.1508 4.94883 11.9493 4.94883 11.7008V11.2508C4.94883 11.0023 4.74736 10.8008 4.49883 10.8008Z" fill="#878987"/>
<path d="M6.29961 10.8008C6.05108 10.8008 5.84961 11.0023 5.84961 11.2508V11.7008C5.84961 11.9493 6.05108 12.1508 6.29961 12.1508C6.54814 12.1508 6.74961 11.9493 6.74961 11.7008V11.2508C6.74961 11.0023 6.54814 10.8008 6.29961 10.8008Z" fill="#878987"/>
<path d="M9.45078 18H2.25078C2.00225 18 1.80078 18.2015 1.80078 18.45C1.80078 18.6985 2.00225 18.9 2.25078 18.9H9.45078C9.69931 18.9 9.90078 18.6985 9.90078 18.45C9.90078 18.2015 9.69931 18 9.45078 18Z" fill="#878987"/>
<path d="M2.25078 20.7008H6.30078C6.54931 20.7008 6.75078 20.4993 6.75078 20.2508C6.75078 20.0023 6.54931 19.8008 6.30078 19.8008H2.25078C2.00225 19.8008 1.80078 20.0023 1.80078 20.2508C1.80078 20.4993 2.00225 20.7008 2.25078 20.7008Z" fill="#878987"/>
<path d="M9.45039 19.8008H8.10039C7.85186 19.8008 7.65039 20.0023 7.65039 20.2508C7.65039 20.4993 7.85186 20.7008 8.10039 20.7008H9.45039C9.69892 20.7008 9.90039 20.4993 9.90039 20.2508C9.90039 20.0023 9.69892 19.8008 9.45039 19.8008Z" fill="#878987"/>
<path d="M2.25078 22.4996H3.60078C3.84931 22.4996 4.05078 22.2981 4.05078 22.0496C4.05078 21.8011 3.84931 21.5996 3.60078 21.5996H2.25078C2.00225 21.5996 1.80078 21.8011 1.80078 22.0496C1.80078 22.2981 2.00225 22.4996 2.25078 22.4996Z" fill="#878987"/>
<path d="M9.44922 21.5996H5.39922C5.15069 21.5996 4.94922 21.8011 4.94922 22.0496C4.94922 22.2981 5.15069 22.4996 5.39922 22.4996H9.44922C9.69775 22.4996 9.89922 22.2981 9.89922 22.0496C9.89922 21.8011 9.69775 21.5996 9.44922 21.5996Z" fill="#878987"/>
<path d="M5.40078 23.4004H2.25078C2.00225 23.4004 1.80078 23.6019 1.80078 23.8504C1.80078 24.0989 2.00225 24.3004 2.25078 24.3004H5.40078C5.64931 24.3004 5.85078 24.0989 5.85078 23.8504C5.85078 23.6019 5.64931 23.4004 5.40078 23.4004Z" fill="#878987"/>
<path d="M11.7008 9.89922H10.3508C9.85373 9.89922 9.45078 10.3022 9.45078 10.7992H8.55078V9.77412C8.82832 9.61463 8.99982 9.31932 9.00078 8.99922V8.09922C9.00078 7.60216 8.59784 7.19922 8.10078 7.19922H2.70078C2.20372 7.19922 1.80078 7.60216 1.80078 8.09922V8.99922C1.80175 9.31932 1.97324 9.61463 2.25078 9.77412V15.7492C2.00225 15.7492 1.80078 15.9507 1.80078 16.1992C1.80078 16.4477 2.00225 16.6492 2.25078 16.6492H8.55078C8.79931 16.6492 9.00078 16.4477 9.00078 16.1992C9.00078 15.9507 8.79931 15.7492 8.55078 15.7492V14.3992H9.45078C9.45078 14.8963 9.85373 15.2992 10.3508 15.2992H11.7008C12.1978 15.2992 12.6008 14.8963 12.6008 14.3992V10.7992C12.6008 10.3022 12.1978 9.89922 11.7008 9.89922ZM2.70078 8.09922H8.10078V8.99922H2.70078V8.09922ZM5.85078 15.7492V15.2992C5.85078 15.0507 5.64931 14.8492 5.40078 14.8492C5.15225 14.8492 4.95078 15.0507 4.95078 15.2992V15.7492H3.15078V9.89922H7.65078V15.7492H5.85078ZM8.55078 13.4992V11.6992H9.45078V13.4992H8.55078ZM10.3508 14.3992V10.7992H11.7008V14.3992H10.3508Z" fill="#878987"/>
<path d="M18.4502 17.0996C18.9473 17.0996 19.3502 16.6967 19.3502 16.1996V13.4996C19.3502 13.0026 18.9473 12.5996 18.4502 12.5996H14.8502C14.3531 12.5996 13.9502 13.0026 13.9502 13.4996V16.1996C13.9502 16.6967 14.3531 17.0996 14.8502 17.0996H16.2002V17.9996H15.3002C15.0517 17.9996 14.8502 18.2011 14.8502 18.4496C14.8502 18.6981 15.0517 18.8996 15.3002 18.8996H18.0002C18.2487 18.8996 18.4502 18.6981 18.4502 18.4496C18.4502 18.2011 18.2487 17.9996 18.0002 17.9996H17.1002V17.0996H18.4502ZM18.4502 16.1996H16.4783L17.8283 13.4996H18.4502V16.1996ZM14.8502 13.4996H16.8221L15.4721 16.1996H14.8502V13.4996Z" fill="#878987"/>
<path d="M16.6512 11.7008C16.8997 11.7008 17.1012 11.4993 17.1012 11.2508C17.1012 11.0023 16.8997 10.8008 16.6512 10.8008C16.4026 10.8008 16.2012 11.0023 16.2012 11.2508C16.2012 11.4993 16.4026 11.7008 16.6512 11.7008Z" fill="#878987"/>
<path d="M17.7278 10.44C17.877 10.6388 18.159 10.6791 18.3578 10.53C18.5567 10.3809 18.597 10.0988 18.4478 9.9C18.0229 9.33344 17.356 9 16.6478 9C15.9396 9 15.2728 9.33344 14.8478 9.9C14.6987 10.0988 14.739 10.3809 14.9378 10.53C15.1367 10.6791 15.4187 10.6388 15.5678 10.44C15.8228 10.1001 16.2229 9.9 16.6478 9.9C17.0728 9.9 17.4729 10.1001 17.7278 10.44Z" fill="#878987"/>
<path d="M14.2877 9.16815C14.8856 8.49011 15.7461 8.10168 16.6502 8.10168C17.5542 8.10168 18.4147 8.49011 19.0127 9.16815C19.1191 9.28873 19.2818 9.34336 19.4394 9.31148C19.597 9.2796 19.7257 9.16604 19.7769 9.01358C19.8281 8.86112 19.7941 8.69293 19.6877 8.57235C18.9188 7.70058 17.8125 7.20117 16.6502 7.20117C15.4878 7.20117 14.3815 7.70058 13.6127 8.57235C13.4481 8.75875 13.4659 9.04322 13.6523 9.20775C13.8387 9.37227 14.1231 9.35454 14.2877 9.16815Z" fill="#878987"/>
<path d="M24.3746 7.8504L22.8792 10.0941L22.3671 9.582C22.1905 9.41146 21.9099 9.4139 21.7363 9.58748C21.5627 9.76106 21.5603 10.0417 21.7308 10.2183L22.6308 11.1183C22.7152 11.2027 22.8296 11.2501 22.949 11.2502H22.994C23.128 11.2368 23.249 11.1642 23.3238 11.0522L25.1238 8.35215C25.213 8.21839 25.2241 8.04719 25.1529 7.90304C25.0817 7.75888 24.939 7.66368 24.7785 7.65329C24.618 7.64289 24.4642 7.71889 24.375 7.85265L24.3746 7.8504Z" fill="#878987"/>
<path d="M24.3746 14.1495L22.8792 16.3932L22.3671 15.8811C22.1905 15.7106 21.9099 15.713 21.7363 15.8866C21.5627 16.0602 21.5603 16.3409 21.7308 16.5174L22.6308 17.4174C22.7152 17.5018 22.8296 17.5493 22.949 17.5493C22.9638 17.5493 22.9782 17.5493 22.994 17.547C23.128 17.5337 23.249 17.4611 23.3238 17.349L25.1238 14.649C25.213 14.5153 25.2241 14.3441 25.1529 14.1999C25.0817 14.0558 24.939 13.9606 24.7785 13.9502C24.618 13.9398 24.4642 14.0158 24.375 14.1495H24.3746Z" fill="#878987"/>
<path d="M24.3746 20.4503L22.8792 22.694L22.3671 22.1819C22.1905 22.0114 21.9099 22.0138 21.7363 22.1874C21.5627 22.361 21.5603 22.6416 21.7308 22.8182L22.6308 23.7182C22.7152 23.8026 22.8296 23.85 22.949 23.8501C22.9638 23.8501 22.9782 23.8501 22.994 23.8478C23.128 23.8345 23.249 23.7619 23.3238 23.6498L25.1238 20.9498C25.213 20.816 25.2241 20.6448 25.1529 20.5007C25.0817 20.3565 24.939 20.2613 24.7785 20.2509C24.618 20.2406 24.4642 20.3165 24.375 20.4503H24.3746Z" fill="#878987"/>
<path d="M19.8002 20.25H15.3002C14.8031 20.25 14.4002 20.6529 14.4002 21.15V22.5C14.4018 22.9885 14.5641 23.4628 14.8619 23.85H14.4002C14.1517 23.85 13.9502 24.0515 13.9502 24.3C13.9502 24.5485 14.1517 24.75 14.4002 24.75H18.9002C19.1487 24.75 19.3502 24.5485 19.3502 24.3C19.3502 24.0515 19.1487 23.85 18.9002 23.85H18.4385C18.6431 23.5851 18.7853 23.2774 18.8547 22.95H19.3502C20.0958 22.95 20.7002 22.3456 20.7002 21.6V21.15C20.7002 20.6529 20.2973 20.25 19.8002 20.25ZM15.3002 22.5V21.15H18.0002V22.5C18.0002 23.2456 17.3958 23.85 16.6502 23.85C15.9046 23.85 15.3002 23.2456 15.3002 22.5ZM19.8002 21.6C19.8002 21.8485 19.5987 22.05 19.3502 22.05H18.9002V21.15H19.8002V21.6Z" fill="#878987"/>
</svg>
