<svg width="32" height="27" viewBox="0 0 32 27" fill="none" xmlns="http://www.w3.org/2000/svg">
<path d="M25.6645 24.0371H22.1468C21.9147 24.0371 21.7266 24.2253 21.7266 24.4574C21.7266 24.6895 21.9147 24.8777 22.1468 24.8777H25.6645C25.8966 24.8777 26.0847 24.6895 26.0847 24.4574C26.0847 24.2253 25.8966 24.0371 25.6645 24.0371Z" fill="#878987"/>
<path d="M22.1468 23.3132H24.4919C24.7241 23.3132 24.9122 23.1251 24.9122 22.8929C24.9122 22.6608 24.7241 22.4727 24.4919 22.4727H22.1468C21.9147 22.4727 21.7266 22.6608 21.7266 22.8929C21.7266 23.1251 21.9147 23.3132 22.1468 23.3132Z" fill="#878987"/>
<path d="M25.6645 20.9102H22.1468C21.9147 20.9102 21.7266 21.0983 21.7266 21.3304C21.7266 21.5626 21.9147 21.7507 22.1468 21.7507H25.6645C25.8966 21.7507 26.0847 21.5626 26.0847 21.3304C26.0847 21.0983 25.8966 20.9102 25.6645 20.9102Z" fill="#878987"/>
<path d="M30.5874 16.2341C30.5905 15.5039 30.3603 14.7919 29.9303 14.2017L29.4525 13.5555C31.8057 11.3588 32.5748 7.94567 31.3912 4.95198C30.2077 1.95823 27.3126 -0.00620279 24.0934 3.54915e-05C21.2335 -0.00857333 18.5984 1.5495 17.2277 4.05953C15.21 3.84045 13.1739 4.24943 11.3973 5.23071C10.0482 6.04069 9.30545 7.1143 9.2946 8.25758C9.29454 8.26089 9.29273 8.26364 9.29273 8.26694V8.28304C9.29273 8.28952 9.29123 8.29589 9.29129 8.30244C9.29136 8.30811 9.29267 8.31367 9.29273 8.31934V9.95377L8.17863 10.6223C8.09735 10.6712 8.0349 10.746 8.00153 10.8349L7.72798 11.5623L6.00915 11.6034C5.78756 11.6086 5.60815 11.7851 5.59935 12.0066L5.56511 12.8619L3.62301 12.9081C3.40142 12.9133 3.22201 13.0898 3.21321 13.3113L3.1736 14.2978L1.09257 14.3508C1.02002 14.3528 0.949217 14.3733 0.886959 14.4107L0.203867 14.8206C0.0742981 14.8984 -0.00355563 15.0397 0.000124955 15.1908L0.0514036 17.3422V19.0816L0.0504055 19.0861C0.0503431 19.0882 0.051466 19.09 0.0514036 19.0921V19.0996C0.0534622 19.1134 0.0562071 19.1271 0.0597005 19.1406C0.0619463 19.1809 0.0699937 19.2207 0.0835307 19.2587C0.092701 19.2759 0.103057 19.2924 0.114597 19.3079C0.130006 19.338 0.14897 19.3662 0.171054 19.3917C0.190081 19.4082 0.210605 19.4229 0.232251 19.4357C0.253773 19.4537 0.277042 19.4693 0.301746 19.4826C0.332189 19.4935 0.363754 19.5008 0.395881 19.5045C0.416093 19.511 0.436867 19.5158 0.457828 19.519L0.469181 19.5193L0.471552 19.5198L0.473298 19.5194L4.124 19.6285H4.1288L4.13492 19.6298C4.14028 19.6298 4.14477 19.6269 4.15008 19.6267C4.19362 19.6249 4.2366 19.6162 4.2774 19.601C4.29125 19.596 4.30485 19.5902 4.31807 19.5836C4.32949 19.5781 4.3419 19.5752 4.35282 19.5686L14.0414 13.7554C14.5077 13.8206 14.9779 13.8538 15.4488 13.8549C16.5 13.8554 17.5453 13.6982 18.5499 13.3885C19.0114 13.8534 19.5307 14.2572 20.0951 14.5899C19.8223 15.095 19.6791 15.6599 19.6785 16.234V25.4187C19.6443 26.2543 20.2914 26.9608 21.1269 27H29.1394C29.9747 26.9606 30.6215 26.2542 30.5873 25.4187V16.2341H30.5874ZM17.2022 6.58835C17.3203 5.92759 17.5352 5.28785 17.84 4.68979C19.1178 2.15274 21.8014 0.638773 24.6335 0.857113C27.4658 1.07539 29.8856 2.98274 30.7595 5.68567C31.6334 8.38853 30.7882 11.3515 28.6199 13.1866C27.8643 13.8326 26.9783 14.3079 26.0224 14.5802C25.5351 14.7206 25.0337 14.8064 24.5274 14.8359C24.3736 14.6268 24.341 14.3524 24.4415 14.1131C27.837 13.9242 30.4651 11.0666 30.3699 7.66713C30.2746 4.26764 27.4905 1.56173 24.0897 1.56329C21.8792 1.57121 19.8335 2.73359 18.6952 4.62847C18.319 5.25398 18.0566 5.94125 17.9203 6.6584C17.8634 6.95959 17.8297 7.26464 17.8194 7.571C17.5894 7.66551 17.3424 7.71186 17.0938 7.70718C17.0983 7.33176 17.1346 6.95753 17.2022 6.58835ZM20.5023 5.02098C20.2465 4.87538 19.9806 4.74805 19.7068 4.64001C20.9017 2.99928 22.9115 2.16135 24.918 2.46746C26.9245 2.77357 28.5931 4.17257 29.2444 6.09496C29.8958 8.01735 29.4212 10.1425 28.014 11.6052L26.8427 10.0194C26.4486 9.465 25.8131 9.13257 25.1329 9.12508H25.1325C24.4523 9.13281 23.8169 9.46544 23.4231 10.02L21.4963 12.6297C21.2811 12.5119 21.0742 12.3795 20.8771 12.2334C21.7534 11.6463 22.3146 10.6919 22.4015 9.64061L22.402 9.63811V7.89714L22.4028 7.88996C22.4362 6.76913 21.7611 5.75005 20.5023 5.02098ZM3.71477 18.7751L0.891949 18.6907V17.7743L3.71477 17.859V18.7751ZM4.02444 17.027L0.882342 16.933L0.846223 15.4153L1.22464 15.1883L3.58863 15.128C3.81003 15.1222 3.98894 14.9458 3.9978 14.7246L4.03741 13.739L5.97952 13.6928C6.2011 13.6876 6.38051 13.5111 6.38931 13.2896L6.42356 12.4342L8.03178 12.3959C8.20315 12.3918 8.35487 12.2841 8.41513 12.1236L8.7369 11.2677L10.247 10.3615C10.532 10.639 10.8506 10.8798 11.1953 11.0783C11.2259 11.0961 11.2595 11.1112 11.2906 11.1286L3.29861 15.9238C3.09961 16.0433 3.03511 16.3014 3.15457 16.5004C3.27404 16.6994 3.53218 16.7639 3.73118 16.6445L12.2169 11.5529C12.4126 11.6255 12.6151 11.6898 12.8223 11.7482L4.02444 17.027ZM13.5267 13.084L4.55532 18.4668V17.6889L13.5268 12.3059V13.084H13.5267ZM11.6175 10.3517C10.6716 9.80281 10.146 9.07885 10.1332 8.31173V8.27911C10.1353 7.44605 10.7519 6.59876 11.8296 5.9516C13.3588 5.11636 15.0967 4.74082 16.8342 4.87014C16.6606 5.2954 16.5253 5.73545 16.4302 6.18485C16.2863 6.23202 16.1475 6.29365 16.0161 6.36876C15.642 6.56009 15.3981 6.93619 15.376 7.35578C15.3964 7.74748 15.6248 8.09845 15.9746 8.27574C16.1638 8.38385 16.3703 8.45839 16.5849 8.49614C16.7638 8.53294 16.946 8.55141 17.1287 8.55116C17.5765 8.55646 18.0177 8.44311 18.4075 8.22265L18.4498 8.19495C18.7939 8.00986 19.0201 7.66245 19.0503 7.27293C19.0559 7.02403 18.9652 6.78254 18.7971 6.59889C18.8968 6.17063 19.0493 5.75641 19.2509 5.36558C19.5374 5.46982 19.8146 5.59758 20.08 5.74761C21.0538 6.31162 21.5787 7.0579 21.562 7.87742L21.5616 7.87929V7.90294C21.5264 8.71641 20.9269 9.51329 19.8732 10.1464C19.587 10.3162 19.2889 10.4652 18.9813 10.5921C18.5135 10.7822 18.0302 10.9316 17.5367 11.0387C17.5289 11.0397 17.5211 11.0411 17.5137 11.0428C15.3896 11.4971 13.1305 11.2326 11.6175 10.3517ZM16.2746 7.2317C16.2692 7.30182 16.2686 7.37406 16.2651 7.44505C16.2384 7.42003 16.2213 7.38653 16.2166 7.35029C16.2223 7.30544 16.2427 7.2637 16.2746 7.2317ZM18.5311 12.5184C17.191 12.9631 15.7701 13.1103 14.3673 12.95V12.0418C14.7277 12.08 15.0899 12.0994 15.4524 12.1C16.1968 12.1001 16.9392 12.0228 17.6676 11.8694C17.677 11.8681 17.6861 11.8663 17.6951 11.8644C18.2438 11.7465 18.7812 11.5808 19.301 11.3695C19.647 11.2268 19.982 11.0593 20.3037 10.8682C20.7601 10.601 21.1747 10.2681 21.5342 9.88022C21.4123 10.5954 20.8602 11.2892 19.9253 11.872C19.9117 11.8821 19.8994 11.8891 19.8727 11.9057C19.4481 12.1562 18.9985 12.3616 18.5311 12.5184ZM19.4233 13.0675C19.664 12.9632 19.8994 12.8451 20.1304 12.7162C20.4007 12.9385 20.6893 13.1377 20.993 13.3116L20.565 13.8912C20.1569 13.6571 19.7743 13.381 19.4233 13.0675ZM29.1395 26.1595H21.127C20.7566 26.119 20.4866 25.7898 20.5192 25.4187V16.2341C20.5167 15.6791 20.6919 15.138 21.0191 14.6897L24.0992 10.5197C24.3294 10.1737 24.7174 9.96575 25.133 9.96562C25.5486 9.9655 25.9366 10.1734 26.1669 10.5193L27.3843 12.1677C26.9263 12.5203 26.4141 12.7961 25.8676 12.9844C25.2509 12.6663 24.4994 12.781 24.0056 13.2687C23.948 13.3264 23.8955 13.3892 23.8489 13.4563C23.381 14.0874 23.4485 14.9665 24.0073 15.5188C24.0286 15.5408 24.0511 15.5616 24.0746 15.5812C24.3642 15.8416 24.74 15.9856 25.1294 15.9851C25.5564 15.9848 25.9656 15.8141 26.2663 15.511C26.3196 15.4549 26.3692 15.3954 26.4147 15.3329C27.279 15.0649 28.0895 14.6473 28.8094 14.099L29.2553 14.702C29.5781 15.1474 29.7503 15.6841 29.7469 16.2341V25.4187C29.7794 25.7897 29.5096 26.1187 29.1395 26.1595Z" fill="#878987"/>
</svg>
