<svg width="43" height="27" viewBox="0 0 43 27" fill="none" xmlns="http://www.w3.org/2000/svg">
<g opacity="0.7">
<path d="M36.7769 11.8803C38.0221 11.0053 38.8467 9.5497 38.8467 7.90901C38.8467 5.22499 36.6759 3.05422 33.9919 3.05422C31.3079 3.05422 29.1371 5.22499 29.1371 7.90901C29.1371 9.5497 29.9532 11.0053 31.2069 11.8803C30.1384 12.2505 29.1623 12.8227 28.3378 13.5631C27.2019 12.5955 25.8641 11.8551 24.4001 11.4176C26.1754 10.3406 27.3702 8.38018 27.3702 6.15052C27.3702 2.75132 24.6189 0 21.2197 0C17.8205 0 15.0692 2.75974 15.0692 6.15052C15.0692 8.38018 16.2555 10.3406 18.0393 11.4176C16.5921 11.8551 15.2711 12.5871 14.1437 13.5379C13.3191 12.8143 12.3599 12.2505 11.3082 11.8888C12.5534 11.0137 13.378 9.55812 13.378 7.91742C13.378 5.23341 11.2072 3.06264 8.52321 3.06264C5.8392 3.06264 3.66843 5.23341 3.66843 7.91742C3.66843 9.55812 4.48457 11.0137 5.73823 11.8888C2.39794 13.0414 0 16.2135 0 19.9408V20.4961C0 20.5129 0.0168277 20.5298 0.0336553 20.5298H10.3238C10.2649 20.9925 10.2312 21.4721 10.2312 21.9517V22.5238C10.2312 24.9975 12.2337 27 14.7074 27H27.7488C30.2225 27 32.225 24.9975 32.225 22.5238V21.9517C32.225 21.4721 32.1913 20.9925 32.1324 20.5298H42.4899C42.5067 20.5298 42.5235 20.5129 42.5235 20.4961V19.9408C42.5067 16.205 40.1172 13.033 36.7769 11.8803ZM30.4833 7.90059C30.4833 5.96541 32.0567 4.39202 33.9919 4.39202C35.9271 4.39202 37.5005 5.96541 37.5005 7.90059C37.5005 9.81053 35.9607 11.3671 34.0592 11.4092C34.034 11.4092 34.0171 11.4092 33.9919 11.4092C33.9666 11.4092 33.9498 11.4092 33.9246 11.4092C32.0146 11.3755 30.4833 9.81895 30.4833 7.90059ZM16.3986 6.15052C16.3986 3.50016 18.5525 1.34621 21.2029 1.34621C23.8532 1.34621 26.0072 3.50016 26.0072 6.15052C26.0072 8.70832 23.9963 10.8034 21.4805 10.9464C21.388 10.9464 21.2954 10.9464 21.2029 10.9464C21.1103 10.9464 21.0178 10.9464 20.9252 10.9464C18.4095 10.8034 16.3986 8.70832 16.3986 6.15052ZM4.9894 7.90059C4.9894 5.96541 6.56279 4.39202 8.49797 4.39202C10.4332 4.39202 12.0065 5.96541 12.0065 7.90059C12.0065 9.81053 10.4668 11.3671 8.56528 11.4092C8.54004 11.4092 8.52321 11.4092 8.49797 11.4092C8.47273 11.4092 8.4559 11.4092 8.43066 11.4092C6.52914 11.3755 4.9894 9.81895 4.9894 7.90059ZM10.5594 19.1751H1.36304C1.74166 15.5908 4.77064 12.7806 8.44749 12.7554C8.46432 12.7554 8.48114 12.7554 8.49797 12.7554C8.5148 12.7554 8.53163 12.7554 8.54846 12.7554C10.2985 12.7638 11.8972 13.4117 13.134 14.4634C11.9224 15.7759 11.0221 17.3914 10.5594 19.1751ZM30.8619 22.5238C30.8619 24.2487 29.4568 25.6538 27.732 25.6538H14.6906C12.9657 25.6538 11.5606 24.2487 11.5606 22.5238V21.9517C11.5606 16.7267 15.7339 12.4525 20.9252 12.301C21.0178 12.3094 21.1187 12.3094 21.2113 12.3094C21.3038 12.3094 21.4048 12.3094 21.4973 12.301C26.6887 12.4525 30.8619 16.7267 30.8619 21.9517V22.5238ZM31.8632 19.1751C31.4004 17.3998 30.517 15.8096 29.3138 14.497C30.559 13.4201 32.1745 12.7722 33.9414 12.7554C33.9582 12.7554 33.9751 12.7554 33.9919 12.7554C34.0087 12.7554 34.0255 12.7554 34.0424 12.7554C37.7192 12.7806 40.7482 15.5908 41.1268 19.1751H31.8632Z" fill="#878987"/>
</g>
</svg>
