<svg width="26" height="26" viewBox="0 0 26 26" fill="none" xmlns="http://www.w3.org/2000/svg">
<g clip-path="url(#clip0)">
<path d="M13.8542 1.4951C13.4197 1.41795 12.9721 1.48042 12.5752 1.67358C12.0632 1.35449 11.4006 1.41835 10.959 1.82946L9.53925 3.15876V3.04294C9.53925 1.84671 8.56949 0.876953 7.37306 0.876953C6.65536 0.876953 6.0735 1.45881 6.0735 2.17651V6.41964L5.01292 7.56986C4.71168 7.8951 4.54767 8.32405 4.55461 8.76729C4.54609 10.2774 4.65754 11.7862 4.88818 13.2787C4.8975 13.3128 4.91118 13.3456 4.92883 13.3763L4.22184 15.3652C3.95293 16.1055 4.22363 16.9339 4.87767 17.3727L5.12516 17.5409C4.87251 18.2773 5.14103 19.0917 5.78178 19.5338L12.7962 24.3425C12.9144 24.4234 12.9848 24.5573 12.9848 24.7003C12.9848 25.4182 13.5666 26 14.2843 26H20.5804C20.9756 26.001 21.3497 25.8207 21.595 25.511C21.8453 25.196 21.9361 24.7831 21.8411 24.3923L21.2087 22.053C20.9862 21.0306 20.9207 19.9804 21.0145 18.9384C21.3715 14.4109 18.3363 11.1403 17.5664 10.5719C16.1503 9.52802 15.094 8.43967 14.6677 7.58573C14.0287 6.30442 14.4594 5.42787 14.8757 4.58047C15.2249 3.86952 15.5863 3.13476 15.0736 2.36411C14.8027 1.92028 14.3623 1.60635 13.8542 1.4951ZM7.37306 1.74339C8.09096 1.74339 8.67281 2.32524 8.67281 3.04294V3.97006L6.93994 5.59207V2.17651C6.93994 2.06168 6.98555 1.95142 7.06686 1.87031C7.14797 1.789 7.25823 1.74339 7.37306 1.74339ZM5.42105 8.75558C5.41748 8.53407 5.49958 8.31969 5.6501 8.15727L6.79339 6.91523C6.8039 6.9063 6.81361 6.89698 6.82293 6.88707L9.36691 4.5065C9.3915 4.48786 9.41391 4.46664 9.43394 4.44324L11.5621 2.45038C11.7316 2.28538 12.0019 2.28538 12.1715 2.45038L12.201 2.42083C12.2115 2.43313 12.2228 2.44443 12.2347 2.45514L12.2074 2.49024C12.678 3.00011 12.6649 3.7896 12.178 4.2838L10.4741 5.91969L8.07489 8.08052C7.91902 8.24651 7.83711 8.46843 7.84743 8.69569C7.04128 8.8006 6.36166 9.34815 6.08778 10.1136L5.544 11.643C5.45694 10.5781 5.42918 9.37234 5.42105 8.75558ZM8.71009 8.67487L9.96205 7.54845C9.94559 7.92445 9.95928 8.30125 10.0033 8.67487H8.71009ZM5.03672 15.6607L6.90484 10.404C7.09185 9.88439 7.58585 9.53873 8.13816 9.54131H11.8558C11.9456 9.5419 12.0332 9.57006 12.1064 9.62202L14.349 11.2111C14.4366 11.2718 14.4898 11.3712 14.4914 11.4778C14.4921 11.5387 14.4763 11.5986 14.4455 11.6512C14.4303 11.6764 14.4104 11.7013 14.3922 11.7261L13.6886 11.2228C13.3225 10.9598 12.883 10.8186 12.4323 10.819H9.02284C8.10563 10.8204 7.28877 11.3995 6.98357 12.2646L5.42402 16.6965L5.3677 16.6584C5.04009 16.4422 4.90325 16.0298 5.03672 15.6607ZM14.0999 4.20407C13.6622 5.09391 13.0635 6.31295 13.8944 7.97839C14.5586 9.30968 16.159 10.6154 17.054 11.2742C17.6293 11.6976 20.4799 14.7215 20.1524 18.8756C20.0513 20.0107 20.1243 21.1548 20.369 22.2677L21.0014 24.6072C21.031 24.7356 21.0004 24.8704 20.9185 24.9737C20.8366 25.0769 20.7121 25.1371 20.5804 25.1375H14.2821C14.043 25.1375 13.849 24.9434 13.849 24.7042C13.8496 24.2757 13.6388 23.8745 13.2858 23.6315L6.27182 18.8228C5.94857 18.6003 5.81451 18.1888 5.9448 17.8186L7.80023 12.5505C7.98347 12.0325 8.47251 11.6857 9.02204 11.6841H12.4315C12.7018 11.6839 12.9653 11.7686 13.1849 11.9262L15.1851 13.3581C15.3257 13.4604 15.3649 13.6528 15.2761 13.8021C15.0944 14.1067 14.7958 14.3231 14.4501 14.4012C14.1042 14.4791 13.7415 14.4117 13.4468 14.2146L12.5804 13.6363C12.3674 13.4929 12.1163 13.4166 11.8595 13.417H10.5253C9.96126 13.4136 9.46052 13.7775 9.28977 14.3151C9.26418 14.396 9.22769 14.4966 9.18664 14.6096C8.8747 15.4717 8.14688 17.489 9.79825 18.1513C9.94321 18.2158 10.1118 18.1957 10.2377 18.0994C10.3636 18.003 10.4267 17.8455 10.4023 17.6889C10.3779 17.532 10.2698 17.4013 10.1207 17.3476C9.39408 17.056 9.54738 16.1597 10.0015 14.9047C10.0473 14.7782 10.0882 14.6669 10.1159 14.5767C10.1737 14.4 10.3394 14.2812 10.5253 14.2834H11.8591C11.9442 14.2834 12.0273 14.3088 12.0979 14.3562L12.9643 14.9351C13.4566 15.2637 14.062 15.3761 14.6393 15.246C15.2166 15.1159 15.7154 14.7546 16.019 14.2467C16.3367 13.7097 16.1931 13.0189 15.6876 12.6533L15.0954 12.2273C15.127 12.184 15.1613 12.1408 15.188 12.0974C15.5097 11.5607 15.3626 10.867 14.8511 10.5071L12.6092 8.91543C12.3888 8.75955 12.1257 8.67547 11.8558 8.67487H10.8761C10.786 8.00397 10.8079 7.32257 10.9403 6.65861L12.7862 4.90333C13.4536 4.23283 13.6087 3.20675 13.1692 2.36887C13.6285 2.2243 14.1255 2.42618 14.3541 2.84978C14.5689 3.17304 14.4485 3.4945 14.0999 4.20407Z" fill="#4A3A2F"/>
<path d="M12.2581 18.2059C12.1111 18.1569 11.9491 18.19 11.8331 18.2927C11.7171 18.3954 11.6647 18.5523 11.6956 18.7042C11.7268 18.8561 11.8364 18.9799 11.9834 19.0291C12.9833 19.3642 15.5792 20.5666 15.5792 22.0837C15.5792 22.3229 15.7732 22.5168 16.0123 22.5168C16.2517 22.5168 16.4457 22.3229 16.4457 22.0837C16.4443 19.6311 12.4292 18.2618 12.2581 18.2059Z" fill="#4A3A2F"/>
<path d="M15.1847 16.6203C15.0909 16.4969 14.9386 16.4331 14.7851 16.4527C14.6314 16.4724 14.4999 16.5723 14.4402 16.7151C14.3803 16.8579 14.4012 17.0217 14.495 17.1448C15.1559 18.0113 16.2556 19.0485 17.7402 19.0485C17.9795 19.0485 18.1735 18.8545 18.1735 18.6151C18.1735 18.376 17.9795 18.182 17.7402 18.182C16.6104 18.182 15.7283 17.3324 15.1847 16.6203Z" fill="#4A3A2F"/>
<path d="M15.4809 0.145118L15.0681 0.578435C14.9552 0.689293 14.9118 0.852902 14.9548 1.00501C14.9978 1.15731 15.1206 1.27412 15.2747 1.30942C15.429 1.34492 15.5902 1.29356 15.6953 1.17536L16.1082 0.742045C16.2211 0.631187 16.2645 0.467577 16.2214 0.315272C16.1784 0.163165 16.0557 0.0463576 15.9016 0.0110577C15.7473 -0.0244406 15.586 0.0269228 15.4809 0.145118Z" fill="#4A3A2F"/>
<path d="M17.5317 2.08983C17.5008 1.97917 17.427 1.88537 17.3267 1.82905C17.2265 1.77273 17.1079 1.75845 16.9973 1.78959L16.4341 1.94824C16.2239 2.00535 16.0886 2.20962 16.1183 2.42558C16.1481 2.64135 16.3335 2.80138 16.5515 2.7996C16.5913 2.7996 16.631 2.79405 16.6693 2.78314L17.2325 2.62489C17.3431 2.59375 17.4369 2.51978 17.4931 2.41943C17.5492 2.31908 17.5631 2.20049 17.5317 2.08983Z" fill="#4A3A2F"/>
<path d="M16.3247 3.85217C16.0943 3.78752 15.8551 3.92178 15.7905 4.15222C15.7256 4.38266 15.8601 4.62183 16.0903 4.68648L16.6535 4.84513C16.692 4.85584 16.7317 4.86139 16.7715 4.86119C16.9879 4.86099 17.1711 4.70115 17.2005 4.48677C17.2298 4.2722 17.0964 4.06912 16.8879 4.01062L16.3247 3.85217Z" fill="#4A3A2F"/>
</g>
<defs>
<clipPath id="clip0">
<rect width="26" height="26" fill="white"/>
</clipPath>
</defs>
</svg>
