<svg width="42" height="42" viewBox="0 0 42 42" fill="none" xmlns="http://www.w3.org/2000/svg">
<path d="M21 0C9.40203 0 0 9.40203 0 21C0 32.598 9.40203 42 21 42C32.598 42 42 32.598 42 21C41.9877 9.40721 32.5929 0.0123926 21 0ZM32.5605 14.5605L17.5605 29.5606C16.9747 30.1462 16.0252 30.1462 15.4395 29.5606L9.43947 23.5605C8.84357 22.985 8.82704 22.0354 9.40255 21.4395C9.97806 20.8436 10.9276 20.8271 11.5235 21.4026C11.536 21.4148 11.5483 21.427 11.5604 21.4395L16.5 26.3791L30.4396 12.4395C31.0355 11.864 31.985 11.8805 32.5605 12.4764C33.122 13.0577 33.122 13.9792 32.5605 14.5605Z" fill="#018E42"/>
</svg>
