<svg width="24" height="32" viewBox="0 0 24 32" fill="none" xmlns="http://www.w3.org/2000/svg">
<path d="M1.56521 7.30469C0.702267 7.30469 0 8.00695 0 8.8699V13.0438C0 13.9068 0.702267 14.609 1.56521 14.609C2.42816 14.609 3.13043 13.9068 3.13043 13.0438V8.8699C3.13043 8.00695 2.42816 7.30469 1.56521 7.30469ZM2.08699 13.0438C2.08699 13.3317 1.85325 13.5655 1.56527 13.5655C1.2773 13.5655 1.04356 13.3317 1.04356 13.0438V8.86984C1.04356 8.58187 1.2773 8.34812 1.56527 8.34812C1.85325 8.34812 2.08699 8.58187 2.08699 8.86984V13.0438Z" fill="#3E432F"/>
<path d="M22.4348 7.30469C21.5719 7.30469 20.8696 8.00695 20.8696 8.8699V13.0438C20.8696 13.9068 21.5719 14.609 22.4348 14.609C23.2978 14.609 24.0001 13.9068 24.0001 13.0438V8.8699C24.0001 8.00695 23.2978 7.30469 22.4348 7.30469ZM22.9566 13.0438C22.9566 13.3317 22.7228 13.5655 22.4348 13.5655C22.1469 13.5655 21.9131 13.3317 21.9131 13.0438V8.86984C21.9131 8.58187 22.1469 8.34812 22.4348 8.34812C22.7228 8.34812 22.9566 8.58187 22.9566 8.86984V13.0438Z" fill="#3E432F"/>
<path d="M22.465 7.79269C21.0782 3.20453 16.7749 0 12 0C7.22505 0 2.92175 3.20453 1.53495 7.79269C1.45149 8.06819 1.60746 8.35983 1.88345 8.4428C2.15999 8.52681 2.4506 8.37029 2.53405 8.0943C3.78886 3.9433 7.68104 1.0435 12 1.0435C16.3189 1.0435 20.2111 3.9433 21.4659 8.0943C21.5342 8.32021 21.7414 8.46524 21.9651 8.46524C22.0152 8.46524 22.0658 8.4579 22.1165 8.4428C22.3925 8.35983 22.5485 8.06813 22.465 7.79269Z" fill="#3E432F"/>
<path d="M22.4346 13.5645C22.1466 13.5645 21.9129 13.7976 21.9129 14.0862C21.9129 15.5246 20.7427 16.6949 19.3042 16.6949C19.0162 16.6949 18.7825 16.9281 18.7825 17.2166C18.7825 17.5051 19.0162 17.7383 19.3042 17.7383C21.3181 17.7383 22.9563 16.0996 22.9563 14.0862C22.9563 13.7976 22.7226 13.5645 22.4346 13.5645Z" fill="#3E432F"/>
<path d="M18.2608 15.1309H15.1304C14.2675 15.1309 13.5652 15.8331 13.5652 16.6961V17.7396C13.5652 18.6025 14.2675 19.3048 15.1304 19.3048H18.2608C19.1238 19.3048 19.826 18.6025 19.826 17.7396V16.6961C19.826 15.8331 19.1238 15.1309 18.2608 15.1309ZM18.7825 17.7395C18.7825 18.0275 18.5488 18.2612 18.2608 18.2612H15.1304C14.8424 18.2612 14.6087 18.0275 14.6087 17.7395V16.696C14.6087 16.408 14.8424 16.1743 15.1304 16.1743H18.2608C18.5488 16.1743 18.7825 16.408 18.7825 16.696V17.7395Z" fill="#3E432F"/>
<path d="M12.0001 2.60938C7.39681 2.60938 3.65234 6.35439 3.65234 10.9572C3.65234 15.5599 7.39681 19.3049 12.0001 19.3049C12.8516 19.3049 13.6947 19.1761 14.5061 18.9215C14.6741 18.8683 14.8045 18.7342 14.852 18.5646C14.8995 18.3945 14.8582 18.2124 14.7419 18.0794C14.6814 18.0105 14.6088 17.8952 14.6088 17.7397V16.6962C14.6088 16.4083 14.8426 16.1745 15.1306 16.1745H18.25C18.4144 16.1745 18.5688 16.0978 18.6674 15.9669C19.7668 14.5055 20.348 12.7733 20.348 10.9572C20.3479 6.35439 16.6034 2.60938 12.0001 2.60938ZM17.9844 15.1311H15.1306C14.2676 15.1311 13.5653 15.8334 13.5653 16.6963V17.7398C13.5653 17.8561 13.5789 17.9715 13.605 18.0836C13.0791 18.202 12.5417 18.2615 12.0001 18.2615C7.97233 18.2615 4.69578 14.985 4.69578 10.9572C4.69578 6.9293 7.97233 3.65281 12.0001 3.65281C16.0279 3.65281 19.3045 6.92936 19.3045 10.9572C19.3045 12.4598 18.849 13.8977 17.9844 15.1311Z" fill="#3E432F"/>
<path d="M17.4196 20.3477H6.57941C3.23927 20.3477 0.521484 23.0654 0.521484 26.4056V30.7824C0.521484 31.071 0.755227 31.3042 1.0432 31.3042H22.9562C23.2442 31.3042 23.4779 31.071 23.4779 30.7824V26.4056C23.478 23.0654 20.7603 20.3477 17.4196 20.3477ZM22.4345 30.2607H1.56498V26.4055C1.56498 23.6408 3.81473 21.3911 6.57941 21.3911H17.4201C20.1848 21.3911 22.4345 23.6403 22.4345 26.4055V30.2607Z" fill="#4A3A2F"/>
<path d="M5.21752 26.6094C4.92954 26.6094 4.6958 26.8426 4.6958 27.1311V30.7832C4.6958 31.0718 4.92954 31.305 5.21752 31.305C5.50549 31.305 5.73924 31.0718 5.73924 30.7832V27.1311C5.73924 26.8426 5.50549 26.6094 5.21752 26.6094Z" fill="#3E432F"/>
<path d="M19.3042 26.6094C19.0162 26.6094 18.7825 26.8426 18.7825 27.1311V30.7832C18.7825 31.0718 19.0162 31.305 19.3042 31.305C19.5922 31.305 19.8259 31.0718 19.8259 30.7832V27.1311C19.8259 26.8426 19.5922 26.6094 19.3042 26.6094Z" fill="#3E432F"/>
</svg>
