<svg width="12" height="12" viewBox="0 0 12 12" fill="none" xmlns="http://www.w3.org/2000/svg">
<path d="M8.62435 12C8.23699 12 7.85292 11.9315 7.47735 11.7951C5.82277 11.194 4.28698 10.2151 3.03593 8.96405C1.78489 7.71303 0.805949 6.17721 0.204919 4.52264C0.0117783 3.99091 -0.0452193 3.44203 0.0355664 2.89118C0.111243 2.3752 0.31111 1.87429 0.613582 1.44259C0.91739 1.00899 1.32242 0.648348 1.78487 0.399663C2.27802 0.134479 2.81629 0 3.38476 0C3.56157 0 3.71438 0.123534 3.75143 0.296402L4.34001 3.04314C4.36666 3.16752 4.32844 3.29693 4.23851 3.38688L3.23278 4.39259C4.18154 6.27891 5.72104 7.8184 7.60735 8.76716L8.61306 7.76143C8.70298 7.6715 8.83242 7.63333 8.9568 7.65993L11.7035 8.24851C11.8764 8.28556 11.9999 8.43837 11.9999 8.61518C11.9999 9.18365 11.8655 9.72194 11.6003 10.2151C11.3516 10.6775 10.9909 11.0826 10.5573 11.3864C10.1257 11.6889 9.62474 11.8887 9.10874 11.9644C8.94705 11.9881 8.78539 12 8.62435 12ZM3.08515 0.766375C2.3353 0.849153 1.66975 1.24218 1.22778 1.87298C0.730788 2.58228 0.614894 3.45471 0.909819 4.2666C2.06533 7.44755 4.55244 9.93465 7.73339 11.0902C8.54525 11.3851 9.4177 11.2692 10.127 10.7722C10.7578 10.3302 11.1508 9.66469 11.2336 8.91484L8.99915 8.43603L7.94882 9.48636C7.83705 9.59813 7.66723 9.62782 7.52422 9.56061C5.2933 8.51252 3.48746 6.70669 2.43938 4.47577C2.37219 4.33274 2.40186 4.16291 2.51363 4.05117L3.56396 3.00084L3.08515 0.766375Z" fill="#989595"/>
<path d="M11.6252 6.37474C11.4181 6.37474 11.2502 6.20684 11.2502 5.99975C11.2502 3.10501 8.89515 0.749969 6.00041 0.749969C5.79333 0.749969 5.62543 0.58207 5.62543 0.374985C5.62543 0.167899 5.79333 0 6.00041 0C7.60303 0 9.10969 0.624068 10.2429 1.75727C11.3761 2.89048 12.0002 4.39714 12.0002 5.99975C12.0002 6.20684 11.8323 6.37474 11.6252 6.37474Z" fill="#989595"/>
<path d="M10.1252 6.3748C9.91816 6.3748 9.75026 6.2069 9.75026 5.99981C9.75026 3.93215 8.06808 2.24997 6.00041 2.24997C5.79333 2.24997 5.62543 2.08207 5.62543 1.87498C5.62543 1.6679 5.79333 1.5 6.00041 1.5C8.48161 1.5 10.5002 3.51861 10.5002 5.99981C10.5002 6.2069 10.3324 6.3748 10.1252 6.3748Z" fill="#989595"/>
<path d="M8.6253 6.37486C8.41822 6.37486 8.25032 6.20696 8.25032 5.99988C8.25032 4.75926 7.24102 3.74997 6.00041 3.74997C5.79333 3.74997 5.62543 3.58207 5.62543 3.37498C5.62543 3.1679 5.79333 3 6.00041 3C7.65456 3 9.00029 4.34573 9.00029 5.99988C9.00029 6.20696 8.83241 6.37486 8.6253 6.37486Z" fill="#989595"/>
</svg>
