<svg width="18" height="18" viewBox="0 0 18 18" fill="none" xmlns="http://www.w3.org/2000/svg">
<path d="M17.3661 0H0.633816C0.283757 0 0 0.283756 0 0.633816V10.0458C0 10.3958 0.283757 10.6796 0.633816 10.6796H17.3662C17.7162 10.6796 18 10.3958 18 10.0458V0.633816C17.9999 0.283756 17.7162 0 17.3661 0ZM16.7324 9.41196H1.26763V1.26763H16.7324V9.41196Z" fill="#575957"/>
<path d="M17.3661 11.5039H13.183C12.833 11.5039 12.5492 11.7877 12.5492 12.1377V13.5955H11.7253V12.1377C11.7253 11.7877 11.4415 11.5039 11.0915 11.5039H6.9084C6.5584 11.5039 6.27458 11.7877 6.27458 12.1377V13.5955H5.45071V12.1377C5.45071 11.7877 5.16689 11.5039 4.81689 11.5039H0.633816C0.283757 11.5039 0 11.7877 0 12.1377V15.275C0 15.625 0.283757 15.9089 0.633816 15.9089H3.13732V17.3666C3.13732 17.7166 3.42108 18.0004 3.77114 18.0004H7.95422C8.30421 18.0004 8.58803 17.7167 8.58803 17.3666V15.9089H9.41197V17.3666C9.41197 17.7166 9.69572 18.0004 10.0458 18.0004H14.2289C14.5789 18.0004 14.8627 17.7167 14.8627 17.3666V15.9089H17.3662C17.7162 15.9089 18 15.625 18 15.275V12.1377C17.9999 11.7877 17.7162 11.5039 17.3661 11.5039ZM3.13732 14.2292V14.6412H1.26763V12.7715H4.18314V13.5955H3.77114C3.42108 13.5955 3.13732 13.8792 3.13732 14.2292ZM7.3204 16.7328H4.40489V14.8631H7.3204V16.7328ZM8.58797 14.6412V14.2292C8.58797 13.8792 8.30421 13.5954 7.95415 13.5954H7.54216V12.7715H10.4577V13.5954H10.0457C9.69566 13.5954 9.41185 13.8792 9.41185 14.2292V14.6412H8.58797ZM13.595 16.7328H10.6795V14.8631H13.595V16.7328ZM16.7324 14.6412H14.8627V14.2292C14.8627 13.8792 14.5789 13.5954 14.2289 13.5954H13.8169V12.7715H16.7324V14.6412Z" fill="#575957"/>
<path d="M7.12867 7.99097C7.22237 8.04115 7.32522 8.066 7.4277 8.066C7.55067 8.066 7.67328 8.03024 7.77934 7.95951L10.9167 5.86794C11.093 5.75043 11.1989 5.55255 11.1989 5.34061C11.1989 5.12867 11.093 4.9308 10.9167 4.81328L7.77934 2.72177C7.58497 2.59208 7.33479 2.57984 7.12867 2.69032C6.92261 2.80062 6.79395 3.01541 6.79395 3.24911V7.43218C6.79395 7.66588 6.92267 7.88066 7.12867 7.99097ZM8.06158 4.4334L9.42254 5.34067L8.06158 6.24794V4.4334Z" fill="#575957"/>
</svg>
