<svg width="12" height="12" viewBox="0 0 12 12" fill="none" xmlns="http://www.w3.org/2000/svg">
<path d="M11.5774 0H0.422544C0.189171 0 0 0.189171 0 0.422544V6.69719C0 6.93052 0.189171 7.11973 0.422544 7.11973H11.5775C11.8108 7.11973 12 6.93056 12 6.69719V0.422544C12 0.189171 11.8108 0 11.5774 0ZM11.1549 6.27464H0.845088V0.845088H11.1549V6.27464Z" fill="#989595"/>
<path d="M11.5774 7.66992H8.7887C8.55536 7.66992 8.36615 7.85909 8.36615 8.09247V9.0643H7.81686V8.09247C7.81686 7.85913 7.62765 7.66992 7.39432 7.66992H4.6056C4.37227 7.66992 4.18306 7.85909 4.18306 8.09247V9.0643H3.63381V8.09247C3.63381 7.85913 3.44459 7.66992 3.21126 7.66992H0.422544C0.189171 7.66992 0 7.85913 0 8.09247V10.184C0 10.4173 0.189171 10.6066 0.422544 10.6066H2.09155V11.5784C2.09155 11.8117 2.28072 12.0009 2.51409 12.0009H5.30281C5.53614 12.0009 5.72535 11.8118 5.72535 11.5784V10.6066H6.27465V11.5784C6.27465 11.8117 6.46382 12.0009 6.69719 12.0009H9.48591C9.71924 12.0009 9.90845 11.8118 9.90845 11.5784V10.6066H11.5775C11.8108 10.6066 12 10.4173 12 10.184V8.09247C12 7.85913 11.8108 7.66992 11.5774 7.66992ZM2.09155 9.48681V9.76147H0.845088V8.51501H2.78876V9.0643H2.51409C2.28072 9.0643 2.09155 9.25347 2.09155 9.48681ZM4.88027 11.1559H2.9366V9.90939H4.88027V11.1559ZM5.72531 9.76147V9.48681C5.72531 9.25347 5.53614 9.06426 5.30277 9.06426H5.0281V8.51497H6.97177V9.06426H6.69711C6.46378 9.06426 6.27456 9.25347 6.27456 9.48681V9.76147H5.72531ZM9.06336 11.1559H7.11969V9.90939H9.06336V11.1559ZM11.1549 9.76147H9.90845V9.48681C9.90845 9.25347 9.71924 9.06426 9.48591 9.06426H9.21124V8.51497H11.1549V9.76147Z" fill="#989595"/>
<path d="M4.75245 5.32601C4.81491 5.35946 4.88348 5.37603 4.9518 5.37603C5.03378 5.37603 5.11552 5.35219 5.18622 5.30504L7.27777 3.91066C7.39535 3.83232 7.46593 3.7004 7.46593 3.55911C7.46593 3.41781 7.39535 3.2859 7.27777 3.20755L5.18622 1.81321C5.05665 1.72675 4.88986 1.71859 4.75245 1.79224C4.61507 1.86578 4.5293 2.00897 4.5293 2.16477V4.95349C4.5293 5.10928 4.61511 5.25247 4.75245 5.32601ZM5.37438 2.9543L6.28169 3.55915L5.37438 4.16399V2.9543Z" fill="#989595"/>
</svg>
