<svg width="11" height="12" viewBox="0 0 11 12" fill="none" xmlns="http://www.w3.org/2000/svg">
<path d="M10.0728 1.27614H5.36194V0.216295C5.36194 0.0968459 5.2651 0 5.14565 0C5.0262 0 4.92936 0.0968459 4.92936 0.216295V1.27614H0.216295C0.0968459 1.27614 0 1.37298 0 1.49243C0 1.61188 0.0968459 1.70873 0.216295 1.70873H0.843549V8.38574C0.843549 8.50519 0.940395 8.60204 1.05984 8.60204H4.92936V9.41963L2.88537 11.6193C2.79461 11.697 2.78398 11.8336 2.86166 11.9243C2.93931 12.0151 3.07587 12.0257 3.16663 11.948C3.17867 11.9377 3.18951 11.9262 3.19903 11.9135L4.92938 10.0534V11.7664C4.92938 11.8859 5.02623 11.9827 5.14568 11.9827C5.26513 11.9827 5.36197 11.8859 5.36197 11.7664V10.0534L7.09233 11.9135C7.16757 12.0063 7.30378 12.0205 7.39657 11.9453C7.48936 11.87 7.50359 11.7338 7.42834 11.641C7.4221 11.6334 7.41536 11.6261 7.40812 11.6193L5.36197 9.41744V8.60201H9.22932C9.34877 8.60201 9.44561 8.50517 9.44561 8.38572V1.70873H10.0729C10.1923 1.70873 10.2892 1.61188 10.2892 1.49243C10.2892 1.37298 10.1923 1.27614 10.0728 1.27614ZM1.2783 8.16945V1.70873H9.013L9.01516 8.16945H1.2783Z" fill="#989595"/>
</svg>
