<svg width="16" height="12" viewBox="0 0 16 12" fill="none" xmlns="http://www.w3.org/2000/svg">
<path d="M7.88365 9.27539C7.12976 9.27539 6.51645 9.88671 6.51645 10.6377C6.51645 11.389 7.12976 12.0006 7.88365 12.0006C8.63779 12.0006 9.2511 11.389 9.2511 10.6377C9.2511 9.88671 8.63767 9.27539 7.88365 9.27539Z" fill="#989595"/>
<path d="M11.2193 7.41883C10.3292 6.52922 9.14438 6.03906 7.88355 6.03906C6.62756 6.03906 5.44597 6.52598 4.55611 7.41C4.1967 7.76766 4.19608 8.35037 4.55461 8.70865C4.72878 8.88307 4.96067 8.97886 5.20749 8.97886C5.45319 8.97886 5.6842 8.88357 5.85812 8.71064C6.39965 8.17247 7.11896 7.87602 7.88355 7.87602C8.651 7.87602 9.37229 8.17434 9.9142 8.71574C10.0884 8.88966 10.3201 8.9857 10.5667 8.9857C10.8126 8.9857 11.0435 8.89041 11.2176 8.71749C11.5775 8.35979 11.5781 7.77736 11.2193 7.41883Z" fill="#989595"/>
<path d="M15.5043 3.14764C13.4692 1.11765 10.7626 0 7.88337 0C5.00802 0 2.30409 1.11503 0.269708 3.14021C-0.0896954 3.49787 -0.0899442 4.08058 0.269211 4.43887C0.443252 4.61241 0.674769 4.70783 0.921089 4.70783C1.16728 4.70783 1.39855 4.61278 1.57259 4.43936C3.25889 2.7609 5.50004 1.83633 7.88337 1.83633C10.2702 1.83633 12.5136 2.76277 14.2002 4.44571C14.3743 4.61938 14.6062 4.71517 14.8524 4.71517C15.0984 4.71517 15.3297 4.61963 15.5036 4.44646C15.8632 4.08851 15.8635 3.50559 15.5043 3.14764Z" fill="#989595"/>
<path d="M13.3072 5.33672C11.8587 3.89152 9.93239 3.0957 7.88321 3.0957C5.83775 3.0957 3.91434 3.88903 2.46702 5.32913C2.29273 5.50243 2.19681 5.73295 2.19644 5.9784C2.19644 6.2236 2.29198 6.45437 2.46603 6.62791C2.64007 6.80158 2.87171 6.89737 3.11803 6.89737C3.36398 6.89737 3.59524 6.80183 3.76953 6.62891C4.86902 5.53502 6.33002 4.93241 7.88321 4.93241C9.43963 4.93241 10.9026 5.53714 12.0029 6.63475C12.1771 6.80867 12.4087 6.90446 12.6551 6.90446C12.9012 6.90446 13.1326 6.80892 13.3064 6.63575C13.4804 6.46245 13.5766 6.23193 13.5767 5.98648C13.5769 5.74103 13.4811 5.51051 13.3072 5.33672Z" fill="#989595"/>
</svg>
