<svg width="24" height="24" viewBox="0 0 24 24" fill="none" xmlns="http://www.w3.org/2000/svg">
<circle cx="12" cy="12" r="12" fill="#E7E7E7"/>
<path d="M12 9.36101L11.5907 8.77794C11.3907 8.49295 11.1674 8.25397 10.9261 8.06164L10.926 8.06162C10.4532 7.68487 9.92796 7.5 9.3522 7.5C8.56862 7.5 7.85142 7.82108 7.32451 8.40987L12 9.36101ZM12 9.36101L12.4092 8.77796M12 9.36101L12.4092 8.77796M12.4092 8.77796C12.6094 8.49285 12.8326 8.25393 13.0739 8.06159C13.5468 7.68485 14.0721 7.5 14.6478 7.5C15.4314 7.5 16.1485 7.82109 16.6754 8.40991C17.1985 8.99456 17.5 9.80912 17.5 10.7157C17.5 11.6223 17.1784 12.4722 16.4203 13.4146L16.4203 13.4146C15.727 14.2766 14.7207 15.1623 13.5009 16.2333L13.5008 16.2333L13.4899 16.2429C13.0798 16.6031 12.6133 17.0128 12.129 17.4491L12.1288 17.4494C12.0913 17.4831 12.0455 17.5 12 17.5C11.9546 17.5 11.9088 17.4832 11.8711 17.4492L11.8708 17.4489C11.3829 17.0094 10.9133 16.597 10.5011 16.2351L10.4994 16.2336L10.4994 16.2336M12.4092 8.77796L10.4994 16.2336M10.4994 16.2336C9.27942 15.1624 8.27312 14.2766 7.5798 13.4147C6.82172 12.4722 6.5 11.6223 6.5 10.7157C6.5 9.80913 6.80145 8.99456 7.32447 8.40991L10.4994 16.2336Z" stroke="#4A3A2F"/>
</svg>
